G04 EasyPC Gerber Version 21.0.3 Build 4286 *
G04 #@! TF.Part,Single*
G04 #@! TF.FileFunction,Copper,L2,Bot *
G04 #@! TF.FilePolarity,Positive *
%FSLAX45Y45*%
%MOIN*%
G04 #@! TA.AperFunction,SMDPad*
%ADD13R,0.02559X0.03937*%
%ADD96R,0.03150X0.03543*%
%ADD97R,0.03150X0.03937*%
%ADD95R,0.03543X0.05118*%
%ADD98R,0.29134X0.29134*%
G04 #@! TA.AperFunction,ComponentPad*
%ADD138R,0.05315X0.05315*%
%ADD82R,0.10630X0.10630*%
G04 #@! TD.AperFunction*
%ADD10C,0.00500*%
%ADD73C,0.00787*%
%ADD11C,0.01000*%
%ADD71C,0.01181*%
G04 #@! TA.AperFunction,ViaPad*
%ADD20C,0.02362*%
%ADD85C,0.03200*%
%ADD84C,0.04800*%
G04 #@! TA.AperFunction,ComponentPad*
%ADD139C,0.05315*%
%ADD14C,0.06693*%
%ADD81C,0.10236*%
%ADD83C,0.10630*%
G04 #@! TA.AperFunction,WasherPad*
%ADD75C,0.21654*%
X0Y0D02*
D02*
D10*
X167503Y137374D02*
G75*
G02X145666Y143242I-10130J5868D01*
G01*
G75*
G02X151505Y153372I11707*
G01*
X29382*
G75*
G02X35221Y143242I-5868J-10130*
G01*
G75*
G02X13385Y137374I-11707*
G01*
Y46748*
G75*
G02X35221Y40880I10130J-5868*
G01*
G75*
G02X29382Y30750I-11707*
G01*
X84561*
G75*
G02X83595Y31180I76J1469*
G01*
X82811Y31964*
G75*
G02X82379Y33006I1038J1041*
G01*
Y33307*
X81690*
Y39004*
X86009*
Y33689*
X87792*
Y39004*
X88973*
Y39957*
X87792*
Y45654*
X89564*
Y49148*
G75*
G02X89791Y49874I1274J0*
G01*
G75*
G02X88961Y49836I-528J2422*
G01*
Y49406*
X84052*
Y54567*
X82335*
G75*
G02X77728Y55841I-2128J1274*
G01*
G75*
G02X80509Y58302I2480*
G01*
Y63020*
X81200*
G75*
G02X81630Y63969I1468J-93*
G01*
X82414Y64753*
G75*
G02X83456Y65185I1041J-1038*
G01*
X93378*
X95703Y67510*
G75*
G02X96746Y67941I1040J-1040*
G01*
X102827*
X102839Y67953*
X92528*
G75*
G02X88568Y66057I-2478J93*
G01*
Y65591*
X84249*
Y67364*
G75*
G02X84031Y67539I683J1075*
G01*
X82465Y69104*
Y65591*
X78331*
Y60171*
G75*
G02X77958Y59270I-1274*
G01*
X76707Y58019*
G75*
G02X76782Y57415I-2405J-604*
G01*
G75*
G02X71822I-2480*
G01*
G75*
G02X74906Y59820I2480*
G01*
X75784Y60699*
Y65416*
G75*
G02X75596Y65176I-1089J661*
G01*
X72054Y61633*
G75*
G02X71152Y61260I-901J900*
G01*
X67211*
X65595Y59644*
Y59543*
G75*
G02X66802Y57415I-1274J-2128*
G01*
G75*
G02X61842I-2480*
G01*
G75*
G02X63048Y59543I2480*
G01*
Y60171*
G75*
G02X63422Y61072I1274*
G01*
X65783Y63433*
G75*
G02X66684Y63807I901J-900*
G01*
X70625*
X73422Y66604*
Y73557*
G75*
G02X73796Y74458I1274*
G01*
X75763Y76426*
G75*
G02X76664Y76799I901J-900*
G01*
X78146*
Y78374*
X82083*
Y93242*
G75*
G02X82457Y94143I1274*
G01*
X82920Y94607*
G75*
G02X87443Y96502I2405J604*
G01*
G75*
G02X91098Y96484I1820J-1685*
G01*
X100587*
Y99801*
X100152Y100236*
X90578*
X90164Y99822*
G75*
G02X89263Y99449I-901J900*
G01*
X85853*
X78062Y91658*
G75*
G02X78357Y90486I-2185J-1172*
G01*
G75*
G02X73397I-2480*
G01*
G75*
G02X75766Y92964I2480*
G01*
X84424Y101622*
G75*
G02X85306Y101996I901J-900*
G01*
G75*
G02X85672Y105354I1988J1482*
G01*
X84631*
Y105053*
G75*
G02X84257Y104152I-1274*
G01*
X82683Y102578*
G75*
G02X82433Y102383I-902J899*
G01*
G75*
G02X77728Y103478I-2225J1095*
G01*
G75*
G02X78585Y105354I2480*
G01*
X78146*
Y106929*
X77999*
X75595Y104526*
Y98913*
G75*
G02X76802Y96785I-1274J-2128*
G01*
G75*
G02X71842I-2480*
G01*
G75*
G02X73048Y98913I2480*
G01*
Y105053*
G75*
G02X73099Y105410I1274J1*
G01*
G75*
G02X72727Y105354I-372J1218*
G01*
X67349*
X65595Y103600*
Y98913*
G75*
G02X66802Y96785I-1274J-2128*
G01*
G75*
G02X61842I-2480*
G01*
G75*
G02X63048Y98913I2480*
G01*
Y104128*
G75*
G02X63422Y105029I1274*
G01*
X65920Y107528*
G75*
G02X66822Y107902I901J-900*
G01*
X72200*
X75391Y111093*
Y113715*
G75*
G02X75764Y114616I1274*
G01*
X76944Y115796*
G75*
G02X77845Y116169I901J-900*
G01*
X78146*
Y117744*
X82465*
Y115018*
X83243Y115796*
G75*
G02X84144Y116169I901J-900*
G01*
X84249*
Y117744*
X88568*
Y112047*
X84631*
Y111051*
X88568*
Y105606*
G75*
G02X89656Y102721I-1274J-2128*
G01*
G75*
G02X90050Y102783I394J-1211*
G01*
X100680*
G75*
G02X101581Y102410J-1274*
G01*
X102761Y101230*
G75*
G02X103135Y100329I-900J-901*
G01*
Y92061*
G75*
G02X102761Y91160I-1274*
G01*
X101975Y90374*
G75*
G02X101166Y90004I-901J900*
G01*
Y88425*
X96847*
Y93937*
X95064*
Y88425*
X92088*
G75*
G02X91644Y87429I-2432J487*
G01*
X95064*
Y81732*
X91885*
G75*
G02X92135Y80736I-2228J-1089*
G01*
X95064*
Y75039*
X90745*
Y76618*
G75*
G02X89936Y76988I92J1270*
G01*
X88756Y78168*
G75*
G02X88561Y78419I899J902*
G01*
G75*
G02X88448Y82809I1095J2225*
G01*
G75*
G02X88148Y86943I1209J2165*
G01*
G75*
G02X90260Y91317I1508J1969*
G01*
X90745Y91801*
Y92829*
G75*
G02X87145Y93526I-1482J1988*
G01*
G75*
G02X84722Y92806I-1820J1685*
G01*
X84631Y92715*
Y78374*
X88568*
Y75425*
X89198Y74813*
G75*
G02X91278Y70500I458J-2437*
G01*
X102162*
Y76573*
X102121Y76614*
X101166*
Y75039*
X96847*
Y80736*
X101166*
Y79161*
X102648*
G75*
G02X103550Y78788J-1274*
G01*
X103934Y78404*
Y111137*
X99677Y115394*
X96919*
G75*
G02X90707Y116864I-2932J1470*
G01*
G75*
G02X93784Y120138I3280*
G01*
X86625*
Y151031*
X117519*
Y120138*
X94190*
G75*
G02X96919Y118335I-203J-3274*
G01*
X100286*
G75*
G02X101328Y117902I0J-1470*
G01*
X106443Y112788*
G75*
G02X106875Y111746I-1038J-1041*
G01*
Y68439*
G75*
G02X106443Y67397I-1470J0*
G01*
X104478Y65432*
G75*
G02X104273Y65261I-1041J1040*
G01*
G75*
G02X105916Y62927I-837J-2334*
G01*
G75*
G02X105913Y62823I-2480J4*
G01*
X106087*
Y62232*
X107280*
Y63020*
X111599*
Y57323*
X107280*
Y58110*
X106087*
Y57520*
X101178*
Y61902*
G75*
G02X102074Y65000I2258J1026*
G01*
X97352*
X95175Y62823*
X97032*
Y57520*
X92123*
Y58110*
X90930*
Y57323*
X86611*
Y62244*
X84828*
Y57323*
X82196*
G75*
G02X82335Y57114I-1988J-1483*
G01*
X91231*
G75*
G02X92132Y56741J-1274*
G01*
X93706Y55167*
G75*
G02X93837Y55014I-901J-901*
G01*
X95701Y56879*
G75*
G02X96743Y57311I1041J-1038*
G01*
X113013*
Y63390*
X118072*
Y57989*
X118107Y58024*
Y67436*
X116963Y68580*
G75*
G02X116532Y69620I1040J1040*
G01*
G75*
G02Y69621I627J0*
G01*
G75*
G02Y69623I632J1*
G01*
Y112140*
G75*
G02X118003Y113610I1470*
G01*
X119091*
Y114988*
X123410*
Y109291*
X119473*
Y108665*
X123780*
Y102228*
X119473*
Y101972*
X123780*
Y95535*
X119473*
Y94909*
X123410*
Y89213*
X119473*
Y88217*
X123410*
Y82520*
X119473*
Y81894*
X123780*
Y75457*
X119473*
Y70229*
X120168Y69534*
X120898Y70265*
G75*
G02X121940Y70697I1041J-1038*
G01*
X128811*
X131099Y72985*
Y76678*
G75*
G02X130573Y77205I1470J1997*
G01*
X129513*
Y75827*
X125194*
Y81524*
X129513*
Y80146*
X130573*
G75*
G02X131646Y80977I1997J-1470*
G01*
G75*
G02X129709Y83150I530J2423*
G01*
X129513*
Y82520*
X125194*
Y88217*
X129513*
Y86012*
X130388*
G75*
G02X130902Y89858I1788J1719*
G01*
Y90156*
X130270Y90787*
X129513*
Y89213*
X125194*
Y94909*
X129513*
Y93335*
X130798*
G75*
G02X131699Y92961J-1274*
G01*
X133076Y91584*
G75*
G02X133450Y90683I-900J-901*
G01*
Y89858*
G75*
G02X133385Y85565I-1274J-2128*
G01*
G75*
G02X133099Y81098I-1209J-2165*
G01*
G75*
G02X134567Y80146I-530J-2423*
G01*
X138654*
X140548Y82040*
Y89178*
G75*
G02X139539Y91175I1470J1997*
G01*
G75*
G02X144498I2480*
G01*
G75*
G02X143489Y89178I-2480*
G01*
Y81434*
G75*
G02Y81432I-641J-1*
G01*
G75*
G02Y81431I-654J0*
G01*
G75*
G02X143058Y80391I-1470*
G01*
X140302Y77635*
G75*
G02X139259Y77205I-1040J1040*
G01*
X134567*
G75*
G02X134040Y76678I-1997J1470*
G01*
Y72376*
G75*
G02X133608Y71334I-1470J0*
G01*
X132320Y70046*
G75*
G02X134237Y65524I644J-2395*
G01*
Y63610*
X135615*
Y56732*
X130312*
Y63610*
X131690*
Y65524*
G75*
G02X130569Y68295I1274J2128*
G01*
X130462Y68188*
G75*
G02X129420Y67756I-1041J1038*
G01*
X125347*
G75*
G02X126914Y63610I-257J-2467*
G01*
X127741*
Y56732*
X122438*
Y63610*
X123265*
G75*
G02X124832Y67756I1825J1679*
G01*
X122549*
X121048Y66255*
Y57419*
G75*
G02Y57416I-641J-1*
G01*
G75*
G02Y57415I-654J0*
G01*
G75*
G02X120617Y56376I-1470*
G01*
X119043Y54801*
G75*
G02X118000Y54370I-1040J1040*
G01*
X106056*
G75*
G02X108278Y51904I-257J-2467*
G01*
G75*
G02X105497Y49442I-2480*
G01*
Y49406*
X100587*
Y54370*
X97352*
X96245Y53263*
Y48782*
G75*
G02X97134Y46024I-1470J-1997*
G01*
X102127*
Y39587*
X96477*
Y44983*
G75*
G02X96245Y44789I-1704J1803*
G01*
Y33689*
X97438*
Y39004*
X101757*
Y33307*
X101068*
Y32219*
G75*
G02X99673Y30750I-1470*
G01*
X151505*
G75*
G02X145666Y40880I5868J10130*
G01*
G75*
G02X167503Y46748I11707*
G01*
Y137374*
X150906Y99837D02*
G75*
G02X158721I3907D01*
G01*
G75*
G02X150906I-3907*
G01*
X151276Y79752D02*
X158351D01*
Y72677*
X151276*
Y79752*
Y84089D02*
G75*
G02X158351I3537D01*
G01*
G75*
G02X151276I-3537*
G01*
Y91963D02*
G75*
G02X158351I3537D01*
G01*
G75*
G02X151276I-3537*
G01*
X41713Y62140D02*
G75*
G02X50906I4596D01*
G01*
G75*
G02X41713I-4596*
G01*
Y72140D02*
G75*
G02X50906I4596D01*
G01*
G75*
G02X41713I-4596*
G01*
Y82140D02*
G75*
G02X50906I4596D01*
G01*
G75*
G02X41713I-4596*
G01*
X50574Y150707D02*
X81467D01*
Y119813*
X53157*
X48857Y115512*
G75*
G02X48371Y108450I-2547J-3372*
G01*
Y105830*
G75*
G02Y98450I-2061J-3690*
G01*
Y95830*
G75*
G02X46310Y87913I-2061J-3690*
G01*
G75*
G02X44249Y95830J4226*
G01*
Y98450*
G75*
G02Y105830I2061J3690*
G01*
Y108450*
G75*
G02Y115830I2061J3690*
G01*
Y115880*
G75*
G02X44855Y117339I2061*
G01*
X50574Y123058*
Y150707*
X132286Y103627D02*
G75*
G02X132257Y99376I-1291J-2117D01*
G01*
G75*
G02X131895Y98640I-1263J165*
G01*
X131109Y97854*
G75*
G02X130207Y97480I-901J900*
G01*
X129513*
Y95906*
X125194*
Y101602*
X128517*
G75*
G02X128767Y102598I2478J-93*
G01*
X125194*
Y108295*
X126080*
Y109291*
X125194*
Y114988*
X129513*
Y109291*
X128627*
Y108295*
X129513*
Y107675*
G75*
G02X132286Y103627I1089J-2228*
G01*
X129351Y145211D02*
G75*
G02X142087I6368D01*
G01*
G75*
G02X129351I-6368*
G01*
X129721Y119620D02*
G75*
G02X141717I5998D01*
G01*
G75*
G02X129721I-5998*
G01*
X16237Y82770D02*
G75*
G02X28627I6195D01*
G01*
G75*
G02X16237I-6195*
G01*
Y104555D02*
X28627D01*
Y92165*
X16237*
Y104555*
X79942Y46024D02*
X85591D01*
Y39587*
X79942*
Y46024*
X96477Y87799D02*
X101536D01*
Y81362*
X96477*
Y87799*
X109237Y44926D02*
G75*
G02X113002Y42805I1285J-2121D01*
G01*
G75*
G02X109237Y40684I-2480*
G01*
Y39957*
X108646*
Y36943*
G75*
G02X108273Y36042I-1274*
G01*
X107859Y35628*
Y33307*
X103540*
Y39004*
X106099*
Y39957*
X104328*
Y45654*
X109237*
Y44926*
X83813Y31000D02*
G36*
G75*
G02X83595Y31180I822J1217D01*
G01*
X82811Y31964*
G75*
G02X82379Y33006I1038J1041*
G01*
Y33006*
Y33307*
X81690*
Y39004*
X86009*
Y33689*
X87792*
Y39004*
X88973*
Y39957*
X87792*
Y42805*
X85591*
Y39587*
X79942*
Y42805*
X35062*
G75*
G02X35221Y40880I-11548J-1926*
G01*
G75*
G02X29794Y31000I-11707*
G01*
X83813*
G37*
X145826Y42805D02*
G36*
X113002D01*
G75*
G02X109237Y40684I-2480J0*
G01*
Y39957*
X108646*
Y36943*
G75*
G02X108273Y36042I-1275J1*
G01*
X107859Y35628*
Y33307*
X103540*
Y39004*
X106099*
Y39957*
X104328*
Y42805*
X102127*
Y39587*
X96477*
Y42805*
X96245*
Y33689*
X97438*
Y39004*
X101757*
Y33307*
X101068*
Y32219*
G75*
G02X100420Y31000I-1471J0*
G01*
X151093*
G75*
G02X145666Y40880I6280J9880*
G01*
G75*
G02X145826Y42805I11707J0*
G01*
G37*
X87792D02*
G36*
Y45654D01*
X89564*
Y49148*
G75*
G02X89791Y49874I1276J0*
G01*
G75*
G02X88961Y49836I-528J2420*
G01*
Y49406*
X84052*
Y54567*
X82335*
G75*
G02X77728Y55841I-2128J1274*
G01*
Y55841*
G75*
G02X80509Y58302I2480*
G01*
Y62140*
X78331*
Y60171*
G75*
G02X77958Y59270I-1275J1*
G01*
X76707Y58019*
G75*
G02X76782Y57415I-2416J-606*
G01*
G75*
G02X71822I-2480*
G01*
G75*
G02X74906Y59820I2480*
G01*
X75784Y60699*
Y62140*
X72560*
X72054Y61633*
G75*
G02X71152Y61260I-902J902*
G01*
X67211*
X65595Y59644*
Y59543*
G75*
G02X66802Y57416I-1272J-2127*
G01*
G75*
G02Y57415I-2820J0*
G01*
G75*
G02X61842I-2480*
G01*
G75*
G02X63048Y59543I2480*
G01*
Y60171*
G75*
G02X63422Y61072I1275J-1*
G01*
X64489Y62140*
X50906*
G75*
G02X41713I-4596*
G01*
X13635*
Y47159*
G75*
G02X35062Y42805I9880J-6280*
G01*
X79942*
Y46024*
X85591*
Y42805*
X87792*
G37*
X96477D02*
G36*
Y44983D01*
G75*
G02X96245Y44789I-1617J1699*
G01*
Y42805*
X96477*
G37*
X113013Y62140D02*
G36*
X111599D01*
Y57323*
X107280*
Y58110*
X106087*
Y57520*
X101178*
Y61902*
G75*
G02X101084Y62140I2257J1026*
G01*
X97032*
Y57520*
X92123*
Y58110*
X90930*
Y57323*
X86611*
Y62140*
X84828*
Y57323*
X82196*
G75*
G02X82335Y57114I-2111J-1565*
G01*
X91231*
G75*
G02X92132Y56741I-1J-1275*
G01*
X93706Y55167*
G75*
G02X93837Y55014I-883J-886*
G01*
X95701Y56879*
G75*
G02X96743Y57311I1041J-1038*
G01*
X113013*
Y62140*
G37*
X118107D02*
G36*
X118072D01*
Y57989*
X118107Y58024*
Y62140*
G37*
X167253Y47159D02*
G36*
Y62140D01*
X135615*
Y56732*
X130312*
Y62140*
X127741*
Y56732*
X122438*
Y62140*
X121048*
Y57419*
Y57416*
Y57415*
Y57415*
G75*
G02X120617Y56376I-1470*
G01*
X119043Y54801*
G75*
G02X118000Y54370I-1040J1040*
G01*
X106056*
G75*
G02X108278Y51904I-257J-2466*
G01*
Y51903*
G75*
G02X105497Y49442I-2480*
G01*
Y49406*
X100587*
Y54370*
X97352*
X96245Y53263*
Y48782*
G75*
G02X97254Y46786I-1470J-1996*
G01*
G75*
G02X97134Y46024I-2480*
G01*
X102127*
Y42805*
X104328*
Y45654*
X109237*
Y44926*
G75*
G02X113002Y42805I1285J-2121*
G01*
X145826*
G75*
G02X167253Y47159I11547J-1926*
G01*
G37*
X75552Y76215D02*
G36*
X48437D01*
G75*
G02X50906Y72140I-2127J-4075*
G01*
G75*
G02X41713I-4596*
G01*
G75*
G02X44183Y76215I4596*
G01*
X13635*
Y62140*
X41713*
G75*
G02X50906I4596*
G01*
X64489*
X65783Y63433*
G75*
G02X66684Y63807I902J-902*
G01*
X70625*
X73422Y66604*
Y73557*
G75*
G02X73796Y74458I1275J-1*
G01*
X75552Y76215*
G37*
X75784Y62140D02*
G36*
Y65416D01*
G75*
G02X75596Y65176I-1094J665*
G01*
X72560Y62140*
X75784*
G37*
X80509D02*
G36*
Y63020D01*
X81200*
G75*
G02X81630Y63969I1469J-93*
G01*
X82414Y64753*
G75*
G02X83456Y65185I1041J-1038*
G01*
X93378*
X95703Y67510*
G75*
G02X96746Y67941I1040J-1040*
G01*
X102827*
X102839Y67953*
X92528*
G75*
G02X88568Y66057I-2478J93*
G01*
Y65591*
X84249*
Y67364*
G75*
G02X84031Y67539I696J1092*
G01*
X82465Y69104*
Y65591*
X78331*
Y62140*
X80509*
G37*
X86611D02*
G36*
Y62244D01*
X84828*
Y62140*
X86611*
G37*
X102162Y76215D02*
G36*
X101166D01*
Y75039*
X96847*
Y76215*
X95064*
Y75039*
X90745*
Y76215*
X88568*
Y75425*
X89198Y74813*
G75*
G02X92136Y72376I458J-2437*
G01*
G75*
G02X91278Y70500I-2480*
G01*
X102162*
Y76215*
G37*
X101084Y62140D02*
G36*
G75*
G02X100956Y62927I2351J787D01*
G01*
G75*
G02X102074Y65000I2480*
G01*
X97352*
X95175Y62823*
X97032*
Y62140*
X101084*
G37*
X116532Y76215D02*
G36*
X106875D01*
Y68439*
Y68439*
G75*
G02X106443Y67397I-1470*
G01*
X104478Y65432*
G75*
G02X104273Y65261I-1026J1022*
G01*
G75*
G02X105916Y62927I-837J-2335*
G01*
G75*
G02X105913Y62823I-3499J27*
G01*
X106087*
Y62232*
X107280*
Y63020*
X111599*
Y62140*
X113013*
Y63390*
X118072*
Y62140*
X118107*
Y67436*
X116963Y68580*
G75*
G02X116532Y69620I1039J1039*
G01*
Y69620*
Y69621*
Y69623*
Y76215*
G37*
X131099D02*
G36*
X129513D01*
Y75827*
X125194*
Y76215*
X123780*
Y75457*
X119473*
Y70229*
X120168Y69534*
X120898Y70265*
G75*
G02X121940Y70697I1041J-1038*
G01*
X128811*
X131099Y72985*
Y76215*
G37*
X122438Y62140D02*
G36*
Y63610D01*
X123265*
G75*
G02X122609Y65289I1824J1679*
G01*
G75*
G02X124832Y67756I2480*
G01*
X122549*
X121048Y66255*
Y62140*
X122438*
G37*
X130312D02*
G36*
Y63610D01*
X131690*
Y65524*
G75*
G02X130483Y67652I1274J2128*
G01*
G75*
G02X130569Y68295I2480J0*
G01*
X130462Y68188*
G75*
G02X129420Y67756I-1041J1038*
G01*
X125347*
G75*
G02X127569Y65289I-257J-2467*
G01*
G75*
G02X126914Y63610I-2480*
G01*
X127741*
Y62140*
X130312*
G37*
X158351Y76215D02*
G36*
Y72677D01*
X151276*
Y76215*
X134040*
Y72376*
Y72376*
G75*
G02X133608Y71334I-1470*
G01*
X132320Y70046*
G75*
G02X135443Y67652I644J-2395*
G01*
G75*
G02X134237Y65524I-2480*
G01*
Y63610*
X135615*
Y62140*
X167253*
Y76215*
X158351*
G37*
X75552D02*
G36*
X75763Y76426D01*
G75*
G02X76664Y76799I902J-902*
G01*
X78146*
Y78374*
X82083*
Y84089*
X50473*
G75*
G02X50906Y82140I-4163J-1948*
G01*
G75*
G02X41713I-4596*
G01*
G75*
G02X42147Y84089I4596J0*
G01*
X28485*
G75*
G02X28627Y82770I-6053J-1319*
G01*
G75*
G02X16237I-6195*
G01*
G75*
G02X16379Y84089I6195J0*
G01*
X13635*
Y76215*
X44183*
G75*
G02X48437I2127J-4075*
G01*
X75552*
G37*
X87340Y84089D02*
G36*
X84631D01*
Y78374*
X88568*
Y76215*
X90745*
Y76618*
G75*
G02X89936Y76988I92J1270*
G01*
X88756Y78168*
G75*
G02X88561Y78419I899J901*
G01*
G75*
G02X87176Y80644I1096J2225*
G01*
G75*
G02X88448Y82809I2480*
G01*
G75*
G02X87340Y84089I1209J2165*
G01*
G37*
X103934D02*
G36*
X101536D01*
Y81362*
X96477*
Y84089*
X95064*
Y81732*
X91885*
G75*
G02X92135Y80736I-2228J-1089*
G01*
X95064*
Y76215*
X96847*
Y80736*
X101166*
Y79161*
X102648*
G75*
G02X103550Y78788I-1J-1275*
G01*
X103934Y78404*
Y84089*
G37*
X102162Y76215D02*
G36*
Y76573D01*
X102121Y76614*
X101166*
Y76215*
X102162*
G37*
X116532D02*
G36*
Y84089D01*
X106875*
Y76215*
X116532*
G37*
X125194Y84089D02*
G36*
X123410D01*
Y82520*
X119473*
Y81894*
X123780*
Y76215*
X125194*
Y81524*
X129513*
Y80146*
X130573*
G75*
G02X131646Y80977I1995J-1468*
G01*
G75*
G02X129709Y83150I530J2423*
G01*
X129513*
Y82520*
X125194*
Y84089*
G37*
X131099Y76215D02*
G36*
Y76678D01*
G75*
G02X130573Y77205I1469J1995*
G01*
X129513*
Y76215*
X131099*
G37*
X140548Y84089D02*
G36*
X134558D01*
G75*
G02X134656Y83400I-2382J-689*
G01*
G75*
G02X133099Y81098I-2480*
G01*
G75*
G02X134567Y80146I-530J-2422*
G01*
X138654*
X140548Y82040*
Y84089*
G37*
X143489D02*
G36*
Y81434D01*
Y81432*
Y81431*
Y81431*
G75*
G02X143058Y80391I-1470*
G01*
X140302Y77635*
G75*
G02X139259Y77205I-1040J1040*
G01*
X134567*
G75*
G02X134040Y76678I-1995J1469*
G01*
Y76215*
X151276*
Y79752*
X158351*
Y76215*
X167253*
Y84089*
X158351*
G75*
G02X151276I-3537*
G01*
X143489*
G37*
X78367Y91963D02*
G36*
X78062Y91658D01*
G75*
G02X78357Y90486I-2186J-1172*
G01*
G75*
G02X73397I-2480*
G01*
G75*
G02X73884Y91963I2480*
G01*
X50533*
G75*
G02X46310Y87913I-4223J177*
G01*
G75*
G02X42087Y91963J4226*
G01*
X13635*
Y84089*
X16379*
G75*
G02X28485I6053J-1319*
G01*
X42147*
G75*
G02X50473I4163J-1949*
G01*
X82083*
Y91963*
X78367*
G37*
X90745D02*
G36*
X84631D01*
Y84089*
X87340*
G75*
G02X87177Y84974I2317J885*
G01*
G75*
G02X88148Y86943I2480J0*
G01*
G75*
G02X87176Y88911I1508J1969*
G01*
G75*
G02X90260Y91317I2480*
G01*
X90745Y91801*
Y91963*
G37*
X103934D02*
G36*
X103131D01*
G75*
G02X102761Y91160I-1271J99*
G01*
X101975Y90374*
G75*
G02X101166Y90004I-901J900*
G01*
Y88425*
X96847*
Y91963*
X95064*
Y88425*
X92088*
G75*
G02X91644Y87429I-2434J487*
G01*
X95064*
Y84089*
X96477*
Y87799*
X101536*
Y84089*
X103934*
Y91963*
G37*
X116532D02*
G36*
X106875D01*
Y84089*
X116532*
Y91963*
G37*
X125194Y84089D02*
G36*
Y88217D01*
X129513*
Y86012*
X130388*
G75*
G02X129696Y87730I1788J1719*
G01*
G75*
G02X130902Y89858I2480*
G01*
Y90156*
X130270Y90787*
X129513*
Y89213*
X125194*
Y91963*
X123410*
Y89213*
X119473*
Y88217*
X123410*
Y84089*
X125194*
G37*
X139667Y91963D02*
G36*
X132698D01*
X133076Y91584*
G75*
G02X133450Y90683I-902J-902*
G01*
Y89858*
G75*
G02X134656Y87730I-1274J-2128*
G01*
G75*
G02X133385Y85565I-2480*
G01*
G75*
G02X134558Y84089I-1209J-2165*
G01*
X140548*
Y89178*
G75*
G02X139539Y91174I1469J1996*
G01*
G75*
G02Y91175I2148J0*
G01*
G75*
G02X139667Y91963I2480*
G01*
G37*
X144370D02*
G36*
G75*
G02X144498Y91175I-2352J-787D01*
G01*
G75*
G02Y91174I-2148J0*
G01*
G75*
G02X143489Y89178I-2478*
G01*
Y84089*
X151276*
G75*
G02X158351I3537*
G01*
X167253*
Y91963*
X158351*
G75*
G02X151276I-3537*
G01*
X144370*
G37*
X42087D02*
G36*
G75*
G02X42083Y92140I4225J173D01*
G01*
G75*
G02X44249Y95830I4226*
G01*
Y98450*
G75*
G02X42766Y99837I2061J3690*
G01*
X28627*
Y92165*
X16237*
Y99837*
X13635*
Y91963*
X42087*
G37*
X82639Y99837D02*
G36*
X75595D01*
Y98913*
G75*
G02X76802Y96786I-1272J-2127*
G01*
G75*
G02Y96785I-2820J0*
G01*
G75*
G02X71842I-2480*
G01*
G75*
G02X73048Y98913I2480*
G01*
Y99837*
X65595*
Y98913*
G75*
G02X66802Y96786I-1272J-2127*
G01*
G75*
G02Y96785I-2820J0*
G01*
G75*
G02X61842I-2480*
G01*
G75*
G02X63048Y98913I2480*
G01*
Y99837*
X49854*
G75*
G02X48371Y98450I-3544J2303*
G01*
Y95830*
G75*
G02X50536Y92140I-2061J-3690*
G01*
G75*
G02X50533Y91963I-4229J-4*
G01*
X73884*
G75*
G02X75766Y92964I1993J-1476*
G01*
X82639Y99837*
G37*
X90745Y91963D02*
G36*
Y92829D01*
G75*
G02X87145Y93526I-1482J1988*
G01*
G75*
G02X84722Y92806I-1820J1686*
G01*
X84631Y92715*
Y91963*
X90745*
G37*
X100552Y99837D02*
G36*
X90178D01*
X90164Y99822*
G75*
G02X89263Y99449I-902J902*
G01*
X85853*
X78367Y91963*
X82083*
Y93242*
G75*
G02X82457Y94143I1275J-1*
G01*
X82920Y94607*
G75*
G02X82846Y95211I2406J605*
G01*
G75*
G02X87443Y96502I2480*
G01*
G75*
G02X91098Y96484I1820J-1684*
G01*
X100587*
Y99801*
X100552Y99837*
G37*
X96847Y91963D02*
G36*
Y93937D01*
X95064*
Y91963*
X96847*
G37*
X116532Y99837D02*
G36*
X106875D01*
Y91963*
X116532*
Y99837*
G37*
X103934D02*
G36*
X103135D01*
Y92061*
G75*
G02X103131Y91963I-1275J2*
G01*
X103934*
Y99837*
G37*
X144370Y91963D02*
G36*
X151276D01*
G75*
G02X158351I3537*
G01*
X167253*
Y99837*
X158721*
G75*
G02X150906I-3907*
G01*
X132825*
G75*
G02X132257Y99376I-1830J1673*
G01*
G75*
G02X131895Y98640I-1263J165*
G01*
X131109Y97854*
G75*
G02X130207Y97480I-902J902*
G01*
X129513*
Y95906*
X125194*
Y99837*
X123780*
Y95535*
X119473*
Y94909*
X123410*
Y91963*
X125194*
Y94909*
X129513*
Y93335*
X130798*
G75*
G02X131699Y92961I-1J-1275*
G01*
X132698Y91963*
X139667*
G75*
G02X144370I2352J-787*
G01*
G37*
X47135Y119620D02*
G36*
X13635D01*
Y99837*
X16237*
Y104555*
X28627*
Y99837*
X42766*
G75*
G02X42083Y102140I3544J2303*
G01*
G75*
G02X44249Y105830I4226*
G01*
Y108450*
G75*
G02X42083Y112140I2061J3690*
G01*
G75*
G02X44249Y115830I4226*
G01*
Y115880*
G75*
G02X44855Y117339I2061*
G01*
X47135Y119620*
G37*
X73048Y99837D02*
G36*
Y105053D01*
G75*
G02Y105056I1361J2*
G01*
G75*
G02X73099Y105410I1259*
G01*
G75*
G02X72727Y105354I-370J1202*
G01*
X67349*
X65595Y103600*
Y99837*
X73048*
G37*
X82639D02*
G36*
X84424Y101622D01*
G75*
G02X85306Y101996I901J-900*
G01*
G75*
G02X84814Y103478I1988J1482*
G01*
G75*
G02X85672Y105354I2480*
G01*
X84631*
Y105053*
G75*
G02X84257Y104152I-1275J1*
G01*
X82683Y102578*
G75*
G02X82433Y102383I-901J899*
G01*
G75*
G02X77728Y103478I-2225J1095*
G01*
G75*
G02X78585Y105354I2481J0*
G01*
X78146*
Y106929*
X77999*
X75595Y104526*
Y99837*
X82639*
G37*
X103934D02*
G36*
Y111137D01*
X99677Y115394*
X96919*
G75*
G02X90707Y116864I-2932J1470*
G01*
G75*
G02Y116865I4511J0*
G01*
G75*
G02X92208Y119620I3279*
G01*
X52965*
X48857Y115512*
G75*
G02X50536Y112140I-2547J-3372*
G01*
G75*
G02X48371Y108450I-4226*
G01*
Y105830*
G75*
G02X50536Y102140I-2061J-3690*
G01*
G75*
G02X49854Y99837I-4226*
G01*
X63048*
Y104128*
G75*
G02X63422Y105029I1275J-1*
G01*
X65920Y107528*
G75*
G02X66822Y107902I902J-902*
G01*
X72200*
X75391Y111093*
Y113715*
G75*
G02X75764Y114616I1275J-1*
G01*
X76944Y115796*
G75*
G02X77845Y116169I902J-902*
G01*
X78146*
Y117744*
X82465*
Y115018*
X83243Y115796*
G75*
G02X84144Y116169I902J-902*
G01*
X84249*
Y117744*
X88568*
Y112047*
X84631*
Y111051*
X88568*
Y105606*
G75*
G02X89774Y103478I-1274J-2128*
G01*
G75*
G02X89656Y102721I-2480*
G01*
G75*
G02X90050Y102783I395J-1213*
G01*
X100680*
G75*
G02X101581Y102410I-1J-1275*
G01*
X102761Y101230*
G75*
G02X103135Y100329I-902J-902*
G01*
Y99837*
X103934*
G37*
X100552D02*
G36*
X100152Y100236D01*
X90578*
X90178Y99837*
X100552*
G37*
X123780D02*
G36*
X125194D01*
Y101602*
X128517*
G75*
G02X128767Y102598I2478J-93*
G01*
X125194*
Y108295*
X126080*
Y109291*
X125194*
Y114988*
X129513*
Y109291*
X128627*
Y108295*
X129513*
Y107675*
G75*
G02X133081Y105447I1089J-2228*
G01*
G75*
G02X132286Y103627I-2480J0*
G01*
G75*
G02X133475Y101510I-1291J-2117*
G01*
G75*
G02X132825Y99837I-2480*
G01*
X150906*
G75*
G02X158721I3907*
G01*
X167253*
Y119620*
X141717*
G75*
G02X129721I-5998*
G01*
X95766*
G75*
G02X96919Y118335I-1778J-2755*
G01*
X100286*
G75*
G02X101328Y117902I0J-1470*
G01*
X106443Y112788*
G75*
G02X106875Y111746I-1038J-1041*
G01*
Y111746*
Y99837*
X116532*
Y112140*
G75*
G02X118003Y113610I1470*
G01*
X119091*
Y114988*
X123410*
Y109291*
X119473*
Y108665*
X123780*
Y102228*
X119473*
Y101972*
X123780*
Y99837*
G37*
X50574Y145211D02*
G36*
X35055D01*
G75*
G02X35221Y143242I-11541J-1968*
G01*
G75*
G02X13635Y136963I-11707J0*
G01*
Y119620*
X47135*
X50574Y123058*
Y145211*
G37*
X86625D02*
G36*
X81467D01*
Y119813*
X53157*
X52965Y119620*
X92208*
G75*
G02X93784Y120138I1778J-2755*
G01*
X86625*
Y145211*
G37*
X145833D02*
G36*
X142087D01*
G75*
G02X129351I-6368*
G01*
X117519*
Y120138*
X94190*
G75*
G02X95766Y119620I-203J-3273*
G01*
X129721*
G75*
G02X141717I5998*
G01*
X167253*
Y136963*
G75*
G02X145666Y143242I-9880J6280*
G01*
G75*
G02X145833Y145211I11707J1*
G01*
G37*
X151093Y153122D02*
G36*
X29794D01*
G75*
G02X35055Y145211I-6279J-9880*
G01*
X50574*
Y150707*
X81467*
Y145211*
X86625*
Y151031*
X117519*
Y145211*
X129351*
G75*
G02X142087I6368*
G01*
X145833*
G75*
G02X151093Y153122I11540J-1969*
G01*
G37*
X167503Y263359D02*
G75*
G02X145666Y269226I-10130J5868D01*
G01*
G75*
G02X151505Y279356I11707*
G01*
X29382*
G75*
G02X35221Y269226I-5868J-10130*
G01*
G75*
G02X13385Y263359I-11707*
G01*
Y172732*
G75*
G02X35221Y166864I10130J-5868*
G01*
G75*
G02X29382Y156734I-11707*
G01*
X84561*
G75*
G02X83595Y157165I76J1469*
G01*
X82811Y157948*
G75*
G02X82379Y158990I1038J1041*
G01*
Y159291*
X81690*
Y164988*
X86009*
Y159673*
X87792*
Y164988*
X88973*
Y165941*
X87792*
Y171638*
X89564*
Y175132*
G75*
G02X89791Y175859I1274J0*
G01*
G75*
G02X88961Y175820I-528J2422*
G01*
Y175390*
X84052*
Y180551*
X82335*
G75*
G02X77728Y181825I-2128J1274*
G01*
G75*
G02X80509Y184286I2480*
G01*
Y189004*
X81200*
G75*
G02X81630Y189953I1468J-93*
G01*
X82414Y190737*
G75*
G02X83456Y191169I1041J-1038*
G01*
X93378*
X95703Y193494*
G75*
G02X96746Y193925I1040J-1040*
G01*
X102827*
X102839Y193937*
X92528*
G75*
G02X88568Y192041I-2478J93*
G01*
Y191575*
X84249*
Y193348*
G75*
G02X84031Y193523I683J1075*
G01*
X82465Y195089*
Y191575*
X78331*
Y186156*
G75*
G02X77958Y185254I-1274*
G01*
X76707Y184004*
G75*
G02X76782Y183400I-2405J-604*
G01*
G75*
G02X71822I-2480*
G01*
G75*
G02X74906Y185805I2480*
G01*
X75784Y186683*
Y191400*
G75*
G02X75596Y191160I-1089J661*
G01*
X72054Y187618*
G75*
G02X71152Y187244I-901J900*
G01*
X67211*
X65595Y185628*
Y185528*
G75*
G02X66802Y183400I-1274J-2128*
G01*
G75*
G02X61842I-2480*
G01*
G75*
G02X63048Y185528I2480*
G01*
Y186156*
G75*
G02X63422Y187057I1274*
G01*
X65783Y189418*
G75*
G02X66684Y189791I901J-900*
G01*
X70625*
X73422Y192589*
Y199541*
G75*
G02X73796Y200443I1274*
G01*
X75763Y202410*
G75*
G02X76664Y202783I901J-900*
G01*
X78146*
Y204358*
X82083*
Y219226*
G75*
G02X82457Y220128I1274*
G01*
X82920Y220591*
G75*
G02X87443Y222486I2405J604*
G01*
G75*
G02X91098Y222469I1820J-1685*
G01*
X100587*
Y225785*
X100152Y226220*
X90578*
X90164Y225807*
G75*
G02X89263Y225433I-901J900*
G01*
X85853*
X78062Y217642*
G75*
G02X78357Y216470I-2185J-1172*
G01*
G75*
G02X73397I-2480*
G01*
G75*
G02X75766Y218948I2480*
G01*
X84424Y227607*
G75*
G02X85306Y227980I901J-900*
G01*
G75*
G02X85672Y231339I1988J1482*
G01*
X84631*
Y231037*
G75*
G02X84257Y230136I-1274*
G01*
X82683Y228563*
G75*
G02X82433Y228367I-902J899*
G01*
G75*
G02X77728Y229463I-2225J1095*
G01*
G75*
G02X78585Y231339I2480*
G01*
X78146*
Y232913*
X77999*
X75595Y230510*
Y224898*
G75*
G02X76802Y222770I-1274J-2128*
G01*
G75*
G02X71842I-2480*
G01*
G75*
G02X73048Y224898I2480*
G01*
Y231037*
G75*
G02X73099Y231394I1274J1*
G01*
G75*
G02X72727Y231339I-372J1218*
G01*
X67349*
X65595Y229585*
Y224898*
G75*
G02X66802Y222770I-1274J-2128*
G01*
G75*
G02X61842I-2480*
G01*
G75*
G02X63048Y224898I2480*
G01*
Y230112*
G75*
G02X63422Y231013I1274*
G01*
X65920Y233512*
G75*
G02X66822Y233886I901J-900*
G01*
X72200*
X75391Y237077*
Y239699*
G75*
G02X75764Y240600I1274*
G01*
X76944Y241780*
G75*
G02X77845Y242154I901J-900*
G01*
X78146*
Y243728*
X82465*
Y241002*
X83243Y241780*
G75*
G02X84144Y242154I901J-900*
G01*
X84249*
Y243728*
X88568*
Y238031*
X84631*
Y237035*
X88568*
Y231591*
G75*
G02X89656Y228705I-1274J-2128*
G01*
G75*
G02X90050Y228768I394J-1211*
G01*
X100680*
G75*
G02X101581Y228394J-1274*
G01*
X102761Y227214*
G75*
G02X103135Y226313I-900J-901*
G01*
Y218045*
G75*
G02X102761Y217144I-1274*
G01*
X101975Y216358*
G75*
G02X101166Y215988I-901J900*
G01*
Y214409*
X96847*
Y219921*
X95064*
Y214409*
X92088*
G75*
G02X91644Y213413I-2432J487*
G01*
X95064*
Y207717*
X91885*
G75*
G02X92135Y206720I-2228J-1089*
G01*
X95064*
Y201024*
X90745*
Y202602*
G75*
G02X89936Y202972I92J1270*
G01*
X88756Y204152*
G75*
G02X88561Y204403I899J902*
G01*
G75*
G02X88448Y208793I1095J2225*
G01*
G75*
G02X88148Y212927I1209J2165*
G01*
G75*
G02X90260Y217301I1508J1969*
G01*
X90745Y217785*
Y218813*
G75*
G02X87145Y219510I-1482J1988*
G01*
G75*
G02X84722Y218790I-1820J1685*
G01*
X84631Y218699*
Y204358*
X88568*
Y201409*
X89198Y200798*
G75*
G02X91278Y196484I458J-2437*
G01*
X102162*
Y202557*
X102121Y202598*
X101166*
Y201024*
X96847*
Y206720*
X101166*
Y205146*
X102648*
G75*
G02X103550Y204772J-1274*
G01*
X103934Y204388*
Y237121*
X99677Y241378*
X96919*
G75*
G02X90707Y242848I-2932J1470*
G01*
G75*
G02X93784Y246122I3280*
G01*
X86625*
Y277016*
X117519*
Y246122*
X94190*
G75*
G02X96919Y244319I-203J-3274*
G01*
X100286*
G75*
G02X101328Y243887I0J-1470*
G01*
X106443Y238772*
G75*
G02X106875Y237730I-1038J-1041*
G01*
Y194423*
G75*
G02X106443Y193381I-1470J0*
G01*
X104478Y191417*
G75*
G02X104273Y191246I-1041J1040*
G01*
G75*
G02X105916Y188911I-837J-2334*
G01*
G75*
G02X105913Y188807I-2480J4*
G01*
X106087*
Y188217*
X107280*
Y189004*
X111599*
Y183307*
X107280*
Y184094*
X106087*
Y183504*
X101178*
Y187886*
G75*
G02X102074Y190984I2258J1026*
G01*
X97352*
X95175Y188807*
X97032*
Y183504*
X92123*
Y184094*
X90930*
Y183307*
X86611*
Y188228*
X84828*
Y183307*
X82196*
G75*
G02X82335Y183098I-1988J-1483*
G01*
X91231*
G75*
G02X92132Y182725J-1274*
G01*
X93706Y181151*
G75*
G02X93837Y180998I-901J-901*
G01*
X95701Y182863*
G75*
G02X96743Y183295I1041J-1038*
G01*
X113013*
Y189374*
X118072*
Y183973*
X118107Y184009*
Y193420*
X116963Y194565*
G75*
G02X116532Y195604I1040J1040*
G01*
G75*
G02Y195605I627J0*
G01*
G75*
G02Y195607I632J1*
G01*
Y238124*
G75*
G02X118003Y239594I1470*
G01*
X119091*
Y240972*
X123410*
Y235276*
X119473*
Y234650*
X123780*
Y228213*
X119473*
Y227957*
X123780*
Y221520*
X119473*
Y220894*
X123410*
Y215197*
X119473*
Y214201*
X123410*
Y208504*
X119473*
Y207878*
X123780*
Y201441*
X119473*
Y196213*
X120168Y195519*
X120898Y196249*
G75*
G02X121940Y196681I1041J-1038*
G01*
X128811*
X131099Y198969*
Y202663*
G75*
G02X130573Y203189I1470J1997*
G01*
X129513*
Y201811*
X125194*
Y207508*
X129513*
Y206130*
X130573*
G75*
G02X131646Y206961I1997J-1470*
G01*
G75*
G02X129709Y209134I530J2423*
G01*
X129513*
Y208504*
X125194*
Y214201*
X129513*
Y211996*
X130388*
G75*
G02X130902Y215843I1788J1719*
G01*
Y216140*
X130270Y216772*
X129513*
Y215197*
X125194*
Y220894*
X129513*
Y219319*
X130798*
G75*
G02X131699Y218945J-1274*
G01*
X133076Y217569*
G75*
G02X133450Y216667I-900J-901*
G01*
Y215843*
G75*
G02X133385Y211549I-1274J-2128*
G01*
G75*
G02X133099Y207082I-1209J-2165*
G01*
G75*
G02X134567Y206130I-530J-2423*
G01*
X138654*
X140548Y208024*
Y215163*
G75*
G02X139539Y217159I1470J1997*
G01*
G75*
G02X144498I2480*
G01*
G75*
G02X143489Y215163I-2480*
G01*
Y207419*
G75*
G02Y207416I-641J-1*
G01*
G75*
G02Y207415I-654J0*
G01*
G75*
G02X143058Y206376I-1470*
G01*
X140302Y203620*
G75*
G02X139259Y203189I-1040J1040*
G01*
X134567*
G75*
G02X134040Y202663I-1997J1470*
G01*
Y198360*
G75*
G02X133608Y197319I-1470J0*
G01*
X132320Y196031*
G75*
G02X134237Y191508I644J-2395*
G01*
Y189594*
X135615*
Y182717*
X130312*
Y189594*
X131690*
Y191508*
G75*
G02X130569Y194280I1274J2128*
G01*
X130462Y194172*
G75*
G02X129420Y193740I-1041J1038*
G01*
X125347*
G75*
G02X126914Y189594I-257J-2467*
G01*
X127741*
Y182717*
X122438*
Y189594*
X123265*
G75*
G02X124832Y193740I1825J1679*
G01*
X122549*
X121048Y192239*
Y183403*
G75*
G02Y183400I-641J-1*
G01*
G75*
G02X120617Y182360I-1470J-1*
G01*
X119043Y180785*
G75*
G02X118000Y180354I-1040J1040*
G01*
X106056*
G75*
G02X108278Y177888I-257J-2467*
G01*
G75*
G02X105497Y175426I-2480*
G01*
Y175390*
X100587*
Y180354*
X97352*
X96245Y179247*
Y174767*
G75*
G02X97134Y172008I-1470J-1997*
G01*
X102127*
Y165571*
X96477*
Y170967*
G75*
G02X96245Y170773I-1704J1803*
G01*
Y159673*
X97438*
Y164988*
X101757*
Y159291*
X101068*
Y158203*
G75*
G02X99673Y156734I-1470*
G01*
X151505*
G75*
G02X145666Y166864I5868J10130*
G01*
G75*
G02X167503Y172732I11707*
G01*
Y263359*
X150906Y225821D02*
G75*
G02X158721I3907D01*
G01*
G75*
G02X150906I-3907*
G01*
X151276Y205736D02*
X158351D01*
Y198661*
X151276*
Y205736*
Y210073D02*
G75*
G02X158351I3537D01*
G01*
G75*
G02X151276I-3537*
G01*
Y217947D02*
G75*
G02X158351I3537D01*
G01*
G75*
G02X151276I-3537*
G01*
X41713Y188124D02*
G75*
G02X50906I4596D01*
G01*
G75*
G02X41713I-4596*
G01*
Y198124D02*
G75*
G02X50906I4596D01*
G01*
G75*
G02X41713I-4596*
G01*
Y208124D02*
G75*
G02X50906I4596D01*
G01*
G75*
G02X41713I-4596*
G01*
X50574Y276691D02*
X81467D01*
Y245797*
X53157*
X48857Y241496*
G75*
G02X48371Y234434I-2547J-3372*
G01*
Y231814*
G75*
G02Y224434I-2061J-3690*
G01*
Y221814*
G75*
G02X46310Y213898I-2061J-3690*
G01*
G75*
G02X44249Y221814J4226*
G01*
Y224434*
G75*
G02Y231814I2061J3690*
G01*
Y234434*
G75*
G02Y241814I2061J3690*
G01*
Y241864*
G75*
G02X44855Y243324I2061*
G01*
X50574Y249043*
Y276691*
X132286Y229611D02*
G75*
G02X132257Y225360I-1291J-2117D01*
G01*
G75*
G02X131895Y224624I-1263J165*
G01*
X131109Y223838*
G75*
G02X130207Y223465I-901J900*
G01*
X129513*
Y221890*
X125194*
Y227587*
X128517*
G75*
G02X128767Y228583I2478J-93*
G01*
X125194*
Y234280*
X126080*
Y235276*
X125194*
Y240972*
X129513*
Y235276*
X128627*
Y234280*
X129513*
Y233659*
G75*
G02X132286Y229611I1089J-2228*
G01*
X129351Y271195D02*
G75*
G02X142087I6368D01*
G01*
G75*
G02X129351I-6368*
G01*
X129721Y245604D02*
G75*
G02X141717I5998D01*
G01*
G75*
G02X129721I-5998*
G01*
X16237Y208754D02*
G75*
G02X28627I6195D01*
G01*
G75*
G02X16237I-6195*
G01*
Y230539D02*
X28627D01*
Y218150*
X16237*
Y230539*
X79942Y172008D02*
X85591D01*
Y165571*
X79942*
Y172008*
X96477Y213783D02*
X101536D01*
Y207346*
X96477*
Y213783*
X109237Y170910D02*
G75*
G02X113002Y168789I1285J-2121D01*
G01*
G75*
G02X109237Y166669I-2480*
G01*
Y165941*
X108646*
Y162927*
G75*
G02X108273Y162026I-1274*
G01*
X107859Y161612*
Y159291*
X103540*
Y164988*
X106099*
Y165941*
X104328*
Y171638*
X109237*
Y170910*
X83813Y156984D02*
G36*
G75*
G02X83595Y157165I822J1217D01*
G01*
X82811Y157948*
G75*
G02X82379Y158990I1038J1041*
G01*
Y158990*
Y159291*
X81690*
Y164988*
X86009*
Y159673*
X87792*
Y164988*
X88973*
Y165941*
X87792*
Y168789*
X85591*
Y165571*
X79942*
Y168789*
X35062*
G75*
G02X35221Y166864I-11548J-1926*
G01*
G75*
G02X29794Y156984I-11707*
G01*
X83813*
G37*
X145826Y168789D02*
G36*
X113002D01*
G75*
G02X109237Y166669I-2480J0*
G01*
Y165941*
X108646*
Y162927*
G75*
G02X108273Y162026I-1275J1*
G01*
X107859Y161612*
Y159291*
X103540*
Y164988*
X106099*
Y165941*
X104328*
Y168789*
X102127*
Y165571*
X96477*
Y168789*
X96245*
Y159673*
X97438*
Y164988*
X101757*
Y159291*
X101068*
Y158203*
G75*
G02X100420Y156984I-1471J0*
G01*
X151093*
G75*
G02X145666Y166864I6280J9880*
G01*
G75*
G02X145826Y168789I11707J0*
G01*
G37*
X87792D02*
G36*
Y171638D01*
X89564*
Y175132*
G75*
G02X89791Y175859I1276J0*
G01*
G75*
G02X88961Y175820I-528J2420*
G01*
Y175390*
X84052*
Y180551*
X82335*
G75*
G02X77728Y181825I-2128J1274*
G01*
Y181825*
G75*
G02X80509Y184286I2480*
G01*
Y188124*
X78331*
Y186156*
G75*
G02X77958Y185254I-1275J1*
G01*
X76707Y184004*
G75*
G02X76782Y183400I-2416J-606*
G01*
G75*
G02X71822I-2480*
G01*
G75*
G02X74906Y185805I2480*
G01*
X75784Y186683*
Y188124*
X72560*
X72054Y187618*
G75*
G02X71152Y187244I-902J902*
G01*
X67211*
X65595Y185628*
Y185528*
G75*
G02X66802Y183400I-1272J-2127*
G01*
G75*
G02X61842Y183400I-2480J-1*
G01*
G75*
G02X63048Y185528I2480*
G01*
Y186156*
G75*
G02X63422Y187057I1275J-1*
G01*
X64489Y188124*
X50906*
G75*
G02X41713I-4596*
G01*
X13635*
Y173144*
G75*
G02X35062Y168789I9880J-6280*
G01*
X79942*
Y172008*
X85591*
Y168789*
X87792*
G37*
X96477D02*
G36*
Y170967D01*
G75*
G02X96245Y170773I-1617J1699*
G01*
Y168789*
X96477*
G37*
X113013Y188124D02*
G36*
X111599D01*
Y183307*
X107280*
Y184094*
X106087*
Y183504*
X101178*
Y187886*
G75*
G02X101084Y188124I2257J1026*
G01*
X97032*
Y183504*
X92123*
Y184094*
X90930*
Y183307*
X86611*
Y188124*
X84828*
Y183307*
X82196*
G75*
G02X82335Y183098I-2111J-1565*
G01*
X91231*
G75*
G02X92132Y182725I-1J-1275*
G01*
X93706Y181151*
G75*
G02X93837Y180998I-883J-886*
G01*
X95701Y182863*
G75*
G02X96743Y183295I1041J-1038*
G01*
X113013*
Y188124*
G37*
X118107D02*
G36*
X118072D01*
Y183973*
X118107Y184009*
Y188124*
G37*
X167253Y173144D02*
G36*
Y188124D01*
X135615*
Y182717*
X130312*
Y188124*
X127741*
Y182717*
X122438*
Y188124*
X121048*
Y183403*
Y183400*
Y183400*
Y183399*
G75*
G02X120617Y182360I-1470*
G01*
X119043Y180785*
G75*
G02X118000Y180354I-1040J1040*
G01*
X106056*
G75*
G02X108278Y177889I-257J-2466*
G01*
G75*
G02Y177888I-3222J0*
G01*
Y177887*
G75*
G02X105497Y175426I-2480*
G01*
Y175390*
X100587*
Y180354*
X97352*
X96245Y179247*
Y174767*
G75*
G02X97254Y172770I-1470J-1996*
G01*
G75*
G02X97134Y172008I-2480*
G01*
X102127*
Y168789*
X104328*
Y171638*
X109237*
Y170910*
G75*
G02X113002Y168789I1285J-2121*
G01*
X145826*
G75*
G02X167253Y173144I11547J-1926*
G01*
G37*
X75552Y202199D02*
G36*
X48437D01*
G75*
G02X50906Y198124I-2127J-4075*
G01*
G75*
G02X41713I-4596*
G01*
G75*
G02X44183Y202199I4596*
G01*
X13635*
Y188124*
X41713*
G75*
G02X50906I4596*
G01*
X64489*
X65783Y189418*
G75*
G02X66684Y189791I902J-902*
G01*
X70625*
X73422Y192589*
Y199541*
G75*
G02X73796Y200443I1275J-1*
G01*
X75552Y202199*
G37*
X75784Y188124D02*
G36*
Y191400D01*
G75*
G02X75596Y191160I-1094J665*
G01*
X72560Y188124*
X75784*
G37*
X80509D02*
G36*
Y189004D01*
X81200*
G75*
G02X81630Y189953I1469J-93*
G01*
X82414Y190737*
G75*
G02X83456Y191169I1041J-1038*
G01*
X93378*
X95703Y193494*
G75*
G02X96746Y193925I1040J-1040*
G01*
X102827*
X102839Y193937*
X92528*
G75*
G02X88568Y192041I-2478J93*
G01*
Y191575*
X84249*
Y193348*
G75*
G02X84031Y193523I696J1092*
G01*
X82465Y195089*
Y191575*
X78331*
Y188124*
X80509*
G37*
X86611D02*
G36*
Y188228D01*
X84828*
Y188124*
X86611*
G37*
X102162Y202199D02*
G36*
X101166D01*
Y201024*
X96847*
Y202199*
X95064*
Y201024*
X90745*
Y202199*
X88568*
Y201409*
X89198Y200798*
G75*
G02X92136Y198360I458J-2437*
G01*
G75*
G02X91278Y196484I-2480*
G01*
X102162*
Y202199*
G37*
X101084Y188124D02*
G36*
G75*
G02X100956Y188911I2351J787D01*
G01*
G75*
G02X102074Y190984I2480*
G01*
X97352*
X95175Y188807*
X97032*
Y188124*
X101084*
G37*
X116532Y202199D02*
G36*
X106875D01*
Y194423*
Y194423*
G75*
G02X106443Y193381I-1470*
G01*
X104478Y191417*
G75*
G02X104273Y191246I-1026J1022*
G01*
G75*
G02X105916Y188911I-837J-2335*
G01*
G75*
G02X105913Y188807I-3499J27*
G01*
X106087*
Y188217*
X107280*
Y189004*
X111599*
Y188124*
X113013*
Y189374*
X118072*
Y188124*
X118107*
Y193420*
X116963Y194565*
G75*
G02X116532Y195604I1039J1039*
G01*
Y195604*
Y195605*
Y195607*
Y202199*
G37*
X131099D02*
G36*
X129513D01*
Y201811*
X125194*
Y202199*
X123780*
Y201441*
X119473*
Y196213*
X120168Y195519*
X120898Y196249*
G75*
G02X121940Y196681I1041J-1038*
G01*
X128811*
X131099Y198969*
Y202199*
G37*
X122438Y188124D02*
G36*
Y189594D01*
X123265*
G75*
G02X122609Y191274I1824J1679*
G01*
G75*
G02X124832Y193740I2480*
G01*
X122549*
X121048Y192239*
Y188124*
X122438*
G37*
X130312D02*
G36*
Y189594D01*
X131690*
Y191508*
G75*
G02X130483Y193636I1274J2128*
G01*
G75*
G02X130569Y194280I2480J0*
G01*
X130462Y194172*
G75*
G02X129420Y193740I-1041J1038*
G01*
X125347*
G75*
G02X127569Y191274I-257J-2467*
G01*
G75*
G02X126914Y189594I-2480*
G01*
X127741*
Y188124*
X130312*
G37*
X158351Y202199D02*
G36*
Y198661D01*
X151276*
Y202199*
X134040*
Y198360*
Y198360*
G75*
G02X133608Y197319I-1470*
G01*
X132320Y196031*
G75*
G02X135443Y193636I644J-2395*
G01*
G75*
G02X134237Y191508I-2480*
G01*
Y189594*
X135615*
Y188124*
X167253*
Y202199*
X158351*
G37*
X75552D02*
G36*
X75763Y202410D01*
G75*
G02X76664Y202783I902J-902*
G01*
X78146*
Y204358*
X82083*
Y210073*
X50473*
G75*
G02X50906Y208124I-4163J-1948*
G01*
G75*
G02X41713I-4596*
G01*
G75*
G02X42147Y210073I4596J0*
G01*
X28485*
G75*
G02X28627Y208754I-6053J-1319*
G01*
G75*
G02X16237I-6195*
G01*
G75*
G02X16379Y210073I6195J0*
G01*
X13635*
Y202199*
X44183*
G75*
G02X48437I2127J-4075*
G01*
X75552*
G37*
X87340Y210073D02*
G36*
X84631D01*
Y204358*
X88568*
Y202199*
X90745*
Y202602*
G75*
G02X89936Y202972I92J1270*
G01*
X88756Y204152*
G75*
G02X88561Y204403I899J901*
G01*
G75*
G02X87176Y206628I1096J2225*
G01*
G75*
G02X88448Y208793I2480*
G01*
G75*
G02X87340Y210073I1209J2165*
G01*
G37*
X103934D02*
G36*
X101536D01*
Y207346*
X96477*
Y210073*
X95064*
Y207717*
X91885*
G75*
G02X92135Y206720I-2228J-1089*
G01*
X95064*
Y202199*
X96847*
Y206720*
X101166*
Y205146*
X102648*
G75*
G02X103550Y204772I-1J-1275*
G01*
X103934Y204388*
Y210073*
G37*
X102162Y202199D02*
G36*
Y202557D01*
X102121Y202598*
X101166*
Y202199*
X102162*
G37*
X116532D02*
G36*
Y210073D01*
X106875*
Y202199*
X116532*
G37*
X125194Y210073D02*
G36*
X123410D01*
Y208504*
X119473*
Y207878*
X123780*
Y202199*
X125194*
Y207508*
X129513*
Y206130*
X130573*
G75*
G02X131646Y206961I1995J-1468*
G01*
G75*
G02X129709Y209134I530J2423*
G01*
X129513*
Y208504*
X125194*
Y210073*
G37*
X131099Y202199D02*
G36*
Y202663D01*
G75*
G02X130573Y203189I1469J1995*
G01*
X129513*
Y202199*
X131099*
G37*
X140548Y210073D02*
G36*
X134558D01*
G75*
G02X134656Y209384I-2382J-689*
G01*
G75*
G02X133099Y207082I-2480*
G01*
G75*
G02X134567Y206130I-530J-2422*
G01*
X138654*
X140548Y208024*
Y210073*
G37*
X143489D02*
G36*
Y207419D01*
Y207416*
Y207415*
Y207415*
G75*
G02X143058Y206376I-1470*
G01*
X140302Y203620*
G75*
G02X139259Y203189I-1040J1040*
G01*
X134567*
G75*
G02X134040Y202663I-1995J1469*
G01*
Y202199*
X151276*
Y205736*
X158351*
Y202199*
X167253*
Y210073*
X158351*
G75*
G02X151276I-3537*
G01*
X143489*
G37*
X78367Y217947D02*
G36*
X78062Y217642D01*
G75*
G02X78357Y216470I-2186J-1172*
G01*
G75*
G02X73397I-2480*
G01*
G75*
G02X73884Y217947I2480*
G01*
X50533*
G75*
G02X46310Y213898I-4223J177*
G01*
G75*
G02X42087Y217947J4226*
G01*
X13635*
Y210073*
X16379*
G75*
G02X28485I6053J-1319*
G01*
X42147*
G75*
G02X50473I4163J-1949*
G01*
X82083*
Y217947*
X78367*
G37*
X90745D02*
G36*
X84631D01*
Y210073*
X87340*
G75*
G02X87177Y210959I2317J885*
G01*
G75*
G02X88148Y212927I2480J0*
G01*
G75*
G02X87176Y214896I1508J1969*
G01*
G75*
G02X90260Y217301I2480*
G01*
X90745Y217785*
Y217947*
G37*
X103934D02*
G36*
X103131D01*
G75*
G02X102761Y217144I-1271J99*
G01*
X101975Y216358*
G75*
G02X101166Y215988I-901J900*
G01*
Y214409*
X96847*
Y217947*
X95064*
Y214409*
X92088*
G75*
G02X91644Y213413I-2434J487*
G01*
X95064*
Y210073*
X96477*
Y213783*
X101536*
Y210073*
X103934*
Y217947*
G37*
X116532D02*
G36*
X106875D01*
Y210073*
X116532*
Y217947*
G37*
X125194Y210073D02*
G36*
Y214201D01*
X129513*
Y211996*
X130388*
G75*
G02X129696Y213715I1788J1719*
G01*
G75*
G02X130902Y215843I2480*
G01*
Y216140*
X130270Y216772*
X129513*
Y215197*
X125194*
Y217947*
X123410*
Y215197*
X119473*
Y214201*
X123410*
Y210073*
X125194*
G37*
X139667Y217947D02*
G36*
X132698D01*
X133076Y217569*
G75*
G02X133450Y216667I-902J-902*
G01*
Y215843*
G75*
G02X134656Y213715I-1274J-2128*
G01*
G75*
G02X133385Y211549I-2480*
G01*
G75*
G02X134558Y210073I-1209J-2165*
G01*
X140548*
Y215163*
G75*
G02X139539Y217159I1469J1996*
G01*
G75*
G02X139667Y217947I2480J1*
G01*
G37*
X144370D02*
G36*
G75*
G02X144498Y217159I-2352J-787D01*
G01*
G75*
G02X143489Y215163I-2478J-1*
G01*
Y210073*
X151276*
G75*
G02X158351I3537*
G01*
X167253*
Y217947*
X158351*
G75*
G02X151276I-3537*
G01*
X144370*
G37*
X42087D02*
G36*
G75*
G02X42083Y218124I4225J173D01*
G01*
G75*
G02X44249Y221814I4226*
G01*
Y224434*
G75*
G02X42766Y225821I2061J3690*
G01*
X28627*
Y218150*
X16237*
Y225821*
X13635*
Y217947*
X42087*
G37*
X82639Y225821D02*
G36*
X75595D01*
Y224898*
G75*
G02X76802Y222770I-1272J-2127*
G01*
G75*
G02X71842Y222770I-2480J-1*
G01*
G75*
G02X73048Y224898I2480*
G01*
Y225821*
X65595*
Y224898*
G75*
G02X66802Y222770I-1272J-2127*
G01*
G75*
G02X61842Y222770I-2480J-1*
G01*
G75*
G02X63048Y224898I2480*
G01*
Y225821*
X49854*
G75*
G02X48371Y224434I-3544J2303*
G01*
Y221814*
G75*
G02X50536Y218124I-2061J-3690*
G01*
G75*
G02X50533Y217947I-4229J-4*
G01*
X73884*
G75*
G02X75766Y218948I1993J-1476*
G01*
X82639Y225821*
G37*
X90745Y217947D02*
G36*
Y218813D01*
G75*
G02X87145Y219510I-1482J1988*
G01*
G75*
G02X84722Y218790I-1820J1686*
G01*
X84631Y218699*
Y217947*
X90745*
G37*
X100552Y225821D02*
G36*
X90178D01*
X90164Y225807*
G75*
G02X89263Y225433I-902J902*
G01*
X85853*
X78367Y217947*
X82083*
Y219226*
G75*
G02X82457Y220128I1275J-1*
G01*
X82920Y220591*
G75*
G02X82846Y221195I2406J605*
G01*
G75*
G02X87443Y222486I2480*
G01*
G75*
G02X91098Y222469I1820J-1684*
G01*
X100587*
Y225785*
X100552Y225821*
G37*
X96847Y217947D02*
G36*
Y219921D01*
X95064*
Y217947*
X96847*
G37*
X116532Y225821D02*
G36*
X106875D01*
Y217947*
X116532*
Y225821*
G37*
X103934D02*
G36*
X103135D01*
Y218045*
G75*
G02X103131Y217947I-1275J2*
G01*
X103934*
Y225821*
G37*
X144370Y217947D02*
G36*
X151276D01*
G75*
G02X158351I3537*
G01*
X167253*
Y225821*
X158721*
G75*
G02X150906I-3907*
G01*
X132825*
G75*
G02X132257Y225360I-1830J1673*
G01*
G75*
G02X131895Y224624I-1263J165*
G01*
X131109Y223838*
G75*
G02X130207Y223465I-902J902*
G01*
X129513*
Y221890*
X125194*
Y225821*
X123780*
Y221520*
X119473*
Y220894*
X123410*
Y217947*
X125194*
Y220894*
X129513*
Y219319*
X130798*
G75*
G02X131699Y218945I-1J-1275*
G01*
X132698Y217947*
X139667*
G75*
G02X144370I2352J-787*
G01*
G37*
X47135Y245604D02*
G36*
X13635D01*
Y225821*
X16237*
Y230539*
X28627*
Y225821*
X42766*
G75*
G02X42083Y228124I3544J2303*
G01*
G75*
G02X44249Y231814I4226*
G01*
Y234434*
G75*
G02X42083Y238124I2061J3690*
G01*
G75*
G02X44249Y241814I4226*
G01*
Y241864*
G75*
G02X44855Y243324I2061*
G01*
X47135Y245604*
G37*
X73048Y225821D02*
G36*
Y231037D01*
G75*
G02Y231040I1361J2*
G01*
G75*
G02X73099Y231394I1259*
G01*
G75*
G02X72727Y231339I-370J1202*
G01*
X67349*
X65595Y229585*
Y225821*
X73048*
G37*
X82639D02*
G36*
X84424Y227607D01*
G75*
G02X85306Y227980I901J-900*
G01*
G75*
G02X84814Y229463I1988J1482*
G01*
G75*
G02X85672Y231339I2480*
G01*
X84631*
Y231037*
G75*
G02X84257Y230136I-1275J1*
G01*
X82683Y228563*
G75*
G02X82433Y228367I-901J899*
G01*
G75*
G02X77728Y229463I-2225J1095*
G01*
G75*
G02X78585Y231339I2481J0*
G01*
X78146*
Y232913*
X77999*
X75595Y230510*
Y225821*
X82639*
G37*
X103934D02*
G36*
Y237121D01*
X99677Y241378*
X96919*
G75*
G02X90707Y242848I-2932J1470*
G01*
G75*
G02Y242849I4511J0*
G01*
G75*
G02X92208Y245604I3279*
G01*
X52965*
X48857Y241496*
G75*
G02X50536Y238124I-2547J-3372*
G01*
G75*
G02X48371Y234434I-4226*
G01*
Y231814*
G75*
G02X50536Y228124I-2061J-3690*
G01*
G75*
G02X49854Y225821I-4226*
G01*
X63048*
Y230112*
G75*
G02X63422Y231013I1275J-1*
G01*
X65920Y233512*
G75*
G02X66822Y233886I902J-902*
G01*
X72200*
X75391Y237077*
Y239699*
G75*
G02X75764Y240600I1275J-1*
G01*
X76944Y241780*
G75*
G02X77845Y242154I902J-902*
G01*
X78146*
Y243728*
X82465*
Y241002*
X83243Y241780*
G75*
G02X84144Y242154I902J-902*
G01*
X84249*
Y243728*
X88568*
Y238031*
X84631*
Y237035*
X88568*
Y231591*
G75*
G02X89774Y229463I-1274J-2128*
G01*
G75*
G02X89656Y228705I-2480*
G01*
G75*
G02X90050Y228768I395J-1213*
G01*
X100680*
G75*
G02X101581Y228394I-1J-1275*
G01*
X102761Y227214*
G75*
G02X103135Y226313I-902J-902*
G01*
Y225821*
X103934*
G37*
X100552D02*
G36*
X100152Y226220D01*
X90578*
X90178Y225821*
X100552*
G37*
X123780D02*
G36*
X125194D01*
Y227587*
X128517*
G75*
G02X128767Y228583I2478J-93*
G01*
X125194*
Y234280*
X126080*
Y235276*
X125194*
Y240972*
X129513*
Y235276*
X128627*
Y234280*
X129513*
Y233659*
G75*
G02X133081Y231431I1089J-2228*
G01*
G75*
G02X132286Y229611I-2480J0*
G01*
G75*
G02X133475Y227494I-1291J-2117*
G01*
G75*
G02X132825Y225821I-2480*
G01*
X150906*
G75*
G02X158721I3907*
G01*
X167253*
Y245604*
X141717*
G75*
G02X129721I-5998*
G01*
X95766*
G75*
G02X96919Y244319I-1778J-2755*
G01*
X100286*
G75*
G02X101328Y243887I0J-1470*
G01*
X106443Y238772*
G75*
G02X106875Y237731I-1038J-1041*
G01*
Y237730*
Y225821*
X116532*
Y238124*
G75*
G02X118003Y239594I1470*
G01*
X119091*
Y240972*
X123410*
Y235276*
X119473*
Y234650*
X123780*
Y228213*
X119473*
Y227957*
X123780*
Y225821*
G37*
X50574Y271195D02*
G36*
X35055D01*
G75*
G02X35221Y269226I-11541J-1968*
G01*
G75*
G02X13635Y262947I-11707J0*
G01*
Y245604*
X47135*
X50574Y249043*
Y271195*
G37*
X86625D02*
G36*
X81467D01*
Y245797*
X53157*
X52965Y245604*
X92208*
G75*
G02X93784Y246122I1778J-2755*
G01*
X86625*
Y271195*
G37*
X145833D02*
G36*
X142087D01*
G75*
G02X129351I-6368*
G01*
X117519*
Y246122*
X94190*
G75*
G02X95766Y245604I-203J-3273*
G01*
X129721*
G75*
G02X141717I5998*
G01*
X167253*
Y262947*
G75*
G02X145666Y269226I-9880J6280*
G01*
G75*
G02X145833Y271195I11707J1*
G01*
G37*
X151093Y279106D02*
G36*
X29794D01*
G75*
G02X35055Y271195I-6279J-9880*
G01*
X50574*
Y276691*
X81467*
Y271195*
X86625*
Y277016*
X117519*
Y271195*
X129351*
G75*
G02X142087I6368*
G01*
X145833*
G75*
G02X151093Y279106I11540J-1969*
G01*
G37*
X167503Y389343D02*
G75*
G02X145666Y395211I-10130J5868D01*
G01*
G75*
G02X151505Y405341I11707*
G01*
X29382*
G75*
G02X35221Y395211I-5868J-10130*
G01*
G75*
G02X13385Y389343I-11707*
G01*
Y298716*
G75*
G02X35221Y292848I10130J-5868*
G01*
G75*
G02X29382Y282719I-11707*
G01*
X84561*
G75*
G02X83595Y283149I76J1469*
G01*
X82811Y283933*
G75*
G02X82379Y284974I1038J1041*
G01*
Y285276*
X81690*
Y290972*
X86009*
Y285657*
X87792*
Y290972*
X88973*
Y291925*
X87792*
Y297622*
X89564*
Y301116*
G75*
G02X89791Y301843I1274J0*
G01*
G75*
G02X88961Y301804I-528J2422*
G01*
Y301374*
X84052*
Y306535*
X82335*
G75*
G02X77728Y307809I-2128J1274*
G01*
G75*
G02X80509Y310270I2480*
G01*
Y314988*
X81200*
G75*
G02X81630Y315937I1468J-93*
G01*
X82414Y316721*
G75*
G02X83456Y317154I1041J-1038*
G01*
X93378*
X95703Y319479*
G75*
G02X96746Y319909I1040J-1040*
G01*
X102827*
X102839Y319921*
X92528*
G75*
G02X88568Y318026I-2478J93*
G01*
Y317559*
X84249*
Y319333*
G75*
G02X84031Y319507I683J1075*
G01*
X82465Y321073*
Y317559*
X78331*
Y312140*
G75*
G02X77958Y311239I-1274*
G01*
X76707Y309988*
G75*
G02X76782Y309384I-2405J-604*
G01*
G75*
G02X71822I-2480*
G01*
G75*
G02X74906Y311789I2480*
G01*
X75784Y312667*
Y317384*
G75*
G02X75596Y317144I-1089J661*
G01*
X72054Y313602*
G75*
G02X71152Y313228I-901J900*
G01*
X67211*
X65595Y311612*
Y311512*
G75*
G02X66802Y309384I-1274J-2128*
G01*
G75*
G02X61842I-2480*
G01*
G75*
G02X63048Y311512I2480*
G01*
Y312140*
G75*
G02X63422Y313041I1274*
G01*
X65783Y315402*
G75*
G02X66684Y315776I901J-900*
G01*
X70625*
X73422Y318573*
Y325526*
G75*
G02X73796Y326427I1274*
G01*
X75763Y328394*
G75*
G02X76664Y328768I901J-900*
G01*
X78146*
Y330343*
X82083*
Y345211*
G75*
G02X82457Y346112I1274*
G01*
X82920Y346575*
G75*
G02X87443Y348470I2405J604*
G01*
G75*
G02X91098Y348453I1820J-1685*
G01*
X100587*
Y351770*
X100152Y352205*
X90578*
X90164Y351791*
G75*
G02X89263Y351417I-901J900*
G01*
X85853*
X78062Y343626*
G75*
G02X78357Y342455I-2185J-1172*
G01*
G75*
G02X73397I-2480*
G01*
G75*
G02X75766Y344932I2480*
G01*
X84424Y353591*
G75*
G02X85306Y353965I901J-900*
G01*
G75*
G02X85672Y357323I1988J1482*
G01*
X84631*
Y357022*
G75*
G02X84257Y356120I-1274*
G01*
X82683Y354547*
G75*
G02X82433Y354352I-902J899*
G01*
G75*
G02X77728Y355447I-2225J1095*
G01*
G75*
G02X78585Y357323I2480*
G01*
X78146*
Y358898*
X77999*
X75595Y356494*
Y350882*
G75*
G02X76802Y348754I-1274J-2128*
G01*
G75*
G02X71842I-2480*
G01*
G75*
G02X73048Y350882I2480*
G01*
Y357022*
G75*
G02X73099Y357378I1274J1*
G01*
G75*
G02X72727Y357323I-372J1218*
G01*
X67349*
X65595Y355569*
Y350882*
G75*
G02X66802Y348754I-1274J-2128*
G01*
G75*
G02X61842I-2480*
G01*
G75*
G02X63048Y350882I2480*
G01*
Y356096*
G75*
G02X63422Y356998I1274*
G01*
X65920Y359496*
G75*
G02X66822Y359870I901J-900*
G01*
X72200*
X75391Y363061*
Y365683*
G75*
G02X75764Y366584I1274*
G01*
X76944Y367764*
G75*
G02X77845Y368138I901J-900*
G01*
X78146*
Y369713*
X82465*
Y366986*
X83243Y367764*
G75*
G02X84144Y368138I901J-900*
G01*
X84249*
Y369713*
X88568*
Y364016*
X84631*
Y363020*
X88568*
Y357575*
G75*
G02X89656Y354689I-1274J-2128*
G01*
G75*
G02X90050Y354752I394J-1211*
G01*
X100680*
G75*
G02X101581Y354378J-1274*
G01*
X102761Y353198*
G75*
G02X103135Y352297I-900J-901*
G01*
Y344030*
G75*
G02X102761Y343128I-1274*
G01*
X101975Y342342*
G75*
G02X101166Y341972I-901J900*
G01*
Y340394*
X96847*
Y345906*
X95064*
Y340394*
X92088*
G75*
G02X91644Y339398I-2432J487*
G01*
X95064*
Y333701*
X91885*
G75*
G02X92135Y332705I-2228J-1089*
G01*
X95064*
Y327008*
X90745*
Y328586*
G75*
G02X89936Y328956I92J1270*
G01*
X88756Y330136*
G75*
G02X88561Y330387I899J902*
G01*
G75*
G02X88448Y334778I1095J2225*
G01*
G75*
G02X88148Y338911I1209J2165*
G01*
G75*
G02X90260Y343285I1508J1969*
G01*
X90745Y343770*
Y344797*
G75*
G02X87145Y345494I-1482J1988*
G01*
G75*
G02X84722Y344774I-1820J1685*
G01*
X84631Y344683*
Y330343*
X88568*
Y327394*
X89198Y326782*
G75*
G02X91278Y322469I458J-2437*
G01*
X102162*
Y328541*
X102121Y328583*
X101166*
Y327008*
X96847*
Y332705*
X101166*
Y331130*
X102648*
G75*
G02X103550Y330756J-1274*
G01*
X103934Y330372*
Y363106*
X99677Y367362*
X96919*
G75*
G02X90707Y368833I-2932J1470*
G01*
G75*
G02X93784Y372106I3280*
G01*
X86625*
Y403000*
X117519*
Y372106*
X94190*
G75*
G02X96919Y370303I-203J-3274*
G01*
X100286*
G75*
G02X101328Y369871I0J-1470*
G01*
X106443Y364756*
G75*
G02X106875Y363715I-1038J-1041*
G01*
Y320407*
G75*
G02X106443Y319366I-1470J0*
G01*
X104478Y317401*
G75*
G02X104273Y317230I-1041J1040*
G01*
G75*
G02X105916Y314896I-837J-2334*
G01*
G75*
G02X105913Y314791I-2480J4*
G01*
X106087*
Y314201*
X107280*
Y314988*
X111599*
Y309291*
X107280*
Y310079*
X106087*
Y309488*
X101178*
Y313870*
G75*
G02X102074Y316969I2258J1026*
G01*
X97352*
X95175Y314791*
X97032*
Y309488*
X92123*
Y310079*
X90930*
Y309291*
X86611*
Y314213*
X84828*
Y309291*
X82196*
G75*
G02X82335Y309083I-1988J-1483*
G01*
X91231*
G75*
G02X92132Y308709J-1274*
G01*
X93706Y307135*
G75*
G02X93837Y306982I-901J-901*
G01*
X95701Y308847*
G75*
G02X96743Y309280I1041J-1038*
G01*
X113013*
Y315358*
X118072*
Y309957*
X118107Y309993*
Y319405*
X116963Y320549*
G75*
G02X116532Y321589I1040J1040*
G01*
G75*
G02Y321592I632J2*
G01*
Y364108*
G75*
G02X118003Y365579I1470*
G01*
X119091*
Y366957*
X123410*
Y361260*
X119473*
Y360634*
X123780*
Y354197*
X119473*
Y353941*
X123780*
Y347504*
X119473*
Y346878*
X123410*
Y341181*
X119473*
Y340185*
X123410*
Y334488*
X119473*
Y333862*
X123780*
Y327425*
X119473*
Y322198*
X120168Y321503*
X120898Y322233*
G75*
G02X121940Y322665I1041J-1038*
G01*
X128811*
X131099Y324954*
Y328647*
G75*
G02X130573Y329173I1470J1997*
G01*
X129513*
Y327795*
X125194*
Y333492*
X129513*
Y332114*
X130573*
G75*
G02X131646Y332945I1997J-1470*
G01*
G75*
G02X129709Y335118I530J2423*
G01*
X129513*
Y334488*
X125194*
Y340185*
X129513*
Y337980*
X130388*
G75*
G02X130902Y341827I1788J1719*
G01*
Y342124*
X130270Y342756*
X129513*
Y341181*
X125194*
Y346878*
X129513*
Y345303*
X130798*
G75*
G02X131699Y344930J-1274*
G01*
X133076Y343553*
G75*
G02X133450Y342652I-900J-901*
G01*
Y341827*
G75*
G02X133385Y337533I-1274J-2128*
G01*
G75*
G02X133099Y333067I-1209J-2165*
G01*
G75*
G02X134567Y332114I-530J-2423*
G01*
X138654*
X140548Y334009*
Y341147*
G75*
G02X139539Y343144I1470J1997*
G01*
G75*
G02X144498I2480*
G01*
G75*
G02X143489Y341147I-2480*
G01*
Y333403*
G75*
G02Y333400I-641J-1*
G01*
G75*
G02X143058Y332360I-1470J-1*
G01*
X140302Y329604*
G75*
G02X139259Y329173I-1040J1040*
G01*
X134567*
G75*
G02X134040Y328647I-1997J1470*
G01*
Y324344*
G75*
G02X133608Y323303I-1470J0*
G01*
X132320Y322015*
G75*
G02X134237Y317492I644J-2395*
G01*
Y315579*
X135615*
Y308701*
X130312*
Y315579*
X131690*
Y317492*
G75*
G02X130569Y320264I1274J2128*
G01*
X130462Y320157*
G75*
G02X129420Y319724I-1041J1038*
G01*
X125347*
G75*
G02X126914Y315579I-257J-2467*
G01*
X127741*
Y308701*
X122438*
Y315579*
X123265*
G75*
G02X124832Y319724I1825J1679*
G01*
X122549*
X121048Y318224*
Y309387*
G75*
G02Y309385I-641J-1*
G01*
G75*
G02Y309384I-654J0*
G01*
G75*
G02X120617Y308344I-1470*
G01*
X119043Y306769*
G75*
G02X118000Y306339I-1040J1040*
G01*
X106056*
G75*
G02X108278Y303872I-257J-2467*
G01*
G75*
G02X105497Y301411I-2480*
G01*
Y301374*
X100587*
Y306339*
X97352*
X96245Y305231*
Y300751*
G75*
G02X97134Y297992I-1470J-1997*
G01*
X102127*
Y291555*
X96477*
Y296951*
G75*
G02X96245Y296757I-1704J1803*
G01*
Y285657*
X97438*
Y290972*
X101757*
Y285276*
X101068*
Y284187*
G75*
G02X99673Y282719I-1470*
G01*
X151505*
G75*
G02X145666Y292848I5868J10130*
G01*
G75*
G02X167503Y298716I11707*
G01*
Y389343*
X150906Y351805D02*
G75*
G02X158721I3907D01*
G01*
G75*
G02X150906I-3907*
G01*
X151276Y331720D02*
X158351D01*
Y324646*
X151276*
Y331720*
Y336057D02*
G75*
G02X158351I3537D01*
G01*
G75*
G02X151276I-3537*
G01*
Y343931D02*
G75*
G02X158351I3537D01*
G01*
G75*
G02X151276I-3537*
G01*
X41713Y314108D02*
G75*
G02X50906I4596D01*
G01*
G75*
G02X41713I-4596*
G01*
Y324108D02*
G75*
G02X50906I4596D01*
G01*
G75*
G02X41713I-4596*
G01*
Y334108D02*
G75*
G02X50906I4596D01*
G01*
G75*
G02X41713I-4596*
G01*
X50574Y402675D02*
X81467D01*
Y371781*
X53157*
X48857Y367481*
G75*
G02X48371Y360419I-2547J-3372*
G01*
Y357798*
G75*
G02Y350419I-2061J-3690*
G01*
Y347798*
G75*
G02X46310Y339882I-2061J-3690*
G01*
G75*
G02X44249Y347798J4226*
G01*
Y350419*
G75*
G02Y357798I2061J3690*
G01*
Y360419*
G75*
G02Y367798I2061J3690*
G01*
Y367848*
G75*
G02X44855Y369308I2061*
G01*
X50574Y375027*
Y402675*
X132286Y355596D02*
G75*
G02X132257Y351344I-1291J-2117D01*
G01*
G75*
G02X131895Y350609I-1263J165*
G01*
X131109Y349822*
G75*
G02X130207Y349449I-901J900*
G01*
X129513*
Y347874*
X125194*
Y353571*
X128517*
G75*
G02X128767Y354567I2478J-93*
G01*
X125194*
Y360264*
X126080*
Y361260*
X125194*
Y366957*
X129513*
Y361260*
X128627*
Y360264*
X129513*
Y359644*
G75*
G02X132286Y355596I1089J-2228*
G01*
X129351Y397179D02*
G75*
G02X142087I6368D01*
G01*
G75*
G02X129351I-6368*
G01*
X129721Y371589D02*
G75*
G02X141717I5998D01*
G01*
G75*
G02X129721I-5998*
G01*
X16237Y334738D02*
G75*
G02X28627I6195D01*
G01*
G75*
G02X16237I-6195*
G01*
Y356524D02*
X28627D01*
Y344134*
X16237*
Y356524*
X79942Y297992D02*
X85591D01*
Y291555*
X79942*
Y297992*
X96477Y339768D02*
X101536D01*
Y333331*
X96477*
Y339768*
X109237Y296894D02*
G75*
G02X113002Y294774I1285J-2121D01*
G01*
G75*
G02X109237Y292653I-2480*
G01*
Y291925*
X108646*
Y288911*
G75*
G02X108273Y288010I-1274*
G01*
X107859Y287596*
Y285276*
X103540*
Y290972*
X106099*
Y291925*
X104328*
Y297622*
X109237*
Y296894*
X83813Y282969D02*
G36*
G75*
G02X83595Y283149I822J1217D01*
G01*
X82811Y283933*
G75*
G02X82379Y284974I1038J1041*
G01*
Y284974*
Y285276*
X81690*
Y290972*
X86009*
Y285657*
X87792*
Y290972*
X88973*
Y291925*
X87792*
Y294774*
X85591*
Y291555*
X79942*
Y294774*
X35062*
G75*
G02X35221Y292848I-11548J-1926*
G01*
G75*
G02X29794Y282969I-11707*
G01*
X83813*
G37*
X145826Y294774D02*
G36*
X113002D01*
G75*
G02X109237Y292653I-2480J0*
G01*
Y291925*
X108646*
Y288911*
G75*
G02X108273Y288010I-1275J1*
G01*
X107859Y287596*
Y285276*
X103540*
Y290972*
X106099*
Y291925*
X104328*
Y294774*
X102127*
Y291555*
X96477*
Y294774*
X96245*
Y285657*
X97438*
Y290972*
X101757*
Y285276*
X101068*
Y284187*
G75*
G02X100420Y282969I-1471J0*
G01*
X151093*
G75*
G02X145666Y292848I6280J9880*
G01*
G75*
G02X145826Y294774I11707J0*
G01*
G37*
X87792D02*
G36*
Y297622D01*
X89564*
Y301116*
G75*
G02X89791Y301843I1276J0*
G01*
G75*
G02X88961Y301804I-528J2420*
G01*
Y301374*
X84052*
Y306535*
X82335*
G75*
G02X77728Y307809I-2128J1274*
G01*
Y307809*
G75*
G02X80509Y310270I2480*
G01*
Y314108*
X78331*
Y312140*
G75*
G02X77958Y311239I-1275J1*
G01*
X76707Y309988*
G75*
G02X76782Y309384I-2416J-606*
G01*
G75*
G02X71822I-2480*
G01*
G75*
G02X74906Y311789I2480*
G01*
X75784Y312667*
Y314108*
X72560*
X72054Y313602*
G75*
G02X71152Y313228I-902J902*
G01*
X67211*
X65595Y311612*
Y311512*
G75*
G02X66802Y309385I-1272J-2127*
G01*
G75*
G02Y309384I-2820J0*
G01*
G75*
G02X61842I-2480*
G01*
G75*
G02X63048Y311512I2480*
G01*
Y312140*
G75*
G02X63422Y313041I1275J-1*
G01*
X64489Y314108*
X50906*
G75*
G02X41713I-4596*
G01*
X13635*
Y299128*
G75*
G02X35062Y294774I9880J-6280*
G01*
X79942*
Y297992*
X85591*
Y294774*
X87792*
G37*
X96477D02*
G36*
Y296951D01*
G75*
G02X96245Y296757I-1617J1699*
G01*
Y294774*
X96477*
G37*
X113013Y314108D02*
G36*
X111599D01*
Y309291*
X107280*
Y310079*
X106087*
Y309488*
X101178*
Y313870*
G75*
G02X101084Y314108I2257J1026*
G01*
X97032*
Y309488*
X92123*
Y310079*
X90930*
Y309291*
X86611*
Y314108*
X84828*
Y309291*
X82196*
G75*
G02X82335Y309083I-2111J-1565*
G01*
X91231*
G75*
G02X92132Y308709I-1J-1275*
G01*
X93706Y307135*
G75*
G02X93837Y306982I-883J-886*
G01*
X95701Y308847*
G75*
G02X96743Y309280I1041J-1038*
G01*
X113013*
Y314108*
G37*
X118107D02*
G36*
X118072D01*
Y309957*
X118107Y309993*
Y314108*
G37*
X167253Y299128D02*
G36*
Y314108D01*
X135615*
Y308701*
X130312*
Y314108*
X127741*
Y308701*
X122438*
Y314108*
X121048*
Y309387*
Y309385*
Y309384*
Y309383*
G75*
G02X120617Y308344I-1470*
G01*
X119043Y306769*
G75*
G02X118000Y306339I-1040J1040*
G01*
X106056*
G75*
G02X108278Y303873I-257J-2466*
G01*
G75*
G02Y303872I-3222J0*
G01*
Y303872*
G75*
G02X105497Y301411I-2480*
G01*
Y301374*
X100587*
Y306339*
X97352*
X96245Y305231*
Y300751*
G75*
G02X97254Y298754I-1470J-1996*
G01*
G75*
G02X97134Y297992I-2480*
G01*
X102127*
Y294774*
X104328*
Y297622*
X109237*
Y296894*
G75*
G02X113002Y294774I1285J-2121*
G01*
X145826*
G75*
G02X167253Y299128I11547J-1926*
G01*
G37*
X75552Y328183D02*
G36*
X48437D01*
G75*
G02X50906Y324108I-2127J-4075*
G01*
G75*
G02X41713I-4596*
G01*
G75*
G02X44183Y328183I4596*
G01*
X13635*
Y314108*
X41713*
G75*
G02X50906I4596*
G01*
X64489*
X65783Y315402*
G75*
G02X66684Y315776I902J-902*
G01*
X70625*
X73422Y318573*
Y325526*
G75*
G02X73796Y326427I1275J-1*
G01*
X75552Y328183*
G37*
X75784Y314108D02*
G36*
Y317384D01*
G75*
G02X75596Y317144I-1094J665*
G01*
X72560Y314108*
X75784*
G37*
X80509D02*
G36*
Y314988D01*
X81200*
G75*
G02X81630Y315937I1469J-93*
G01*
X82414Y316721*
G75*
G02X83456Y317154I1041J-1038*
G01*
X93378*
X95703Y319479*
G75*
G02X96746Y319909I1040J-1040*
G01*
X102827*
X102839Y319921*
X92528*
G75*
G02X88568Y318026I-2478J93*
G01*
Y317559*
X84249*
Y319333*
G75*
G02X84031Y319507I696J1092*
G01*
X82465Y321073*
Y317559*
X78331*
Y314108*
X80509*
G37*
X86611D02*
G36*
Y314213D01*
X84828*
Y314108*
X86611*
G37*
X102162Y328183D02*
G36*
X101166D01*
Y327008*
X96847*
Y328183*
X95064*
Y327008*
X90745*
Y328183*
X88568*
Y327394*
X89198Y326782*
G75*
G02X92136Y324344I458J-2437*
G01*
G75*
G02X91278Y322469I-2480*
G01*
X102162*
Y328183*
G37*
X101084Y314108D02*
G36*
G75*
G02X100956Y314896I2351J787D01*
G01*
G75*
G02X102074Y316969I2480*
G01*
X97352*
X95175Y314791*
X97032*
Y314108*
X101084*
G37*
X116532Y328183D02*
G36*
X106875D01*
Y320407*
Y320407*
G75*
G02X106443Y319366I-1470*
G01*
X104478Y317401*
G75*
G02X104273Y317230I-1026J1022*
G01*
G75*
G02X105916Y314896I-837J-2335*
G01*
G75*
G02X105913Y314791I-3499J27*
G01*
X106087*
Y314201*
X107280*
Y314988*
X111599*
Y314108*
X113013*
Y315358*
X118072*
Y314108*
X118107*
Y319405*
X116963Y320549*
G75*
G02X116532Y321588I1039J1039*
G01*
Y321589*
Y321589*
Y321592*
Y328183*
G37*
X131099D02*
G36*
X129513D01*
Y327795*
X125194*
Y328183*
X123780*
Y327425*
X119473*
Y322198*
X120168Y321503*
X120898Y322233*
G75*
G02X121940Y322665I1041J-1038*
G01*
X128811*
X131099Y324954*
Y328183*
G37*
X122438Y314108D02*
G36*
Y315579D01*
X123265*
G75*
G02X122609Y317258I1824J1679*
G01*
G75*
G02X124832Y319724I2480*
G01*
X122549*
X121048Y318224*
Y314108*
X122438*
G37*
X130312D02*
G36*
Y315579D01*
X131690*
Y317492*
G75*
G02X130483Y319620I1274J2128*
G01*
G75*
G02X130569Y320264I2480J0*
G01*
X130462Y320157*
G75*
G02X129420Y319724I-1041J1038*
G01*
X125347*
G75*
G02X127569Y317258I-257J-2467*
G01*
G75*
G02X126914Y315579I-2480*
G01*
X127741*
Y314108*
X130312*
G37*
X158351Y328183D02*
G36*
Y324646D01*
X151276*
Y328183*
X134040*
Y324344*
Y324344*
G75*
G02X133608Y323303I-1470*
G01*
X132320Y322015*
G75*
G02X135443Y319620I644J-2395*
G01*
G75*
G02X134237Y317492I-2480*
G01*
Y315579*
X135615*
Y314108*
X167253*
Y328183*
X158351*
G37*
X75552D02*
G36*
X75763Y328394D01*
G75*
G02X76664Y328768I902J-902*
G01*
X78146*
Y330343*
X82083*
Y336057*
X50473*
G75*
G02X50906Y334108I-4163J-1948*
G01*
G75*
G02X41713I-4596*
G01*
G75*
G02X42147Y336057I4596J0*
G01*
X28485*
G75*
G02X28627Y334738I-6053J-1319*
G01*
G75*
G02X16237I-6195*
G01*
G75*
G02X16379Y336057I6195J0*
G01*
X13635*
Y328183*
X44183*
G75*
G02X48437I2127J-4075*
G01*
X75552*
G37*
X87340Y336057D02*
G36*
X84631D01*
Y330343*
X88568*
Y328183*
X90745*
Y328586*
G75*
G02X89936Y328956I92J1270*
G01*
X88756Y330136*
G75*
G02X88561Y330387I899J901*
G01*
G75*
G02X87176Y332612I1096J2225*
G01*
G75*
G02X88448Y334778I2480*
G01*
G75*
G02X87340Y336057I1209J2165*
G01*
G37*
X103934D02*
G36*
X101536D01*
Y333331*
X96477*
Y336057*
X95064*
Y333701*
X91885*
G75*
G02X92135Y332705I-2228J-1089*
G01*
X95064*
Y328183*
X96847*
Y332705*
X101166*
Y331130*
X102648*
G75*
G02X103550Y330756I-1J-1275*
G01*
X103934Y330372*
Y336057*
G37*
X102162Y328183D02*
G36*
Y328541D01*
X102121Y328583*
X101166*
Y328183*
X102162*
G37*
X116532D02*
G36*
Y336057D01*
X106875*
Y328183*
X116532*
G37*
X125194Y336057D02*
G36*
X123410D01*
Y334488*
X119473*
Y333862*
X123780*
Y328183*
X125194*
Y333492*
X129513*
Y332114*
X130573*
G75*
G02X131646Y332945I1995J-1468*
G01*
G75*
G02X129709Y335118I530J2423*
G01*
X129513*
Y334488*
X125194*
Y336057*
G37*
X131099Y328183D02*
G36*
Y328647D01*
G75*
G02X130573Y329173I1469J1995*
G01*
X129513*
Y328183*
X131099*
G37*
X140548Y336057D02*
G36*
X134558D01*
G75*
G02X134656Y335368I-2382J-689*
G01*
G75*
G02X133099Y333067I-2480*
G01*
G75*
G02X134567Y332114I-530J-2422*
G01*
X138654*
X140548Y334009*
Y336057*
G37*
X143489D02*
G36*
Y333403D01*
Y333400*
Y333400*
Y333399*
G75*
G02X143058Y332360I-1470*
G01*
X140302Y329604*
G75*
G02X139259Y329173I-1040J1040*
G01*
X134567*
G75*
G02X134040Y328647I-1995J1469*
G01*
Y328183*
X151276*
Y331720*
X158351*
Y328183*
X167253*
Y336057*
X158351*
G75*
G02X151276I-3537*
G01*
X143489*
G37*
X78367Y343931D02*
G36*
X78062Y343626D01*
G75*
G02X78357Y342455I-2186J-1172*
G01*
G75*
G02X73397I-2480*
G01*
G75*
G02X73884Y343931I2480*
G01*
X50533*
G75*
G02X46310Y339882I-4223J177*
G01*
G75*
G02X42087Y343931J4226*
G01*
X13635*
Y336057*
X16379*
G75*
G02X28485I6053J-1319*
G01*
X42147*
G75*
G02X50473I4163J-1949*
G01*
X82083*
Y343931*
X78367*
G37*
X90745D02*
G36*
X84631D01*
Y336057*
X87340*
G75*
G02X87177Y336943I2317J885*
G01*
G75*
G02X88148Y338911I2480J0*
G01*
G75*
G02X87176Y340880I1508J1969*
G01*
G75*
G02X90260Y343285I2480*
G01*
X90745Y343770*
Y343931*
G37*
X103934D02*
G36*
X103131D01*
G75*
G02X102761Y343128I-1271J99*
G01*
X101975Y342342*
G75*
G02X101166Y341972I-901J900*
G01*
Y340394*
X96847*
Y343931*
X95064*
Y340394*
X92088*
G75*
G02X91644Y339398I-2434J487*
G01*
X95064*
Y336057*
X96477*
Y339768*
X101536*
Y336057*
X103934*
Y343931*
G37*
X116532D02*
G36*
X106875D01*
Y336057*
X116532*
Y343931*
G37*
X125194Y336057D02*
G36*
Y340185D01*
X129513*
Y337980*
X130388*
G75*
G02X129696Y339699I1788J1719*
G01*
G75*
G02X130902Y341827I2480*
G01*
Y342124*
X130270Y342756*
X129513*
Y341181*
X125194*
Y343931*
X123410*
Y341181*
X119473*
Y340185*
X123410*
Y336057*
X125194*
G37*
X139667Y343931D02*
G36*
X132698D01*
X133076Y343553*
G75*
G02X133450Y342652I-902J-902*
G01*
Y341827*
G75*
G02X134656Y339699I-1274J-2128*
G01*
G75*
G02X133385Y337533I-2480*
G01*
G75*
G02X134558Y336057I-1209J-2165*
G01*
X140548*
Y341147*
G75*
G02X139539Y343143I1469J1996*
G01*
G75*
G02Y343144I2148J0*
G01*
G75*
G02X139667Y343931I2480*
G01*
G37*
X144370D02*
G36*
G75*
G02X144498Y343144I-2352J-787D01*
G01*
G75*
G02Y343143I-2148J0*
G01*
G75*
G02X143489Y341147I-2478*
G01*
Y336057*
X151276*
G75*
G02X158351I3537*
G01*
X167253*
Y343931*
X158351*
G75*
G02X151276I-3537*
G01*
X144370*
G37*
X42087D02*
G36*
G75*
G02X42083Y344108I4225J173D01*
G01*
G75*
G02X44249Y347798I4226*
G01*
Y350419*
G75*
G02X42766Y351805I2061J3690*
G01*
X28627*
Y344134*
X16237*
Y351805*
X13635*
Y343931*
X42087*
G37*
X82639Y351805D02*
G36*
X75595D01*
Y350882*
G75*
G02X76802Y348755I-1272J-2127*
G01*
G75*
G02Y348754I-2820J0*
G01*
G75*
G02X71842I-2480*
G01*
G75*
G02X73048Y350882I2480*
G01*
Y351805*
X65595*
Y350882*
G75*
G02X66802Y348755I-1272J-2127*
G01*
G75*
G02Y348754I-2820J0*
G01*
G75*
G02X61842I-2480*
G01*
G75*
G02X63048Y350882I2480*
G01*
Y351805*
X49854*
G75*
G02X48371Y350419I-3544J2303*
G01*
Y347798*
G75*
G02X50536Y344108I-2061J-3690*
G01*
G75*
G02X50533Y343931I-4229J-4*
G01*
X73884*
G75*
G02X75766Y344932I1993J-1476*
G01*
X82639Y351805*
G37*
X90745Y343931D02*
G36*
Y344797D01*
G75*
G02X87145Y345494I-1482J1988*
G01*
G75*
G02X84722Y344774I-1820J1686*
G01*
X84631Y344683*
Y343931*
X90745*
G37*
X100552Y351805D02*
G36*
X90178D01*
X90164Y351791*
G75*
G02X89263Y351417I-902J902*
G01*
X85853*
X78367Y343931*
X82083*
Y345211*
G75*
G02X82457Y346112I1275J-1*
G01*
X82920Y346575*
G75*
G02X82846Y347179I2406J605*
G01*
G75*
G02X87443Y348470I2480*
G01*
G75*
G02X91098Y348453I1820J-1684*
G01*
X100587*
Y351770*
X100552Y351805*
G37*
X96847Y343931D02*
G36*
Y345906D01*
X95064*
Y343931*
X96847*
G37*
X116532Y351805D02*
G36*
X106875D01*
Y343931*
X116532*
Y351805*
G37*
X103934D02*
G36*
X103135D01*
Y344030*
G75*
G02X103131Y343931I-1275J2*
G01*
X103934*
Y351805*
G37*
X144370Y343931D02*
G36*
X151276D01*
G75*
G02X158351I3537*
G01*
X167253*
Y351805*
X158721*
G75*
G02X150906I-3907*
G01*
X132825*
G75*
G02X132257Y351344I-1830J1673*
G01*
G75*
G02X131895Y350609I-1263J165*
G01*
X131109Y349822*
G75*
G02X130207Y349449I-902J902*
G01*
X129513*
Y347874*
X125194*
Y351805*
X123780*
Y347504*
X119473*
Y346878*
X123410*
Y343931*
X125194*
Y346878*
X129513*
Y345303*
X130798*
G75*
G02X131699Y344930I-1J-1275*
G01*
X132698Y343931*
X139667*
G75*
G02X144370I2352J-787*
G01*
G37*
X47135Y371589D02*
G36*
X13635D01*
Y351805*
X16237*
Y356524*
X28627*
Y351805*
X42766*
G75*
G02X42083Y354108I3544J2303*
G01*
G75*
G02X44249Y357798I4226*
G01*
Y360419*
G75*
G02X42083Y364108I2061J3690*
G01*
G75*
G02X44249Y367798I4226*
G01*
Y367848*
G75*
G02X44855Y369308I2061*
G01*
X47135Y371589*
G37*
X73048Y351805D02*
G36*
Y357022D01*
G75*
G02Y357024I1361J2*
G01*
G75*
G02X73099Y357378I1259*
G01*
G75*
G02X72727Y357323I-370J1202*
G01*
X67349*
X65595Y355569*
Y351805*
X73048*
G37*
X82639D02*
G36*
X84424Y353591D01*
G75*
G02X85306Y353965I901J-900*
G01*
G75*
G02X84814Y355447I1988J1482*
G01*
G75*
G02X85672Y357323I2480*
G01*
X84631*
Y357022*
G75*
G02X84257Y356120I-1275J1*
G01*
X82683Y354547*
G75*
G02X82433Y354352I-901J899*
G01*
G75*
G02X77728Y355447I-2225J1095*
G01*
G75*
G02X78585Y357323I2481J0*
G01*
X78146*
Y358898*
X77999*
X75595Y356494*
Y351805*
X82639*
G37*
X103934D02*
G36*
Y363106D01*
X99677Y367362*
X96919*
G75*
G02X90707Y368833I-2932J1470*
G01*
G75*
G02X92208Y371589I3279J1*
G01*
X52965*
X48857Y367481*
G75*
G02X50536Y364108I-2547J-3372*
G01*
G75*
G02X48371Y360419I-4226*
G01*
Y357798*
G75*
G02X50536Y354108I-2061J-3690*
G01*
G75*
G02X49854Y351805I-4226*
G01*
X63048*
Y356096*
G75*
G02X63422Y356998I1275J-1*
G01*
X65920Y359496*
G75*
G02X66822Y359870I902J-902*
G01*
X72200*
X75391Y363061*
Y365683*
G75*
G02X75764Y366584I1275J-1*
G01*
X76944Y367764*
G75*
G02X77845Y368138I902J-902*
G01*
X78146*
Y369713*
X82465*
Y366986*
X83243Y367764*
G75*
G02X84144Y368138I902J-902*
G01*
X84249*
Y369713*
X88568*
Y364016*
X84631*
Y363020*
X88568*
Y357575*
G75*
G02X89774Y355447I-1274J-2128*
G01*
G75*
G02X89656Y354689I-2480*
G01*
G75*
G02X90050Y354752I395J-1213*
G01*
X100680*
G75*
G02X101581Y354378I-1J-1275*
G01*
X102761Y353198*
G75*
G02X103135Y352297I-902J-902*
G01*
Y351805*
X103934*
G37*
X100552D02*
G36*
X100152Y352205D01*
X90578*
X90178Y351805*
X100552*
G37*
X123780D02*
G36*
X125194D01*
Y353571*
X128517*
G75*
G02X128767Y354567I2478J-93*
G01*
X125194*
Y360264*
X126080*
Y361260*
X125194*
Y366957*
X129513*
Y361260*
X128627*
Y360264*
X129513*
Y359644*
G75*
G02X133081Y357416I1089J-2228*
G01*
G75*
G02X132286Y355596I-2480J0*
G01*
G75*
G02X133475Y353478I-1291J-2117*
G01*
G75*
G02X132825Y351805I-2480*
G01*
X150906*
G75*
G02X158721I3907*
G01*
X167253*
Y371589*
X141717*
G75*
G02X129721I-5998*
G01*
X95766*
G75*
G02X96919Y370303I-1778J-2755*
G01*
X100286*
G75*
G02X101328Y369871I0J-1470*
G01*
X106443Y364756*
G75*
G02X106875Y363715I-1038J-1041*
G01*
Y363715*
Y351805*
X116532*
Y364108*
G75*
G02X118003Y365579I1470*
G01*
X119091*
Y366957*
X123410*
Y361260*
X119473*
Y360634*
X123780*
Y354197*
X119473*
Y353941*
X123780*
Y351805*
G37*
X50574Y397179D02*
G36*
X35055D01*
G75*
G02X35221Y395211I-11541J-1968*
G01*
G75*
G02X13635Y388931I-11707J0*
G01*
Y371589*
X47135*
X50574Y375027*
Y397179*
G37*
X86625D02*
G36*
X81467D01*
Y371781*
X53157*
X52965Y371589*
X92208*
G75*
G02X93784Y372106I1778J-2755*
G01*
X86625*
Y397179*
G37*
X145833D02*
G36*
X142087D01*
G75*
G02X129351I-6368*
G01*
X117519*
Y372106*
X94190*
G75*
G02X95766Y371589I-203J-3273*
G01*
X129721*
G75*
G02X141717I5998*
G01*
X167253*
Y388931*
G75*
G02X145666Y395211I-9880J6280*
G01*
G75*
G02X145833Y397179I11707J1*
G01*
G37*
X151093Y405091D02*
G36*
X29794D01*
G75*
G02X35055Y397179I-6279J-9880*
G01*
X50574*
Y402675*
X81467*
Y397179*
X86625*
Y403000*
X117519*
Y397179*
X129351*
G75*
G02X142087I6368*
G01*
X145833*
G75*
G02X151093Y405091I11540J-1969*
G01*
G37*
X324983Y137374D02*
G75*
G02X303146Y143242I-10130J5868D01*
G01*
G75*
G02X308985Y153372I11707*
G01*
X186863*
G75*
G02X192702Y143242I-5868J-10130*
G01*
G75*
G02X170865Y137374I-11707*
G01*
Y46748*
G75*
G02X192702Y40880I10130J-5868*
G01*
G75*
G02X186863Y30750I-11707*
G01*
X242041*
G75*
G02X241075Y31180I76J1469*
G01*
X240291Y31964*
G75*
G02X239859Y33006I1038J1041*
G01*
Y33307*
X239170*
Y39004*
X243489*
Y33689*
X245272*
Y39004*
X246454*
Y39957*
X245272*
Y45654*
X247044*
Y49148*
G75*
G02X247272Y49874I1274J0*
G01*
G75*
G02X246442Y49836I-528J2422*
G01*
Y49406*
X241532*
Y54567*
X239816*
G75*
G02X235208Y55841I-2128J1274*
G01*
G75*
G02X237989Y58302I2480*
G01*
Y63020*
X238681*
G75*
G02X239110Y63969I1468J-93*
G01*
X239894Y64753*
G75*
G02X240936Y65185I1041J-1038*
G01*
X250858*
X253183Y67510*
G75*
G02X254226Y67941I1040J-1040*
G01*
X260307*
X260319Y67953*
X250009*
G75*
G02X246048Y66057I-2478J93*
G01*
Y65591*
X241729*
Y67364*
G75*
G02X241511Y67539I683J1075*
G01*
X239946Y69104*
Y65591*
X235812*
Y60171*
G75*
G02X235438Y59270I-1274*
G01*
X234187Y58019*
G75*
G02X234262Y57415I-2405J-604*
G01*
G75*
G02X229302I-2480*
G01*
G75*
G02X232386Y59820I2480*
G01*
X233265Y60699*
Y65416*
G75*
G02X233076Y65176I-1089J661*
G01*
X229534Y61633*
G75*
G02X228633Y61260I-901J900*
G01*
X224692*
X223076Y59644*
Y59543*
G75*
G02X224282Y57415I-1274J-2128*
G01*
G75*
G02X219322I-2480*
G01*
G75*
G02X220528Y59543I2480*
G01*
Y60171*
G75*
G02X220902Y61072I1274*
G01*
X223263Y63433*
G75*
G02X224164Y63807I901J-900*
G01*
X228105*
X230902Y66604*
Y73557*
G75*
G02X231276Y74458I1274*
G01*
X233243Y76426*
G75*
G02X234144Y76799I901J-900*
G01*
X235627*
Y78374*
X239564*
Y93242*
G75*
G02X239937Y94143I1274*
G01*
X240401Y94607*
G75*
G02X244923Y96502I2405J604*
G01*
G75*
G02X248579Y96484I1820J-1685*
G01*
X258068*
Y99801*
X257633Y100236*
X248058*
X247644Y99822*
G75*
G02X246743Y99449I-901J900*
G01*
X243333*
X235543Y91658*
G75*
G02X235837Y90486I-2185J-1172*
G01*
G75*
G02X230877I-2480*
G01*
G75*
G02X233246Y92964I2480*
G01*
X241905Y101622*
G75*
G02X242786Y101996I901J-900*
G01*
G75*
G02X243152Y105354I1988J1482*
G01*
X242111*
Y105053*
G75*
G02X241737Y104152I-1274*
G01*
X240164Y102578*
G75*
G02X239913Y102383I-902J899*
G01*
G75*
G02X235208Y103478I-2225J1095*
G01*
G75*
G02X236066Y105354I2480*
G01*
X235627*
Y106929*
X235479*
X233076Y104526*
Y98913*
G75*
G02X234282Y96785I-1274J-2128*
G01*
G75*
G02X229322I-2480*
G01*
G75*
G02X230528Y98913I2480*
G01*
Y105053*
G75*
G02X230579Y105410I1274J1*
G01*
G75*
G02X230207Y105354I-372J1218*
G01*
X224830*
X223076Y103600*
Y98913*
G75*
G02X224282Y96785I-1274J-2128*
G01*
G75*
G02X219322I-2480*
G01*
G75*
G02X220528Y98913I2480*
G01*
Y104128*
G75*
G02X220902Y105029I1274*
G01*
X223401Y107528*
G75*
G02X224302Y107902I901J-900*
G01*
X229680*
X232871Y111093*
Y113715*
G75*
G02X233244Y114616I1274*
G01*
X234424Y115796*
G75*
G02X235326Y116169I901J-900*
G01*
X235627*
Y117744*
X239946*
Y115018*
X240724Y115796*
G75*
G02X241625Y116169I901J-900*
G01*
X241729*
Y117744*
X246048*
Y112047*
X242111*
Y111051*
X246048*
Y105606*
G75*
G02X247136Y102721I-1274J-2128*
G01*
G75*
G02X247530Y102783I394J-1211*
G01*
X258160*
G75*
G02X259061Y102410J-1274*
G01*
X260241Y101230*
G75*
G02X260615Y100329I-900J-901*
G01*
Y92061*
G75*
G02X260241Y91160I-1274*
G01*
X259455Y90374*
G75*
G02X258646Y90004I-901J900*
G01*
Y88425*
X254328*
Y93937*
X252544*
Y88425*
X249569*
G75*
G02X249125Y87429I-2432J487*
G01*
X252544*
Y81732*
X249365*
G75*
G02X249615Y80736I-2228J-1089*
G01*
X252544*
Y75039*
X248225*
Y76618*
G75*
G02X247417Y76988I92J1270*
G01*
X246237Y78168*
G75*
G02X246041Y78419I899J902*
G01*
G75*
G02X245928Y82809I1095J2225*
G01*
G75*
G02X245628Y86943I1209J2165*
G01*
G75*
G02X247741Y91317I1508J1969*
G01*
X248225Y91801*
Y92829*
G75*
G02X244626Y93526I-1482J1988*
G01*
G75*
G02X242202Y92806I-1820J1685*
G01*
X242111Y92715*
Y78374*
X246048*
Y75425*
X246679Y74813*
G75*
G02X248759Y70500I458J-2437*
G01*
X259643*
Y76573*
X259601Y76614*
X258646*
Y75039*
X254328*
Y80736*
X258646*
Y79161*
X260129*
G75*
G02X261030Y78788J-1274*
G01*
X261414Y78404*
Y111137*
X257157Y115394*
X254399*
G75*
G02X248187Y116864I-2932J1470*
G01*
G75*
G02X251264Y120138I3280*
G01*
X244105*
Y151031*
X274999*
Y120138*
X251670*
G75*
G02X254399Y118335I-203J-3274*
G01*
X257767*
G75*
G02X258808Y117902I0J-1470*
G01*
X263923Y112788*
G75*
G02X264355Y111746I-1038J-1041*
G01*
Y68439*
G75*
G02X263923Y67397I-1470J0*
G01*
X261958Y65432*
G75*
G02X261753Y65261I-1041J1040*
G01*
G75*
G02X263396Y62927I-837J-2334*
G01*
G75*
G02X263394Y62823I-2480J4*
G01*
X263568*
Y62232*
X264761*
Y63020*
X269080*
Y57323*
X264761*
Y58110*
X263568*
Y57520*
X258658*
Y61902*
G75*
G02X259555Y65000I2258J1026*
G01*
X254832*
X252655Y62823*
X254513*
Y57520*
X249603*
Y58110*
X248410*
Y57323*
X244091*
Y62244*
X242308*
Y57323*
X239676*
G75*
G02X239816Y57114I-1988J-1483*
G01*
X248711*
G75*
G02X249613Y56741J-1274*
G01*
X251186Y55167*
G75*
G02X251317Y55014I-901J-901*
G01*
X253181Y56879*
G75*
G02X254223Y57311I1041J-1038*
G01*
X270493*
Y63390*
X275552*
Y57989*
X275587Y58024*
Y67436*
X274443Y68580*
G75*
G02X274013Y69620I1040J1040*
G01*
G75*
G02Y69621I627J0*
G01*
G75*
G02Y69623I632J1*
G01*
Y112140*
G75*
G02X275483Y113610I1470*
G01*
X276572*
Y114988*
X280891*
Y109291*
X276954*
Y108665*
X281261*
Y102228*
X276954*
Y101972*
X281261*
Y95535*
X276954*
Y94909*
X280891*
Y89213*
X276954*
Y88217*
X280891*
Y82520*
X276954*
Y81894*
X281261*
Y75457*
X276954*
Y70229*
X277648Y69534*
X278378Y70265*
G75*
G02X279420Y70697I1041J-1038*
G01*
X286291*
X288580Y72985*
Y76678*
G75*
G02X288053Y77205I1470J1997*
G01*
X286993*
Y75827*
X282674*
Y81524*
X286993*
Y80146*
X288053*
G75*
G02X289127Y80977I1997J-1470*
G01*
G75*
G02X287189Y83150I530J2423*
G01*
X286993*
Y82520*
X282674*
Y88217*
X286993*
Y86012*
X287869*
G75*
G02X288383Y89858I1788J1719*
G01*
Y90156*
X287751Y90787*
X286993*
Y89213*
X282674*
Y94909*
X286993*
Y93335*
X288278*
G75*
G02X289180Y92961J-1274*
G01*
X290556Y91584*
G75*
G02X290930Y90683I-900J-901*
G01*
Y89858*
G75*
G02X290865Y85565I-1274J-2128*
G01*
G75*
G02X290580Y81098I-1209J-2165*
G01*
G75*
G02X292047Y80146I-530J-2423*
G01*
X296134*
X298028Y82040*
Y89178*
G75*
G02X297019Y91175I1470J1997*
G01*
G75*
G02X301979I2480*
G01*
G75*
G02X300969Y89178I-2480*
G01*
Y81434*
G75*
G02Y81432I-641J-1*
G01*
G75*
G02Y81431I-654J0*
G01*
G75*
G02X300539Y80391I-1470*
G01*
X297783Y77635*
G75*
G02X296740Y77205I-1040J1040*
G01*
X292047*
G75*
G02X291520Y76678I-1997J1470*
G01*
Y72376*
G75*
G02X291088Y71334I-1470J0*
G01*
X289800Y70046*
G75*
G02X291717Y65524I644J-2395*
G01*
Y63610*
X293095*
Y56732*
X287792*
Y63610*
X289170*
Y65524*
G75*
G02X288049Y68295I1274J2128*
G01*
X287942Y68188*
G75*
G02X286900Y67756I-1041J1038*
G01*
X282827*
G75*
G02X284394Y63610I-257J-2467*
G01*
X285221*
Y56732*
X279918*
Y63610*
X280745*
G75*
G02X282312Y67756I1825J1679*
G01*
X280029*
X278528Y66255*
Y57419*
G75*
G02Y57416I-641J-1*
G01*
G75*
G02Y57415I-654J0*
G01*
G75*
G02X278098Y56376I-1470*
G01*
X276523Y54801*
G75*
G02X275480Y54370I-1040J1040*
G01*
X263536*
G75*
G02X265758Y51904I-257J-2467*
G01*
G75*
G02X262977Y49442I-2480*
G01*
Y49406*
X258068*
Y54370*
X254832*
X253725Y53263*
Y48782*
G75*
G02X254615Y46024I-1470J-1997*
G01*
X259607*
Y39587*
X253957*
Y44983*
G75*
G02X253725Y44789I-1704J1803*
G01*
Y33689*
X254918*
Y39004*
X259237*
Y33307*
X258548*
Y32219*
G75*
G02X257154Y30750I-1470*
G01*
X308985*
G75*
G02X303146Y40880I5868J10130*
G01*
G75*
G02X324983Y46748I11707*
G01*
Y137374*
X308387Y99837D02*
G75*
G02X316202I3907D01*
G01*
G75*
G02X308387I-3907*
G01*
X308757Y79752D02*
X315831D01*
Y72677*
X308757*
Y79752*
Y84089D02*
G75*
G02X315831I3537D01*
G01*
G75*
G02X308757I-3537*
G01*
Y91963D02*
G75*
G02X315831I3537D01*
G01*
G75*
G02X308757I-3537*
G01*
X199194Y62140D02*
G75*
G02X208387I4596D01*
G01*
G75*
G02X199194I-4596*
G01*
Y72140D02*
G75*
G02X208387I4596D01*
G01*
G75*
G02X199194I-4596*
G01*
Y82140D02*
G75*
G02X208387I4596D01*
G01*
G75*
G02X199194I-4596*
G01*
X208054Y150707D02*
X238948D01*
Y119813*
X210638*
X206337Y115512*
G75*
G02X205851Y108450I-2547J-3372*
G01*
Y105830*
G75*
G02Y98450I-2061J-3690*
G01*
Y95830*
G75*
G02X203790Y87913I-2061J-3690*
G01*
G75*
G02X201729Y95830J4226*
G01*
Y98450*
G75*
G02Y105830I2061J3690*
G01*
Y108450*
G75*
G02Y115830I2061J3690*
G01*
Y115880*
G75*
G02X202335Y117339I2061*
G01*
X208054Y123058*
Y150707*
X289766Y103627D02*
G75*
G02X289738Y99376I-1291J-2117D01*
G01*
G75*
G02X289375Y98640I-1263J165*
G01*
X288589Y97854*
G75*
G02X287688Y97480I-901J900*
G01*
X286993*
Y95906*
X282674*
Y101602*
X285997*
G75*
G02X286247Y102598I2478J-93*
G01*
X282674*
Y108295*
X283560*
Y109291*
X282674*
Y114988*
X286993*
Y109291*
X286107*
Y108295*
X286993*
Y107675*
G75*
G02X289766Y103627I1089J-2228*
G01*
X286831Y145211D02*
G75*
G02X299568I6368D01*
G01*
G75*
G02X286831I-6368*
G01*
X287202Y119620D02*
G75*
G02X299198I5998D01*
G01*
G75*
G02X287202I-5998*
G01*
X173717Y82770D02*
G75*
G02X186107I6195D01*
G01*
G75*
G02X173717I-6195*
G01*
Y104555D02*
X186107D01*
Y92165*
X173717*
Y104555*
X237422Y46024D02*
X243072D01*
Y39587*
X237422*
Y46024*
X253957Y87799D02*
X259017D01*
Y81362*
X253957*
Y87799*
X266717Y44926D02*
G75*
G02X270483Y42805I1285J-2121D01*
G01*
G75*
G02X266717Y40684I-2480*
G01*
Y39957*
X266127*
Y36943*
G75*
G02X265753Y36042I-1274*
G01*
X265339Y35628*
Y33307*
X261020*
Y39004*
X263580*
Y39957*
X261808*
Y45654*
X266717*
Y44926*
X241293Y31000D02*
G36*
G75*
G02X241075Y31180I822J1217D01*
G01*
X240291Y31964*
G75*
G02X239859Y33006I1038J1041*
G01*
Y33006*
Y33307*
X239170*
Y39004*
X243489*
Y33689*
X245272*
Y39004*
X246454*
Y39957*
X245272*
Y42805*
X243072*
Y39587*
X237422*
Y42805*
X192542*
G75*
G02X192702Y40880I-11548J-1926*
G01*
G75*
G02X187274Y31000I-11707*
G01*
X241293*
G37*
X303306Y42805D02*
G36*
X270483D01*
G75*
G02X266717Y40684I-2480J0*
G01*
Y39957*
X266127*
Y36943*
G75*
G02X265753Y36042I-1275J1*
G01*
X265339Y35628*
Y33307*
X261020*
Y39004*
X263580*
Y39957*
X261808*
Y42805*
X259607*
Y39587*
X253957*
Y42805*
X253725*
Y33689*
X254918*
Y39004*
X259237*
Y33307*
X258548*
Y32219*
G75*
G02X257900Y31000I-1471J0*
G01*
X308574*
G75*
G02X303146Y40880I6280J9880*
G01*
G75*
G02X303306Y42805I11707J0*
G01*
G37*
X245272D02*
G36*
Y45654D01*
X247044*
Y49148*
G75*
G02X247272Y49874I1276J0*
G01*
G75*
G02X246442Y49836I-528J2420*
G01*
Y49406*
X241532*
Y54567*
X239816*
G75*
G02X235208Y55841I-2128J1274*
G01*
Y55841*
G75*
G02X237989Y58302I2480*
G01*
Y62140*
X235812*
Y60171*
G75*
G02X235438Y59270I-1275J1*
G01*
X234187Y58019*
G75*
G02X234262Y57415I-2416J-606*
G01*
G75*
G02X229302I-2480*
G01*
G75*
G02X232386Y59820I2480*
G01*
X233265Y60699*
Y62140*
X230040*
X229534Y61633*
G75*
G02X228633Y61260I-902J902*
G01*
X224692*
X223076Y59644*
Y59543*
G75*
G02X224282Y57416I-1272J-2127*
G01*
G75*
G02Y57415I-2820J0*
G01*
G75*
G02X219322I-2480*
G01*
G75*
G02X220528Y59543I2480*
G01*
Y60171*
G75*
G02X220902Y61072I1275J-1*
G01*
X221969Y62140*
X208387*
G75*
G02X199194I-4596*
G01*
X171115*
Y47159*
G75*
G02X192542Y42805I9880J-6280*
G01*
X237422*
Y46024*
X243072*
Y42805*
X245272*
G37*
X253957D02*
G36*
Y44983D01*
G75*
G02X253725Y44789I-1617J1699*
G01*
Y42805*
X253957*
G37*
X270493Y62140D02*
G36*
X269080D01*
Y57323*
X264761*
Y58110*
X263568*
Y57520*
X258658*
Y61902*
G75*
G02X258565Y62140I2257J1026*
G01*
X254513*
Y57520*
X249603*
Y58110*
X248410*
Y57323*
X244091*
Y62140*
X242308*
Y57323*
X239676*
G75*
G02X239816Y57114I-2111J-1565*
G01*
X248711*
G75*
G02X249613Y56741I-1J-1275*
G01*
X251186Y55167*
G75*
G02X251317Y55014I-883J-886*
G01*
X253181Y56879*
G75*
G02X254223Y57311I1041J-1038*
G01*
X270493*
Y62140*
G37*
X275587D02*
G36*
X275552D01*
Y57989*
X275587Y58024*
Y62140*
G37*
X324733Y47159D02*
G36*
Y62140D01*
X293095*
Y56732*
X287792*
Y62140*
X285221*
Y56732*
X279918*
Y62140*
X278528*
Y57419*
Y57416*
Y57415*
Y57415*
G75*
G02X278098Y56376I-1470*
G01*
X276523Y54801*
G75*
G02X275480Y54370I-1040J1040*
G01*
X263536*
G75*
G02X265758Y51904I-257J-2466*
G01*
Y51903*
G75*
G02X262977Y49442I-2480*
G01*
Y49406*
X258068*
Y54370*
X254832*
X253725Y53263*
Y48782*
G75*
G02X254735Y46786I-1470J-1996*
G01*
G75*
G02X254615Y46024I-2480*
G01*
X259607*
Y42805*
X261808*
Y45654*
X266717*
Y44926*
G75*
G02X270483Y42805I1285J-2121*
G01*
X303306*
G75*
G02X324733Y47159I11547J-1926*
G01*
G37*
X233032Y76215D02*
G36*
X205917D01*
G75*
G02X208387Y72140I-2127J-4075*
G01*
G75*
G02X199194I-4596*
G01*
G75*
G02X201663Y76215I4596*
G01*
X171115*
Y62140*
X199194*
G75*
G02X208387I4596*
G01*
X221969*
X223263Y63433*
G75*
G02X224164Y63807I902J-902*
G01*
X228105*
X230902Y66604*
Y73557*
G75*
G02X231276Y74458I1275J-1*
G01*
X233032Y76215*
G37*
X233265Y62140D02*
G36*
Y65416D01*
G75*
G02X233076Y65176I-1094J665*
G01*
X230040Y62140*
X233265*
G37*
X237989D02*
G36*
Y63020D01*
X238681*
G75*
G02X239110Y63969I1469J-93*
G01*
X239894Y64753*
G75*
G02X240936Y65185I1041J-1038*
G01*
X250858*
X253183Y67510*
G75*
G02X254226Y67941I1040J-1040*
G01*
X260307*
X260319Y67953*
X250009*
G75*
G02X246048Y66057I-2478J93*
G01*
Y65591*
X241729*
Y67364*
G75*
G02X241511Y67539I696J1092*
G01*
X239946Y69104*
Y65591*
X235812*
Y62140*
X237989*
G37*
X244091D02*
G36*
Y62244D01*
X242308*
Y62140*
X244091*
G37*
X259643Y76215D02*
G36*
X258646D01*
Y75039*
X254328*
Y76215*
X252544*
Y75039*
X248225*
Y76215*
X246048*
Y75425*
X246679Y74813*
G75*
G02X249617Y72376I458J-2437*
G01*
G75*
G02X248759Y70500I-2480*
G01*
X259643*
Y76215*
G37*
X258565Y62140D02*
G36*
G75*
G02X258436Y62927I2351J787D01*
G01*
G75*
G02X259555Y65000I2480*
G01*
X254832*
X252655Y62823*
X254513*
Y62140*
X258565*
G37*
X274013Y76215D02*
G36*
X264355D01*
Y68439*
Y68439*
G75*
G02X263923Y67397I-1470*
G01*
X261958Y65432*
G75*
G02X261753Y65261I-1026J1022*
G01*
G75*
G02X263396Y62927I-837J-2335*
G01*
G75*
G02X263394Y62823I-3499J27*
G01*
X263568*
Y62232*
X264761*
Y63020*
X269080*
Y62140*
X270493*
Y63390*
X275552*
Y62140*
X275587*
Y67436*
X274443Y68580*
G75*
G02X274013Y69620I1039J1039*
G01*
Y69620*
Y69621*
Y69623*
Y76215*
G37*
X288580D02*
G36*
X286993D01*
Y75827*
X282674*
Y76215*
X281261*
Y75457*
X276954*
Y70229*
X277648Y69534*
X278378Y70265*
G75*
G02X279420Y70697I1041J-1038*
G01*
X286291*
X288580Y72985*
Y76215*
G37*
X279918Y62140D02*
G36*
Y63610D01*
X280745*
G75*
G02X280090Y65289I1824J1679*
G01*
G75*
G02X282312Y67756I2480*
G01*
X280029*
X278528Y66255*
Y62140*
X279918*
G37*
X287792D02*
G36*
Y63610D01*
X289170*
Y65524*
G75*
G02X287964Y67652I1274J2128*
G01*
G75*
G02X288049Y68295I2480J0*
G01*
X287942Y68188*
G75*
G02X286900Y67756I-1041J1038*
G01*
X282827*
G75*
G02X285050Y65289I-257J-2467*
G01*
G75*
G02X284394Y63610I-2480*
G01*
X285221*
Y62140*
X287792*
G37*
X315831Y76215D02*
G36*
Y72677D01*
X308757*
Y76215*
X291520*
Y72376*
Y72376*
G75*
G02X291088Y71334I-1470*
G01*
X289800Y70046*
G75*
G02X292924Y67652I644J-2395*
G01*
G75*
G02X291717Y65524I-2480*
G01*
Y63610*
X293095*
Y62140*
X324733*
Y76215*
X315831*
G37*
X233032D02*
G36*
X233243Y76426D01*
G75*
G02X234144Y76799I902J-902*
G01*
X235627*
Y78374*
X239564*
Y84089*
X207953*
G75*
G02X208387Y82140I-4163J-1948*
G01*
G75*
G02X199194I-4596*
G01*
G75*
G02X199627Y84089I4596J0*
G01*
X185965*
G75*
G02X186107Y82770I-6053J-1319*
G01*
G75*
G02X173717I-6195*
G01*
G75*
G02X173859Y84089I6195J0*
G01*
X171115*
Y76215*
X201663*
G75*
G02X205917I2127J-4075*
G01*
X233032*
G37*
X244820Y84089D02*
G36*
X242111D01*
Y78374*
X246048*
Y76215*
X248225*
Y76618*
G75*
G02X247417Y76988I92J1270*
G01*
X246237Y78168*
G75*
G02X246041Y78419I899J901*
G01*
G75*
G02X244657Y80644I1096J2225*
G01*
G75*
G02X245928Y82809I2480*
G01*
G75*
G02X244820Y84089I1209J2165*
G01*
G37*
X261414D02*
G36*
X259017D01*
Y81362*
X253957*
Y84089*
X252544*
Y81732*
X249365*
G75*
G02X249615Y80736I-2228J-1089*
G01*
X252544*
Y76215*
X254328*
Y80736*
X258646*
Y79161*
X260129*
G75*
G02X261030Y78788I-1J-1275*
G01*
X261414Y78404*
Y84089*
G37*
X259643Y76215D02*
G36*
Y76573D01*
X259601Y76614*
X258646*
Y76215*
X259643*
G37*
X274013D02*
G36*
Y84089D01*
X264355*
Y76215*
X274013*
G37*
X282674Y84089D02*
G36*
X280891D01*
Y82520*
X276954*
Y81894*
X281261*
Y76215*
X282674*
Y81524*
X286993*
Y80146*
X288053*
G75*
G02X289127Y80977I1995J-1468*
G01*
G75*
G02X287189Y83150I530J2423*
G01*
X286993*
Y82520*
X282674*
Y84089*
G37*
X288580Y76215D02*
G36*
Y76678D01*
G75*
G02X288053Y77205I1469J1995*
G01*
X286993*
Y76215*
X288580*
G37*
X298028Y84089D02*
G36*
X292039D01*
G75*
G02X292136Y83400I-2382J-689*
G01*
G75*
G02X290580Y81098I-2480*
G01*
G75*
G02X292047Y80146I-530J-2422*
G01*
X296134*
X298028Y82040*
Y84089*
G37*
X300969D02*
G36*
Y81434D01*
Y81432*
Y81431*
Y81431*
G75*
G02X300539Y80391I-1470*
G01*
X297783Y77635*
G75*
G02X296740Y77205I-1040J1040*
G01*
X292047*
G75*
G02X291520Y76678I-1995J1469*
G01*
Y76215*
X308757*
Y79752*
X315831*
Y76215*
X324733*
Y84089*
X315831*
G75*
G02X308757I-3537*
G01*
X300969*
G37*
X235847Y91963D02*
G36*
X235543Y91658D01*
G75*
G02X235837Y90486I-2186J-1172*
G01*
G75*
G02X230877I-2480*
G01*
G75*
G02X231365Y91963I2480*
G01*
X208013*
G75*
G02X203790Y87913I-4223J177*
G01*
G75*
G02X199567Y91963J4226*
G01*
X171115*
Y84089*
X173859*
G75*
G02X185965I6053J-1319*
G01*
X199627*
G75*
G02X207953I4163J-1949*
G01*
X239564*
Y91963*
X235847*
G37*
X248225D02*
G36*
X242111D01*
Y84089*
X244820*
G75*
G02X244657Y84974I2317J885*
G01*
G75*
G02X245628Y86943I2480J0*
G01*
G75*
G02X244657Y88911I1508J1969*
G01*
G75*
G02X247741Y91317I2480*
G01*
X248225Y91801*
Y91963*
G37*
X261414D02*
G36*
X260611D01*
G75*
G02X260241Y91160I-1271J99*
G01*
X259455Y90374*
G75*
G02X258646Y90004I-901J900*
G01*
Y88425*
X254328*
Y91963*
X252544*
Y88425*
X249569*
G75*
G02X249125Y87429I-2434J487*
G01*
X252544*
Y84089*
X253957*
Y87799*
X259017*
Y84089*
X261414*
Y91963*
G37*
X274013D02*
G36*
X264355D01*
Y84089*
X274013*
Y91963*
G37*
X282674Y84089D02*
G36*
Y88217D01*
X286993*
Y86012*
X287869*
G75*
G02X287176Y87730I1788J1719*
G01*
G75*
G02X288383Y89858I2480*
G01*
Y90156*
X287751Y90787*
X286993*
Y89213*
X282674*
Y91963*
X280891*
Y89213*
X276954*
Y88217*
X280891*
Y84089*
X282674*
G37*
X297147Y91963D02*
G36*
X290178D01*
X290556Y91584*
G75*
G02X290930Y90683I-902J-902*
G01*
Y89858*
G75*
G02X292136Y87730I-1274J-2128*
G01*
G75*
G02X290865Y85565I-2480*
G01*
G75*
G02X292039Y84089I-1209J-2165*
G01*
X298028*
Y89178*
G75*
G02X297019Y91174I1469J1996*
G01*
G75*
G02Y91175I2148J0*
G01*
G75*
G02X297147Y91963I2480*
G01*
G37*
X301850D02*
G36*
G75*
G02X301979Y91175I-2352J-787D01*
G01*
G75*
G02Y91174I-2148J0*
G01*
G75*
G02X300969Y89178I-2478*
G01*
Y84089*
X308757*
G75*
G02X315831I3537*
G01*
X324733*
Y91963*
X315831*
G75*
G02X308757I-3537*
G01*
X301850*
G37*
X199567D02*
G36*
G75*
G02X199564Y92140I4225J173D01*
G01*
G75*
G02X201729Y95830I4226*
G01*
Y98450*
G75*
G02X200246Y99837I2061J3690*
G01*
X186107*
Y92165*
X173717*
Y99837*
X171115*
Y91963*
X199567*
G37*
X240119Y99837D02*
G36*
X233076D01*
Y98913*
G75*
G02X234282Y96786I-1272J-2127*
G01*
G75*
G02Y96785I-2820J0*
G01*
G75*
G02X229322I-2480*
G01*
G75*
G02X230528Y98913I2480*
G01*
Y99837*
X223076*
Y98913*
G75*
G02X224282Y96786I-1272J-2127*
G01*
G75*
G02Y96785I-2820J0*
G01*
G75*
G02X219322I-2480*
G01*
G75*
G02X220528Y98913I2480*
G01*
Y99837*
X207334*
G75*
G02X205851Y98450I-3544J2303*
G01*
Y95830*
G75*
G02X208017Y92140I-2061J-3690*
G01*
G75*
G02X208013Y91963I-4229J-4*
G01*
X231365*
G75*
G02X233246Y92964I1993J-1476*
G01*
X240119Y99837*
G37*
X248225Y91963D02*
G36*
Y92829D01*
G75*
G02X244626Y93526I-1482J1988*
G01*
G75*
G02X242202Y92806I-1820J1686*
G01*
X242111Y92715*
Y91963*
X248225*
G37*
X258032Y99837D02*
G36*
X247658D01*
X247644Y99822*
G75*
G02X246743Y99449I-902J902*
G01*
X243333*
X235847Y91963*
X239564*
Y93242*
G75*
G02X239937Y94143I1275J-1*
G01*
X240401Y94607*
G75*
G02X240326Y95211I2406J605*
G01*
G75*
G02X244923Y96502I2480*
G01*
G75*
G02X248579Y96484I1820J-1684*
G01*
X258068*
Y99801*
X258032Y99837*
G37*
X254328Y91963D02*
G36*
Y93937D01*
X252544*
Y91963*
X254328*
G37*
X274013Y99837D02*
G36*
X264355D01*
Y91963*
X274013*
Y99837*
G37*
X261414D02*
G36*
X260615D01*
Y92061*
G75*
G02X260611Y91963I-1275J2*
G01*
X261414*
Y99837*
G37*
X301850Y91963D02*
G36*
X308757D01*
G75*
G02X315831I3537*
G01*
X324733*
Y99837*
X316202*
G75*
G02X308387I-3907*
G01*
X290306*
G75*
G02X289738Y99376I-1830J1673*
G01*
G75*
G02X289375Y98640I-1263J165*
G01*
X288589Y97854*
G75*
G02X287688Y97480I-902J902*
G01*
X286993*
Y95906*
X282674*
Y99837*
X281261*
Y95535*
X276954*
Y94909*
X280891*
Y91963*
X282674*
Y94909*
X286993*
Y93335*
X288278*
G75*
G02X289180Y92961I-1J-1275*
G01*
X290178Y91963*
X297147*
G75*
G02X301850I2352J-787*
G01*
G37*
X204616Y119620D02*
G36*
X171115D01*
Y99837*
X173717*
Y104555*
X186107*
Y99837*
X200246*
G75*
G02X199564Y102140I3544J2303*
G01*
G75*
G02X201729Y105830I4226*
G01*
Y108450*
G75*
G02X199564Y112140I2061J3690*
G01*
G75*
G02X201729Y115830I4226*
G01*
Y115880*
G75*
G02X202335Y117339I2061*
G01*
X204616Y119620*
G37*
X230528Y99837D02*
G36*
Y105053D01*
G75*
G02Y105056I1361J2*
G01*
G75*
G02X230579Y105410I1259*
G01*
G75*
G02X230207Y105354I-370J1202*
G01*
X224830*
X223076Y103600*
Y99837*
X230528*
G37*
X240119D02*
G36*
X241905Y101622D01*
G75*
G02X242786Y101996I901J-900*
G01*
G75*
G02X242294Y103478I1988J1482*
G01*
G75*
G02X243152Y105354I2480*
G01*
X242111*
Y105053*
G75*
G02X241737Y104152I-1275J1*
G01*
X240164Y102578*
G75*
G02X239913Y102383I-901J899*
G01*
G75*
G02X235208Y103478I-2225J1095*
G01*
G75*
G02X236066Y105354I2481J0*
G01*
X235627*
Y106929*
X235479*
X233076Y104526*
Y99837*
X240119*
G37*
X261414D02*
G36*
Y111137D01*
X257157Y115394*
X254399*
G75*
G02X248187Y116864I-2932J1470*
G01*
G75*
G02Y116865I4511J0*
G01*
G75*
G02X249689Y119620I3279*
G01*
X210445*
X206337Y115512*
G75*
G02X208017Y112140I-2547J-3372*
G01*
G75*
G02X205851Y108450I-4226*
G01*
Y105830*
G75*
G02X208017Y102140I-2061J-3690*
G01*
G75*
G02X207334Y99837I-4226*
G01*
X220528*
Y104128*
G75*
G02X220902Y105029I1275J-1*
G01*
X223401Y107528*
G75*
G02X224302Y107902I902J-902*
G01*
X229680*
X232871Y111093*
Y113715*
G75*
G02X233244Y114616I1275J-1*
G01*
X234424Y115796*
G75*
G02X235326Y116169I902J-902*
G01*
X235627*
Y117744*
X239946*
Y115018*
X240724Y115796*
G75*
G02X241625Y116169I902J-902*
G01*
X241729*
Y117744*
X246048*
Y112047*
X242111*
Y111051*
X246048*
Y105606*
G75*
G02X247254Y103478I-1274J-2128*
G01*
G75*
G02X247136Y102721I-2480*
G01*
G75*
G02X247530Y102783I395J-1213*
G01*
X258160*
G75*
G02X259061Y102410I-1J-1275*
G01*
X260241Y101230*
G75*
G02X260615Y100329I-902J-902*
G01*
Y99837*
X261414*
G37*
X258032D02*
G36*
X257633Y100236D01*
X248058*
X247658Y99837*
X258032*
G37*
X281261D02*
G36*
X282674D01*
Y101602*
X285997*
G75*
G02X286247Y102598I2478J-93*
G01*
X282674*
Y108295*
X283560*
Y109291*
X282674*
Y114988*
X286993*
Y109291*
X286107*
Y108295*
X286993*
Y107675*
G75*
G02X290562Y105447I1089J-2228*
G01*
G75*
G02X289766Y103627I-2480J0*
G01*
G75*
G02X290955Y101510I-1291J-2117*
G01*
G75*
G02X290306Y99837I-2480*
G01*
X308387*
G75*
G02X316202I3907*
G01*
X324733*
Y119620*
X299198*
G75*
G02X287202I-5998*
G01*
X253246*
G75*
G02X254399Y118335I-1778J-2755*
G01*
X257767*
G75*
G02X258808Y117902I0J-1470*
G01*
X263923Y112788*
G75*
G02X264355Y111746I-1038J-1041*
G01*
Y111746*
Y99837*
X274013*
Y112140*
G75*
G02X275483Y113610I1470*
G01*
X276572*
Y114988*
X280891*
Y109291*
X276954*
Y108665*
X281261*
Y102228*
X276954*
Y101972*
X281261*
Y99837*
G37*
X208054Y145211D02*
G36*
X192535D01*
G75*
G02X192702Y143242I-11541J-1968*
G01*
G75*
G02X171115Y136963I-11707J0*
G01*
Y119620*
X204616*
X208054Y123058*
Y145211*
G37*
X244105D02*
G36*
X238948D01*
Y119813*
X210638*
X210445Y119620*
X249689*
G75*
G02X251264Y120138I1778J-2755*
G01*
X244105*
Y145211*
G37*
X303313D02*
G36*
X299568D01*
G75*
G02X286831I-6368*
G01*
X274999*
Y120138*
X251670*
G75*
G02X253246Y119620I-203J-3273*
G01*
X287202*
G75*
G02X299198I5998*
G01*
X324733*
Y136963*
G75*
G02X303146Y143242I-9880J6280*
G01*
G75*
G02X303313Y145211I11707J1*
G01*
G37*
X308574Y153122D02*
G36*
X187274D01*
G75*
G02X192535Y145211I-6279J-9880*
G01*
X208054*
Y150707*
X238948*
Y145211*
X244105*
Y151031*
X274999*
Y145211*
X286831*
G75*
G02X299568I6368*
G01*
X303313*
G75*
G02X308574Y153122I11540J-1969*
G01*
G37*
X324983Y263359D02*
G75*
G02X303146Y269226I-10130J5868D01*
G01*
G75*
G02X308985Y279356I11707*
G01*
X186863*
G75*
G02X192702Y269226I-5868J-10130*
G01*
G75*
G02X170865Y263359I-11707*
G01*
Y172732*
G75*
G02X192702Y166864I10130J-5868*
G01*
G75*
G02X186863Y156734I-11707*
G01*
X242041*
G75*
G02X241075Y157165I76J1469*
G01*
X240291Y157948*
G75*
G02X239859Y158990I1038J1041*
G01*
Y159291*
X239170*
Y164988*
X243489*
Y159673*
X245272*
Y164988*
X246454*
Y165941*
X245272*
Y171638*
X247044*
Y175132*
G75*
G02X247272Y175859I1274J0*
G01*
G75*
G02X246442Y175820I-528J2422*
G01*
Y175390*
X241532*
Y180551*
X239816*
G75*
G02X235208Y181825I-2128J1274*
G01*
G75*
G02X237989Y184286I2480*
G01*
Y189004*
X238681*
G75*
G02X239110Y189953I1468J-93*
G01*
X239894Y190737*
G75*
G02X240936Y191169I1041J-1038*
G01*
X250858*
X253183Y193494*
G75*
G02X254226Y193925I1040J-1040*
G01*
X260307*
X260319Y193937*
X250009*
G75*
G02X246048Y192041I-2478J93*
G01*
Y191575*
X241729*
Y193348*
G75*
G02X241511Y193523I683J1075*
G01*
X239946Y195089*
Y191575*
X235812*
Y186156*
G75*
G02X235438Y185254I-1274*
G01*
X234187Y184004*
G75*
G02X234262Y183400I-2405J-604*
G01*
G75*
G02X229302I-2480*
G01*
G75*
G02X232386Y185805I2480*
G01*
X233265Y186683*
Y191400*
G75*
G02X233076Y191160I-1089J661*
G01*
X229534Y187618*
G75*
G02X228633Y187244I-901J900*
G01*
X224692*
X223076Y185628*
Y185528*
G75*
G02X224282Y183400I-1274J-2128*
G01*
G75*
G02X219322I-2480*
G01*
G75*
G02X220528Y185528I2480*
G01*
Y186156*
G75*
G02X220902Y187057I1274*
G01*
X223263Y189418*
G75*
G02X224164Y189791I901J-900*
G01*
X228105*
X230902Y192589*
Y199541*
G75*
G02X231276Y200443I1274*
G01*
X233243Y202410*
G75*
G02X234144Y202783I901J-900*
G01*
X235627*
Y204358*
X239564*
Y219226*
G75*
G02X239937Y220128I1274*
G01*
X240401Y220591*
G75*
G02X244923Y222486I2405J604*
G01*
G75*
G02X248579Y222469I1820J-1685*
G01*
X258068*
Y225785*
X257633Y226220*
X248058*
X247644Y225807*
G75*
G02X246743Y225433I-901J900*
G01*
X243333*
X235543Y217642*
G75*
G02X235837Y216470I-2185J-1172*
G01*
G75*
G02X230877I-2480*
G01*
G75*
G02X233246Y218948I2480*
G01*
X241905Y227607*
G75*
G02X242786Y227980I901J-900*
G01*
G75*
G02X243152Y231339I1988J1482*
G01*
X242111*
Y231037*
G75*
G02X241737Y230136I-1274*
G01*
X240164Y228563*
G75*
G02X239913Y228367I-902J899*
G01*
G75*
G02X235208Y229463I-2225J1095*
G01*
G75*
G02X236066Y231339I2480*
G01*
X235627*
Y232913*
X235479*
X233076Y230510*
Y224898*
G75*
G02X234282Y222770I-1274J-2128*
G01*
G75*
G02X229322I-2480*
G01*
G75*
G02X230528Y224898I2480*
G01*
Y231037*
G75*
G02X230579Y231394I1274J1*
G01*
G75*
G02X230207Y231339I-372J1218*
G01*
X224830*
X223076Y229585*
Y224898*
G75*
G02X224282Y222770I-1274J-2128*
G01*
G75*
G02X219322I-2480*
G01*
G75*
G02X220528Y224898I2480*
G01*
Y230112*
G75*
G02X220902Y231013I1274*
G01*
X223401Y233512*
G75*
G02X224302Y233886I901J-900*
G01*
X229680*
X232871Y237077*
Y239699*
G75*
G02X233244Y240600I1274*
G01*
X234424Y241780*
G75*
G02X235326Y242154I901J-900*
G01*
X235627*
Y243728*
X239946*
Y241002*
X240724Y241780*
G75*
G02X241625Y242154I901J-900*
G01*
X241729*
Y243728*
X246048*
Y238031*
X242111*
Y237035*
X246048*
Y231591*
G75*
G02X247136Y228705I-1274J-2128*
G01*
G75*
G02X247530Y228768I394J-1211*
G01*
X258160*
G75*
G02X259061Y228394J-1274*
G01*
X260241Y227214*
G75*
G02X260615Y226313I-900J-901*
G01*
Y218045*
G75*
G02X260241Y217144I-1274*
G01*
X259455Y216358*
G75*
G02X258646Y215988I-901J900*
G01*
Y214409*
X254328*
Y219921*
X252544*
Y214409*
X249569*
G75*
G02X249125Y213413I-2432J487*
G01*
X252544*
Y207717*
X249365*
G75*
G02X249615Y206720I-2228J-1089*
G01*
X252544*
Y201024*
X248225*
Y202602*
G75*
G02X247417Y202972I92J1270*
G01*
X246237Y204152*
G75*
G02X246041Y204403I899J902*
G01*
G75*
G02X245928Y208793I1095J2225*
G01*
G75*
G02X245628Y212927I1209J2165*
G01*
G75*
G02X247741Y217301I1508J1969*
G01*
X248225Y217785*
Y218813*
G75*
G02X244626Y219510I-1482J1988*
G01*
G75*
G02X242202Y218790I-1820J1685*
G01*
X242111Y218699*
Y204358*
X246048*
Y201409*
X246679Y200798*
G75*
G02X248759Y196484I458J-2437*
G01*
X259643*
Y202557*
X259601Y202598*
X258646*
Y201024*
X254328*
Y206720*
X258646*
Y205146*
X260129*
G75*
G02X261030Y204772J-1274*
G01*
X261414Y204388*
Y237121*
X257157Y241378*
X254399*
G75*
G02X248187Y242848I-2932J1470*
G01*
G75*
G02X251264Y246122I3280*
G01*
X244105*
Y277016*
X274999*
Y246122*
X251670*
G75*
G02X254399Y244319I-203J-3274*
G01*
X257767*
G75*
G02X258808Y243887I0J-1470*
G01*
X263923Y238772*
G75*
G02X264355Y237730I-1038J-1041*
G01*
Y194423*
G75*
G02X263923Y193381I-1470J0*
G01*
X261958Y191417*
G75*
G02X261753Y191246I-1041J1040*
G01*
G75*
G02X263396Y188911I-837J-2334*
G01*
G75*
G02X263394Y188807I-2480J4*
G01*
X263568*
Y188217*
X264761*
Y189004*
X269080*
Y183307*
X264761*
Y184094*
X263568*
Y183504*
X258658*
Y187886*
G75*
G02X259555Y190984I2258J1026*
G01*
X254832*
X252655Y188807*
X254513*
Y183504*
X249603*
Y184094*
X248410*
Y183307*
X244091*
Y188228*
X242308*
Y183307*
X239676*
G75*
G02X239816Y183098I-1988J-1483*
G01*
X248711*
G75*
G02X249613Y182725J-1274*
G01*
X251186Y181151*
G75*
G02X251317Y180998I-901J-901*
G01*
X253181Y182863*
G75*
G02X254223Y183295I1041J-1038*
G01*
X270493*
Y189374*
X275552*
Y183973*
X275587Y184009*
Y193420*
X274443Y194565*
G75*
G02X274013Y195604I1040J1040*
G01*
G75*
G02Y195605I627J0*
G01*
G75*
G02Y195607I632J1*
G01*
Y238124*
G75*
G02X275483Y239594I1470*
G01*
X276572*
Y240972*
X280891*
Y235276*
X276954*
Y234650*
X281261*
Y228213*
X276954*
Y227957*
X281261*
Y221520*
X276954*
Y220894*
X280891*
Y215197*
X276954*
Y214201*
X280891*
Y208504*
X276954*
Y207878*
X281261*
Y201441*
X276954*
Y196213*
X277648Y195519*
X278378Y196249*
G75*
G02X279420Y196681I1041J-1038*
G01*
X286291*
X288580Y198969*
Y202663*
G75*
G02X288053Y203189I1470J1997*
G01*
X286993*
Y201811*
X282674*
Y207508*
X286993*
Y206130*
X288053*
G75*
G02X289127Y206961I1997J-1470*
G01*
G75*
G02X287189Y209134I530J2423*
G01*
X286993*
Y208504*
X282674*
Y214201*
X286993*
Y211996*
X287869*
G75*
G02X288383Y215843I1788J1719*
G01*
Y216140*
X287751Y216772*
X286993*
Y215197*
X282674*
Y220894*
X286993*
Y219319*
X288278*
G75*
G02X289180Y218945J-1274*
G01*
X290556Y217569*
G75*
G02X290930Y216667I-900J-901*
G01*
Y215843*
G75*
G02X290865Y211549I-1274J-2128*
G01*
G75*
G02X290580Y207082I-1209J-2165*
G01*
G75*
G02X292047Y206130I-530J-2423*
G01*
X296134*
X298028Y208024*
Y215163*
G75*
G02X297019Y217159I1470J1997*
G01*
G75*
G02X301979I2480*
G01*
G75*
G02X300969Y215163I-2480*
G01*
Y207419*
G75*
G02Y207416I-641J-1*
G01*
G75*
G02Y207415I-654J0*
G01*
G75*
G02X300539Y206376I-1470*
G01*
X297783Y203620*
G75*
G02X296740Y203189I-1040J1040*
G01*
X292047*
G75*
G02X291520Y202663I-1997J1470*
G01*
Y198360*
G75*
G02X291088Y197319I-1470J0*
G01*
X289800Y196031*
G75*
G02X291717Y191508I644J-2395*
G01*
Y189594*
X293095*
Y182717*
X287792*
Y189594*
X289170*
Y191508*
G75*
G02X288049Y194280I1274J2128*
G01*
X287942Y194172*
G75*
G02X286900Y193740I-1041J1038*
G01*
X282827*
G75*
G02X284394Y189594I-257J-2467*
G01*
X285221*
Y182717*
X279918*
Y189594*
X280745*
G75*
G02X282312Y193740I1825J1679*
G01*
X280029*
X278528Y192239*
Y183403*
G75*
G02Y183400I-641J-1*
G01*
G75*
G02X278098Y182360I-1470J-1*
G01*
X276523Y180785*
G75*
G02X275480Y180354I-1040J1040*
G01*
X263536*
G75*
G02X265758Y177888I-257J-2467*
G01*
G75*
G02X262977Y175426I-2480*
G01*
Y175390*
X258068*
Y180354*
X254832*
X253725Y179247*
Y174767*
G75*
G02X254615Y172008I-1470J-1997*
G01*
X259607*
Y165571*
X253957*
Y170967*
G75*
G02X253725Y170773I-1704J1803*
G01*
Y159673*
X254918*
Y164988*
X259237*
Y159291*
X258548*
Y158203*
G75*
G02X257154Y156734I-1470*
G01*
X308985*
G75*
G02X303146Y166864I5868J10130*
G01*
G75*
G02X324983Y172732I11707*
G01*
Y263359*
X308387Y225821D02*
G75*
G02X316202I3907D01*
G01*
G75*
G02X308387I-3907*
G01*
X308757Y205736D02*
X315831D01*
Y198661*
X308757*
Y205736*
Y210073D02*
G75*
G02X315831I3537D01*
G01*
G75*
G02X308757I-3537*
G01*
Y217947D02*
G75*
G02X315831I3537D01*
G01*
G75*
G02X308757I-3537*
G01*
X199194Y188124D02*
G75*
G02X208387I4596D01*
G01*
G75*
G02X199194I-4596*
G01*
Y198124D02*
G75*
G02X208387I4596D01*
G01*
G75*
G02X199194I-4596*
G01*
Y208124D02*
G75*
G02X208387I4596D01*
G01*
G75*
G02X199194I-4596*
G01*
X208054Y276691D02*
X238948D01*
Y245797*
X210638*
X206337Y241496*
G75*
G02X205851Y234434I-2547J-3372*
G01*
Y231814*
G75*
G02Y224434I-2061J-3690*
G01*
Y221814*
G75*
G02X203790Y213898I-2061J-3690*
G01*
G75*
G02X201729Y221814J4226*
G01*
Y224434*
G75*
G02Y231814I2061J3690*
G01*
Y234434*
G75*
G02Y241814I2061J3690*
G01*
Y241864*
G75*
G02X202335Y243324I2061*
G01*
X208054Y249043*
Y276691*
X289766Y229611D02*
G75*
G02X289738Y225360I-1291J-2117D01*
G01*
G75*
G02X289375Y224624I-1263J165*
G01*
X288589Y223838*
G75*
G02X287688Y223465I-901J900*
G01*
X286993*
Y221890*
X282674*
Y227587*
X285997*
G75*
G02X286247Y228583I2478J-93*
G01*
X282674*
Y234280*
X283560*
Y235276*
X282674*
Y240972*
X286993*
Y235276*
X286107*
Y234280*
X286993*
Y233659*
G75*
G02X289766Y229611I1089J-2228*
G01*
X286831Y271195D02*
G75*
G02X299568I6368D01*
G01*
G75*
G02X286831I-6368*
G01*
X287202Y245604D02*
G75*
G02X299198I5998D01*
G01*
G75*
G02X287202I-5998*
G01*
X173717Y208754D02*
G75*
G02X186107I6195D01*
G01*
G75*
G02X173717I-6195*
G01*
Y230539D02*
X186107D01*
Y218150*
X173717*
Y230539*
X237422Y172008D02*
X243072D01*
Y165571*
X237422*
Y172008*
X253957Y213783D02*
X259017D01*
Y207346*
X253957*
Y213783*
X266717Y170910D02*
G75*
G02X270483Y168789I1285J-2121D01*
G01*
G75*
G02X266717Y166669I-2480*
G01*
Y165941*
X266127*
Y162927*
G75*
G02X265753Y162026I-1274*
G01*
X265339Y161612*
Y159291*
X261020*
Y164988*
X263580*
Y165941*
X261808*
Y171638*
X266717*
Y170910*
X241293Y156984D02*
G36*
G75*
G02X241075Y157165I822J1217D01*
G01*
X240291Y157948*
G75*
G02X239859Y158990I1038J1041*
G01*
Y158990*
Y159291*
X239170*
Y164988*
X243489*
Y159673*
X245272*
Y164988*
X246454*
Y165941*
X245272*
Y168789*
X243072*
Y165571*
X237422*
Y168789*
X192542*
G75*
G02X192702Y166864I-11548J-1926*
G01*
G75*
G02X187274Y156984I-11707*
G01*
X241293*
G37*
X303306Y168789D02*
G36*
X270483D01*
G75*
G02X266717Y166669I-2480J0*
G01*
Y165941*
X266127*
Y162927*
G75*
G02X265753Y162026I-1275J1*
G01*
X265339Y161612*
Y159291*
X261020*
Y164988*
X263580*
Y165941*
X261808*
Y168789*
X259607*
Y165571*
X253957*
Y168789*
X253725*
Y159673*
X254918*
Y164988*
X259237*
Y159291*
X258548*
Y158203*
G75*
G02X257900Y156984I-1471J0*
G01*
X308574*
G75*
G02X303146Y166864I6280J9880*
G01*
G75*
G02X303306Y168789I11707J0*
G01*
G37*
X245272D02*
G36*
Y171638D01*
X247044*
Y175132*
G75*
G02X247272Y175859I1276J0*
G01*
G75*
G02X246442Y175820I-528J2420*
G01*
Y175390*
X241532*
Y180551*
X239816*
G75*
G02X235208Y181825I-2128J1274*
G01*
Y181825*
G75*
G02X237989Y184286I2480*
G01*
Y188124*
X235812*
Y186156*
G75*
G02X235438Y185254I-1275J1*
G01*
X234187Y184004*
G75*
G02X234262Y183400I-2416J-606*
G01*
G75*
G02X229302I-2480*
G01*
G75*
G02X232386Y185805I2480*
G01*
X233265Y186683*
Y188124*
X230040*
X229534Y187618*
G75*
G02X228633Y187244I-902J902*
G01*
X224692*
X223076Y185628*
Y185528*
G75*
G02X224282Y183400I-1272J-2127*
G01*
G75*
G02X219322Y183400I-2480J-1*
G01*
G75*
G02X220528Y185528I2480*
G01*
Y186156*
G75*
G02X220902Y187057I1275J-1*
G01*
X221969Y188124*
X208387*
G75*
G02X199194I-4596*
G01*
X171115*
Y173144*
G75*
G02X192542Y168789I9880J-6280*
G01*
X237422*
Y172008*
X243072*
Y168789*
X245272*
G37*
X253957D02*
G36*
Y170967D01*
G75*
G02X253725Y170773I-1617J1699*
G01*
Y168789*
X253957*
G37*
X270493Y188124D02*
G36*
X269080D01*
Y183307*
X264761*
Y184094*
X263568*
Y183504*
X258658*
Y187886*
G75*
G02X258565Y188124I2257J1026*
G01*
X254513*
Y183504*
X249603*
Y184094*
X248410*
Y183307*
X244091*
Y188124*
X242308*
Y183307*
X239676*
G75*
G02X239816Y183098I-2111J-1565*
G01*
X248711*
G75*
G02X249613Y182725I-1J-1275*
G01*
X251186Y181151*
G75*
G02X251317Y180998I-883J-886*
G01*
X253181Y182863*
G75*
G02X254223Y183295I1041J-1038*
G01*
X270493*
Y188124*
G37*
X275587D02*
G36*
X275552D01*
Y183973*
X275587Y184009*
Y188124*
G37*
X324733Y173144D02*
G36*
Y188124D01*
X293095*
Y182717*
X287792*
Y188124*
X285221*
Y182717*
X279918*
Y188124*
X278528*
Y183403*
Y183400*
Y183400*
Y183399*
G75*
G02X278098Y182360I-1470*
G01*
X276523Y180785*
G75*
G02X275480Y180354I-1040J1040*
G01*
X263536*
G75*
G02X265758Y177889I-257J-2466*
G01*
G75*
G02Y177888I-3222J0*
G01*
Y177887*
G75*
G02X262977Y175426I-2480*
G01*
Y175390*
X258068*
Y180354*
X254832*
X253725Y179247*
Y174767*
G75*
G02X254735Y172770I-1470J-1996*
G01*
G75*
G02X254615Y172008I-2480*
G01*
X259607*
Y168789*
X261808*
Y171638*
X266717*
Y170910*
G75*
G02X270483Y168789I1285J-2121*
G01*
X303306*
G75*
G02X324733Y173144I11547J-1926*
G01*
G37*
X233032Y202199D02*
G36*
X205917D01*
G75*
G02X208387Y198124I-2127J-4075*
G01*
G75*
G02X199194I-4596*
G01*
G75*
G02X201663Y202199I4596*
G01*
X171115*
Y188124*
X199194*
G75*
G02X208387I4596*
G01*
X221969*
X223263Y189418*
G75*
G02X224164Y189791I902J-902*
G01*
X228105*
X230902Y192589*
Y199541*
G75*
G02X231276Y200443I1275J-1*
G01*
X233032Y202199*
G37*
X233265Y188124D02*
G36*
Y191400D01*
G75*
G02X233076Y191160I-1094J665*
G01*
X230040Y188124*
X233265*
G37*
X237989D02*
G36*
Y189004D01*
X238681*
G75*
G02X239110Y189953I1469J-93*
G01*
X239894Y190737*
G75*
G02X240936Y191169I1041J-1038*
G01*
X250858*
X253183Y193494*
G75*
G02X254226Y193925I1040J-1040*
G01*
X260307*
X260319Y193937*
X250009*
G75*
G02X246048Y192041I-2478J93*
G01*
Y191575*
X241729*
Y193348*
G75*
G02X241511Y193523I696J1092*
G01*
X239946Y195089*
Y191575*
X235812*
Y188124*
X237989*
G37*
X244091D02*
G36*
Y188228D01*
X242308*
Y188124*
X244091*
G37*
X259643Y202199D02*
G36*
X258646D01*
Y201024*
X254328*
Y202199*
X252544*
Y201024*
X248225*
Y202199*
X246048*
Y201409*
X246679Y200798*
G75*
G02X249617Y198360I458J-2437*
G01*
G75*
G02X248759Y196484I-2480*
G01*
X259643*
Y202199*
G37*
X258565Y188124D02*
G36*
G75*
G02X258436Y188911I2351J787D01*
G01*
G75*
G02X259555Y190984I2480*
G01*
X254832*
X252655Y188807*
X254513*
Y188124*
X258565*
G37*
X274013Y202199D02*
G36*
X264355D01*
Y194423*
Y194423*
G75*
G02X263923Y193381I-1470*
G01*
X261958Y191417*
G75*
G02X261753Y191246I-1026J1022*
G01*
G75*
G02X263396Y188911I-837J-2335*
G01*
G75*
G02X263394Y188807I-3499J27*
G01*
X263568*
Y188217*
X264761*
Y189004*
X269080*
Y188124*
X270493*
Y189374*
X275552*
Y188124*
X275587*
Y193420*
X274443Y194565*
G75*
G02X274013Y195604I1039J1039*
G01*
Y195604*
Y195605*
Y195607*
Y202199*
G37*
X288580D02*
G36*
X286993D01*
Y201811*
X282674*
Y202199*
X281261*
Y201441*
X276954*
Y196213*
X277648Y195519*
X278378Y196249*
G75*
G02X279420Y196681I1041J-1038*
G01*
X286291*
X288580Y198969*
Y202199*
G37*
X279918Y188124D02*
G36*
Y189594D01*
X280745*
G75*
G02X280090Y191274I1824J1679*
G01*
G75*
G02X282312Y193740I2480*
G01*
X280029*
X278528Y192239*
Y188124*
X279918*
G37*
X287792D02*
G36*
Y189594D01*
X289170*
Y191508*
G75*
G02X287964Y193636I1274J2128*
G01*
G75*
G02X288049Y194280I2480J0*
G01*
X287942Y194172*
G75*
G02X286900Y193740I-1041J1038*
G01*
X282827*
G75*
G02X285050Y191274I-257J-2467*
G01*
G75*
G02X284394Y189594I-2480*
G01*
X285221*
Y188124*
X287792*
G37*
X315831Y202199D02*
G36*
Y198661D01*
X308757*
Y202199*
X291520*
Y198360*
Y198360*
G75*
G02X291088Y197319I-1470*
G01*
X289800Y196031*
G75*
G02X292924Y193636I644J-2395*
G01*
G75*
G02X291717Y191508I-2480*
G01*
Y189594*
X293095*
Y188124*
X324733*
Y202199*
X315831*
G37*
X233032D02*
G36*
X233243Y202410D01*
G75*
G02X234144Y202783I902J-902*
G01*
X235627*
Y204358*
X239564*
Y210073*
X207953*
G75*
G02X208387Y208124I-4163J-1948*
G01*
G75*
G02X199194I-4596*
G01*
G75*
G02X199627Y210073I4596J0*
G01*
X185965*
G75*
G02X186107Y208754I-6053J-1319*
G01*
G75*
G02X173717I-6195*
G01*
G75*
G02X173859Y210073I6195J0*
G01*
X171115*
Y202199*
X201663*
G75*
G02X205917I2127J-4075*
G01*
X233032*
G37*
X244820Y210073D02*
G36*
X242111D01*
Y204358*
X246048*
Y202199*
X248225*
Y202602*
G75*
G02X247417Y202972I92J1270*
G01*
X246237Y204152*
G75*
G02X246041Y204403I899J901*
G01*
G75*
G02X244657Y206628I1096J2225*
G01*
G75*
G02X245928Y208793I2480*
G01*
G75*
G02X244820Y210073I1209J2165*
G01*
G37*
X261414D02*
G36*
X259017D01*
Y207346*
X253957*
Y210073*
X252544*
Y207717*
X249365*
G75*
G02X249615Y206720I-2228J-1089*
G01*
X252544*
Y202199*
X254328*
Y206720*
X258646*
Y205146*
X260129*
G75*
G02X261030Y204772I-1J-1275*
G01*
X261414Y204388*
Y210073*
G37*
X259643Y202199D02*
G36*
Y202557D01*
X259601Y202598*
X258646*
Y202199*
X259643*
G37*
X274013D02*
G36*
Y210073D01*
X264355*
Y202199*
X274013*
G37*
X282674Y210073D02*
G36*
X280891D01*
Y208504*
X276954*
Y207878*
X281261*
Y202199*
X282674*
Y207508*
X286993*
Y206130*
X288053*
G75*
G02X289127Y206961I1995J-1468*
G01*
G75*
G02X287189Y209134I530J2423*
G01*
X286993*
Y208504*
X282674*
Y210073*
G37*
X288580Y202199D02*
G36*
Y202663D01*
G75*
G02X288053Y203189I1469J1995*
G01*
X286993*
Y202199*
X288580*
G37*
X298028Y210073D02*
G36*
X292039D01*
G75*
G02X292136Y209384I-2382J-689*
G01*
G75*
G02X290580Y207082I-2480*
G01*
G75*
G02X292047Y206130I-530J-2422*
G01*
X296134*
X298028Y208024*
Y210073*
G37*
X300969D02*
G36*
Y207419D01*
Y207416*
Y207415*
Y207415*
G75*
G02X300539Y206376I-1470*
G01*
X297783Y203620*
G75*
G02X296740Y203189I-1040J1040*
G01*
X292047*
G75*
G02X291520Y202663I-1995J1469*
G01*
Y202199*
X308757*
Y205736*
X315831*
Y202199*
X324733*
Y210073*
X315831*
G75*
G02X308757I-3537*
G01*
X300969*
G37*
X235847Y217947D02*
G36*
X235543Y217642D01*
G75*
G02X235837Y216470I-2186J-1172*
G01*
G75*
G02X230877I-2480*
G01*
G75*
G02X231365Y217947I2480*
G01*
X208013*
G75*
G02X203790Y213898I-4223J177*
G01*
G75*
G02X199567Y217947J4226*
G01*
X171115*
Y210073*
X173859*
G75*
G02X185965I6053J-1319*
G01*
X199627*
G75*
G02X207953I4163J-1949*
G01*
X239564*
Y217947*
X235847*
G37*
X248225D02*
G36*
X242111D01*
Y210073*
X244820*
G75*
G02X244657Y210959I2317J885*
G01*
G75*
G02X245628Y212927I2480J0*
G01*
G75*
G02X244657Y214896I1508J1969*
G01*
G75*
G02X247741Y217301I2480*
G01*
X248225Y217785*
Y217947*
G37*
X261414D02*
G36*
X260611D01*
G75*
G02X260241Y217144I-1271J99*
G01*
X259455Y216358*
G75*
G02X258646Y215988I-901J900*
G01*
Y214409*
X254328*
Y217947*
X252544*
Y214409*
X249569*
G75*
G02X249125Y213413I-2434J487*
G01*
X252544*
Y210073*
X253957*
Y213783*
X259017*
Y210073*
X261414*
Y217947*
G37*
X274013D02*
G36*
X264355D01*
Y210073*
X274013*
Y217947*
G37*
X282674Y210073D02*
G36*
Y214201D01*
X286993*
Y211996*
X287869*
G75*
G02X287176Y213715I1788J1719*
G01*
G75*
G02X288383Y215843I2480*
G01*
Y216140*
X287751Y216772*
X286993*
Y215197*
X282674*
Y217947*
X280891*
Y215197*
X276954*
Y214201*
X280891*
Y210073*
X282674*
G37*
X297147Y217947D02*
G36*
X290178D01*
X290556Y217569*
G75*
G02X290930Y216667I-902J-902*
G01*
Y215843*
G75*
G02X292136Y213715I-1274J-2128*
G01*
G75*
G02X290865Y211549I-2480*
G01*
G75*
G02X292039Y210073I-1209J-2165*
G01*
X298028*
Y215163*
G75*
G02X297019Y217159I1469J1996*
G01*
G75*
G02X297147Y217947I2480J1*
G01*
G37*
X301850D02*
G36*
G75*
G02X301979Y217159I-2352J-787D01*
G01*
G75*
G02X300969Y215163I-2478J-1*
G01*
Y210073*
X308757*
G75*
G02X315831I3537*
G01*
X324733*
Y217947*
X315831*
G75*
G02X308757I-3537*
G01*
X301850*
G37*
X199567D02*
G36*
G75*
G02X199564Y218124I4225J173D01*
G01*
G75*
G02X201729Y221814I4226*
G01*
Y224434*
G75*
G02X200246Y225821I2061J3690*
G01*
X186107*
Y218150*
X173717*
Y225821*
X171115*
Y217947*
X199567*
G37*
X240119Y225821D02*
G36*
X233076D01*
Y224898*
G75*
G02X234282Y222770I-1272J-2127*
G01*
G75*
G02X229322Y222770I-2480J-1*
G01*
G75*
G02X230528Y224898I2480*
G01*
Y225821*
X223076*
Y224898*
G75*
G02X224282Y222770I-1272J-2127*
G01*
G75*
G02X219322Y222770I-2480J-1*
G01*
G75*
G02X220528Y224898I2480*
G01*
Y225821*
X207334*
G75*
G02X205851Y224434I-3544J2303*
G01*
Y221814*
G75*
G02X208017Y218124I-2061J-3690*
G01*
G75*
G02X208013Y217947I-4229J-4*
G01*
X231365*
G75*
G02X233246Y218948I1993J-1476*
G01*
X240119Y225821*
G37*
X248225Y217947D02*
G36*
Y218813D01*
G75*
G02X244626Y219510I-1482J1988*
G01*
G75*
G02X242202Y218790I-1820J1686*
G01*
X242111Y218699*
Y217947*
X248225*
G37*
X258032Y225821D02*
G36*
X247658D01*
X247644Y225807*
G75*
G02X246743Y225433I-902J902*
G01*
X243333*
X235847Y217947*
X239564*
Y219226*
G75*
G02X239937Y220128I1275J-1*
G01*
X240401Y220591*
G75*
G02X240326Y221195I2406J605*
G01*
G75*
G02X244923Y222486I2480*
G01*
G75*
G02X248579Y222469I1820J-1684*
G01*
X258068*
Y225785*
X258032Y225821*
G37*
X254328Y217947D02*
G36*
Y219921D01*
X252544*
Y217947*
X254328*
G37*
X274013Y225821D02*
G36*
X264355D01*
Y217947*
X274013*
Y225821*
G37*
X261414D02*
G36*
X260615D01*
Y218045*
G75*
G02X260611Y217947I-1275J2*
G01*
X261414*
Y225821*
G37*
X301850Y217947D02*
G36*
X308757D01*
G75*
G02X315831I3537*
G01*
X324733*
Y225821*
X316202*
G75*
G02X308387I-3907*
G01*
X290306*
G75*
G02X289738Y225360I-1830J1673*
G01*
G75*
G02X289375Y224624I-1263J165*
G01*
X288589Y223838*
G75*
G02X287688Y223465I-902J902*
G01*
X286993*
Y221890*
X282674*
Y225821*
X281261*
Y221520*
X276954*
Y220894*
X280891*
Y217947*
X282674*
Y220894*
X286993*
Y219319*
X288278*
G75*
G02X289180Y218945I-1J-1275*
G01*
X290178Y217947*
X297147*
G75*
G02X301850I2352J-787*
G01*
G37*
X204616Y245604D02*
G36*
X171115D01*
Y225821*
X173717*
Y230539*
X186107*
Y225821*
X200246*
G75*
G02X199564Y228124I3544J2303*
G01*
G75*
G02X201729Y231814I4226*
G01*
Y234434*
G75*
G02X199564Y238124I2061J3690*
G01*
G75*
G02X201729Y241814I4226*
G01*
Y241864*
G75*
G02X202335Y243324I2061*
G01*
X204616Y245604*
G37*
X230528Y225821D02*
G36*
Y231037D01*
G75*
G02Y231040I1361J2*
G01*
G75*
G02X230579Y231394I1259*
G01*
G75*
G02X230207Y231339I-370J1202*
G01*
X224830*
X223076Y229585*
Y225821*
X230528*
G37*
X240119D02*
G36*
X241905Y227607D01*
G75*
G02X242786Y227980I901J-900*
G01*
G75*
G02X242294Y229463I1988J1482*
G01*
G75*
G02X243152Y231339I2480*
G01*
X242111*
Y231037*
G75*
G02X241737Y230136I-1275J1*
G01*
X240164Y228563*
G75*
G02X239913Y228367I-901J899*
G01*
G75*
G02X235208Y229463I-2225J1095*
G01*
G75*
G02X236066Y231339I2481J0*
G01*
X235627*
Y232913*
X235479*
X233076Y230510*
Y225821*
X240119*
G37*
X261414D02*
G36*
Y237121D01*
X257157Y241378*
X254399*
G75*
G02X248187Y242848I-2932J1470*
G01*
G75*
G02Y242849I4511J0*
G01*
G75*
G02X249689Y245604I3279*
G01*
X210445*
X206337Y241496*
G75*
G02X208017Y238124I-2547J-3372*
G01*
G75*
G02X205851Y234434I-4226*
G01*
Y231814*
G75*
G02X208017Y228124I-2061J-3690*
G01*
G75*
G02X207334Y225821I-4226*
G01*
X220528*
Y230112*
G75*
G02X220902Y231013I1275J-1*
G01*
X223401Y233512*
G75*
G02X224302Y233886I902J-902*
G01*
X229680*
X232871Y237077*
Y239699*
G75*
G02X233244Y240600I1275J-1*
G01*
X234424Y241780*
G75*
G02X235326Y242154I902J-902*
G01*
X235627*
Y243728*
X239946*
Y241002*
X240724Y241780*
G75*
G02X241625Y242154I902J-902*
G01*
X241729*
Y243728*
X246048*
Y238031*
X242111*
Y237035*
X246048*
Y231591*
G75*
G02X247254Y229463I-1274J-2128*
G01*
G75*
G02X247136Y228705I-2480*
G01*
G75*
G02X247530Y228768I395J-1213*
G01*
X258160*
G75*
G02X259061Y228394I-1J-1275*
G01*
X260241Y227214*
G75*
G02X260615Y226313I-902J-902*
G01*
Y225821*
X261414*
G37*
X258032D02*
G36*
X257633Y226220D01*
X248058*
X247658Y225821*
X258032*
G37*
X281261D02*
G36*
X282674D01*
Y227587*
X285997*
G75*
G02X286247Y228583I2478J-93*
G01*
X282674*
Y234280*
X283560*
Y235276*
X282674*
Y240972*
X286993*
Y235276*
X286107*
Y234280*
X286993*
Y233659*
G75*
G02X290562Y231431I1089J-2228*
G01*
G75*
G02X289766Y229611I-2480J0*
G01*
G75*
G02X290955Y227494I-1291J-2117*
G01*
G75*
G02X290306Y225821I-2480*
G01*
X308387*
G75*
G02X316202I3907*
G01*
X324733*
Y245604*
X299198*
G75*
G02X287202I-5998*
G01*
X253246*
G75*
G02X254399Y244319I-1778J-2755*
G01*
X257767*
G75*
G02X258808Y243887I0J-1470*
G01*
X263923Y238772*
G75*
G02X264355Y237731I-1038J-1041*
G01*
Y237730*
Y225821*
X274013*
Y238124*
G75*
G02X275483Y239594I1470*
G01*
X276572*
Y240972*
X280891*
Y235276*
X276954*
Y234650*
X281261*
Y228213*
X276954*
Y227957*
X281261*
Y225821*
G37*
X208054Y271195D02*
G36*
X192535D01*
G75*
G02X192702Y269226I-11541J-1968*
G01*
G75*
G02X171115Y262947I-11707J0*
G01*
Y245604*
X204616*
X208054Y249043*
Y271195*
G37*
X244105D02*
G36*
X238948D01*
Y245797*
X210638*
X210445Y245604*
X249689*
G75*
G02X251264Y246122I1778J-2755*
G01*
X244105*
Y271195*
G37*
X303313D02*
G36*
X299568D01*
G75*
G02X286831I-6368*
G01*
X274999*
Y246122*
X251670*
G75*
G02X253246Y245604I-203J-3273*
G01*
X287202*
G75*
G02X299198I5998*
G01*
X324733*
Y262947*
G75*
G02X303146Y269226I-9880J6280*
G01*
G75*
G02X303313Y271195I11707J1*
G01*
G37*
X308574Y279106D02*
G36*
X187274D01*
G75*
G02X192535Y271195I-6279J-9880*
G01*
X208054*
Y276691*
X238948*
Y271195*
X244105*
Y277016*
X274999*
Y271195*
X286831*
G75*
G02X299568I6368*
G01*
X303313*
G75*
G02X308574Y279106I11540J-1969*
G01*
G37*
X324983Y389343D02*
G75*
G02X303146Y395211I-10130J5868D01*
G01*
G75*
G02X308985Y405341I11707*
G01*
X186863*
G75*
G02X192702Y395211I-5868J-10130*
G01*
G75*
G02X170865Y389343I-11707*
G01*
Y298716*
G75*
G02X192702Y292848I10130J-5868*
G01*
G75*
G02X186863Y282719I-11707*
G01*
X242041*
G75*
G02X241075Y283149I76J1469*
G01*
X240291Y283933*
G75*
G02X239859Y284974I1038J1041*
G01*
Y285276*
X239170*
Y290972*
X243489*
Y285657*
X245272*
Y290972*
X246454*
Y291925*
X245272*
Y297622*
X247044*
Y301116*
G75*
G02X247272Y301843I1274J0*
G01*
G75*
G02X246442Y301804I-528J2422*
G01*
Y301374*
X241532*
Y306535*
X239816*
G75*
G02X235208Y307809I-2128J1274*
G01*
G75*
G02X237989Y310270I2480*
G01*
Y314988*
X238681*
G75*
G02X239110Y315937I1468J-93*
G01*
X239894Y316721*
G75*
G02X240936Y317154I1041J-1038*
G01*
X250858*
X253183Y319479*
G75*
G02X254226Y319909I1040J-1040*
G01*
X260307*
X260319Y319921*
X250009*
G75*
G02X246048Y318026I-2478J93*
G01*
Y317559*
X241729*
Y319333*
G75*
G02X241511Y319507I683J1075*
G01*
X239946Y321073*
Y317559*
X235812*
Y312140*
G75*
G02X235438Y311239I-1274*
G01*
X234187Y309988*
G75*
G02X234262Y309384I-2405J-604*
G01*
G75*
G02X229302I-2480*
G01*
G75*
G02X232386Y311789I2480*
G01*
X233265Y312667*
Y317384*
G75*
G02X233076Y317144I-1089J661*
G01*
X229534Y313602*
G75*
G02X228633Y313228I-901J900*
G01*
X224692*
X223076Y311612*
Y311512*
G75*
G02X224282Y309384I-1274J-2128*
G01*
G75*
G02X219322I-2480*
G01*
G75*
G02X220528Y311512I2480*
G01*
Y312140*
G75*
G02X220902Y313041I1274*
G01*
X223263Y315402*
G75*
G02X224164Y315776I901J-900*
G01*
X228105*
X230902Y318573*
Y325526*
G75*
G02X231276Y326427I1274*
G01*
X233243Y328394*
G75*
G02X234144Y328768I901J-900*
G01*
X235627*
Y330343*
X239564*
Y345211*
G75*
G02X239937Y346112I1274*
G01*
X240401Y346575*
G75*
G02X244923Y348470I2405J604*
G01*
G75*
G02X248579Y348453I1820J-1685*
G01*
X258068*
Y351770*
X257633Y352205*
X248058*
X247644Y351791*
G75*
G02X246743Y351417I-901J900*
G01*
X243333*
X235543Y343626*
G75*
G02X235837Y342455I-2185J-1172*
G01*
G75*
G02X230877I-2480*
G01*
G75*
G02X233246Y344932I2480*
G01*
X241905Y353591*
G75*
G02X242786Y353965I901J-900*
G01*
G75*
G02X243152Y357323I1988J1482*
G01*
X242111*
Y357022*
G75*
G02X241737Y356120I-1274*
G01*
X240164Y354547*
G75*
G02X239913Y354352I-902J899*
G01*
G75*
G02X235208Y355447I-2225J1095*
G01*
G75*
G02X236066Y357323I2480*
G01*
X235627*
Y358898*
X235479*
X233076Y356494*
Y350882*
G75*
G02X234282Y348754I-1274J-2128*
G01*
G75*
G02X229322I-2480*
G01*
G75*
G02X230528Y350882I2480*
G01*
Y357022*
G75*
G02X230579Y357378I1274J1*
G01*
G75*
G02X230207Y357323I-372J1218*
G01*
X224830*
X223076Y355569*
Y350882*
G75*
G02X224282Y348754I-1274J-2128*
G01*
G75*
G02X219322I-2480*
G01*
G75*
G02X220528Y350882I2480*
G01*
Y356096*
G75*
G02X220902Y356998I1274*
G01*
X223401Y359496*
G75*
G02X224302Y359870I901J-900*
G01*
X229680*
X232871Y363061*
Y365683*
G75*
G02X233244Y366584I1274*
G01*
X234424Y367764*
G75*
G02X235326Y368138I901J-900*
G01*
X235627*
Y369713*
X239946*
Y366986*
X240724Y367764*
G75*
G02X241625Y368138I901J-900*
G01*
X241729*
Y369713*
X246048*
Y364016*
X242111*
Y363020*
X246048*
Y357575*
G75*
G02X247136Y354689I-1274J-2128*
G01*
G75*
G02X247530Y354752I394J-1211*
G01*
X258160*
G75*
G02X259061Y354378J-1274*
G01*
X260241Y353198*
G75*
G02X260615Y352297I-900J-901*
G01*
Y344030*
G75*
G02X260241Y343128I-1274*
G01*
X259455Y342342*
G75*
G02X258646Y341972I-901J900*
G01*
Y340394*
X254328*
Y345906*
X252544*
Y340394*
X249569*
G75*
G02X249125Y339398I-2432J487*
G01*
X252544*
Y333701*
X249365*
G75*
G02X249615Y332705I-2228J-1089*
G01*
X252544*
Y327008*
X248225*
Y328586*
G75*
G02X247417Y328956I92J1270*
G01*
X246237Y330136*
G75*
G02X246041Y330387I899J902*
G01*
G75*
G02X245928Y334778I1095J2225*
G01*
G75*
G02X245628Y338911I1209J2165*
G01*
G75*
G02X247741Y343285I1508J1969*
G01*
X248225Y343770*
Y344797*
G75*
G02X244626Y345494I-1482J1988*
G01*
G75*
G02X242202Y344774I-1820J1685*
G01*
X242111Y344683*
Y330343*
X246048*
Y327394*
X246679Y326782*
G75*
G02X248759Y322469I458J-2437*
G01*
X259643*
Y328541*
X259601Y328583*
X258646*
Y327008*
X254328*
Y332705*
X258646*
Y331130*
X260129*
G75*
G02X261030Y330756J-1274*
G01*
X261414Y330372*
Y363106*
X257157Y367362*
X254399*
G75*
G02X248187Y368833I-2932J1470*
G01*
G75*
G02X251264Y372106I3280*
G01*
X244105*
Y403000*
X274999*
Y372106*
X251670*
G75*
G02X254399Y370303I-203J-3274*
G01*
X257767*
G75*
G02X258808Y369871I0J-1470*
G01*
X263923Y364756*
G75*
G02X264355Y363715I-1038J-1041*
G01*
Y320407*
G75*
G02X263923Y319366I-1470J0*
G01*
X261958Y317401*
G75*
G02X261753Y317230I-1041J1040*
G01*
G75*
G02X263396Y314896I-837J-2334*
G01*
G75*
G02X263394Y314791I-2480J4*
G01*
X263568*
Y314201*
X264761*
Y314988*
X269080*
Y309291*
X264761*
Y310079*
X263568*
Y309488*
X258658*
Y313870*
G75*
G02X259555Y316969I2258J1026*
G01*
X254832*
X252655Y314791*
X254513*
Y309488*
X249603*
Y310079*
X248410*
Y309291*
X244091*
Y314213*
X242308*
Y309291*
X239676*
G75*
G02X239816Y309083I-1988J-1483*
G01*
X248711*
G75*
G02X249613Y308709J-1274*
G01*
X251186Y307135*
G75*
G02X251317Y306982I-901J-901*
G01*
X253181Y308847*
G75*
G02X254223Y309280I1041J-1038*
G01*
X270493*
Y315358*
X275552*
Y309957*
X275587Y309993*
Y319405*
X274443Y320549*
G75*
G02X274013Y321589I1040J1040*
G01*
G75*
G02Y321592I632J2*
G01*
Y364108*
G75*
G02X275483Y365579I1470*
G01*
X276572*
Y366957*
X280891*
Y361260*
X276954*
Y360634*
X281261*
Y354197*
X276954*
Y353941*
X281261*
Y347504*
X276954*
Y346878*
X280891*
Y341181*
X276954*
Y340185*
X280891*
Y334488*
X276954*
Y333862*
X281261*
Y327425*
X276954*
Y322198*
X277648Y321503*
X278378Y322233*
G75*
G02X279420Y322665I1041J-1038*
G01*
X286291*
X288580Y324954*
Y328647*
G75*
G02X288053Y329173I1470J1997*
G01*
X286993*
Y327795*
X282674*
Y333492*
X286993*
Y332114*
X288053*
G75*
G02X289127Y332945I1997J-1470*
G01*
G75*
G02X287189Y335118I530J2423*
G01*
X286993*
Y334488*
X282674*
Y340185*
X286993*
Y337980*
X287869*
G75*
G02X288383Y341827I1788J1719*
G01*
Y342124*
X287751Y342756*
X286993*
Y341181*
X282674*
Y346878*
X286993*
Y345303*
X288278*
G75*
G02X289180Y344930J-1274*
G01*
X290556Y343553*
G75*
G02X290930Y342652I-900J-901*
G01*
Y341827*
G75*
G02X290865Y337533I-1274J-2128*
G01*
G75*
G02X290580Y333067I-1209J-2165*
G01*
G75*
G02X292047Y332114I-530J-2423*
G01*
X296134*
X298028Y334009*
Y341147*
G75*
G02X297019Y343144I1470J1997*
G01*
G75*
G02X301979I2480*
G01*
G75*
G02X300969Y341147I-2480*
G01*
Y333403*
G75*
G02Y333400I-641J-1*
G01*
G75*
G02X300539Y332360I-1470J-1*
G01*
X297783Y329604*
G75*
G02X296740Y329173I-1040J1040*
G01*
X292047*
G75*
G02X291520Y328647I-1997J1470*
G01*
Y324344*
G75*
G02X291088Y323303I-1470J0*
G01*
X289800Y322015*
G75*
G02X291717Y317492I644J-2395*
G01*
Y315579*
X293095*
Y308701*
X287792*
Y315579*
X289170*
Y317492*
G75*
G02X288049Y320264I1274J2128*
G01*
X287942Y320157*
G75*
G02X286900Y319724I-1041J1038*
G01*
X282827*
G75*
G02X284394Y315579I-257J-2467*
G01*
X285221*
Y308701*
X279918*
Y315579*
X280745*
G75*
G02X282312Y319724I1825J1679*
G01*
X280029*
X278528Y318224*
Y309387*
G75*
G02Y309385I-641J-1*
G01*
G75*
G02Y309384I-654J0*
G01*
G75*
G02X278098Y308344I-1470*
G01*
X276523Y306769*
G75*
G02X275480Y306339I-1040J1040*
G01*
X263536*
G75*
G02X265758Y303872I-257J-2467*
G01*
G75*
G02X262977Y301411I-2480*
G01*
Y301374*
X258068*
Y306339*
X254832*
X253725Y305231*
Y300751*
G75*
G02X254615Y297992I-1470J-1997*
G01*
X259607*
Y291555*
X253957*
Y296951*
G75*
G02X253725Y296757I-1704J1803*
G01*
Y285657*
X254918*
Y290972*
X259237*
Y285276*
X258548*
Y284187*
G75*
G02X257154Y282719I-1470*
G01*
X308985*
G75*
G02X303146Y292848I5868J10130*
G01*
G75*
G02X324983Y298716I11707*
G01*
Y389343*
X308387Y351805D02*
G75*
G02X316202I3907D01*
G01*
G75*
G02X308387I-3907*
G01*
X308757Y331720D02*
X315831D01*
Y324646*
X308757*
Y331720*
Y336057D02*
G75*
G02X315831I3537D01*
G01*
G75*
G02X308757I-3537*
G01*
Y343931D02*
G75*
G02X315831I3537D01*
G01*
G75*
G02X308757I-3537*
G01*
X199194Y314108D02*
G75*
G02X208387I4596D01*
G01*
G75*
G02X199194I-4596*
G01*
Y324108D02*
G75*
G02X208387I4596D01*
G01*
G75*
G02X199194I-4596*
G01*
Y334108D02*
G75*
G02X208387I4596D01*
G01*
G75*
G02X199194I-4596*
G01*
X208054Y402675D02*
X238948D01*
Y371781*
X210638*
X206337Y367481*
G75*
G02X205851Y360419I-2547J-3372*
G01*
Y357798*
G75*
G02Y350419I-2061J-3690*
G01*
Y347798*
G75*
G02X203790Y339882I-2061J-3690*
G01*
G75*
G02X201729Y347798J4226*
G01*
Y350419*
G75*
G02Y357798I2061J3690*
G01*
Y360419*
G75*
G02Y367798I2061J3690*
G01*
Y367848*
G75*
G02X202335Y369308I2061*
G01*
X208054Y375027*
Y402675*
X289766Y355596D02*
G75*
G02X289738Y351344I-1291J-2117D01*
G01*
G75*
G02X289375Y350609I-1263J165*
G01*
X288589Y349822*
G75*
G02X287688Y349449I-901J900*
G01*
X286993*
Y347874*
X282674*
Y353571*
X285997*
G75*
G02X286247Y354567I2478J-93*
G01*
X282674*
Y360264*
X283560*
Y361260*
X282674*
Y366957*
X286993*
Y361260*
X286107*
Y360264*
X286993*
Y359644*
G75*
G02X289766Y355596I1089J-2228*
G01*
X286831Y397179D02*
G75*
G02X299568I6368D01*
G01*
G75*
G02X286831I-6368*
G01*
X287202Y371589D02*
G75*
G02X299198I5998D01*
G01*
G75*
G02X287202I-5998*
G01*
X173717Y334738D02*
G75*
G02X186107I6195D01*
G01*
G75*
G02X173717I-6195*
G01*
Y356524D02*
X186107D01*
Y344134*
X173717*
Y356524*
X237422Y297992D02*
X243072D01*
Y291555*
X237422*
Y297992*
X253957Y339768D02*
X259017D01*
Y333331*
X253957*
Y339768*
X266717Y296894D02*
G75*
G02X270483Y294774I1285J-2121D01*
G01*
G75*
G02X266717Y292653I-2480*
G01*
Y291925*
X266127*
Y288911*
G75*
G02X265753Y288010I-1274*
G01*
X265339Y287596*
Y285276*
X261020*
Y290972*
X263580*
Y291925*
X261808*
Y297622*
X266717*
Y296894*
X241293Y282969D02*
G36*
G75*
G02X241075Y283149I822J1217D01*
G01*
X240291Y283933*
G75*
G02X239859Y284974I1038J1041*
G01*
Y284974*
Y285276*
X239170*
Y290972*
X243489*
Y285657*
X245272*
Y290972*
X246454*
Y291925*
X245272*
Y294774*
X243072*
Y291555*
X237422*
Y294774*
X192542*
G75*
G02X192702Y292848I-11548J-1926*
G01*
G75*
G02X187274Y282969I-11707*
G01*
X241293*
G37*
X303306Y294774D02*
G36*
X270483D01*
G75*
G02X266717Y292653I-2480J0*
G01*
Y291925*
X266127*
Y288911*
G75*
G02X265753Y288010I-1275J1*
G01*
X265339Y287596*
Y285276*
X261020*
Y290972*
X263580*
Y291925*
X261808*
Y294774*
X259607*
Y291555*
X253957*
Y294774*
X253725*
Y285657*
X254918*
Y290972*
X259237*
Y285276*
X258548*
Y284187*
G75*
G02X257900Y282969I-1471J0*
G01*
X308574*
G75*
G02X303146Y292848I6280J9880*
G01*
G75*
G02X303306Y294774I11707J0*
G01*
G37*
X245272D02*
G36*
Y297622D01*
X247044*
Y301116*
G75*
G02X247272Y301843I1276J0*
G01*
G75*
G02X246442Y301804I-528J2420*
G01*
Y301374*
X241532*
Y306535*
X239816*
G75*
G02X235208Y307809I-2128J1274*
G01*
Y307809*
G75*
G02X237989Y310270I2480*
G01*
Y314108*
X235812*
Y312140*
G75*
G02X235438Y311239I-1275J1*
G01*
X234187Y309988*
G75*
G02X234262Y309384I-2416J-606*
G01*
G75*
G02X229302I-2480*
G01*
G75*
G02X232386Y311789I2480*
G01*
X233265Y312667*
Y314108*
X230040*
X229534Y313602*
G75*
G02X228633Y313228I-902J902*
G01*
X224692*
X223076Y311612*
Y311512*
G75*
G02X224282Y309385I-1272J-2127*
G01*
G75*
G02Y309384I-2820J0*
G01*
G75*
G02X219322I-2480*
G01*
G75*
G02X220528Y311512I2480*
G01*
Y312140*
G75*
G02X220902Y313041I1275J-1*
G01*
X221969Y314108*
X208387*
G75*
G02X199194I-4596*
G01*
X171115*
Y299128*
G75*
G02X192542Y294774I9880J-6280*
G01*
X237422*
Y297992*
X243072*
Y294774*
X245272*
G37*
X253957D02*
G36*
Y296951D01*
G75*
G02X253725Y296757I-1617J1699*
G01*
Y294774*
X253957*
G37*
X270493Y314108D02*
G36*
X269080D01*
Y309291*
X264761*
Y310079*
X263568*
Y309488*
X258658*
Y313870*
G75*
G02X258565Y314108I2257J1026*
G01*
X254513*
Y309488*
X249603*
Y310079*
X248410*
Y309291*
X244091*
Y314108*
X242308*
Y309291*
X239676*
G75*
G02X239816Y309083I-2111J-1565*
G01*
X248711*
G75*
G02X249613Y308709I-1J-1275*
G01*
X251186Y307135*
G75*
G02X251317Y306982I-883J-886*
G01*
X253181Y308847*
G75*
G02X254223Y309280I1041J-1038*
G01*
X270493*
Y314108*
G37*
X275587D02*
G36*
X275552D01*
Y309957*
X275587Y309993*
Y314108*
G37*
X324733Y299128D02*
G36*
Y314108D01*
X293095*
Y308701*
X287792*
Y314108*
X285221*
Y308701*
X279918*
Y314108*
X278528*
Y309387*
Y309385*
Y309384*
Y309383*
G75*
G02X278098Y308344I-1470*
G01*
X276523Y306769*
G75*
G02X275480Y306339I-1040J1040*
G01*
X263536*
G75*
G02X265758Y303873I-257J-2466*
G01*
G75*
G02Y303872I-3222J0*
G01*
Y303872*
G75*
G02X262977Y301411I-2480*
G01*
Y301374*
X258068*
Y306339*
X254832*
X253725Y305231*
Y300751*
G75*
G02X254735Y298754I-1470J-1996*
G01*
G75*
G02X254615Y297992I-2480*
G01*
X259607*
Y294774*
X261808*
Y297622*
X266717*
Y296894*
G75*
G02X270483Y294774I1285J-2121*
G01*
X303306*
G75*
G02X324733Y299128I11547J-1926*
G01*
G37*
X233032Y328183D02*
G36*
X205917D01*
G75*
G02X208387Y324108I-2127J-4075*
G01*
G75*
G02X199194I-4596*
G01*
G75*
G02X201663Y328183I4596*
G01*
X171115*
Y314108*
X199194*
G75*
G02X208387I4596*
G01*
X221969*
X223263Y315402*
G75*
G02X224164Y315776I902J-902*
G01*
X228105*
X230902Y318573*
Y325526*
G75*
G02X231276Y326427I1275J-1*
G01*
X233032Y328183*
G37*
X233265Y314108D02*
G36*
Y317384D01*
G75*
G02X233076Y317144I-1094J665*
G01*
X230040Y314108*
X233265*
G37*
X237989D02*
G36*
Y314988D01*
X238681*
G75*
G02X239110Y315937I1469J-93*
G01*
X239894Y316721*
G75*
G02X240936Y317154I1041J-1038*
G01*
X250858*
X253183Y319479*
G75*
G02X254226Y319909I1040J-1040*
G01*
X260307*
X260319Y319921*
X250009*
G75*
G02X246048Y318026I-2478J93*
G01*
Y317559*
X241729*
Y319333*
G75*
G02X241511Y319507I696J1092*
G01*
X239946Y321073*
Y317559*
X235812*
Y314108*
X237989*
G37*
X244091D02*
G36*
Y314213D01*
X242308*
Y314108*
X244091*
G37*
X259643Y328183D02*
G36*
X258646D01*
Y327008*
X254328*
Y328183*
X252544*
Y327008*
X248225*
Y328183*
X246048*
Y327394*
X246679Y326782*
G75*
G02X249617Y324344I458J-2437*
G01*
G75*
G02X248759Y322469I-2480*
G01*
X259643*
Y328183*
G37*
X258565Y314108D02*
G36*
G75*
G02X258436Y314896I2351J787D01*
G01*
G75*
G02X259555Y316969I2480*
G01*
X254832*
X252655Y314791*
X254513*
Y314108*
X258565*
G37*
X274013Y328183D02*
G36*
X264355D01*
Y320407*
Y320407*
G75*
G02X263923Y319366I-1470*
G01*
X261958Y317401*
G75*
G02X261753Y317230I-1026J1022*
G01*
G75*
G02X263396Y314896I-837J-2335*
G01*
G75*
G02X263394Y314791I-3499J27*
G01*
X263568*
Y314201*
X264761*
Y314988*
X269080*
Y314108*
X270493*
Y315358*
X275552*
Y314108*
X275587*
Y319405*
X274443Y320549*
G75*
G02X274013Y321588I1039J1039*
G01*
Y321589*
Y321589*
Y321592*
Y328183*
G37*
X288580D02*
G36*
X286993D01*
Y327795*
X282674*
Y328183*
X281261*
Y327425*
X276954*
Y322198*
X277648Y321503*
X278378Y322233*
G75*
G02X279420Y322665I1041J-1038*
G01*
X286291*
X288580Y324954*
Y328183*
G37*
X279918Y314108D02*
G36*
Y315579D01*
X280745*
G75*
G02X280090Y317258I1824J1679*
G01*
G75*
G02X282312Y319724I2480*
G01*
X280029*
X278528Y318224*
Y314108*
X279918*
G37*
X287792D02*
G36*
Y315579D01*
X289170*
Y317492*
G75*
G02X287964Y319620I1274J2128*
G01*
G75*
G02X288049Y320264I2480J0*
G01*
X287942Y320157*
G75*
G02X286900Y319724I-1041J1038*
G01*
X282827*
G75*
G02X285050Y317258I-257J-2467*
G01*
G75*
G02X284394Y315579I-2480*
G01*
X285221*
Y314108*
X287792*
G37*
X315831Y328183D02*
G36*
Y324646D01*
X308757*
Y328183*
X291520*
Y324344*
Y324344*
G75*
G02X291088Y323303I-1470*
G01*
X289800Y322015*
G75*
G02X292924Y319620I644J-2395*
G01*
G75*
G02X291717Y317492I-2480*
G01*
Y315579*
X293095*
Y314108*
X324733*
Y328183*
X315831*
G37*
X233032D02*
G36*
X233243Y328394D01*
G75*
G02X234144Y328768I902J-902*
G01*
X235627*
Y330343*
X239564*
Y336057*
X207953*
G75*
G02X208387Y334108I-4163J-1948*
G01*
G75*
G02X199194I-4596*
G01*
G75*
G02X199627Y336057I4596J0*
G01*
X185965*
G75*
G02X186107Y334738I-6053J-1319*
G01*
G75*
G02X173717I-6195*
G01*
G75*
G02X173859Y336057I6195J0*
G01*
X171115*
Y328183*
X201663*
G75*
G02X205917I2127J-4075*
G01*
X233032*
G37*
X244820Y336057D02*
G36*
X242111D01*
Y330343*
X246048*
Y328183*
X248225*
Y328586*
G75*
G02X247417Y328956I92J1270*
G01*
X246237Y330136*
G75*
G02X246041Y330387I899J901*
G01*
G75*
G02X244657Y332612I1096J2225*
G01*
G75*
G02X245928Y334778I2480*
G01*
G75*
G02X244820Y336057I1209J2165*
G01*
G37*
X261414D02*
G36*
X259017D01*
Y333331*
X253957*
Y336057*
X252544*
Y333701*
X249365*
G75*
G02X249615Y332705I-2228J-1089*
G01*
X252544*
Y328183*
X254328*
Y332705*
X258646*
Y331130*
X260129*
G75*
G02X261030Y330756I-1J-1275*
G01*
X261414Y330372*
Y336057*
G37*
X259643Y328183D02*
G36*
Y328541D01*
X259601Y328583*
X258646*
Y328183*
X259643*
G37*
X274013D02*
G36*
Y336057D01*
X264355*
Y328183*
X274013*
G37*
X282674Y336057D02*
G36*
X280891D01*
Y334488*
X276954*
Y333862*
X281261*
Y328183*
X282674*
Y333492*
X286993*
Y332114*
X288053*
G75*
G02X289127Y332945I1995J-1468*
G01*
G75*
G02X287189Y335118I530J2423*
G01*
X286993*
Y334488*
X282674*
Y336057*
G37*
X288580Y328183D02*
G36*
Y328647D01*
G75*
G02X288053Y329173I1469J1995*
G01*
X286993*
Y328183*
X288580*
G37*
X298028Y336057D02*
G36*
X292039D01*
G75*
G02X292136Y335368I-2382J-689*
G01*
G75*
G02X290580Y333067I-2480*
G01*
G75*
G02X292047Y332114I-530J-2422*
G01*
X296134*
X298028Y334009*
Y336057*
G37*
X300969D02*
G36*
Y333403D01*
Y333400*
Y333400*
Y333399*
G75*
G02X300539Y332360I-1470*
G01*
X297783Y329604*
G75*
G02X296740Y329173I-1040J1040*
G01*
X292047*
G75*
G02X291520Y328647I-1995J1469*
G01*
Y328183*
X308757*
Y331720*
X315831*
Y328183*
X324733*
Y336057*
X315831*
G75*
G02X308757I-3537*
G01*
X300969*
G37*
X235847Y343931D02*
G36*
X235543Y343626D01*
G75*
G02X235837Y342455I-2186J-1172*
G01*
G75*
G02X230877I-2480*
G01*
G75*
G02X231365Y343931I2480*
G01*
X208013*
G75*
G02X203790Y339882I-4223J177*
G01*
G75*
G02X199567Y343931J4226*
G01*
X171115*
Y336057*
X173859*
G75*
G02X185965I6053J-1319*
G01*
X199627*
G75*
G02X207953I4163J-1949*
G01*
X239564*
Y343931*
X235847*
G37*
X248225D02*
G36*
X242111D01*
Y336057*
X244820*
G75*
G02X244657Y336943I2317J885*
G01*
G75*
G02X245628Y338911I2480J0*
G01*
G75*
G02X244657Y340880I1508J1969*
G01*
G75*
G02X247741Y343285I2480*
G01*
X248225Y343770*
Y343931*
G37*
X261414D02*
G36*
X260611D01*
G75*
G02X260241Y343128I-1271J99*
G01*
X259455Y342342*
G75*
G02X258646Y341972I-901J900*
G01*
Y340394*
X254328*
Y343931*
X252544*
Y340394*
X249569*
G75*
G02X249125Y339398I-2434J487*
G01*
X252544*
Y336057*
X253957*
Y339768*
X259017*
Y336057*
X261414*
Y343931*
G37*
X274013D02*
G36*
X264355D01*
Y336057*
X274013*
Y343931*
G37*
X282674Y336057D02*
G36*
Y340185D01*
X286993*
Y337980*
X287869*
G75*
G02X287176Y339699I1788J1719*
G01*
G75*
G02X288383Y341827I2480*
G01*
Y342124*
X287751Y342756*
X286993*
Y341181*
X282674*
Y343931*
X280891*
Y341181*
X276954*
Y340185*
X280891*
Y336057*
X282674*
G37*
X297147Y343931D02*
G36*
X290178D01*
X290556Y343553*
G75*
G02X290930Y342652I-902J-902*
G01*
Y341827*
G75*
G02X292136Y339699I-1274J-2128*
G01*
G75*
G02X290865Y337533I-2480*
G01*
G75*
G02X292039Y336057I-1209J-2165*
G01*
X298028*
Y341147*
G75*
G02X297019Y343143I1469J1996*
G01*
G75*
G02Y343144I2148J0*
G01*
G75*
G02X297147Y343931I2480*
G01*
G37*
X301850D02*
G36*
G75*
G02X301979Y343144I-2352J-787D01*
G01*
G75*
G02Y343143I-2148J0*
G01*
G75*
G02X300969Y341147I-2478*
G01*
Y336057*
X308757*
G75*
G02X315831I3537*
G01*
X324733*
Y343931*
X315831*
G75*
G02X308757I-3537*
G01*
X301850*
G37*
X199567D02*
G36*
G75*
G02X199564Y344108I4225J173D01*
G01*
G75*
G02X201729Y347798I4226*
G01*
Y350419*
G75*
G02X200246Y351805I2061J3690*
G01*
X186107*
Y344134*
X173717*
Y351805*
X171115*
Y343931*
X199567*
G37*
X240119Y351805D02*
G36*
X233076D01*
Y350882*
G75*
G02X234282Y348755I-1272J-2127*
G01*
G75*
G02Y348754I-2820J0*
G01*
G75*
G02X229322I-2480*
G01*
G75*
G02X230528Y350882I2480*
G01*
Y351805*
X223076*
Y350882*
G75*
G02X224282Y348755I-1272J-2127*
G01*
G75*
G02Y348754I-2820J0*
G01*
G75*
G02X219322I-2480*
G01*
G75*
G02X220528Y350882I2480*
G01*
Y351805*
X207334*
G75*
G02X205851Y350419I-3544J2303*
G01*
Y347798*
G75*
G02X208017Y344108I-2061J-3690*
G01*
G75*
G02X208013Y343931I-4229J-4*
G01*
X231365*
G75*
G02X233246Y344932I1993J-1476*
G01*
X240119Y351805*
G37*
X248225Y343931D02*
G36*
Y344797D01*
G75*
G02X244626Y345494I-1482J1988*
G01*
G75*
G02X242202Y344774I-1820J1686*
G01*
X242111Y344683*
Y343931*
X248225*
G37*
X258032Y351805D02*
G36*
X247658D01*
X247644Y351791*
G75*
G02X246743Y351417I-902J902*
G01*
X243333*
X235847Y343931*
X239564*
Y345211*
G75*
G02X239937Y346112I1275J-1*
G01*
X240401Y346575*
G75*
G02X240326Y347179I2406J605*
G01*
G75*
G02X244923Y348470I2480*
G01*
G75*
G02X248579Y348453I1820J-1684*
G01*
X258068*
Y351770*
X258032Y351805*
G37*
X254328Y343931D02*
G36*
Y345906D01*
X252544*
Y343931*
X254328*
G37*
X274013Y351805D02*
G36*
X264355D01*
Y343931*
X274013*
Y351805*
G37*
X261414D02*
G36*
X260615D01*
Y344030*
G75*
G02X260611Y343931I-1275J2*
G01*
X261414*
Y351805*
G37*
X301850Y343931D02*
G36*
X308757D01*
G75*
G02X315831I3537*
G01*
X324733*
Y351805*
X316202*
G75*
G02X308387I-3907*
G01*
X290306*
G75*
G02X289738Y351344I-1830J1673*
G01*
G75*
G02X289375Y350609I-1263J165*
G01*
X288589Y349822*
G75*
G02X287688Y349449I-902J902*
G01*
X286993*
Y347874*
X282674*
Y351805*
X281261*
Y347504*
X276954*
Y346878*
X280891*
Y343931*
X282674*
Y346878*
X286993*
Y345303*
X288278*
G75*
G02X289180Y344930I-1J-1275*
G01*
X290178Y343931*
X297147*
G75*
G02X301850I2352J-787*
G01*
G37*
X204616Y371589D02*
G36*
X171115D01*
Y351805*
X173717*
Y356524*
X186107*
Y351805*
X200246*
G75*
G02X199564Y354108I3544J2303*
G01*
G75*
G02X201729Y357798I4226*
G01*
Y360419*
G75*
G02X199564Y364108I2061J3690*
G01*
G75*
G02X201729Y367798I4226*
G01*
Y367848*
G75*
G02X202335Y369308I2061*
G01*
X204616Y371589*
G37*
X230528Y351805D02*
G36*
Y357022D01*
G75*
G02Y357024I1361J2*
G01*
G75*
G02X230579Y357378I1259*
G01*
G75*
G02X230207Y357323I-370J1202*
G01*
X224830*
X223076Y355569*
Y351805*
X230528*
G37*
X240119D02*
G36*
X241905Y353591D01*
G75*
G02X242786Y353965I901J-900*
G01*
G75*
G02X242294Y355447I1988J1482*
G01*
G75*
G02X243152Y357323I2480*
G01*
X242111*
Y357022*
G75*
G02X241737Y356120I-1275J1*
G01*
X240164Y354547*
G75*
G02X239913Y354352I-901J899*
G01*
G75*
G02X235208Y355447I-2225J1095*
G01*
G75*
G02X236066Y357323I2481J0*
G01*
X235627*
Y358898*
X235479*
X233076Y356494*
Y351805*
X240119*
G37*
X261414D02*
G36*
Y363106D01*
X257157Y367362*
X254399*
G75*
G02X248187Y368833I-2932J1470*
G01*
G75*
G02X249689Y371589I3279J1*
G01*
X210445*
X206337Y367481*
G75*
G02X208017Y364108I-2547J-3372*
G01*
G75*
G02X205851Y360419I-4226*
G01*
Y357798*
G75*
G02X208017Y354108I-2061J-3690*
G01*
G75*
G02X207334Y351805I-4226*
G01*
X220528*
Y356096*
G75*
G02X220902Y356998I1275J-1*
G01*
X223401Y359496*
G75*
G02X224302Y359870I902J-902*
G01*
X229680*
X232871Y363061*
Y365683*
G75*
G02X233244Y366584I1275J-1*
G01*
X234424Y367764*
G75*
G02X235326Y368138I902J-902*
G01*
X235627*
Y369713*
X239946*
Y366986*
X240724Y367764*
G75*
G02X241625Y368138I902J-902*
G01*
X241729*
Y369713*
X246048*
Y364016*
X242111*
Y363020*
X246048*
Y357575*
G75*
G02X247254Y355447I-1274J-2128*
G01*
G75*
G02X247136Y354689I-2480*
G01*
G75*
G02X247530Y354752I395J-1213*
G01*
X258160*
G75*
G02X259061Y354378I-1J-1275*
G01*
X260241Y353198*
G75*
G02X260615Y352297I-902J-902*
G01*
Y351805*
X261414*
G37*
X258032D02*
G36*
X257633Y352205D01*
X248058*
X247658Y351805*
X258032*
G37*
X281261D02*
G36*
X282674D01*
Y353571*
X285997*
G75*
G02X286247Y354567I2478J-93*
G01*
X282674*
Y360264*
X283560*
Y361260*
X282674*
Y366957*
X286993*
Y361260*
X286107*
Y360264*
X286993*
Y359644*
G75*
G02X290562Y357416I1089J-2228*
G01*
G75*
G02X289766Y355596I-2480J0*
G01*
G75*
G02X290955Y353478I-1291J-2117*
G01*
G75*
G02X290306Y351805I-2480*
G01*
X308387*
G75*
G02X316202I3907*
G01*
X324733*
Y371589*
X299198*
G75*
G02X287202I-5998*
G01*
X253246*
G75*
G02X254399Y370303I-1778J-2755*
G01*
X257767*
G75*
G02X258808Y369871I0J-1470*
G01*
X263923Y364756*
G75*
G02X264355Y363715I-1038J-1041*
G01*
Y363715*
Y351805*
X274013*
Y364108*
G75*
G02X275483Y365579I1470*
G01*
X276572*
Y366957*
X280891*
Y361260*
X276954*
Y360634*
X281261*
Y354197*
X276954*
Y353941*
X281261*
Y351805*
G37*
X208054Y397179D02*
G36*
X192535D01*
G75*
G02X192702Y395211I-11541J-1968*
G01*
G75*
G02X171115Y388931I-11707J0*
G01*
Y371589*
X204616*
X208054Y375027*
Y397179*
G37*
X244105D02*
G36*
X238948D01*
Y371781*
X210638*
X210445Y371589*
X249689*
G75*
G02X251264Y372106I1778J-2755*
G01*
X244105*
Y397179*
G37*
X303313D02*
G36*
X299568D01*
G75*
G02X286831I-6368*
G01*
X274999*
Y372106*
X251670*
G75*
G02X253246Y371589I-203J-3273*
G01*
X287202*
G75*
G02X299198I5998*
G01*
X324733*
Y388931*
G75*
G02X303146Y395211I-9880J6280*
G01*
G75*
G02X303313Y397179I11707J1*
G01*
G37*
X308574Y405091D02*
G36*
X187274D01*
G75*
G02X192535Y397179I-6279J-9880*
G01*
X208054*
Y402675*
X238948*
Y397179*
X244105*
Y403000*
X274999*
Y397179*
X286831*
G75*
G02X299568I6368*
G01*
X303313*
G75*
G02X308574Y405091I11540J-1969*
G01*
G37*
D02*
D11*
X43463Y62140D02*
X41463D01*
X43463Y72140D02*
X41463D01*
X43463Y82140D02*
X41463D01*
X43463Y188124D02*
X41463D01*
X43463Y198124D02*
X41463D01*
X43463Y208124D02*
X41463D01*
X43463Y314108D02*
X41463D01*
X43463Y324108D02*
X41463D01*
X43463Y334108D02*
X41463D01*
X46310Y59293D02*
Y57293D01*
Y64986D02*
Y66986D01*
Y69293D02*
Y67293D01*
Y74986D02*
Y76986D01*
Y79293D02*
Y77293D01*
Y84986D02*
Y86986D01*
Y185278D02*
Y183278D01*
Y190970D02*
Y192970D01*
Y195278D02*
Y193278D01*
Y200970D02*
Y202970D01*
Y205278D02*
Y203278D01*
Y210970D02*
Y212970D01*
Y311262D02*
Y309262D01*
Y316955D02*
Y318955D01*
Y321262D02*
Y319262D01*
Y326955D02*
Y328955D01*
Y331262D02*
Y329262D01*
Y336955D02*
Y338955D01*
X49156Y62140D02*
X51156D01*
X49156Y72140D02*
X51156D01*
X49156Y82140D02*
X51156D01*
X49156Y188124D02*
X51156D01*
X49156Y198124D02*
X51156D01*
X49156Y208124D02*
X51156D01*
X49156Y314108D02*
X51156D01*
X49156Y324108D02*
X51156D01*
X49156Y334108D02*
X51156D01*
X81692Y42805D02*
X79692D01*
X81692Y168789D02*
X79692D01*
X81692Y294774D02*
X79692D01*
X82767Y41337D02*
Y39337D01*
Y44274D02*
Y46274D01*
Y167321D02*
Y165321D01*
Y170258D02*
Y172258D01*
Y293305D02*
Y291305D01*
Y296242D02*
Y298242D01*
X83841Y42805D02*
X85841D01*
X83841Y168789D02*
X85841D01*
X83841Y294774D02*
X85841D01*
X97611Y107022D02*
X95611D01*
X97611Y233006D02*
X95611D01*
X97611Y358990D02*
X95611D01*
X98227Y84581D02*
X96227D01*
X98227Y210565D02*
X96227D01*
X98227Y336549D02*
X96227D01*
X98711Y105922D02*
Y103922D01*
Y108122D02*
Y110122D01*
Y231906D02*
Y229906D01*
Y234106D02*
Y236106D01*
Y357890D02*
Y355890D01*
Y360090D02*
Y362090D01*
X99007Y83112D02*
Y81112D01*
Y86049D02*
Y88049D01*
Y209096D02*
Y207096D01*
Y212033D02*
Y214033D01*
Y335081D02*
Y333081D01*
Y338018D02*
Y340018D01*
X99302Y41337D02*
Y39337D01*
Y44274D02*
Y46274D01*
Y167321D02*
Y165321D01*
Y170258D02*
Y172258D01*
Y293305D02*
Y291305D01*
Y296242D02*
Y298242D01*
X99786Y84581D02*
X101786D01*
X99786Y210565D02*
X101786D01*
X99786Y336549D02*
X101786D01*
X99811Y107022D02*
X101811D01*
X99811Y233006D02*
X101811D01*
X99811Y358990D02*
X101811D01*
X100377Y42805D02*
X102377D01*
X100377Y168789D02*
X102377D01*
X100377Y294774D02*
X102377D01*
X105092Y118045D02*
X103092D01*
X105092Y244030D02*
X103092D01*
X105092Y370014D02*
X103092D01*
X106192Y116945D02*
Y114945D01*
Y242930D02*
Y240930D01*
Y368914D02*
Y366914D01*
X107292Y118045D02*
X109292D01*
X107292Y244030D02*
X109292D01*
X107292Y370014D02*
X109292D01*
X109735Y76394D02*
Y74394D01*
Y78594D02*
Y80594D01*
Y81119D02*
Y79119D01*
Y83319D02*
Y85319D01*
Y85843D02*
Y83843D01*
Y88043D02*
Y90043D01*
Y90567D02*
Y88567D01*
Y92767D02*
Y94767D01*
Y202378D02*
Y200378D01*
Y204578D02*
Y206578D01*
Y207103D02*
Y205103D01*
Y209303D02*
Y211303D01*
Y211827D02*
Y209827D01*
Y214027D02*
Y216027D01*
Y216552D02*
Y214552D01*
Y218752D02*
Y220752D01*
Y328363D02*
Y326363D01*
Y330563D02*
Y332563D01*
Y333087D02*
Y331087D01*
Y335287D02*
Y337287D01*
Y337811D02*
Y335811D01*
Y340011D02*
Y342011D01*
Y342536D02*
Y340536D01*
Y344736D02*
Y346736D01*
X110835Y77494D02*
X112835D01*
X110835Y82219D02*
X112835D01*
X110835Y86943D02*
X112835D01*
X110835Y91667D02*
X112835D01*
X110835Y203478D02*
X112835D01*
X110835Y208203D02*
X112835D01*
X110835Y212927D02*
X112835D01*
X110835Y217652D02*
X112835D01*
X110835Y329463D02*
X112835D01*
X110835Y334187D02*
X112835D01*
X110835Y338911D02*
X112835D01*
X110835Y343636D02*
X112835D01*
X113359Y77494D02*
X111359D01*
X113359Y82219D02*
X111359D01*
X113359Y86943D02*
X111359D01*
X113359Y91667D02*
X111359D01*
X113359Y203478D02*
X111359D01*
X113359Y208203D02*
X111359D01*
X113359Y212927D02*
X111359D01*
X113359Y217652D02*
X111359D01*
X113359Y329463D02*
X111359D01*
X113359Y334187D02*
X111359D01*
X113359Y338911D02*
X111359D01*
X113359Y343636D02*
X111359D01*
X114459Y76394D02*
Y74394D01*
Y78594D02*
Y80594D01*
Y81119D02*
Y79119D01*
Y83319D02*
Y85319D01*
Y85843D02*
Y83843D01*
Y88043D02*
Y90043D01*
Y90567D02*
Y88567D01*
Y92767D02*
Y94767D01*
Y202378D02*
Y200378D01*
Y204578D02*
Y206578D01*
Y207103D02*
Y205103D01*
Y209303D02*
Y211303D01*
Y211827D02*
Y209827D01*
Y214027D02*
Y216027D01*
Y216552D02*
Y214552D01*
Y218752D02*
Y220752D01*
Y328363D02*
Y326363D01*
Y330563D02*
Y332563D01*
Y333087D02*
Y331087D01*
Y335287D02*
Y337287D01*
Y337811D02*
Y335811D01*
Y340011D02*
Y342011D01*
Y342536D02*
Y340536D01*
Y344736D02*
Y346736D01*
X114763Y60171D02*
X112763D01*
X114763Y186156D02*
X112763D01*
X114763Y312140D02*
X112763D01*
X115542Y61640D02*
Y63640D01*
Y187624D02*
Y189624D01*
Y313608D02*
Y315608D01*
X121251Y77207D02*
Y75207D01*
Y80144D02*
Y82144D01*
Y97285D02*
Y95285D01*
Y106915D02*
Y108915D01*
Y203191D02*
Y201191D01*
Y206128D02*
Y208128D01*
Y223270D02*
Y221270D01*
Y232900D02*
Y234900D01*
Y329175D02*
Y327175D01*
Y332112D02*
Y334112D01*
Y349254D02*
Y347254D01*
Y358884D02*
Y360884D01*
X122030Y78675D02*
X124030D01*
X122030Y98754D02*
X124030D01*
X122030Y105447D02*
X124030D01*
X122030Y204659D02*
X124030D01*
X122030Y224738D02*
X124030D01*
X122030Y231431D02*
X124030D01*
X122030Y330644D02*
X124030D01*
X122030Y350722D02*
X124030D01*
X122030Y357415D02*
X124030D01*
X131101Y145211D02*
X129101D01*
X131101Y271195D02*
X129101D01*
X131101Y397179D02*
X129101D01*
X135719Y140593D02*
Y138593D01*
Y149829D02*
Y151829D01*
Y266577D02*
Y264577D01*
Y275813D02*
Y277813D01*
Y392561D02*
Y390561D01*
Y401797D02*
Y403797D01*
X140337Y145211D02*
X142337D01*
X140337Y271195D02*
X142337D01*
X140337Y397179D02*
X142337D01*
X153288Y98311D02*
X151874Y96897D01*
X153288Y101362D02*
X151874Y102776D01*
X153288Y224295D02*
X151874Y222881D01*
X153288Y227346D02*
X151874Y228761D01*
X153288Y350280D02*
X151874Y348865D01*
X153288Y353331D02*
X151874Y354745D01*
X156339Y98311D02*
X157754Y96897D01*
X156339Y101362D02*
X157754Y102776D01*
X156339Y224295D02*
X157754Y222881D01*
X156339Y227346D02*
X157754Y228761D01*
X156339Y350280D02*
X157754Y348865D01*
X156339Y353331D02*
X157754Y354745D01*
X200944Y62140D02*
X198944D01*
X200944Y72140D02*
X198944D01*
X200944Y82140D02*
X198944D01*
X200944Y188124D02*
X198944D01*
X200944Y198124D02*
X198944D01*
X200944Y208124D02*
X198944D01*
X200944Y314108D02*
X198944D01*
X200944Y324108D02*
X198944D01*
X200944Y334108D02*
X198944D01*
X203790Y59293D02*
Y57293D01*
Y64986D02*
Y66986D01*
Y69293D02*
Y67293D01*
Y74986D02*
Y76986D01*
Y79293D02*
Y77293D01*
Y84986D02*
Y86986D01*
Y185278D02*
Y183278D01*
Y190970D02*
Y192970D01*
Y195278D02*
Y193278D01*
Y200970D02*
Y202970D01*
Y205278D02*
Y203278D01*
Y210970D02*
Y212970D01*
Y311262D02*
Y309262D01*
Y316955D02*
Y318955D01*
Y321262D02*
Y319262D01*
Y326955D02*
Y328955D01*
Y331262D02*
Y329262D01*
Y336955D02*
Y338955D01*
X206637Y62140D02*
X208637D01*
X206637Y72140D02*
X208637D01*
X206637Y82140D02*
X208637D01*
X206637Y188124D02*
X208637D01*
X206637Y198124D02*
X208637D01*
X206637Y208124D02*
X208637D01*
X206637Y314108D02*
X208637D01*
X206637Y324108D02*
X208637D01*
X206637Y334108D02*
X208637D01*
X239172Y42805D02*
X237172D01*
X239172Y168789D02*
X237172D01*
X239172Y294774D02*
X237172D01*
X240247Y41337D02*
Y39337D01*
Y44274D02*
Y46274D01*
Y167321D02*
Y165321D01*
Y170258D02*
Y172258D01*
Y293305D02*
Y291305D01*
Y296242D02*
Y298242D01*
X241322Y42805D02*
X243322D01*
X241322Y168789D02*
X243322D01*
X241322Y294774D02*
X243322D01*
X255092Y107022D02*
X253092D01*
X255092Y233006D02*
X253092D01*
X255092Y358990D02*
X253092D01*
X255707Y84581D02*
X253707D01*
X255707Y210565D02*
X253707D01*
X255707Y336549D02*
X253707D01*
X256192Y105922D02*
Y103922D01*
Y108122D02*
Y110122D01*
Y231906D02*
Y229906D01*
Y234106D02*
Y236106D01*
Y357890D02*
Y355890D01*
Y360090D02*
Y362090D01*
X256487Y83112D02*
Y81112D01*
Y86049D02*
Y88049D01*
Y209096D02*
Y207096D01*
Y212033D02*
Y214033D01*
Y335081D02*
Y333081D01*
Y338018D02*
Y340018D01*
X256782Y41337D02*
Y39337D01*
Y44274D02*
Y46274D01*
Y167321D02*
Y165321D01*
Y170258D02*
Y172258D01*
Y293305D02*
Y291305D01*
Y296242D02*
Y298242D01*
X257267Y84581D02*
X259267D01*
X257267Y210565D02*
X259267D01*
X257267Y336549D02*
X259267D01*
X257292Y107022D02*
X259292D01*
X257292Y233006D02*
X259292D01*
X257292Y358990D02*
X259292D01*
X257857Y42805D02*
X259857D01*
X257857Y168789D02*
X259857D01*
X257857Y294774D02*
X259857D01*
X262572Y118045D02*
X260572D01*
X262572Y244030D02*
X260572D01*
X262572Y370014D02*
X260572D01*
X263672Y116945D02*
Y114945D01*
Y242930D02*
Y240930D01*
Y368914D02*
Y366914D01*
X264772Y118045D02*
X266772D01*
X264772Y244030D02*
X266772D01*
X264772Y370014D02*
X266772D01*
X267215Y76394D02*
Y74394D01*
Y78594D02*
Y80594D01*
Y81119D02*
Y79119D01*
Y83319D02*
Y85319D01*
Y85843D02*
Y83843D01*
Y88043D02*
Y90043D01*
Y90567D02*
Y88567D01*
Y92767D02*
Y94767D01*
Y202378D02*
Y200378D01*
Y204578D02*
Y206578D01*
Y207103D02*
Y205103D01*
Y209303D02*
Y211303D01*
Y211827D02*
Y209827D01*
Y214027D02*
Y216027D01*
Y216552D02*
Y214552D01*
Y218752D02*
Y220752D01*
Y328363D02*
Y326363D01*
Y330563D02*
Y332563D01*
Y333087D02*
Y331087D01*
Y335287D02*
Y337287D01*
Y337811D02*
Y335811D01*
Y340011D02*
Y342011D01*
Y342536D02*
Y340536D01*
Y344736D02*
Y346736D01*
X268315Y77494D02*
X270315D01*
X268315Y82219D02*
X270315D01*
X268315Y86943D02*
X270315D01*
X268315Y91667D02*
X270315D01*
X268315Y203478D02*
X270315D01*
X268315Y208203D02*
X270315D01*
X268315Y212927D02*
X270315D01*
X268315Y217652D02*
X270315D01*
X268315Y329463D02*
X270315D01*
X268315Y334187D02*
X270315D01*
X268315Y338911D02*
X270315D01*
X268315Y343636D02*
X270315D01*
X270840Y77494D02*
X268840D01*
X270840Y82219D02*
X268840D01*
X270840Y86943D02*
X268840D01*
X270840Y91667D02*
X268840D01*
X270840Y203478D02*
X268840D01*
X270840Y208203D02*
X268840D01*
X270840Y212927D02*
X268840D01*
X270840Y217652D02*
X268840D01*
X270840Y329463D02*
X268840D01*
X270840Y334187D02*
X268840D01*
X270840Y338911D02*
X268840D01*
X270840Y343636D02*
X268840D01*
X271940Y76394D02*
Y74394D01*
Y78594D02*
Y80594D01*
Y81119D02*
Y79119D01*
Y83319D02*
Y85319D01*
Y85843D02*
Y83843D01*
Y88043D02*
Y90043D01*
Y90567D02*
Y88567D01*
Y92767D02*
Y94767D01*
Y202378D02*
Y200378D01*
Y204578D02*
Y206578D01*
Y207103D02*
Y205103D01*
Y209303D02*
Y211303D01*
Y211827D02*
Y209827D01*
Y214027D02*
Y216027D01*
Y216552D02*
Y214552D01*
Y218752D02*
Y220752D01*
Y328363D02*
Y326363D01*
Y330563D02*
Y332563D01*
Y333087D02*
Y331087D01*
Y335287D02*
Y337287D01*
Y337811D02*
Y335811D01*
Y340011D02*
Y342011D01*
Y342536D02*
Y340536D01*
Y344736D02*
Y346736D01*
X272243Y60171D02*
X270243D01*
X272243Y186156D02*
X270243D01*
X272243Y312140D02*
X270243D01*
X273022Y61640D02*
Y63640D01*
Y187624D02*
Y189624D01*
Y313608D02*
Y315608D01*
X278731Y77207D02*
Y75207D01*
Y80144D02*
Y82144D01*
Y97285D02*
Y95285D01*
Y106915D02*
Y108915D01*
Y203191D02*
Y201191D01*
Y206128D02*
Y208128D01*
Y223270D02*
Y221270D01*
Y232900D02*
Y234900D01*
Y329175D02*
Y327175D01*
Y332112D02*
Y334112D01*
Y349254D02*
Y347254D01*
Y358884D02*
Y360884D01*
X279511Y78675D02*
X281511D01*
X279511Y98754D02*
X281511D01*
X279511Y105447D02*
X281511D01*
X279511Y204659D02*
X281511D01*
X279511Y224738D02*
X281511D01*
X279511Y231431D02*
X281511D01*
X279511Y330644D02*
X281511D01*
X279511Y350722D02*
X281511D01*
X279511Y357415D02*
X281511D01*
X288581Y145211D02*
X286581D01*
X288581Y271195D02*
X286581D01*
X288581Y397179D02*
X286581D01*
X293200Y140593D02*
Y138593D01*
Y149829D02*
Y151829D01*
Y266577D02*
Y264577D01*
Y275813D02*
Y277813D01*
Y392561D02*
Y390561D01*
Y401797D02*
Y403797D01*
X297818Y145211D02*
X299818D01*
X297818Y271195D02*
X299818D01*
X297818Y397179D02*
X299818D01*
X310769Y98311D02*
X309354Y96897D01*
X310769Y101362D02*
X309354Y102776D01*
X310769Y224295D02*
X309354Y222881D01*
X310769Y227346D02*
X309354Y228761D01*
X310769Y350280D02*
X309354Y348865D01*
X310769Y353331D02*
X309354Y354745D01*
X313820Y98311D02*
X315234Y96897D01*
X313820Y101362D02*
X315234Y102776D01*
X313820Y224295D02*
X315234Y222881D01*
X313820Y227346D02*
X315234Y228761D01*
X313820Y350280D02*
X315234Y348865D01*
X313820Y353331D02*
X315234Y354745D01*
D02*
D13*
X80306Y68439D03*
Y75526D03*
Y108203D03*
Y114896D03*
Y194423D03*
Y201510D03*
Y234187D03*
Y240880D03*
Y320407D03*
Y327494D03*
Y360171D03*
Y366864D03*
X82668Y60171D03*
Y186156D03*
Y312140D03*
X83849Y36156D03*
Y162140D03*
Y288124D03*
X86408Y68439D03*
Y75526D03*
Y108203D03*
Y114896D03*
Y194423D03*
Y201510D03*
Y234187D03*
Y240880D03*
Y320407D03*
Y327494D03*
Y360171D03*
Y366864D03*
X88770Y60171D03*
Y186156D03*
Y312140D03*
X89952Y36156D03*
Y162140D03*
Y288124D03*
X92904Y77888D03*
Y84581D03*
Y91274D03*
Y203872D03*
Y210565D03*
Y217258D03*
Y329856D03*
Y336549D03*
Y343242D03*
X99007Y77888D03*
Y84581D03*
Y91274D03*
Y203872D03*
Y210565D03*
Y217258D03*
Y329856D03*
Y336549D03*
Y343242D03*
X99597Y36156D03*
Y162140D03*
Y288124D03*
X105700Y36156D03*
Y162140D03*
Y288124D03*
X109440Y60171D03*
Y186156D03*
Y312140D03*
X115542Y60171D03*
Y186156D03*
Y312140D03*
X121251Y78675D03*
Y85368D03*
Y92061D03*
Y98754D03*
Y105447D03*
Y112140D03*
Y204659D03*
Y211352D03*
Y218045D03*
Y224738D03*
Y231431D03*
Y238124D03*
Y330644D03*
Y337337D03*
Y344030D03*
Y350722D03*
Y357415D03*
Y364108D03*
X127353Y78675D03*
Y85368D03*
Y92061D03*
Y98754D03*
Y105447D03*
Y112140D03*
Y204659D03*
Y211352D03*
Y218045D03*
Y224738D03*
Y231431D03*
Y238124D03*
Y330644D03*
Y337337D03*
Y344030D03*
Y350722D03*
Y357415D03*
Y364108D03*
X237786Y68439D03*
Y75526D03*
Y108203D03*
Y114896D03*
Y194423D03*
Y201510D03*
Y234187D03*
Y240880D03*
Y320407D03*
Y327494D03*
Y360171D03*
Y366864D03*
X240148Y60171D03*
Y186156D03*
Y312140D03*
X241330Y36156D03*
Y162140D03*
Y288124D03*
X243889Y68439D03*
Y75526D03*
Y108203D03*
Y114896D03*
Y194423D03*
Y201510D03*
Y234187D03*
Y240880D03*
Y320407D03*
Y327494D03*
Y360171D03*
Y366864D03*
X246251Y60171D03*
Y186156D03*
Y312140D03*
X247432Y36156D03*
Y162140D03*
Y288124D03*
X250385Y77888D03*
Y84581D03*
Y91274D03*
Y203872D03*
Y210565D03*
Y217258D03*
Y329856D03*
Y336549D03*
Y343242D03*
X256487Y77888D03*
Y84581D03*
Y91274D03*
Y203872D03*
Y210565D03*
Y217258D03*
Y329856D03*
Y336549D03*
Y343242D03*
X257078Y36156D03*
Y162140D03*
Y288124D03*
X263180Y36156D03*
Y162140D03*
Y288124D03*
X266920Y60171D03*
Y186156D03*
Y312140D03*
X273022Y60171D03*
Y186156D03*
Y312140D03*
X278731Y78675D03*
Y85368D03*
Y92061D03*
Y98754D03*
Y105447D03*
Y112140D03*
Y204659D03*
Y211352D03*
Y218045D03*
Y224738D03*
Y231431D03*
Y238124D03*
Y330644D03*
Y337337D03*
Y344030D03*
Y350722D03*
Y357415D03*
Y364108D03*
X284833Y78675D03*
Y85368D03*
Y92061D03*
Y98754D03*
Y105447D03*
Y112140D03*
Y204659D03*
Y211352D03*
Y218045D03*
Y224738D03*
Y231431D03*
Y238124D03*
Y330644D03*
Y337337D03*
Y344030D03*
Y350722D03*
Y357415D03*
Y364108D03*
D02*
D14*
X46310Y62140D03*
Y72140D03*
Y82140D03*
Y92140D03*
Y102140D03*
Y112140D03*
Y188124D03*
Y198124D03*
Y208124D03*
Y218124D03*
Y228124D03*
Y238124D03*
Y314108D03*
Y324108D03*
Y334108D03*
Y344108D03*
Y354108D03*
Y364108D03*
X203790Y62140D03*
Y72140D03*
Y82140D03*
Y92140D03*
Y102140D03*
Y112140D03*
Y188124D03*
Y198124D03*
Y208124D03*
Y218124D03*
Y228124D03*
Y238124D03*
Y314108D03*
Y324108D03*
Y334108D03*
Y344108D03*
Y354108D03*
Y364108D03*
D02*
D71*
X93987Y116864D02*
X100286D01*
X105404Y111746*
Y68439*
X103436Y66470*
X96743*
X93987Y63715*
X83456*
X82668Y62927*
Y60171*
X93987Y242848D02*
X100286D01*
X105404Y237730*
Y194423*
X103436Y192455*
X96743*
X93987Y189699*
X83456*
X82668Y188911*
Y186156*
X93987Y368833D02*
X100286D01*
X105404Y363715*
Y320407*
X103436Y318439*
X96743*
X93987Y315683*
X83456*
X82668Y314896*
Y312140*
X94381Y32219D02*
X84637D01*
X83849Y33006*
Y36156*
X94381Y158203D02*
X84637D01*
X83849Y158990*
Y162140*
X94381Y284187D02*
X84637D01*
X83849Y284974*
Y288124*
X94774Y46785D02*
Y32612D01*
X94381Y32219*
X94774Y172770D02*
Y158596D01*
X94381Y158203*
X94774Y298754D02*
Y284581D01*
X94381Y284187*
X99597Y36156D02*
Y32219D01*
X94381*
X99597Y162140D02*
Y158203D01*
X94381*
X99597Y288124D02*
Y284187D01*
X94381*
X103633Y60171D02*
Y62730D01*
X103436Y62927*
X103633Y186156D02*
Y188715D01*
X103436Y188911*
X103633Y312140D02*
Y314699D01*
X103436Y314896*
X118003Y85368D02*
Y92061D01*
Y85368D02*
X121251D01*
X118003Y92061D02*
Y112140D01*
X121251*
X118003Y92061D02*
X121251D01*
X118003Y211352D02*
Y218045D01*
Y211352D02*
X121251D01*
X118003Y218045D02*
Y238124D01*
X121251*
X118003Y218045D02*
X121251D01*
X118003Y337337D02*
Y344030D01*
Y337337D02*
X121251D01*
X118003Y344030D02*
Y364108D01*
X121251*
X118003Y344030D02*
X121251D01*
X119578Y66864D02*
Y68045D01*
X118003Y69620*
Y85368*
X119578Y66864D02*
Y57415D01*
X118003Y55841*
X96743*
X94774Y53872*
Y46785*
X119578Y192848D02*
Y194030D01*
X118003Y195604*
Y211352*
X119578Y192848D02*
Y183400D01*
X118003Y181825*
X96743*
X94774Y179856*
Y172770*
X119578Y318833D02*
Y320014D01*
X118003Y321589*
Y337337*
X119578Y318833D02*
Y309384D01*
X118003Y307809*
X96743*
X94774Y305841*
Y298754*
X127353Y78675D02*
X132570D01*
X127353Y204659D02*
X132570D01*
X127353Y330644D02*
X132570D01*
Y78675D02*
X139263D01*
X142019Y81431*
Y91175*
X132570Y78675D02*
Y72376D01*
X129420Y69226*
X121940*
X119578Y66864*
X132570Y204659D02*
X139263D01*
X142019Y207415*
Y217159*
X132570Y204659D02*
Y198360D01*
X129420Y195211*
X121940*
X119578Y192848*
X132570Y330644D02*
X139263D01*
X142019Y333400*
Y343144*
X132570Y330644D02*
Y324344D01*
X129420Y321195*
X121940*
X119578Y318833*
X251467Y116864D02*
X257767D01*
X262885Y111746*
Y68439*
X260916Y66470*
X254223*
X251467Y63715*
X240936*
X240148Y62927*
Y60171*
X251467Y242848D02*
X257767D01*
X262885Y237730*
Y194423*
X260916Y192455*
X254223*
X251467Y189699*
X240936*
X240148Y188911*
Y186156*
X251467Y368833D02*
X257767D01*
X262885Y363715*
Y320407*
X260916Y318439*
X254223*
X251467Y315683*
X240936*
X240148Y314896*
Y312140*
X251861Y32219D02*
X242117D01*
X241330Y33006*
Y36156*
X251861Y158203D02*
X242117D01*
X241330Y158990*
Y162140*
X251861Y284187D02*
X242117D01*
X241330Y284974*
Y288124*
X252255Y46785D02*
Y32612D01*
X251861Y32219*
X252255Y172770D02*
Y158596D01*
X251861Y158203*
X252255Y298754D02*
Y284581D01*
X251861Y284187*
X257078Y36156D02*
Y32219D01*
X251861*
X257078Y162140D02*
Y158203D01*
X251861*
X257078Y288124D02*
Y284187D01*
X251861*
X261113Y60171D02*
Y62730D01*
X260916Y62927*
X261113Y186156D02*
Y188715D01*
X260916Y188911*
X261113Y312140D02*
Y314699D01*
X260916Y314896*
X275483Y85368D02*
Y92061D01*
Y85368D02*
X278731D01*
X275483Y92061D02*
Y112140D01*
X278731*
X275483Y92061D02*
X278731D01*
X275483Y211352D02*
Y218045D01*
Y211352D02*
X278731D01*
X275483Y218045D02*
Y238124D01*
X278731*
X275483Y218045D02*
X278731D01*
X275483Y337337D02*
Y344030D01*
Y337337D02*
X278731D01*
X275483Y344030D02*
Y364108D01*
X278731*
X275483Y344030D02*
X278731D01*
X277058Y66864D02*
Y68045D01*
X275483Y69620*
Y85368*
X277058Y66864D02*
Y57415D01*
X275483Y55841*
X254223*
X252255Y53872*
Y46785*
X277058Y192848D02*
Y194030D01*
X275483Y195604*
Y211352*
X277058Y192848D02*
Y183400D01*
X275483Y181825*
X254223*
X252255Y179856*
Y172770*
X277058Y318833D02*
Y320014D01*
X275483Y321589*
Y337337*
X277058Y318833D02*
Y309384D01*
X275483Y307809*
X254223*
X252255Y305841*
Y298754*
X284833Y78675D02*
X290050D01*
X284833Y204659D02*
X290050D01*
X284833Y330644D02*
X290050D01*
Y78675D02*
X296743D01*
X299499Y81431*
Y91175*
X290050Y78675D02*
Y72376D01*
X286900Y69226*
X279420*
X277058Y66864*
X290050Y204659D02*
X296743D01*
X299499Y207415*
Y217159*
X290050Y204659D02*
Y198360D01*
X286900Y195211*
X279420*
X277058Y192848*
X290050Y330644D02*
X296743D01*
X299499Y333400*
Y343144*
X290050Y330644D02*
Y324344D01*
X286900Y321195*
X279420*
X277058Y318833*
D02*
D20*
X46310Y92140D02*
Y102140D01*
Y112140*
Y115880*
X65689Y135259*
X66021*
X46310Y218124D02*
Y228124D01*
Y238124*
Y241864*
X65689Y261243*
X66021*
X46310Y344108D02*
Y354108D01*
Y364108*
Y367848*
X65689Y387227*
X66021*
X94578Y60171D02*
X88770D01*
X94578Y186156D02*
X88770D01*
X94578Y312140D02*
X88770D01*
X102073Y135585D02*
Y146195D01*
Y261569D02*
Y272179D01*
Y387553D02*
Y398163D01*
X109440Y60171D02*
X103633D01*
X109440Y186156D02*
X103633D01*
X109440Y312140D02*
X103633D01*
X203790Y92140D02*
Y102140D01*
Y112140*
Y115880*
X223169Y135259*
X223501*
X203790Y218124D02*
Y228124D01*
Y238124*
Y241864*
X223169Y261243*
X223501*
X203790Y344108D02*
Y354108D01*
Y364108*
Y367848*
X223169Y387227*
X223501*
X252058Y60171D02*
X246251D01*
X252058Y186156D02*
X246251D01*
X252058Y312140D02*
X246251D01*
X259553Y135585D02*
Y146195D01*
Y261569D02*
Y272179D01*
Y387553D02*
Y398163D01*
X266920Y60171D02*
X261113D01*
X266920Y186156D02*
X261113D01*
X266920Y312140D02*
X261113D01*
D02*
D73*
X64322Y96785D02*
Y104128D01*
X66822Y106628*
X72727*
X76664Y110565*
Y113715*
X77845Y114896*
X80306*
X64322Y222770D02*
Y230112D01*
X66822Y232612*
X72727*
X76664Y236549*
Y239699*
X77845Y240880*
X80306*
X64322Y348754D02*
Y356096D01*
X66822Y358596*
X72727*
X76664Y362533*
Y365683*
X77845Y366864*
X80306*
X80207Y55841D02*
X91231D01*
X92806Y54266*
Y51116*
X90837Y49148*
Y43396*
X90247Y42805*
X80207Y103478D02*
X81782D01*
X83357Y105053*
Y114108*
X84144Y114896*
X86408*
X80207Y181825D02*
X91231D01*
X92806Y180250*
Y177100*
X90837Y175132*
Y169380*
X90247Y168789*
X80207Y229463D02*
X81782D01*
X83357Y231037*
Y240093*
X84144Y240880*
X86408*
X80207Y307809D02*
X91231D01*
X92806Y306234*
Y303085*
X90837Y301116*
Y295364*
X90247Y294774*
X80207Y355447D02*
X81782D01*
X83357Y357022*
Y366077*
X84144Y366864*
X86408*
X80306Y68439D02*
X77845D01*
X77058Y67652*
Y60171*
X74302Y57415*
X80306Y75526D02*
X76664D01*
X74696Y73557*
Y66077*
X71152Y62533*
X66684*
X64322Y60171*
Y57415*
X80306Y108203D02*
X77471D01*
X74322Y105053*
Y96785*
X80306Y194423D02*
X77845D01*
X77058Y193636*
Y186156*
X74302Y183400*
X80306Y201510D02*
X76664D01*
X74696Y199541*
Y192061*
X71152Y188518*
X66684*
X64322Y186156*
Y183400*
X80306Y234187D02*
X77471D01*
X74322Y231037*
Y222770*
X80306Y320407D02*
X77845D01*
X77058Y319620*
Y312140*
X74302Y309384*
X80306Y327494D02*
X76664D01*
X74696Y325526*
Y318045*
X71152Y314502*
X66684*
X64322Y312140*
Y309384*
X80306Y360171D02*
X77471D01*
X74322Y357022*
Y348754*
X85326Y95211D02*
X83357Y93242D01*
Y70014*
X84932Y68439*
X86408*
X85326Y221195D02*
X83357Y219226D01*
Y195998*
X84932Y194423*
X86408*
X85326Y347179D02*
X83357Y345211D01*
Y321982*
X84932Y320407*
X86408*
Y75526D02*
X86507D01*
X89656Y72376*
X86408Y201510D02*
X86507D01*
X89656Y198360*
X86408Y327494D02*
X86507D01*
X89656Y324344*
X86507Y52254D02*
X89219D01*
X89263Y52297*
X86507Y178238D02*
X89219D01*
X89263Y178281*
X86507Y304222D02*
X89219D01*
X89263Y304266*
X87294Y103478D02*
Y108203D01*
X86408*
X87294Y229463D02*
Y234187D01*
X86408*
X87294Y355447D02*
Y360171D01*
X86408*
X89656Y80644D02*
Y79069D01*
X90837Y77888*
X92904*
X89656Y206628D02*
Y205053D01*
X90837Y203872*
X92904*
X89656Y332612D02*
Y331037D01*
X90837Y329856*
X92904*
X90247Y42805D02*
Y36451D01*
X89952Y36156*
X90247Y168789D02*
Y162435D01*
X89952Y162140*
X90247Y294774D02*
Y288419D01*
X89952Y288124*
X92904Y84581D02*
X92412D01*
Y84974*
X89656*
X92904Y91274D02*
X92019D01*
X89656Y88911*
X92904Y210565D02*
X92412D01*
Y210959*
X89656*
X92904Y217258D02*
X92019D01*
X89656Y214896*
X92904Y336549D02*
X92412D01*
Y336943*
X89656*
X92904Y343242D02*
X92019D01*
X89656Y340880*
X99007Y77888D02*
X102648D01*
X103436Y77100*
Y69620*
X103042Y69226*
X91231*
X90050Y68045*
X99007Y91274D02*
X101074D01*
X101861Y92061*
Y95211*
X99007Y203872D02*
X102648D01*
X103436Y203085*
Y195604*
X103042Y195211*
X91231*
X90050Y194030*
X99007Y217258D02*
X101074D01*
X101861Y218045*
Y221195*
X99007Y329856D02*
X102648D01*
X103436Y329069*
Y321589*
X103042Y321195*
X91231*
X90050Y320014*
X99007Y343242D02*
X101074D01*
X101861Y344030*
Y347179*
Y95211D02*
Y100329D01*
X100680Y101510*
X90050*
X89263Y100722*
X85326*
X75877Y91274*
Y90486*
X101861Y95211D02*
X89656D01*
X89263Y94817*
X101861Y221195D02*
Y226313D01*
X100680Y227494*
X90050*
X89263Y226707*
X85326*
X75877Y217258*
Y216470*
X101861Y221195D02*
X89656D01*
X89263Y220801*
X101861Y347179D02*
Y352297D01*
X100680Y353478*
X90050*
X89263Y352691*
X85326*
X75877Y343242*
Y342455*
X101861Y347179D02*
X89656D01*
X89263Y346785*
X103042Y52254D02*
Y51904D01*
X105798*
X103042Y178238D02*
Y177888D01*
X105798*
X103042Y304222D02*
Y303872D01*
X105798*
X105700Y36156D02*
X106585D01*
X107373Y36943*
Y42215*
X106782Y42805*
X105700Y162140D02*
X106585D01*
X107373Y162927*
Y168199*
X106782Y168789*
X105700Y288124D02*
X106585D01*
X107373Y288911*
Y294183*
X106782Y294774*
X110522Y42805D02*
X106782D01*
X110522Y168789D02*
X106782D01*
X110522Y294774D02*
X106782D01*
X125089Y65289D02*
Y60171D01*
Y191274D02*
Y186156D01*
Y317258D02*
Y312140D01*
X127353Y85368D02*
Y84581D01*
X131093*
X132176Y83498*
Y83400*
X127353Y105447D02*
Y112140D01*
Y211352D02*
Y210565D01*
X131093*
X132176Y209482*
Y209384*
X127353Y231431D02*
Y238124D01*
Y337337D02*
Y336549D01*
X131093*
X132176Y335467*
Y335368*
X127353Y357415D02*
Y364108D01*
X130601Y105447D02*
X127353D01*
X130601Y231431D02*
X127353D01*
X130601Y357415D02*
X127353D01*
X130995Y101510D02*
Y99541D01*
X130207Y98754*
X127353*
X130995Y227494D02*
Y225526D01*
X130207Y224738*
X127353*
X130995Y353478D02*
Y351510D01*
X130207Y350722*
X127353*
X132176Y87730D02*
Y90683D01*
X130798Y92061*
X127353*
X132176Y213715D02*
Y216667D01*
X130798Y218045*
X127353*
X132176Y339699D02*
Y342652D01*
X130798Y344030*
X127353*
X132963Y60171D02*
Y67652D01*
Y186156D02*
Y193636D01*
Y312140D02*
Y319620D01*
X221802Y96785D02*
Y104128D01*
X224302Y106628*
X230207*
X234144Y110565*
Y113715*
X235326Y114896*
X237786*
X221802Y222770D02*
Y230112D01*
X224302Y232612*
X230207*
X234144Y236549*
Y239699*
X235326Y240880*
X237786*
X221802Y348754D02*
Y356096D01*
X224302Y358596*
X230207*
X234144Y362533*
Y365683*
X235326Y366864*
X237786*
X237688Y55841D02*
X248711D01*
X250286Y54266*
Y51116*
X248318Y49148*
Y43396*
X247727Y42805*
X237688Y103478D02*
X239263D01*
X240837Y105053*
Y114108*
X241625Y114896*
X243889*
X237688Y181825D02*
X248711D01*
X250286Y180250*
Y177100*
X248318Y175132*
Y169380*
X247727Y168789*
X237688Y229463D02*
X239263D01*
X240837Y231037*
Y240093*
X241625Y240880*
X243889*
X237688Y307809D02*
X248711D01*
X250286Y306234*
Y303085*
X248318Y301116*
Y295364*
X247727Y294774*
X237688Y355447D02*
X239263D01*
X240837Y357022*
Y366077*
X241625Y366864*
X243889*
X237786Y68439D02*
X235326D01*
X234538Y67652*
Y60171*
X231782Y57415*
X237786Y75526D02*
X234144D01*
X232176Y73557*
Y66077*
X228633Y62533*
X224164*
X221802Y60171*
Y57415*
X237786Y108203D02*
X234952D01*
X231802Y105053*
Y96785*
X237786Y194423D02*
X235326D01*
X234538Y193636*
Y186156*
X231782Y183400*
X237786Y201510D02*
X234144D01*
X232176Y199541*
Y192061*
X228633Y188518*
X224164*
X221802Y186156*
Y183400*
X237786Y234187D02*
X234952D01*
X231802Y231037*
Y222770*
X237786Y320407D02*
X235326D01*
X234538Y319620*
Y312140*
X231782Y309384*
X237786Y327494D02*
X234144D01*
X232176Y325526*
Y318045*
X228633Y314502*
X224164*
X221802Y312140*
Y309384*
X237786Y360171D02*
X234952D01*
X231802Y357022*
Y348754*
X242806Y95211D02*
X240837Y93242D01*
Y70014*
X242412Y68439*
X243889*
X242806Y221195D02*
X240837Y219226D01*
Y195998*
X242412Y194423*
X243889*
X242806Y347179D02*
X240837Y345211D01*
Y321982*
X242412Y320407*
X243889*
Y75526D02*
X243987D01*
X247137Y72376*
X243889Y201510D02*
X243987D01*
X247137Y198360*
X243889Y327494D02*
X243987D01*
X247137Y324344*
X243987Y52254D02*
X246700D01*
X246743Y52297*
X243987Y178238D02*
X246700D01*
X246743Y178281*
X243987Y304222D02*
X246700D01*
X246743Y304266*
X244774Y103478D02*
Y108203D01*
X243889*
X244774Y229463D02*
Y234187D01*
X243889*
X244774Y355447D02*
Y360171D01*
X243889*
X247137Y80644D02*
Y79069D01*
X248318Y77888*
X250385*
X247137Y206628D02*
Y205053D01*
X248318Y203872*
X250385*
X247137Y332612D02*
Y331037D01*
X248318Y329856*
X250385*
X247727Y42805D02*
Y36451D01*
X247432Y36156*
X247727Y168789D02*
Y162435D01*
X247432Y162140*
X247727Y294774D02*
Y288419D01*
X247432Y288124*
X250385Y84581D02*
X249893D01*
Y84974*
X247137*
X250385Y91274D02*
X249499D01*
X247137Y88911*
X250385Y210565D02*
X249893D01*
Y210959*
X247137*
X250385Y217258D02*
X249499D01*
X247137Y214896*
X250385Y336549D02*
X249893D01*
Y336943*
X247137*
X250385Y343242D02*
X249499D01*
X247137Y340880*
X256487Y77888D02*
X260129D01*
X260916Y77100*
Y69620*
X260522Y69226*
X248711*
X247530Y68045*
X256487Y91274D02*
X258554D01*
X259341Y92061*
Y95211*
X256487Y203872D02*
X260129D01*
X260916Y203085*
Y195604*
X260522Y195211*
X248711*
X247530Y194030*
X256487Y217258D02*
X258554D01*
X259341Y218045*
Y221195*
X256487Y329856D02*
X260129D01*
X260916Y329069*
Y321589*
X260522Y321195*
X248711*
X247530Y320014*
X256487Y343242D02*
X258554D01*
X259341Y344030*
Y347179*
Y95211D02*
Y100329D01*
X258160Y101510*
X247530*
X246743Y100722*
X242806*
X233357Y91274*
Y90486*
X259341Y95211D02*
X247137D01*
X246743Y94817*
X259341Y221195D02*
Y226313D01*
X258160Y227494*
X247530*
X246743Y226707*
X242806*
X233357Y217258*
Y216470*
X259341Y221195D02*
X247137D01*
X246743Y220801*
X259341Y347179D02*
Y352297D01*
X258160Y353478*
X247530*
X246743Y352691*
X242806*
X233357Y343242*
Y342455*
X259341Y347179D02*
X247137D01*
X246743Y346785*
X260522Y52254D02*
Y51904D01*
X263278*
X260522Y178238D02*
Y177888D01*
X263278*
X260522Y304222D02*
Y303872D01*
X263278*
X263180Y36156D02*
X264066D01*
X264853Y36943*
Y42215*
X264263Y42805*
X263180Y162140D02*
X264066D01*
X264853Y162927*
Y168199*
X264263Y168789*
X263180Y288124D02*
X264066D01*
X264853Y288911*
Y294183*
X264263Y294774*
X268003Y42805D02*
X264263D01*
X268003Y168789D02*
X264263D01*
X268003Y294774D02*
X264263D01*
X282570Y65289D02*
Y60171D01*
Y191274D02*
Y186156D01*
Y317258D02*
Y312140D01*
X284833Y85368D02*
Y84581D01*
X288574*
X289656Y83498*
Y83400*
X284833Y105447D02*
Y112140D01*
Y211352D02*
Y210565D01*
X288574*
X289656Y209482*
Y209384*
X284833Y231431D02*
Y238124D01*
Y337337D02*
Y336549D01*
X288574*
X289656Y335467*
Y335368*
X284833Y357415D02*
Y364108D01*
X288081Y105447D02*
X284833D01*
X288081Y231431D02*
X284833D01*
X288081Y357415D02*
X284833D01*
X288475Y101510D02*
Y99541D01*
X287688Y98754*
X284833*
X288475Y227494D02*
Y225526D01*
X287688Y224738*
X284833*
X288475Y353478D02*
Y351510D01*
X287688Y350722*
X284833*
X289656Y87730D02*
Y90683D01*
X288278Y92061*
X284833*
X289656Y213715D02*
Y216667D01*
X288278Y218045*
X284833*
X289656Y339699D02*
Y342652D01*
X288278Y344030*
X284833*
X290444Y60171D02*
Y67652D01*
Y186156D02*
Y193636D01*
Y312140D02*
Y319620D01*
D02*
D75*
X23515Y40880D03*
Y143242D03*
Y166864D03*
Y269226D03*
Y292848D03*
Y395211D03*
X157373Y40880D03*
Y143242D03*
Y166864D03*
Y269226D03*
Y292848D03*
Y395211D03*
X180995Y40880D03*
Y143242D03*
Y166864D03*
Y269226D03*
Y292848D03*
Y395211D03*
X314853Y40880D03*
Y143242D03*
Y166864D03*
Y269226D03*
Y292848D03*
Y395211D03*
D02*
D81*
X135719Y119620D03*
Y145211D03*
Y245604D03*
Y271195D03*
Y371589D03*
Y397179D03*
X293200Y119620D03*
Y145211D03*
Y245604D03*
Y271195D03*
Y371589D03*
Y397179D03*
D02*
D82*
X22432Y98360D03*
Y224344D03*
Y350329D03*
X179912Y98360D03*
Y224344D03*
Y350329D03*
D02*
D83*
X22432Y82770D03*
Y208754D03*
Y334738D03*
X179912Y82770D03*
Y208754D03*
Y334738D03*
D02*
D84*
X93987Y116864D03*
Y242848D03*
Y368833D03*
X102073Y146195D03*
Y272179D03*
Y398163D03*
X251467Y116864D03*
Y242848D03*
Y368833D03*
X259553Y146195D03*
Y272179D03*
Y398163D03*
D02*
D85*
X64322Y57415D03*
Y96785D03*
Y183400D03*
Y222770D03*
Y309384D03*
Y348754D03*
X74302Y57415D03*
Y183400D03*
Y309384D03*
X74322Y96785D03*
Y222770D03*
Y348754D03*
X75877Y90486D03*
Y216470D03*
Y342455D03*
X80207Y55841D03*
Y103478D03*
Y181825D03*
Y229463D03*
Y307809D03*
Y355447D03*
X85326Y95211D03*
Y221195D03*
Y347179D03*
X87294Y103478D03*
Y229463D03*
Y355447D03*
X89263Y52297D03*
Y94817D03*
Y178281D03*
Y220801D03*
Y304266D03*
Y346785D03*
X89656Y72376D03*
Y80644D03*
Y84974D03*
Y88911D03*
Y198360D03*
Y206628D03*
Y210959D03*
Y214896D03*
Y324344D03*
Y332612D03*
Y336943D03*
Y340880D03*
X90050Y68045D03*
Y194030D03*
Y320014D03*
X94774Y46785D03*
Y172770D03*
Y298754D03*
X98711Y107022D03*
Y233006D03*
Y358990D03*
X103436Y62927D03*
Y188911D03*
Y314896D03*
X105798Y51904D03*
Y177888D03*
Y303872D03*
X106192Y118045D03*
Y244030D03*
Y370014D03*
X109735Y77494D03*
Y82219D03*
Y86943D03*
Y91667D03*
Y203478D03*
Y208203D03*
Y212927D03*
Y217652D03*
Y329463D03*
Y334187D03*
Y338911D03*
Y343636D03*
X110522Y42805D03*
Y168789D03*
Y294774D03*
X114459Y77494D03*
Y82219D03*
Y86943D03*
Y91667D03*
Y203478D03*
Y208203D03*
Y212927D03*
Y217652D03*
Y329463D03*
Y334187D03*
Y338911D03*
Y343636D03*
X125089Y65289D03*
Y191274D03*
Y317258D03*
X130601Y105447D03*
Y231431D03*
Y357415D03*
X130995Y101510D03*
Y227494D03*
Y353478D03*
X132176Y83400D03*
Y87730D03*
Y209384D03*
Y213715D03*
Y335368D03*
Y339699D03*
X132570Y78675D03*
Y204659D03*
Y330644D03*
X132963Y67652D03*
Y193636D03*
Y319620D03*
X142019Y91175D03*
Y217159D03*
Y343144D03*
X221802Y57415D03*
Y96785D03*
Y183400D03*
Y222770D03*
Y309384D03*
Y348754D03*
X231782Y57415D03*
Y183400D03*
Y309384D03*
X231802Y96785D03*
Y222770D03*
Y348754D03*
X233357Y90486D03*
Y216470D03*
Y342455D03*
X237688Y55841D03*
Y103478D03*
Y181825D03*
Y229463D03*
Y307809D03*
Y355447D03*
X242806Y95211D03*
Y221195D03*
Y347179D03*
X244774Y103478D03*
Y229463D03*
Y355447D03*
X246743Y52297D03*
Y94817D03*
Y178281D03*
Y220801D03*
Y304266D03*
Y346785D03*
X247137Y72376D03*
Y80644D03*
Y84974D03*
Y88911D03*
Y198360D03*
Y206628D03*
Y210959D03*
Y214896D03*
Y324344D03*
Y332612D03*
Y336943D03*
Y340880D03*
X247530Y68045D03*
Y194030D03*
Y320014D03*
X252255Y46785D03*
Y172770D03*
Y298754D03*
X256192Y107022D03*
Y233006D03*
Y358990D03*
X260916Y62927D03*
Y188911D03*
Y314896D03*
X263278Y51904D03*
Y177888D03*
Y303872D03*
X263672Y118045D03*
Y244030D03*
Y370014D03*
X267215Y77494D03*
Y82219D03*
Y86943D03*
Y91667D03*
Y203478D03*
Y208203D03*
Y212927D03*
Y217652D03*
Y329463D03*
Y334187D03*
Y338911D03*
Y343636D03*
X268003Y42805D03*
Y168789D03*
Y294774D03*
X271940Y77494D03*
Y82219D03*
Y86943D03*
Y91667D03*
Y203478D03*
Y208203D03*
Y212927D03*
Y217652D03*
Y329463D03*
Y334187D03*
Y338911D03*
Y343636D03*
X282570Y65289D03*
Y191274D03*
Y317258D03*
X288081Y105447D03*
Y231431D03*
Y357415D03*
X288475Y101510D03*
Y227494D03*
Y353478D03*
X289656Y83400D03*
Y87730D03*
Y209384D03*
Y213715D03*
Y335368D03*
Y339699D03*
X290050Y78675D03*
Y204659D03*
Y330644D03*
X290444Y67652D03*
Y193636D03*
Y319620D03*
X299499Y91175D03*
Y217159D03*
Y343144D03*
D02*
D95*
X125089Y60171D03*
Y186156D03*
Y312140D03*
X132963Y60171D03*
Y186156D03*
Y312140D03*
X282570Y60171D03*
Y186156D03*
Y312140D03*
X290444Y60171D03*
Y186156D03*
Y312140D03*
D02*
D96*
X94578Y60171D03*
Y186156D03*
Y312140D03*
X103633Y60171D03*
Y186156D03*
Y312140D03*
X252058Y60171D03*
Y186156D03*
Y312140D03*
X261113Y60171D03*
Y186156D03*
Y312140D03*
D02*
D97*
X82767Y42805D03*
Y168789D03*
Y294774D03*
X86507Y52254D03*
Y178238D03*
Y304222D03*
X90247Y42805D03*
Y168789D03*
Y294774D03*
X99302Y42805D03*
Y168789D03*
Y294774D03*
X103042Y52254D03*
Y178238D03*
Y304222D03*
X106782Y42805D03*
Y168789D03*
Y294774D03*
X240247Y42805D03*
Y168789D03*
Y294774D03*
X243987Y52254D03*
Y178238D03*
Y304222D03*
X247727Y42805D03*
Y168789D03*
Y294774D03*
X256782Y42805D03*
Y168789D03*
Y294774D03*
X260522Y52254D03*
Y178238D03*
Y304222D03*
X264263Y42805D03*
Y168789D03*
Y294774D03*
D02*
D98*
X66021Y135259D03*
Y261243D03*
Y387227D03*
X102073Y135585D03*
Y261569D03*
Y387553D03*
X223501Y135259D03*
Y261243D03*
Y387227D03*
X259553Y135585D03*
Y261569D03*
Y387553D03*
D02*
D138*
X154814Y76215D03*
Y202199D03*
Y328183D03*
X312294Y76215D03*
Y202199D03*
Y328183D03*
D02*
D139*
X154814Y84089D03*
Y91963D03*
Y99837D03*
Y210073D03*
Y217947D03*
Y225821D03*
Y336057D03*
Y343931D03*
Y351805D03*
X312294Y84089D03*
Y91963D03*
Y99837D03*
Y210073D03*
Y217947D03*
Y225821D03*
Y336057D03*
Y343931D03*
Y351805D03*
X0Y0D02*
M02*
