G04 EasyPC Gerber Version 21.0.3 Build 4286 *
G04 #@! TF.Part,Single*
G04 #@! TF.FileFunction,Soldermask,Bot *
G04 #@! TF.FilePolarity,Negative *
%FSLAX45Y45*%
%MOIN*%
G04 #@! TA.AperFunction,SMDPad*
%ADD11R,0.03559X0.04937*%
%ADD13R,0.04150X0.04543*%
%ADD14R,0.04150X0.04937*%
%ADD12R,0.04543X0.06118*%
%ADD18R,0.30134X0.30134*%
G04 #@! TA.AperFunction,ComponentPad*
%ADD70R,0.05331X0.05331*%
%ADD16R,0.11630X0.11630*%
%ADD71C,0.05331*%
%ADD19C,0.07693*%
%ADD15C,0.11236*%
%ADD17C,0.11630*%
G04 #@! TA.AperFunction,WasherPad*
%ADD10C,0.22654*%
X0Y0D02*
D02*
D10*
X23987Y40880D03*
Y143242D03*
Y166864D03*
Y269226D03*
Y292848D03*
Y395211D03*
X157845Y40880D03*
Y143242D03*
Y166864D03*
Y269226D03*
Y292848D03*
Y395211D03*
X181467Y40880D03*
Y143242D03*
Y166864D03*
Y269226D03*
Y292848D03*
Y395211D03*
X315326Y40880D03*
Y143242D03*
Y166864D03*
Y269226D03*
Y292848D03*
Y395211D03*
D02*
D11*
X80778Y68439D03*
Y75526D03*
Y108203D03*
Y114896D03*
Y194423D03*
Y201510D03*
Y234187D03*
Y240880D03*
Y320407D03*
Y327494D03*
Y360171D03*
Y366864D03*
X83141Y60171D03*
Y186156D03*
Y312140D03*
X84322Y36156D03*
Y162140D03*
Y288124D03*
X86881Y68439D03*
Y75526D03*
Y108203D03*
Y114896D03*
Y194423D03*
Y201510D03*
Y234187D03*
Y240880D03*
Y320407D03*
Y327494D03*
Y360171D03*
Y366864D03*
X89243Y60171D03*
Y186156D03*
Y312140D03*
X90424Y36156D03*
Y162140D03*
Y288124D03*
X93377Y77888D03*
Y84581D03*
Y91274D03*
Y203872D03*
Y210565D03*
Y217258D03*
Y329856D03*
Y336549D03*
Y343242D03*
X99479Y77888D03*
Y84581D03*
Y91274D03*
Y203872D03*
Y210565D03*
Y217258D03*
Y329856D03*
Y336549D03*
Y343242D03*
X100070Y36156D03*
Y162140D03*
Y288124D03*
X106172Y36156D03*
Y162140D03*
Y288124D03*
X109912Y60171D03*
Y186156D03*
Y312140D03*
X116015Y60171D03*
Y186156D03*
Y312140D03*
X121723Y78675D03*
Y85368D03*
Y92061D03*
Y98754D03*
Y105447D03*
Y112140D03*
Y204659D03*
Y211352D03*
Y218045D03*
Y224738D03*
Y231431D03*
Y238124D03*
Y330644D03*
Y337337D03*
Y344030D03*
Y350722D03*
Y357415D03*
Y364108D03*
X127826Y78675D03*
Y85368D03*
Y92061D03*
Y98754D03*
Y105447D03*
Y112140D03*
Y204659D03*
Y211352D03*
Y218045D03*
Y224738D03*
Y231431D03*
Y238124D03*
Y330644D03*
Y337337D03*
Y344030D03*
Y350722D03*
Y357415D03*
Y364108D03*
X238259Y68439D03*
Y75526D03*
Y108203D03*
Y114896D03*
Y194423D03*
Y201510D03*
Y234187D03*
Y240880D03*
Y320407D03*
Y327494D03*
Y360171D03*
Y366864D03*
X240621Y60171D03*
Y186156D03*
Y312140D03*
X241802Y36156D03*
Y162140D03*
Y288124D03*
X244361Y68439D03*
Y75526D03*
Y108203D03*
Y114896D03*
Y194423D03*
Y201510D03*
Y234187D03*
Y240880D03*
Y320407D03*
Y327494D03*
Y360171D03*
Y366864D03*
X246723Y60171D03*
Y186156D03*
Y312140D03*
X247904Y36156D03*
Y162140D03*
Y288124D03*
X250857Y77888D03*
Y84581D03*
Y91274D03*
Y203872D03*
Y210565D03*
Y217258D03*
Y329856D03*
Y336549D03*
Y343242D03*
X256959Y77888D03*
Y84581D03*
Y91274D03*
Y203872D03*
Y210565D03*
Y217258D03*
Y329856D03*
Y336549D03*
Y343242D03*
X257550Y36156D03*
Y162140D03*
Y288124D03*
X263652Y36156D03*
Y162140D03*
Y288124D03*
X267393Y60171D03*
Y186156D03*
Y312140D03*
X273495Y60171D03*
Y186156D03*
Y312140D03*
X279204Y78675D03*
Y85368D03*
Y92061D03*
Y98754D03*
Y105447D03*
Y112140D03*
Y204659D03*
Y211352D03*
Y218045D03*
Y224738D03*
Y231431D03*
Y238124D03*
Y330644D03*
Y337337D03*
Y344030D03*
Y350722D03*
Y357415D03*
Y364108D03*
X285306Y78675D03*
Y85368D03*
Y92061D03*
Y98754D03*
Y105447D03*
Y112140D03*
Y204659D03*
Y211352D03*
Y218045D03*
Y224738D03*
Y231431D03*
Y238124D03*
Y330644D03*
Y337337D03*
Y344030D03*
Y350722D03*
Y357415D03*
Y364108D03*
D02*
D12*
X125562Y60171D03*
Y186156D03*
Y312140D03*
X133436Y60171D03*
Y186156D03*
Y312140D03*
X283042Y60171D03*
Y186156D03*
Y312140D03*
X290916Y60171D03*
Y186156D03*
Y312140D03*
D02*
D13*
X95050Y60171D03*
Y186156D03*
Y312140D03*
X104105Y60171D03*
Y186156D03*
Y312140D03*
X252530Y60171D03*
Y186156D03*
Y312140D03*
X261585Y60171D03*
Y186156D03*
Y312140D03*
D02*
D14*
X83239Y42805D03*
Y168789D03*
Y294774D03*
X86979Y52254D03*
Y178238D03*
Y304222D03*
X90719Y42805D03*
Y168789D03*
Y294774D03*
X99774Y42805D03*
Y168789D03*
Y294774D03*
X103515Y52254D03*
Y178238D03*
Y304222D03*
X107255Y42805D03*
Y168789D03*
Y294774D03*
X240719Y42805D03*
Y168789D03*
Y294774D03*
X244459Y52254D03*
Y178238D03*
Y304222D03*
X248200Y42805D03*
Y168789D03*
Y294774D03*
X257255Y42805D03*
Y168789D03*
Y294774D03*
X260995Y52254D03*
Y178238D03*
Y304222D03*
X264735Y42805D03*
Y168789D03*
Y294774D03*
D02*
D15*
X136192Y119620D03*
Y145211D03*
Y245604D03*
Y271195D03*
Y371589D03*
Y397179D03*
X293672Y119620D03*
Y145211D03*
Y245604D03*
Y271195D03*
Y371589D03*
Y397179D03*
D02*
D16*
X22904Y98360D03*
Y224344D03*
Y350329D03*
X180385Y98360D03*
Y224344D03*
Y350329D03*
D02*
D17*
X22904Y82770D03*
Y208754D03*
Y334738D03*
X180385Y82770D03*
Y208754D03*
Y334738D03*
D02*
D18*
X66493Y135259D03*
Y261243D03*
Y387227D03*
X102545Y135585D03*
Y261569D03*
Y387553D03*
X223974Y135259D03*
Y261243D03*
Y387227D03*
X260026Y135585D03*
Y261569D03*
Y387553D03*
D02*
D19*
X46782Y62140D03*
Y72140D03*
Y82140D03*
Y92140D03*
Y102140D03*
Y112140D03*
Y188124D03*
Y198124D03*
Y208124D03*
Y218124D03*
Y228124D03*
Y238124D03*
Y314108D03*
Y324108D03*
Y334108D03*
Y344108D03*
Y354108D03*
Y364108D03*
X204263Y62140D03*
Y72140D03*
Y82140D03*
Y92140D03*
Y102140D03*
Y112140D03*
Y188124D03*
Y198124D03*
Y208124D03*
Y218124D03*
Y228124D03*
Y238124D03*
Y314108D03*
Y324108D03*
Y334108D03*
Y344108D03*
Y354108D03*
Y364108D03*
D02*
D70*
X159519Y81136D03*
Y207120D03*
Y333104D03*
X316999Y81136D03*
Y207120D03*
Y333104D03*
D02*
D71*
X159519Y89010D03*
Y96884D03*
Y214994D03*
Y222868D03*
Y340978D03*
Y348852D03*
X316999Y89010D03*
Y96884D03*
Y214994D03*
Y222868D03*
Y340978D03*
Y348852D03*
X0Y0D02*
M02*
