G04 EasyPC Gerber Version 21.0.3 Build 4286 *
G04 #@! TF.Part,Single*
G04 #@! TF.FileFunction,Copper,L1,Top *
G04 #@! TF.FilePolarity,Positive *
%FSLAX45Y45*%
%MOIN*%
G04 #@! TA.AperFunction,SMDPad*
%ADD25R,0.02559X0.03937*%
%ADD138R,0.02992X0.06299*%
%ADD141R,0.06299X0.11811*%
%ADD140R,0.11811X0.19685*%
G04 #@! TA.AperFunction,ComponentPad*
%ADD75R,0.04331X0.04331*%
%ADD95R,0.10630X0.10630*%
G04 #@! TD.AperFunction*
%ADD70C,0.00500*%
%ADD20C,0.00787*%
%ADD71C,0.01000*%
%ADD121C,0.01181*%
G04 #@! TA.AperFunction,ViaPad*
%ADD77C,0.02362*%
%ADD144C,0.03200*%
G04 #@! TA.AperFunction,ComponentPad*
%ADD76C,0.04331*%
G04 #@! TA.AperFunction,ViaPad*
%ADD143C,0.04800*%
G04 #@! TA.AperFunction,ComponentPad*
%ADD74C,0.06693*%
%ADD142C,0.10236*%
%ADD96C,0.10630*%
G04 #@! TA.AperFunction,WasherPad*
%ADD137C,0.21654*%
G04 #@! TA.AperFunction,SMDPad*
%ADD139R,0.06496X0.01772*%
%ADD26R,0.03937X0.02559*%
X0Y0D02*
D02*
D70*
X167975Y137374D02*
G75*
G02X146139Y143242I-10130J5868D01*
G01*
G75*
G02X151978Y153372I11707*
G01*
X29855*
G75*
G02X35694Y143242I-5868J-10130*
G01*
G75*
G02X13857Y137374I-11707*
G01*
Y46748*
G75*
G02X35694Y40880I10130J-5868*
G01*
G75*
G02X29855Y30750I-11707*
G01*
X151978*
G75*
G02X146139Y40880I5868J10130*
G01*
G75*
G02X167975Y46748I11707*
G01*
Y137374*
X156103Y96884D02*
G75*
G02X162934I3415D01*
G01*
G75*
G02X156103I-3415*
G01*
X156752Y90283D02*
G75*
G02X162564Y89010I2766J-1274D01*
G01*
G75*
G02X156752Y87736I-3045*
G01*
X154534*
X150971Y84173*
G75*
G02X150070Y83799I-901J900*
G01*
X141009*
Y82913*
X135312*
Y84250*
X134898Y84664*
G75*
G02X134524Y85565I900J901*
G01*
Y86108*
G75*
G02X133857Y85565I-1876J1622*
G01*
G75*
G02X133572Y81098I-1209J-2165*
G01*
G75*
G02X134558Y80638I-530J-2423*
G01*
X135312*
Y81524*
X141009*
Y77205*
X135312*
Y77676*
G75*
G02X133091Y76196I-2270J999*
G01*
X134751Y74535*
X135312*
Y75421*
X141009*
Y74535*
X151511*
X156473Y79498*
Y84181*
X162564*
Y78091*
X158668*
X152939Y72362*
G75*
G02X152038Y71988I-901J900*
G01*
X141009*
Y71102*
X135312*
Y71988*
X134223*
G75*
G02X133322Y72362J1274*
G01*
X129469Y76215*
Y72862*
X131074*
G75*
G02X131975Y72489J-1274*
G01*
X134336Y70128*
G75*
G02X134531Y69877I-899J-902*
G01*
G75*
G02X135916Y67652I-1095J-2225*
G01*
G75*
G02X130956I-2480*
G01*
G75*
G02X131573Y69288I2480J0*
G01*
X130546Y70315*
X129099*
Y67264*
X127062*
G75*
G02X128042Y65289I-1500J-1974*
G01*
G75*
G02X123082I-2480*
G01*
G75*
G02X123698Y66925I2480*
G01*
Y67264*
X121717*
Y40880*
G75*
G02X120585Y39614I-1274*
G01*
X114652Y33681*
G75*
G02X113751Y33307I-901J900*
G01*
X81861*
G75*
G02X80960Y33681J1274*
G01*
X78205Y36435*
G75*
G02X77831Y37337I900J901*
G01*
Y54266*
G75*
G02X78205Y55167I1274*
G01*
X78275Y55237*
G75*
G02X78200Y55841I2405J604*
G01*
G75*
G02X83160I2480*
G01*
G75*
G02X80379Y53379I-2480*
G01*
Y37864*
X82389Y35854*
X113223*
X119149Y41780*
G75*
G02X119170Y41801I907J-903*
G01*
Y49573*
X113305Y43707*
G75*
G02X108725Y41806I-2310J-902*
G01*
Y36850*
X104406*
Y39183*
X104022Y38798*
G75*
G02X103117Y38425I-901J900*
G01*
X102623*
Y36850*
X98304*
Y42547*
X102241*
Y43937*
X98304*
Y45315*
X97244*
G75*
G02X93250I-1997J1470*
G01*
X92583*
Y43937*
X88646*
Y42547*
X92583*
Y36850*
X88265*
Y38425*
X88160*
G75*
G02X87259Y38799J1274*
G01*
X86481Y39577*
Y36850*
X82162*
Y42547*
X83048*
Y43937*
X82162*
Y49634*
X86099*
Y49935*
G75*
G02X86473Y50836I1274*
G01*
X87330Y51693*
G75*
G02X87255Y52297I2405J604*
G01*
G75*
G02X92215I2480*
G01*
G75*
G02X89131Y49892I-2480*
G01*
X88873Y49634*
X92583*
Y48256*
X93250*
G75*
G02X97244I1997J-1470*
G01*
X98304*
Y49634*
X102241*
Y51116*
G75*
G02X102615Y52017I1274*
G01*
X103401Y52804*
G75*
G02X104136Y53166I901J-900*
G01*
G75*
G02X108750Y51904I2134J-1263*
G01*
G75*
G02X107270Y49634I-2480*
G01*
X108725*
Y43937*
X107839*
Y42547*
X108528*
G75*
G02X111265Y45270I2467J257*
G01*
X117595Y51600*
Y95998*
G75*
G02X117969Y96899I1274*
G01*
X119149Y98079*
G75*
G02X120050Y98453I901J-900*
G01*
X120843*
Y104063*
X127889*
X128669Y104843*
G75*
G02X129249Y107126I2405J604*
G01*
X123200*
G75*
G02X122158Y107558I0J1470*
G01*
X120193Y109523*
G75*
G02X119761Y110565I1038J1041*
G01*
Y123735*
X118654Y124843*
X91131*
X90418Y124129*
Y124043*
X93765*
Y120070*
G75*
G02X97739Y116864I695J-3206*
G01*
G75*
G02X93765Y113659I-3280*
G01*
Y110472*
X92694*
X99104Y104063*
X102918*
Y101874*
X103288*
Y97602*
X102918*
Y96495*
G75*
G02X103264Y97040I1384J-497*
G01*
X104048Y97824*
G75*
G02X105089Y98256I1041J-1038*
G01*
X111961*
X112280Y98576*
Y110866*
X109721*
Y124437*
X117780*
Y110866*
X115221*
Y97967*
G75*
G02X114789Y96925I-1470J0*
G01*
X113611Y95747*
G75*
G02X112570Y95315I-1041J1038*
G01*
X105772*
Y85371*
G75*
G02Y85369I-641J-1*
G01*
G75*
G02Y85368I-654J0*
G01*
G75*
G02X105342Y84328I-1470*
G01*
X104357Y83344*
G75*
G02X103315Y82913I-1040J1040*
G01*
X102918*
Y67264*
X95143*
Y67080*
X97824Y64398*
X101911*
G75*
G02X106388Y62927I1997J-1470*
G01*
G75*
G02X101911Y61457I-2480*
G01*
X97215*
G75*
G02X96174Y61889I0J1470*
G01*
X92634Y65429*
G75*
G02X92220Y66237I1038J1041*
G01*
G75*
G02X88394Y66772I-1698J1808*
G01*
X88160*
G75*
G02X87259Y67145J1274*
G01*
X84111Y70294*
G75*
G02X83737Y71195I900J901*
G01*
Y75660*
G75*
G02X83580Y76313I1274J653*
G01*
Y86350*
X78722Y91208*
G75*
G02X76068Y88022I-2372J-722*
G01*
Y87030*
X77170*
Y78970*
X72418*
Y80939*
X72170*
Y78970*
X71855*
Y73892*
G75*
G02X71249Y72432I-2061*
G01*
X66982Y68165*
G75*
G02X65522Y67559I-1459J1455*
G01*
X57715*
X55576Y65420*
Y55447*
G75*
G02X53515Y53386I-2061*
G01*
X39440*
G75*
G02X37980Y53992J2061*
G01*
X21449Y70523*
G75*
G02X20843Y71982I1455J1459*
G01*
Y76928*
G75*
G02X16709Y82770I2061J5842*
G01*
G75*
G02X29099I6195*
G01*
G75*
G02X24965Y76928I-6195*
G01*
Y72836*
X40293Y57508*
X51454*
Y66274*
G75*
G02X52059Y67733I2061*
G01*
X55402Y71075*
G75*
G02X56861Y71681I1459J-1455*
G01*
X64669*
X67733Y74745*
Y78970*
X67418*
Y87030*
X67733*
Y97096*
X67418*
Y105156*
X72170*
Y97096*
X71855*
Y87030*
X72170*
Y85061*
X72418*
Y87030*
X73520*
Y89305*
G75*
G02X73886Y90198I1274J0*
G01*
G75*
G02X73869Y90486I2465J289*
G01*
G75*
G02X77702Y92564I2480*
G01*
G75*
G02X77674Y92848I1404J283*
G01*
Y98948*
X77170Y99452*
Y97496*
G75*
G02X77274Y96785I-2376J-710*
G01*
G75*
G02X72314I-2480*
G01*
G75*
G02X72418Y97496I2480*
G01*
Y105156*
X76493*
Y105248*
X74969Y106772*
X61245*
Y105156*
X62170*
Y97096*
X61855*
Y87030*
X62170*
Y85061*
X62418*
Y87030*
X67170*
Y78970*
X62418*
Y80939*
X62170*
Y78970*
X57418*
Y87030*
X57733*
Y97096*
X57418*
Y99820*
X53241Y103998*
G75*
G02X52635Y105457I1455J1459*
G01*
Y117067*
X43738*
X29099Y102428*
Y92165*
X16709*
Y104555*
X25397*
X41425Y120583*
G75*
G02X42885Y121189I1459J-1455*
G01*
X54696*
G75*
G02X56757Y119128J-2061*
G01*
Y106311*
X57912Y105156*
X58383*
Y107415*
G75*
G02X58804Y108429I1431J0*
G01*
X59588Y109213*
G75*
G02X60601Y109634I1014J-1010*
G01*
X75562*
G75*
G02X76575Y109213I0J-1431*
G01*
X78934Y106854*
G75*
G02X79355Y105841I-1010J-1014*
G01*
Y105575*
G75*
G02X83160Y103478I1325J-2096*
G01*
G75*
G02X81954Y101350I-2480*
G01*
Y100202*
G75*
G02X82142Y100443I1089J-661*
G01*
X84109Y102410*
G75*
G02X84869Y102776I901J-900*
G01*
X85302Y103208*
G75*
G02X85287Y103478I2464J272*
G01*
G75*
G02X90246I2480*
G01*
G75*
G02X86864Y101169I-2480*
G01*
X86306Y100610*
G75*
G02X85546Y100244I-901J900*
G01*
X84316Y99014*
Y97199*
G75*
G02X86069Y97676I1482J-1989*
G01*
X87653Y99260*
G75*
G02X88554Y99634I901J-900*
G01*
X93278*
G75*
G02X94180Y99260J-1274*
G01*
X94292Y99148*
Y101874*
X94662*
Y104063*
X94945*
X89091Y109917*
G75*
G02X88741Y110472I1039J1041*
G01*
X85706*
Y115197*
X85004*
G75*
G02X83545Y115803J2061*
G01*
X79039Y120309*
X77170*
Y118341*
X72418*
Y126400*
X72733*
Y128583*
X71902*
Y126400*
X72170*
Y118341*
X67418*
Y126400*
X67686*
Y128535*
X66902*
Y126400*
X67170*
Y118341*
X62418*
Y126400*
X62686*
Y128583*
X61855*
Y126400*
X62170*
Y118341*
X57418*
Y121070*
X52169Y126319*
X47609*
G75*
G02X45548Y128380J2061*
G01*
Y146195*
G75*
G02X47609Y148256I2061*
G01*
X99994*
G75*
G02X105825Y146195I2552J-2061*
G01*
G75*
G02X99994Y144134I-3280*
G01*
X49670*
Y130441*
X53022*
G75*
G02X54482Y129835J-2061*
G01*
X57733Y126584*
Y130644*
G75*
G02X59794Y132705I2061*
G01*
X64350*
G75*
G02X64794Y132752I444J-2061*
G01*
X69794*
G75*
G02X70238Y132705J-2108*
G01*
X74794*
G75*
G02X76855Y130644J-2061*
G01*
Y126400*
X77170*
Y124431*
X79893*
G75*
G02X81352Y123825J-2061*
G01*
X85706Y119471*
Y124043*
X87477*
Y124735*
G75*
G02Y124737I641J1*
G01*
G75*
G02Y124738I654J0*
G01*
G75*
G02X87908Y125778I1470*
G01*
X89483Y127353*
G75*
G02X89561Y127425I1040J-1041*
G01*
X85335*
Y141736*
X94135*
Y127783*
X119263*
G75*
G02X120304Y127351I0J-1470*
G01*
X122269Y125386*
G75*
G02X122702Y124344I-1038J-1041*
G01*
Y111174*
X123809Y110067*
X135401*
G75*
G02X136444Y109636I3J-1470*
G01*
X139200Y106880*
G75*
G02X139631Y105841I-1040J-1040*
G01*
G75*
G02Y105840I-627J0*
G01*
G75*
G02Y105837I-632J-1*
G01*
Y104752*
X141009*
Y100433*
X135312*
Y104752*
X136690*
Y105231*
X134795Y107126*
X132898*
G75*
G02X132758Y103627I-1825J-1679*
G01*
G75*
G02X130863Y99105I-1291J-2117*
G01*
X130597Y98838*
G75*
G02X129696Y98465I-901J900*
G01*
X129099*
Y93492*
X131657*
X135312Y97234*
Y98650*
X141009*
Y97764*
X144367*
Y113187*
X141214Y116340*
G75*
G02X130194Y119620I-5022J3280*
G01*
G75*
G02X142190I5998*
G01*
G75*
G02X142157Y118999I-5998J0*
G01*
X146541Y114616*
G75*
G02X146914Y113715I-900J-901*
G01*
Y96490*
G75*
G02X145641Y95217I-1274*
G01*
X141009*
Y94331*
X136477*
X135865Y93705*
X141379*
Y93392*
G75*
G02X144971Y91175I1112J-2217*
G01*
G75*
G02X141379Y88959I-2480*
G01*
Y88646*
X137065*
G75*
G02X137072Y88518I-1267J-126*
G01*
Y87232*
X141009*
Y86346*
X149542*
X153106Y89910*
G75*
G02X154007Y90283I901J-900*
G01*
X156752*
X77170Y58056D02*
G75*
G02X77254Y57415I-2396J-641D01*
G01*
G75*
G02X72294I-2480*
G01*
G75*
G02X72418Y58189I2480*
G01*
Y65785*
X77170*
Y58056*
X67170Y58126D02*
G75*
G02X67274Y57415I-2376J-710D01*
G01*
G75*
G02X62314I-2480*
G01*
G75*
G02X62418Y58126I2480*
G01*
Y65785*
X67170*
Y58126*
Y97496D02*
G75*
G02X67274Y96785I-2376J-710D01*
G01*
G75*
G02X62314I-2480*
G01*
G75*
G02X62418Y97496I2480*
G01*
Y105156*
X67170*
Y97496*
X42186Y62140D02*
G75*
G02X51379I4596D01*
G01*
G75*
G02X42186I-4596*
G01*
Y72140D02*
G75*
G02X51379I4596D01*
G01*
G75*
G02X42186I-4596*
G01*
Y82140D02*
G75*
G02X51379I4596D01*
G01*
G75*
G02X42186I-4596*
G01*
X42556Y92140D02*
G75*
G02X51009I4226D01*
G01*
G75*
G02X42556I-4226*
G01*
Y102140D02*
G75*
G02X51009I4226D01*
G01*
G75*
G02X42556I-4226*
G01*
Y112140D02*
G75*
G02X51009I4226D01*
G01*
G75*
G02X42556I-4226*
G01*
X109351Y142130D02*
X118150D01*
Y127819*
X109351*
Y142130*
X129824Y145211D02*
G75*
G02X142560I6368D01*
G01*
G75*
G02X129824I-6368*
G01*
X167725Y47159D02*
G36*
Y60360D01*
X121717*
Y40880*
G75*
G02X120585Y39614I-1274J1*
G01*
X114652Y33681*
G75*
G02X113751Y33307I-902J902*
G01*
X81861*
G75*
G02X80960Y33681I1J1275*
G01*
X78205Y36435*
G75*
G02X77831Y37337I902J902*
G01*
Y54266*
G75*
G02X78205Y55167I1275J-1*
G01*
X78275Y55237*
G75*
G02X78200Y55841I2416J606*
G01*
G75*
G02X83160I2480*
G01*
Y55840*
G75*
G02X80379Y53379I-2480*
G01*
Y37864*
X82389Y35854*
X113223*
X119149Y41780*
G75*
G02X119170Y41801I564J-553*
G01*
Y49573*
X113305Y43707*
G75*
G02X113475Y42805I-2310J-903*
G01*
G75*
G02X108725Y41806I-2480*
G01*
Y36850*
X104406*
Y39183*
X104022Y38798*
G75*
G02X103117Y38425I-902J902*
G01*
X102623*
Y36850*
X98304*
Y42547*
X102241*
Y43937*
X98304*
Y45315*
X97244*
G75*
G02X93250I-1997J1470*
G01*
X92583*
Y43937*
X88646*
Y42547*
X92583*
Y36850*
X88265*
Y38425*
X88160*
G75*
G02X87259Y38799I1J1275*
G01*
X86481Y39577*
Y36850*
X82162*
Y42547*
X83048*
Y43937*
X82162*
Y49634*
X86099*
Y49935*
G75*
G02X86473Y50836I1275J-1*
G01*
X87330Y51693*
G75*
G02X87255Y52297I2416J606*
G01*
G75*
G02X92215I2480*
G01*
G75*
G02X89131Y49892I-2480*
G01*
X88873Y49634*
X92583*
Y48256*
X93250*
G75*
G02X97244I1997J-1470*
G01*
X98304*
Y49634*
X102241*
Y51116*
G75*
G02X102615Y52017I1275J-1*
G01*
X103401Y52804*
G75*
G02X104136Y53166I901J-900*
G01*
G75*
G02X108750Y51904I2134J-1263*
G01*
G75*
G02Y51903I-3007J0*
G01*
G75*
G02X107270Y49634I-2479*
G01*
X108725*
Y43937*
X107839*
Y42547*
X108528*
G75*
G02X108515Y42805I2467J257*
G01*
G75*
G02X111265Y45270I2480*
G01*
X117595Y51600*
Y60360*
X77170*
Y58056*
G75*
G02X77254Y57415I-2408J-643*
G01*
G75*
G02X72294I-2480*
G01*
G75*
G02X72418Y58189I2483J0*
G01*
Y60360*
X67170*
Y58126*
G75*
G02X67274Y57418I-2359J-708*
G01*
G75*
G02Y57415I-2707J-1*
G01*
G75*
G02X62314I-2480*
G01*
G75*
G02Y57418I2707J1*
G01*
G75*
G02X62418Y58126I2463*
G01*
Y60360*
X55576*
Y55447*
Y55446*
G75*
G02X53515Y53386I-2061*
G01*
X39440*
G75*
G02X37980Y53992J2060*
G01*
X31612Y60360*
X14107*
Y47159*
G75*
G02X35694Y40880I9880J-6280*
G01*
G75*
G02X30267Y31000I-11707*
G01*
X151566*
G75*
G02X146139Y40880I6280J9880*
G01*
G75*
G02X167725Y47159I11707J0*
G01*
G37*
X51454Y60360D02*
G36*
X51020D01*
G75*
G02X42544I-4238J1780*
G01*
X37441*
X40293Y57508*
X51454*
Y60360*
G37*
X31612D02*
G36*
X21449Y70523D01*
G75*
G02X20843Y71982I1455J1459*
G01*
Y72140*
X14107*
Y60360*
X31612*
G37*
X65128Y72140D02*
G36*
X51379D01*
G75*
G02X42186I-4596*
G01*
X25661*
X37441Y60360*
X42544*
G75*
G02X42186Y62140I4238J1779*
G01*
G75*
G02X51379I4596*
G01*
G75*
G02X51020Y60360I-4596J0*
G01*
X51454*
Y66274*
G75*
G02X52059Y67733I2061*
G01*
X55402Y71075*
G75*
G02X56861Y71681I1459J-1454*
G01*
X64669*
X65128Y72140*
G37*
X117595D02*
G36*
X102918D01*
Y67264*
X95143*
Y67080*
X97824Y64398*
X101911*
G75*
G02X106388Y62927I1997J-1470*
G01*
G75*
G02X101911Y61457I-2480*
G01*
X97215*
G75*
G02X96174Y61889I0J1470*
G01*
X92634Y65429*
G75*
G02X92220Y66237I1039J1042*
G01*
G75*
G02X88394Y66772I-1698J1807*
G01*
X88160*
G75*
G02X87259Y67145I1J1275*
G01*
X84111Y70294*
G75*
G02X83737Y71195I902J902*
G01*
Y72140*
X70957*
X66982Y68165*
G75*
G02X65522Y67559I-1459J1454*
G01*
X57715*
X55576Y65420*
Y60360*
X62418*
Y65785*
X67170*
Y60360*
X72418*
Y65785*
X77170*
Y60360*
X117595*
Y72140*
G37*
X152641D02*
G36*
G75*
G02X152038Y71988I-603J1124D01*
G01*
X141009*
Y71102*
X135312*
Y71988*
X134223*
G75*
G02X133621Y72140I1J1275*
G01*
X132324*
X134336Y70128*
G75*
G02X134531Y69877I-899J-901*
G01*
G75*
G02X135916Y67652I-1095J-2225*
G01*
Y67652*
G75*
G02X130956I-2480*
G01*
G75*
G02X131573Y69288I2481J-1*
G01*
X130546Y70315*
X129099*
Y67264*
X127062*
G75*
G02X128042Y65289I-1500J-1974*
G01*
G75*
G02X123082I-2480*
G01*
G75*
G02X123698Y66925I2481J0*
G01*
Y67264*
X121717*
Y60360*
X167725*
Y72140*
X152641*
G37*
X16742Y82140D02*
G36*
X14107D01*
Y72140*
X20843*
Y76928*
G75*
G02X16742Y82140I2062J5843*
G01*
G37*
X67418D02*
G36*
X67170D01*
Y78970*
X62418*
Y80939*
X62170*
Y78970*
X57418*
Y82140*
X51379*
G75*
G02X42186I-4596*
G01*
X29067*
G75*
G02X24965Y76928I-6163J630*
G01*
Y72836*
X25661Y72140*
X42186*
G75*
G02X51379I4596*
G01*
X65128*
X67733Y74745*
Y78970*
X67418*
Y82140*
G37*
X83580D02*
G36*
X77170D01*
Y78970*
X72418*
Y80939*
X72170*
Y78970*
X71855*
Y73892*
G75*
G02X71249Y72432I-2061*
G01*
X70957Y72140*
X83737*
Y75660*
G75*
G02X83580Y76311I1268J651*
G01*
G75*
G02Y76313I1504J1*
G01*
Y82140*
G37*
X117595D02*
G36*
X102918D01*
Y72140*
X117595*
Y82140*
G37*
X133621Y72140D02*
G36*
G75*
G02X133322Y72362I603J1124D01*
G01*
X129469Y76215*
Y72862*
X131074*
G75*
G02X131975Y72489I-1J-1275*
G01*
X132324Y72140*
X133621*
G37*
X156473Y82140D02*
G36*
X134784D01*
G75*
G02X133572Y81098I-2136J1259*
G01*
G75*
G02X134558Y80638I-528J-2419*
G01*
X135312*
Y81524*
X141009*
Y77205*
X135312*
Y77676*
G75*
G02X133091Y76196I-2270J999*
G01*
X134751Y74535*
X135312*
Y75421*
X141009*
Y74535*
X151511*
X156473Y79498*
Y82140*
G37*
X162564D02*
G36*
Y78091D01*
X158668*
X152939Y72362*
G75*
G02X152641Y72140I-902J902*
G01*
X167725*
Y82140*
X162564*
G37*
X57418D02*
G36*
Y87030D01*
X57733*
Y92140*
X51009*
G75*
G02X42556I-4226*
G01*
X14107*
Y82140*
X16742*
G75*
G02X16709Y82770I6164J631*
G01*
G75*
G02X29099I6195*
G01*
Y82769*
G75*
G02X29067Y82140I-6195J-2*
G01*
X42186*
G75*
G02X51379I4596*
G01*
X57418*
G37*
X67418D02*
G36*
Y87030D01*
X67733*
Y92140*
X61855*
Y87030*
X62170*
Y85061*
X62418*
Y87030*
X67170*
Y82140*
X67418*
G37*
X74501Y92140D02*
G36*
X71855D01*
Y87030*
X72170*
Y85061*
X72418*
Y87030*
X73520*
Y89305*
G75*
G02X73886Y90198I1273*
G01*
G75*
G02X73869Y90486I2496J291*
G01*
G75*
G02X74501Y92140I2480*
G01*
G37*
X83580Y82140D02*
G36*
Y86350D01*
X78722Y91208*
G75*
G02X78829Y90486I-2372J-722*
G01*
G75*
G02X76068Y88022I-2480*
G01*
Y87030*
X77170*
Y82140*
X83580*
G37*
X117595Y92140D02*
G36*
X105772D01*
Y85371*
Y85369*
Y85368*
Y85368*
G75*
G02X105342Y84328I-1470*
G01*
X104357Y83344*
G75*
G02X103315Y82913I-1040J1040*
G01*
X102918*
Y82140*
X117595*
Y92140*
G37*
X144776D02*
G36*
G75*
G02X144971Y91176I-2284J-965D01*
G01*
Y91175*
Y91175*
G75*
G02X141379Y88959I-2480*
G01*
Y88646*
X137065*
G75*
G02X137072Y88518I-1290J-128*
G01*
Y88518*
Y87232*
X141009*
Y86346*
X149542*
X153106Y89910*
G75*
G02X154007Y90283I902J-902*
G01*
X156752*
G75*
G02X162564Y89010I2766J-1274*
G01*
G75*
G02X156752Y87736I-3045*
G01*
X154534*
X150971Y84173*
G75*
G02X150070Y83799I-902J902*
G01*
X141009*
Y82913*
X135312*
Y84250*
X134898Y84664*
G75*
G02X134524Y85565I902J902*
G01*
Y86108*
G75*
G02X133857Y85565I-1875J1621*
G01*
G75*
G02X135128Y83400I-1209J-2165*
G01*
G75*
G02X134784Y82140I-2480J0*
G01*
X156473*
Y84181*
X162564*
Y82140*
X167725*
Y92140*
X144776*
G37*
X57733Y96884D02*
G36*
X29099D01*
Y92165*
X16709*
Y96884*
X14107*
Y92140*
X42556*
G75*
G02X51009I4226*
G01*
X57733*
Y96884*
G37*
X67733D02*
G36*
X67272D01*
G75*
G02X67274Y96788I-2457J-98*
G01*
G75*
G02Y96785I-2707J-1*
G01*
G75*
G02X62314I-2480*
G01*
G75*
G02Y96788I2707J1*
G01*
G75*
G02X62316Y96884I2459J-2*
G01*
X61855*
Y92140*
X67733*
Y96884*
G37*
X74501Y92140D02*
G36*
G75*
G02X77702Y92564I1848J-1654D01*
G01*
G75*
G02X77674Y92848I1407J284*
G01*
Y92848*
Y96884*
X77272*
G75*
G02X77274Y96788I-2457J-98*
G01*
G75*
G02Y96785I-2707J-1*
G01*
G75*
G02X72314I-2480*
G01*
G75*
G02Y96788I2707J1*
G01*
G75*
G02X72316Y96884I2459J-2*
G01*
X71855*
Y92140*
X74501*
G37*
X103128Y96884D02*
G36*
X102918D01*
Y96495*
G75*
G02X103128Y96884I1383J-496*
G01*
G37*
X117595Y92140D02*
G36*
Y95998D01*
G75*
G02X117954Y96884I1275J-1*
G01*
X114748*
X113611Y95747*
G75*
G02X112570Y95315I-1041J1038*
G01*
X105772*
Y92140*
X117595*
G37*
X134970Y96884D02*
G36*
X129099D01*
Y93492*
X131657*
X134970Y96884*
G37*
X146914D02*
G36*
Y96490D01*
G75*
G02X145641Y95217I-1274*
G01*
X141009*
Y94331*
X136477*
X135865Y93705*
X141379*
Y93392*
G75*
G02X144776Y92140I1112J-2216*
G01*
X167725*
Y96884*
X162934*
G75*
G02X156103I-3415*
G01*
X146914*
G37*
X16709Y102140D02*
G36*
X14107D01*
Y96884*
X16709*
Y102140*
G37*
X55098D02*
G36*
X51009D01*
G75*
G02X42556I-4226*
G01*
X29099*
Y96884*
X57733*
Y97096*
X57418*
Y99820*
X55098Y102140*
G37*
X72418D02*
G36*
X72170D01*
Y97096*
X71855*
Y96884*
X72316*
G75*
G02X72418Y97496I2462J-96*
G01*
Y102140*
G37*
X62316Y96884D02*
G36*
G75*
G02X62418Y97496I2462J-96D01*
G01*
Y102140*
X62170*
Y97096*
X61855*
Y96884*
X62316*
G37*
X67418Y102140D02*
G36*
X67170D01*
Y97496*
G75*
G02X67272Y96884I-2360J-708*
G01*
X67733*
Y97096*
X67418*
Y102140*
G37*
X77674Y96884D02*
G36*
Y98948D01*
X77170Y99452*
Y97496*
G75*
G02X77272Y96884I-2360J-708*
G01*
X77674*
G37*
X83839Y102140D02*
G36*
X82768D01*
G75*
G02X81954Y101350I-2088J1339*
G01*
Y100202*
G75*
G02X82142Y100443I1094J-665*
G01*
X83839Y102140*
G37*
X120843D02*
G36*
X115221D01*
Y97967*
Y97966*
G75*
G02X114789Y96925I-1470*
G01*
X114748Y96884*
X117954*
G75*
G02X117969Y96899I917J-879*
G01*
X119149Y98079*
G75*
G02X120050Y98453I902J-902*
G01*
X120843*
Y102140*
G37*
X94662D02*
G36*
X89854D01*
G75*
G02X86864Y101169I-2088J1339*
G01*
X86306Y100610*
G75*
G02X85546Y100244I-900J897*
G01*
X84316Y99014*
Y97199*
G75*
G02X86069Y97676I1482J-1987*
G01*
X87653Y99260*
G75*
G02X88554Y99634I902J-902*
G01*
X93278*
G75*
G02X94180Y99260I-1J-1275*
G01*
X94292Y99148*
Y101874*
X94662*
Y102140*
G37*
X112280D02*
G36*
X102918D01*
Y101874*
X103288*
Y97602*
X102918*
Y96884*
X103128*
G75*
G02X103264Y97040I1173J-885*
G01*
X104048Y97824*
G75*
G02X105089Y98256I1041J-1038*
G01*
X111961*
X112280Y98576*
Y102140*
G37*
X144367D02*
G36*
X141009D01*
Y100433*
X135312*
Y102140*
X133866*
G75*
G02X133947Y101510I-2399J-629*
G01*
G75*
G02X130863Y99105I-2480*
G01*
X130597Y98838*
G75*
G02X129696Y98465I-902J902*
G01*
X129099*
Y96884*
X134970*
X135312Y97234*
Y98650*
X141009*
Y97764*
X144367*
Y102140*
G37*
X146914D02*
G36*
Y96884D01*
X156103*
G75*
G02X162934I3415*
G01*
X167725*
Y102140*
X146914*
G37*
X32982Y112140D02*
G36*
X14107D01*
Y102140*
X16709*
Y104555*
X25397*
X32982Y112140*
G37*
X55098Y102140D02*
G36*
X53241Y103998D01*
G75*
G02X52635Y105457I1455J1459*
G01*
Y112140*
X51009*
G75*
G02X42556I-4226*
G01*
X38811*
X29099Y102428*
Y102140*
X42556*
G75*
G02X51009I4226*
G01*
X55098*
G37*
X94662D02*
G36*
Y104063D01*
X94945*
X89091Y109917*
G75*
G02X88741Y110472I1033J1038*
G01*
X85706*
Y112140*
X56757*
Y106311*
X57912Y105156*
X58383*
Y107415*
G75*
G02X58804Y108429I1430*
G01*
X59588Y109213*
G75*
G02X60601Y109634I1013J-1009*
G01*
X75562*
G75*
G02X76575Y109213J-1430*
G01*
X78934Y106854*
G75*
G02X79355Y105841I-1009J-1013*
G01*
Y105575*
G75*
G02X83160Y103478I1325J-2096*
G01*
G75*
G02X82768Y102140I-2480J0*
G01*
X83839*
X84109Y102410*
G75*
G02X84869Y102776I900J-897*
G01*
X85302Y103208*
G75*
G02X85287Y103478I2556J277*
G01*
G75*
G02X90246I2480*
G01*
G75*
G02X89854Y102140I-2480J0*
G01*
X94662*
G37*
X72418D02*
G36*
Y105156D01*
X76493*
Y105248*
X74969Y106772*
X61245*
Y105156*
X62170*
Y102140*
X62418*
Y105156*
X67170*
Y102140*
X67418*
Y105156*
X72170*
Y102140*
X72418*
G37*
X120843D02*
G36*
Y104063D01*
X127889*
X128669Y104843*
G75*
G02X128594Y105447I2404J604*
G01*
G75*
G02X129249Y107126I2478*
G01*
X123200*
G75*
G02X122158Y107558I0J1470*
G01*
X120193Y109523*
G75*
G02X119761Y110565I1038J1041*
G01*
Y110565*
Y112140*
X117780*
Y110866*
X115221*
Y102140*
X120843*
G37*
X109721Y112140D02*
G36*
X93765D01*
Y110472*
X92694*
X99104Y104063*
X102918*
Y102140*
X112280*
Y110866*
X109721*
Y112140*
G37*
X144367D02*
G36*
X122702D01*
Y111174*
X123809Y110067*
X135401*
G75*
G02X136444Y109636I3J-1470*
G01*
X139200Y106880*
G75*
G02X139631Y105841I-1039J-1039*
G01*
Y105841*
Y105840*
Y105837*
Y104752*
X141009*
Y102140*
X144367*
Y112140*
G37*
X135312Y102140D02*
G36*
Y104752D01*
X136690*
Y105231*
X134795Y107126*
X132898*
G75*
G02X133554Y105447I-1824J-1679*
G01*
G75*
G02X132758Y103627I-2480*
G01*
G75*
G02X133866Y102140I-1291J-2117*
G01*
X135312*
G37*
X146914Y112140D02*
G36*
Y102140D01*
X167725*
Y112140*
X146914*
G37*
X85706D02*
G36*
Y115197D01*
X85004*
G75*
G02X83545Y115803J2060*
G01*
X79039Y120309*
X77170*
Y118341*
X72418*
Y126400*
X72733*
Y128583*
X71902*
Y126400*
X72170*
Y118341*
X67418*
Y126400*
X67686*
Y128535*
X66902*
Y126400*
X67170*
Y118341*
X62418*
Y126400*
X62686*
Y128583*
X61855*
Y126400*
X62170*
Y118341*
X57418*
Y121070*
X52169Y126319*
X47609*
G75*
G02X45548Y128380J2061*
G01*
Y128380*
Y134974*
X32275*
G75*
G02X15699I-8288J8268*
G01*
X14107*
Y112140*
X32982*
X41425Y120583*
G75*
G02X42885Y121189I1459J-1454*
G01*
X54696*
G75*
G02X56757Y119128J-2061*
G01*
Y119128*
Y112140*
X85706*
G37*
X52635D02*
G36*
Y117067D01*
X43738*
X38811Y112140*
X42556*
G75*
G02X51009I4226*
G01*
X52635*
G37*
X85335Y134974D02*
G36*
X49670D01*
Y130441*
X53022*
G75*
G02X54482Y129835J-2060*
G01*
X57733Y126584*
Y130644*
Y130644*
G75*
G02X59794Y132705I2061*
G01*
X64350*
G75*
G02X64794Y132752I443J-2052*
G01*
X69794*
G75*
G02X70238Y132705I1J-2099*
G01*
X74794*
G75*
G02X76855Y130644J-2061*
G01*
Y130644*
Y126400*
X77170*
Y124431*
X79893*
G75*
G02X81352Y123825J-2060*
G01*
X85706Y119471*
Y124043*
X87477*
Y124735*
Y124737*
Y124738*
Y124739*
G75*
G02X87908Y125778I1470*
G01*
X89483Y127353*
G75*
G02X89561Y127425I905J-895*
G01*
X85335*
Y134974*
G37*
X119761Y112140D02*
G36*
Y123735D01*
X118654Y124843*
X91131*
X90418Y124129*
Y124043*
X93765*
Y120070*
G75*
G02X97739Y116864I695J-3206*
G01*
G75*
G02X93765Y113659I-3280*
G01*
Y112140*
X109721*
Y124437*
X117780*
Y112140*
X119761*
G37*
X146914D02*
G36*
X167725D01*
Y134974*
X166133*
G75*
G02X149557I-8288J8268*
G01*
X118150*
Y127819*
X109351*
Y134974*
X94135*
Y127783*
X119263*
G75*
G02X120304Y127351I0J-1470*
G01*
X122269Y125386*
G75*
G02X122702Y124345I-1038J-1041*
G01*
Y124344*
Y112140*
X144367*
Y113187*
X141214Y116340*
G75*
G02X130194Y119620I-5022J3280*
G01*
G75*
G02X142190I5998*
G01*
G75*
G02X142157Y118999I-6141J7*
G01*
X146541Y114616*
G75*
G02X146914Y113715I-902J-902*
G01*
Y112140*
G37*
X15699Y134974D02*
G36*
G75*
G02X14107Y136963I8288J8269D01*
G01*
Y134974*
X15699*
G37*
X45548Y145211D02*
G36*
X35527D01*
G75*
G02X35694Y143242I-11541J-1968*
G01*
G75*
G02X32275Y134974I-11707J0*
G01*
X45548*
Y145211*
G37*
X146305D02*
G36*
X142560D01*
G75*
G02X129824I-6368*
G01*
X105674*
G75*
G02X99994Y144134I-3129J984*
G01*
X49670*
Y134974*
X85335*
Y141736*
X94135*
Y134974*
X109351*
Y142130*
X118150*
Y134974*
X149557*
G75*
G02X146139Y143242I8288J8268*
G01*
G75*
G02X146305Y145211I11707J1*
G01*
G37*
X167725Y136963D02*
G36*
G75*
G02X166133Y134974I-9880J6281D01*
G01*
X167725*
Y136963*
G37*
X151566Y153122D02*
G36*
X30267D01*
G75*
G02X35527Y145211I-6279J-9880*
G01*
X45548*
Y146195*
Y146195*
G75*
G02X47609Y148256I2061*
G01*
X99994*
G75*
G02X105825Y146195I2552J-2061*
G01*
G75*
G02X105674Y145211I-3280*
G01*
X129824*
G75*
G02X142560I6368*
G01*
X146305*
G75*
G02X151566Y153122I11540J-1969*
G01*
G37*
X167975Y263359D02*
G75*
G02X146139Y269226I-10130J5868D01*
G01*
G75*
G02X151978Y279356I11707*
G01*
X29855*
G75*
G02X35694Y269226I-5868J-10130*
G01*
G75*
G02X13857Y263359I-11707*
G01*
Y172732*
G75*
G02X35694Y166864I10130J-5868*
G01*
G75*
G02X29855Y156734I-11707*
G01*
X151978*
G75*
G02X146139Y166864I5868J10130*
G01*
G75*
G02X167975Y172732I11707*
G01*
Y263359*
X156103Y222868D02*
G75*
G02X162934I3415D01*
G01*
G75*
G02X156103I-3415*
G01*
X156752Y216268D02*
G75*
G02X162564Y214994I2766J-1274D01*
G01*
G75*
G02X156752Y213720I-3045*
G01*
X154534*
X150971Y210157*
G75*
G02X150070Y209783I-901J900*
G01*
X141009*
Y208898*
X135312*
Y210234*
X134898Y210648*
G75*
G02X134524Y211549I900J901*
G01*
Y212093*
G75*
G02X133857Y211549I-1876J1622*
G01*
G75*
G02X133572Y207082I-1209J-2165*
G01*
G75*
G02X134558Y206622I-530J-2423*
G01*
X135312*
Y207508*
X141009*
Y203189*
X135312*
Y203660*
G75*
G02X133091Y202180I-2270J999*
G01*
X134751Y200520*
X135312*
Y201406*
X141009*
Y200520*
X151511*
X156473Y205482*
Y210165*
X162564*
Y204075*
X158668*
X152939Y198346*
G75*
G02X152038Y197972I-901J900*
G01*
X141009*
Y197087*
X135312*
Y197972*
X134223*
G75*
G02X133322Y198346J1274*
G01*
X129469Y202199*
Y198846*
X131074*
G75*
G02X131975Y198473J-1274*
G01*
X134336Y196112*
G75*
G02X134531Y195861I-899J-902*
G01*
G75*
G02X135916Y193636I-1095J-2225*
G01*
G75*
G02X130956I-2480*
G01*
G75*
G02X131573Y195272I2480J0*
G01*
X130546Y196299*
X129099*
Y193248*
X127062*
G75*
G02X128042Y191274I-1500J-1974*
G01*
G75*
G02X123082I-2480*
G01*
G75*
G02X123698Y192909I2480*
G01*
Y193248*
X121717*
Y166864*
G75*
G02X120585Y165598I-1274*
G01*
X114652Y159665*
G75*
G02X113751Y159291I-901J900*
G01*
X81861*
G75*
G02X80960Y159665J1274*
G01*
X78205Y162420*
G75*
G02X77831Y163321I900J901*
G01*
Y180250*
G75*
G02X78205Y181151I1274*
G01*
X78275Y181221*
G75*
G02X78200Y181825I2405J604*
G01*
G75*
G02X83160I2480*
G01*
G75*
G02X80379Y179363I-2480*
G01*
Y163848*
X82389Y161839*
X113223*
X119149Y167764*
G75*
G02X119170Y167785I907J-903*
G01*
Y175557*
X113305Y169692*
G75*
G02X108725Y167790I-2310J-902*
G01*
Y162835*
X104406*
Y165167*
X104022Y164783*
G75*
G02X103117Y164409I-901J900*
G01*
X102623*
Y162835*
X98304*
Y168531*
X102241*
Y169921*
X98304*
Y171299*
X97244*
G75*
G02X93250I-1997J1470*
G01*
X92583*
Y169921*
X88646*
Y168531*
X92583*
Y162835*
X88265*
Y164409*
X88160*
G75*
G02X87259Y164783J1274*
G01*
X86481Y165561*
Y162835*
X82162*
Y168531*
X83048*
Y169921*
X82162*
Y175618*
X86099*
Y175919*
G75*
G02X86473Y176820I1274*
G01*
X87330Y177678*
G75*
G02X87255Y178281I2405J604*
G01*
G75*
G02X92215I2480*
G01*
G75*
G02X89131Y175876I-2480*
G01*
X88873Y175618*
X92583*
Y174240*
X93250*
G75*
G02X97244I1997J-1470*
G01*
X98304*
Y175618*
X102241*
Y177100*
G75*
G02X102615Y178002I1274*
G01*
X103401Y178788*
G75*
G02X104136Y179150I901J-900*
G01*
G75*
G02X108750Y177888I2134J-1263*
G01*
G75*
G02X107270Y175618I-2480*
G01*
X108725*
Y169921*
X107839*
Y168531*
X108528*
G75*
G02X111265Y171254I2467J257*
G01*
X117595Y177585*
Y221982*
G75*
G02X117969Y222883I1274*
G01*
X119149Y224063*
G75*
G02X120050Y224437I901J-900*
G01*
X120843*
Y230047*
X127889*
X128669Y230827*
G75*
G02X129249Y233110I2405J604*
G01*
X123200*
G75*
G02X122158Y233543I0J1470*
G01*
X120193Y235507*
G75*
G02X119761Y236549I1038J1041*
G01*
Y249720*
X118654Y250827*
X91131*
X90418Y250113*
Y250028*
X93765*
Y246054*
G75*
G02X97739Y242848I695J-3206*
G01*
G75*
G02X93765Y239643I-3280*
G01*
Y236457*
X92694*
X99104Y230047*
X102918*
Y227858*
X103288*
Y223587*
X102918*
Y222480*
G75*
G02X103264Y223024I1384J-497*
G01*
X104048Y223808*
G75*
G02X105089Y224240I1041J-1038*
G01*
X111961*
X112280Y224560*
Y236850*
X109721*
Y250421*
X117780*
Y236850*
X115221*
Y223951*
G75*
G02X114789Y222909I-1470J0*
G01*
X113611Y221731*
G75*
G02X112570Y221299I-1041J1038*
G01*
X105772*
Y211356*
G75*
G02Y211353I-641J-1*
G01*
G75*
G02Y211352I-654J0*
G01*
G75*
G02X105342Y210313I-1470*
G01*
X104357Y209328*
G75*
G02X103315Y208898I-1040J1040*
G01*
X102918*
Y193248*
X95143*
Y193064*
X97824Y190382*
X101911*
G75*
G02X106388Y188911I1997J-1470*
G01*
G75*
G02X101911Y187441I-2480*
G01*
X97215*
G75*
G02X96174Y187873I0J1470*
G01*
X92634Y191413*
G75*
G02X92220Y192222I1038J1041*
G01*
G75*
G02X88394Y192756I-1698J1808*
G01*
X88160*
G75*
G02X87259Y193130J1274*
G01*
X84111Y196278*
G75*
G02X83737Y197179I900J901*
G01*
Y201644*
G75*
G02X83580Y202297I1274J653*
G01*
Y212334*
X78722Y217192*
G75*
G02X76068Y214007I-2372J-722*
G01*
Y213014*
X77170*
Y204955*
X72418*
Y206923*
X72170*
Y204955*
X71855*
Y199876*
G75*
G02X71249Y198417I-2061*
G01*
X66982Y194149*
G75*
G02X65522Y193543I-1459J1455*
G01*
X57715*
X55576Y191404*
Y181431*
G75*
G02X53515Y179370I-2061*
G01*
X39440*
G75*
G02X37980Y179976J2061*
G01*
X21449Y196507*
G75*
G02X20843Y197967I1455J1459*
G01*
Y202912*
G75*
G02X16709Y208754I2061J5842*
G01*
G75*
G02X29099I6195*
G01*
G75*
G02X24965Y202912I-6195*
G01*
Y198820*
X40293Y183492*
X51454*
Y192258*
G75*
G02X52059Y193717I2061*
G01*
X55402Y197059*
G75*
G02X56861Y197665I1459J-1455*
G01*
X64669*
X67733Y200730*
Y204955*
X67418*
Y213014*
X67733*
Y223081*
X67418*
Y231140*
X72170*
Y223081*
X71855*
Y213014*
X72170*
Y211045*
X72418*
Y213014*
X73520*
Y215289*
G75*
G02X73886Y216182I1274J0*
G01*
G75*
G02X73869Y216470I2465J289*
G01*
G75*
G02X77702Y218548I2480*
G01*
G75*
G02X77674Y218833I1404J283*
G01*
Y224933*
X77170Y225437*
Y223480*
G75*
G02X77274Y222770I-2376J-710*
G01*
G75*
G02X72314I-2480*
G01*
G75*
G02X72418Y223480I2480*
G01*
Y231140*
X76493*
Y231232*
X74969Y232756*
X61245*
Y231140*
X62170*
Y223081*
X61855*
Y213014*
X62170*
Y211045*
X62418*
Y213014*
X67170*
Y204955*
X62418*
Y206923*
X62170*
Y204955*
X57418*
Y213014*
X57733*
Y223081*
X57418*
Y225804*
X53241Y229982*
G75*
G02X52635Y231441I1455J1459*
G01*
Y243051*
X43738*
X29099Y228412*
Y218150*
X16709*
Y230539*
X25397*
X41425Y246567*
G75*
G02X42885Y247173I1459J-1455*
G01*
X54696*
G75*
G02X56757Y245112J-2061*
G01*
Y232295*
X57912Y231140*
X58383*
Y233400*
G75*
G02X58804Y234413I1431J0*
G01*
X59588Y235197*
G75*
G02X60601Y235618I1014J-1010*
G01*
X75562*
G75*
G02X76575Y235197I0J-1431*
G01*
X78934Y232838*
G75*
G02X79355Y231825I-1010J-1014*
G01*
Y231559*
G75*
G02X83160Y229463I1325J-2096*
G01*
G75*
G02X81954Y227335I-2480*
G01*
Y226187*
G75*
G02X82142Y226427I1089J-661*
G01*
X84109Y228394*
G75*
G02X84869Y228760I901J-900*
G01*
X85302Y229193*
G75*
G02X85287Y229463I2464J272*
G01*
G75*
G02X90246I2480*
G01*
G75*
G02X86864Y227153I-2480*
G01*
X86306Y226594*
G75*
G02X85546Y226228I-901J900*
G01*
X84316Y224998*
Y223183*
G75*
G02X86069Y223660I1482J-1989*
G01*
X87653Y225244*
G75*
G02X88554Y225618I901J-900*
G01*
X93278*
G75*
G02X94180Y225244J-1274*
G01*
X94292Y225132*
Y227858*
X94662*
Y230047*
X94945*
X89091Y235901*
G75*
G02X88741Y236457I1039J1041*
G01*
X85706*
Y241181*
X85004*
G75*
G02X83545Y241787J2061*
G01*
X79039Y246293*
X77170*
Y244325*
X72418*
Y252384*
X72733*
Y254567*
X71902*
Y252384*
X72170*
Y244325*
X67418*
Y252384*
X67686*
Y254520*
X66902*
Y252384*
X67170*
Y244325*
X62418*
Y252384*
X62686*
Y254567*
X61855*
Y252384*
X62170*
Y244325*
X57418*
Y247054*
X52169Y252303*
X47609*
G75*
G02X45548Y254364J2061*
G01*
Y272179*
G75*
G02X47609Y274240I2061*
G01*
X99994*
G75*
G02X105825Y272179I2552J-2061*
G01*
G75*
G02X99994Y270118I-3280*
G01*
X49670*
Y256425*
X53022*
G75*
G02X54482Y255819J-2061*
G01*
X57733Y252568*
Y256628*
G75*
G02X59794Y258689I2061*
G01*
X64350*
G75*
G02X64794Y258736I444J-2061*
G01*
X69794*
G75*
G02X70238Y258689J-2108*
G01*
X74794*
G75*
G02X76855Y256628J-2061*
G01*
Y252384*
X77170*
Y250415*
X79893*
G75*
G02X81352Y249809J-2061*
G01*
X85706Y245456*
Y250028*
X87477*
Y250719*
G75*
G02Y250722I641J1*
G01*
G75*
G02X87908Y251762I1470J1*
G01*
X89483Y253337*
G75*
G02X89561Y253409I1040J-1041*
G01*
X85335*
Y267720*
X94135*
Y253768*
X119263*
G75*
G02X120304Y253335I0J-1470*
G01*
X122269Y251370*
G75*
G02X122702Y250329I-1038J-1041*
G01*
Y237158*
X123809Y236051*
X135401*
G75*
G02X136444Y235620I3J-1470*
G01*
X139200Y232865*
G75*
G02X139631Y231825I-1040J-1040*
G01*
G75*
G02Y231824I-627J0*
G01*
G75*
G02Y231822I-632J-1*
G01*
Y230736*
X141009*
Y226417*
X135312*
Y230736*
X136690*
Y231216*
X134795Y233110*
X132898*
G75*
G02X132758Y229611I-1825J-1679*
G01*
G75*
G02X130863Y225089I-1291J-2117*
G01*
X130597Y224822*
G75*
G02X129696Y224449I-901J900*
G01*
X129099*
Y219476*
X131657*
X135312Y223219*
Y224634*
X141009*
Y223748*
X144367*
Y239171*
X141214Y242324*
G75*
G02X130194Y245604I-5022J3280*
G01*
G75*
G02X142190I5998*
G01*
G75*
G02X142157Y244983I-5998J0*
G01*
X146541Y240600*
G75*
G02X146914Y239699I-900J-901*
G01*
Y222474*
G75*
G02X145641Y221201I-1274*
G01*
X141009*
Y220315*
X136477*
X135865Y219689*
X141379*
Y219376*
G75*
G02X144971Y217159I1112J-2217*
G01*
G75*
G02X141379Y214943I-2480*
G01*
Y214630*
X137065*
G75*
G02X137072Y214502I-1267J-126*
G01*
Y213217*
X141009*
Y212331*
X149542*
X153106Y215894*
G75*
G02X154007Y216268I901J-900*
G01*
X156752*
X77170Y184041D02*
G75*
G02X77254Y183400I-2396J-641D01*
G01*
G75*
G02X72294I-2480*
G01*
G75*
G02X72418Y184173I2480*
G01*
Y191770*
X77170*
Y184041*
X67170Y184110D02*
G75*
G02X67274Y183400I-2376J-710D01*
G01*
G75*
G02X62314I-2480*
G01*
G75*
G02X62418Y184110I2480*
G01*
Y191770*
X67170*
Y184110*
Y223480D02*
G75*
G02X67274Y222770I-2376J-710D01*
G01*
G75*
G02X62314I-2480*
G01*
G75*
G02X62418Y223480I2480*
G01*
Y231140*
X67170*
Y223480*
X42186Y188124D02*
G75*
G02X51379I4596D01*
G01*
G75*
G02X42186I-4596*
G01*
Y198124D02*
G75*
G02X51379I4596D01*
G01*
G75*
G02X42186I-4596*
G01*
Y208124D02*
G75*
G02X51379I4596D01*
G01*
G75*
G02X42186I-4596*
G01*
X42556Y218124D02*
G75*
G02X51009I4226D01*
G01*
G75*
G02X42556I-4226*
G01*
Y228124D02*
G75*
G02X51009I4226D01*
G01*
G75*
G02X42556I-4226*
G01*
Y238124D02*
G75*
G02X51009I4226D01*
G01*
G75*
G02X42556I-4226*
G01*
X109351Y268114D02*
X118150D01*
Y253803*
X109351*
Y268114*
X129824Y271195D02*
G75*
G02X142560I6368D01*
G01*
G75*
G02X129824I-6368*
G01*
X167725Y173144D02*
G36*
Y186344D01*
X121717*
Y166864*
G75*
G02X120585Y165598I-1274J1*
G01*
X114652Y159665*
G75*
G02X113751Y159291I-902J902*
G01*
X81861*
G75*
G02X80960Y159665I1J1275*
G01*
X78205Y162420*
G75*
G02X77831Y163321I902J902*
G01*
Y180250*
G75*
G02X78205Y181151I1275J-1*
G01*
X78275Y181221*
G75*
G02X78200Y181825I2416J606*
G01*
G75*
G02X83160I2480*
G01*
Y181824*
G75*
G02X80379Y179363I-2480*
G01*
Y163848*
X82389Y161839*
X113223*
X119149Y167764*
G75*
G02X119170Y167785I564J-553*
G01*
Y175557*
X113305Y169692*
G75*
G02X113475Y168789I-2310J-903*
G01*
G75*
G02X108725Y167790I-2480*
G01*
Y162835*
X104406*
Y165167*
X104022Y164783*
G75*
G02X103117Y164409I-902J902*
G01*
X102623*
Y162835*
X98304*
Y168531*
X102241*
Y169921*
X98304*
Y171299*
X97244*
G75*
G02X93250I-1997J1470*
G01*
X92583*
Y169921*
X88646*
Y168531*
X92583*
Y162835*
X88265*
Y164409*
X88160*
G75*
G02X87259Y164783I1J1275*
G01*
X86481Y165561*
Y162835*
X82162*
Y168531*
X83048*
Y169921*
X82162*
Y175618*
X86099*
Y175919*
G75*
G02X86473Y176820I1275J-1*
G01*
X87330Y177678*
G75*
G02X87255Y178281I2416J606*
G01*
G75*
G02X92215I2480*
G01*
G75*
G02X89131Y175876I-2480*
G01*
X88873Y175618*
X92583*
Y174240*
X93250*
G75*
G02X97244I1997J-1470*
G01*
X98304*
Y175618*
X102241*
Y177100*
G75*
G02X102615Y178002I1275J-1*
G01*
X103401Y178788*
G75*
G02X104136Y179150I901J-900*
G01*
G75*
G02X108750Y177888I2134J-1263*
G01*
G75*
G02Y177887I-3007J0*
G01*
G75*
G02X107270Y175618I-2479*
G01*
X108725*
Y169921*
X107839*
Y168531*
X108528*
G75*
G02X108515Y168789I2467J257*
G01*
G75*
G02X111265Y171254I2480*
G01*
X117595Y177585*
Y186344*
X77170*
Y184041*
G75*
G02X77254Y183400I-2408J-643*
G01*
G75*
G02X72294I-2480*
G01*
G75*
G02X72418Y184173I2483J0*
G01*
Y186344*
X67170*
Y184110*
G75*
G02X67274Y183402I-2359J-708*
G01*
G75*
G02Y183400I-2707J-1*
G01*
G75*
G02X62314I-2480*
G01*
G75*
G02Y183402I2707J1*
G01*
G75*
G02X62418Y184110I2463*
G01*
Y186344*
X55576*
Y181431*
Y181431*
G75*
G02X53515Y179370I-2061*
G01*
X39440*
G75*
G02X37980Y179976J2060*
G01*
X31612Y186344*
X14107*
Y173144*
G75*
G02X35694Y166864I9880J-6280*
G01*
G75*
G02X30267Y156984I-11707*
G01*
X151566*
G75*
G02X146139Y166864I6280J9880*
G01*
G75*
G02X167725Y173144I11707J0*
G01*
G37*
X51454Y186344D02*
G36*
X51020D01*
G75*
G02X42544I-4238J1780*
G01*
X37441*
X40293Y183492*
X51454*
Y186344*
G37*
X31612D02*
G36*
X21449Y196507D01*
G75*
G02X20843Y197967I1455J1459*
G01*
Y198124*
X14107*
Y186344*
X31612*
G37*
X65128Y198124D02*
G36*
X51379D01*
G75*
G02X42186I-4596*
G01*
X25661*
X37441Y186344*
X42544*
G75*
G02X42186Y188124I4238J1779*
G01*
G75*
G02X51379I4596*
G01*
G75*
G02X51020Y186344I-4596J0*
G01*
X51454*
Y192258*
G75*
G02X52059Y193717I2061*
G01*
X55402Y197059*
G75*
G02X56861Y197665I1459J-1454*
G01*
X64669*
X65128Y198124*
G37*
X117595D02*
G36*
X102918D01*
Y193248*
X95143*
Y193064*
X97824Y190382*
X101911*
G75*
G02X106388Y188911I1997J-1470*
G01*
G75*
G02X101911Y187441I-2480*
G01*
X97215*
G75*
G02X96174Y187873I0J1470*
G01*
X92634Y191413*
G75*
G02X92220Y192222I1039J1042*
G01*
G75*
G02X88394Y192756I-1698J1807*
G01*
X88160*
G75*
G02X87259Y193130I1J1275*
G01*
X84111Y196278*
G75*
G02X83737Y197179I902J902*
G01*
Y198124*
X70957*
X66982Y194149*
G75*
G02X65522Y193543I-1459J1454*
G01*
X57715*
X55576Y191404*
Y186344*
X62418*
Y191770*
X67170*
Y186344*
X72418*
Y191770*
X77170*
Y186344*
X117595*
Y198124*
G37*
X152641D02*
G36*
G75*
G02X152038Y197972I-603J1124D01*
G01*
X141009*
Y197087*
X135312*
Y197972*
X134223*
G75*
G02X133621Y198124I1J1275*
G01*
X132324*
X134336Y196112*
G75*
G02X134531Y195861I-899J-901*
G01*
G75*
G02X135916Y193636I-1095J-2225*
G01*
Y193636*
G75*
G02X130956I-2480*
G01*
G75*
G02X131573Y195272I2481J-1*
G01*
X130546Y196299*
X129099*
Y193248*
X127062*
G75*
G02X128042Y191274I-1500J-1974*
G01*
G75*
G02X123082I-2480*
G01*
G75*
G02X123698Y192909I2481J0*
G01*
Y193248*
X121717*
Y186344*
X167725*
Y198124*
X152641*
G37*
X16742Y208124D02*
G36*
X14107D01*
Y198124*
X20843*
Y202912*
G75*
G02X16742Y208124I2062J5843*
G01*
G37*
X67418D02*
G36*
X67170D01*
Y204955*
X62418*
Y206923*
X62170*
Y204955*
X57418*
Y208124*
X51379*
G75*
G02X42186I-4596*
G01*
X29067*
G75*
G02X24965Y202912I-6163J630*
G01*
Y198820*
X25661Y198124*
X42186*
G75*
G02X51379I4596*
G01*
X65128*
X67733Y200730*
Y204955*
X67418*
Y208124*
G37*
X83580D02*
G36*
X77170D01*
Y204955*
X72418*
Y206923*
X72170*
Y204955*
X71855*
Y199876*
G75*
G02X71249Y198417I-2061*
G01*
X70957Y198124*
X83737*
Y201644*
G75*
G02X83580Y202296I1268J651*
G01*
G75*
G02Y202297I1504J1*
G01*
Y208124*
G37*
X117595D02*
G36*
X102918D01*
Y198124*
X117595*
Y208124*
G37*
X133621Y198124D02*
G36*
G75*
G02X133322Y198346I603J1124D01*
G01*
X129469Y202199*
Y198846*
X131074*
G75*
G02X131975Y198473I-1J-1275*
G01*
X132324Y198124*
X133621*
G37*
X156473Y208124D02*
G36*
X134784D01*
G75*
G02X133572Y207082I-2136J1259*
G01*
G75*
G02X134558Y206622I-528J-2419*
G01*
X135312*
Y207508*
X141009*
Y203189*
X135312*
Y203660*
G75*
G02X133091Y202180I-2270J999*
G01*
X134751Y200520*
X135312*
Y201406*
X141009*
Y200520*
X151511*
X156473Y205482*
Y208124*
G37*
X162564D02*
G36*
Y204075D01*
X158668*
X152939Y198346*
G75*
G02X152641Y198124I-902J902*
G01*
X167725*
Y208124*
X162564*
G37*
X57418D02*
G36*
Y213014D01*
X57733*
Y218124*
X51009*
G75*
G02X42556I-4226*
G01*
X14107*
Y208124*
X16742*
G75*
G02X16709Y208754I6164J631*
G01*
G75*
G02X29099I6195*
G01*
Y208754*
G75*
G02X29067Y208124I-6195J-2*
G01*
X42186*
G75*
G02X51379I4596*
G01*
X57418*
G37*
X67418D02*
G36*
Y213014D01*
X67733*
Y218124*
X61855*
Y213014*
X62170*
Y211045*
X62418*
Y213014*
X67170*
Y208124*
X67418*
G37*
X74501Y218124D02*
G36*
X71855D01*
Y213014*
X72170*
Y211045*
X72418*
Y213014*
X73520*
Y215289*
G75*
G02X73886Y216182I1273*
G01*
G75*
G02X73869Y216470I2496J291*
G01*
G75*
G02X74501Y218124I2480*
G01*
G37*
X83580Y208124D02*
G36*
Y212334D01*
X78722Y217192*
G75*
G02X78829Y216470I-2372J-722*
G01*
G75*
G02X76068Y214007I-2480*
G01*
Y213014*
X77170*
Y208124*
X83580*
G37*
X117595Y218124D02*
G36*
X105772D01*
Y211356*
Y211353*
Y211352*
Y211352*
G75*
G02X105342Y210313I-1470*
G01*
X104357Y209328*
G75*
G02X103315Y208898I-1040J1040*
G01*
X102918*
Y208124*
X117595*
Y218124*
G37*
X144776D02*
G36*
G75*
G02X144971Y217160I-2284J-965D01*
G01*
Y217159*
Y217159*
G75*
G02X141379Y214943I-2480*
G01*
Y214630*
X137065*
G75*
G02X137072Y214502I-1290J-128*
G01*
Y214502*
Y213217*
X141009*
Y212331*
X149542*
X153106Y215894*
G75*
G02X154007Y216268I902J-902*
G01*
X156752*
G75*
G02X162564Y214994I2766J-1274*
G01*
G75*
G02X156752Y213720I-3045*
G01*
X154534*
X150971Y210157*
G75*
G02X150070Y209783I-902J902*
G01*
X141009*
Y208898*
X135312*
Y210234*
X134898Y210648*
G75*
G02X134524Y211549I902J902*
G01*
Y212093*
G75*
G02X133857Y211549I-1875J1621*
G01*
G75*
G02X135128Y209384I-1209J-2165*
G01*
G75*
G02X134784Y208124I-2480J0*
G01*
X156473*
Y210165*
X162564*
Y208124*
X167725*
Y218124*
X144776*
G37*
X57733Y222868D02*
G36*
X29099D01*
Y218150*
X16709*
Y222868*
X14107*
Y218124*
X42556*
G75*
G02X51009I4226*
G01*
X57733*
Y222868*
G37*
X67733D02*
G36*
X67272D01*
G75*
G02X67274Y222772I-2457J-98*
G01*
G75*
G02Y222770I-2707J-1*
G01*
G75*
G02X62314I-2480*
G01*
G75*
G02Y222772I2707J1*
G01*
G75*
G02X62316Y222868I2459J-2*
G01*
X61855*
Y218124*
X67733*
Y222868*
G37*
X74501Y218124D02*
G36*
G75*
G02X77702Y218548I1848J-1654D01*
G01*
G75*
G02X77674Y218832I1407J284*
G01*
Y218833*
Y222868*
X77272*
G75*
G02X77274Y222772I-2457J-98*
G01*
G75*
G02Y222770I-2707J-1*
G01*
G75*
G02X72314I-2480*
G01*
G75*
G02Y222772I2707J1*
G01*
G75*
G02X72316Y222868I2459J-2*
G01*
X71855*
Y218124*
X74501*
G37*
X103128Y222868D02*
G36*
X102918D01*
Y222480*
G75*
G02X103128Y222868I1383J-496*
G01*
G37*
X117595Y218124D02*
G36*
Y221982D01*
G75*
G02X117954Y222868I1275J-1*
G01*
X114748*
X113611Y221731*
G75*
G02X112570Y221299I-1041J1038*
G01*
X105772*
Y218124*
X117595*
G37*
X134970Y222868D02*
G36*
X129099D01*
Y219476*
X131657*
X134970Y222868*
G37*
X146914D02*
G36*
Y222474D01*
G75*
G02X145641Y221201I-1274*
G01*
X141009*
Y220315*
X136477*
X135865Y219689*
X141379*
Y219376*
G75*
G02X144776Y218124I1112J-2216*
G01*
X167725*
Y222868*
X162934*
G75*
G02X156103I-3415*
G01*
X146914*
G37*
X16709Y228124D02*
G36*
X14107D01*
Y222868*
X16709*
Y228124*
G37*
X55098D02*
G36*
X51009D01*
G75*
G02X42556I-4226*
G01*
X29099*
Y222868*
X57733*
Y223081*
X57418*
Y225804*
X55098Y228124*
G37*
X72418D02*
G36*
X72170D01*
Y223081*
X71855*
Y222868*
X72316*
G75*
G02X72418Y223480I2462J-96*
G01*
Y228124*
G37*
X62316Y222868D02*
G36*
G75*
G02X62418Y223480I2462J-96D01*
G01*
Y228124*
X62170*
Y223081*
X61855*
Y222868*
X62316*
G37*
X67418Y228124D02*
G36*
X67170D01*
Y223480*
G75*
G02X67272Y222868I-2360J-708*
G01*
X67733*
Y223081*
X67418*
Y228124*
G37*
X77674Y222868D02*
G36*
Y224933D01*
X77170Y225437*
Y223480*
G75*
G02X77272Y222868I-2360J-708*
G01*
X77674*
G37*
X83839Y228124D02*
G36*
X82768D01*
G75*
G02X81954Y227335I-2088J1339*
G01*
Y226187*
G75*
G02X82142Y226427I1094J-665*
G01*
X83839Y228124*
G37*
X120843D02*
G36*
X115221D01*
Y223951*
Y223950*
G75*
G02X114789Y222909I-1470*
G01*
X114748Y222868*
X117954*
G75*
G02X117969Y222883I917J-879*
G01*
X119149Y224063*
G75*
G02X120050Y224437I902J-902*
G01*
X120843*
Y228124*
G37*
X94662D02*
G36*
X89854D01*
G75*
G02X86864Y227153I-2088J1339*
G01*
X86306Y226594*
G75*
G02X85546Y226228I-900J897*
G01*
X84316Y224998*
Y223183*
G75*
G02X86069Y223660I1482J-1987*
G01*
X87653Y225244*
G75*
G02X88554Y225618I902J-902*
G01*
X93278*
G75*
G02X94180Y225244I-1J-1275*
G01*
X94292Y225132*
Y227858*
X94662*
Y228124*
G37*
X112280D02*
G36*
X102918D01*
Y227858*
X103288*
Y223587*
X102918*
Y222868*
X103128*
G75*
G02X103264Y223024I1173J-885*
G01*
X104048Y223808*
G75*
G02X105089Y224240I1041J-1038*
G01*
X111961*
X112280Y224560*
Y228124*
G37*
X144367D02*
G36*
X141009D01*
Y226417*
X135312*
Y228124*
X133866*
G75*
G02X133947Y227494I-2399J-629*
G01*
G75*
G02X130863Y225089I-2480*
G01*
X130597Y224822*
G75*
G02X129696Y224449I-902J902*
G01*
X129099*
Y222868*
X134970*
X135312Y223219*
Y224634*
X141009*
Y223748*
X144367*
Y228124*
G37*
X146914D02*
G36*
Y222868D01*
X156103*
G75*
G02X162934I3415*
G01*
X167725*
Y228124*
X146914*
G37*
X32982Y238124D02*
G36*
X14107D01*
Y228124*
X16709*
Y230539*
X25397*
X32982Y238124*
G37*
X55098Y228124D02*
G36*
X53241Y229982D01*
G75*
G02X52635Y231441I1455J1459*
G01*
Y238124*
X51009*
G75*
G02X42556I-4226*
G01*
X38811*
X29099Y228412*
Y228124*
X42556*
G75*
G02X51009I4226*
G01*
X55098*
G37*
X94662D02*
G36*
Y230047D01*
X94945*
X89091Y235901*
G75*
G02X88741Y236457I1033J1038*
G01*
X85706*
Y238124*
X56757*
Y232295*
X57912Y231140*
X58383*
Y233400*
G75*
G02X58804Y234413I1430*
G01*
X59588Y235197*
G75*
G02X60601Y235618I1013J-1009*
G01*
X75562*
G75*
G02X76575Y235197J-1430*
G01*
X78934Y232838*
G75*
G02X79355Y231825I-1009J-1013*
G01*
Y231559*
G75*
G02X83160Y229463I1325J-2096*
G01*
G75*
G02X82768Y228124I-2480J0*
G01*
X83839*
X84109Y228394*
G75*
G02X84869Y228760I900J-897*
G01*
X85302Y229193*
G75*
G02X85287Y229463I2556J277*
G01*
G75*
G02X90246I2480*
G01*
G75*
G02X89854Y228124I-2480J0*
G01*
X94662*
G37*
X72418D02*
G36*
Y231140D01*
X76493*
Y231232*
X74969Y232756*
X61245*
Y231140*
X62170*
Y228124*
X62418*
Y231140*
X67170*
Y228124*
X67418*
Y231140*
X72170*
Y228124*
X72418*
G37*
X120843D02*
G36*
Y230047D01*
X127889*
X128669Y230827*
G75*
G02X128594Y231431I2404J604*
G01*
G75*
G02X129249Y233110I2478*
G01*
X123200*
G75*
G02X122158Y233543I0J1470*
G01*
X120193Y235507*
G75*
G02X119761Y236549I1038J1041*
G01*
Y236549*
Y238124*
X117780*
Y236850*
X115221*
Y228124*
X120843*
G37*
X109721Y238124D02*
G36*
X93765D01*
Y236457*
X92694*
X99104Y230047*
X102918*
Y228124*
X112280*
Y236850*
X109721*
Y238124*
G37*
X144367D02*
G36*
X122702D01*
Y237158*
X123809Y236051*
X135401*
G75*
G02X136444Y235620I3J-1470*
G01*
X139200Y232865*
G75*
G02X139631Y231825I-1039J-1039*
G01*
Y231825*
Y231824*
Y231822*
Y230736*
X141009*
Y228124*
X144367*
Y238124*
G37*
X135312Y228124D02*
G36*
Y230736D01*
X136690*
Y231216*
X134795Y233110*
X132898*
G75*
G02X133554Y231431I-1824J-1679*
G01*
G75*
G02X132758Y229611I-2480*
G01*
G75*
G02X133866Y228124I-1291J-2117*
G01*
X135312*
G37*
X146914Y238124D02*
G36*
Y228124D01*
X167725*
Y238124*
X146914*
G37*
X85706D02*
G36*
Y241181D01*
X85004*
G75*
G02X83545Y241787J2060*
G01*
X79039Y246293*
X77170*
Y244325*
X72418*
Y252384*
X72733*
Y254567*
X71902*
Y252384*
X72170*
Y244325*
X67418*
Y252384*
X67686*
Y254520*
X66902*
Y252384*
X67170*
Y244325*
X62418*
Y252384*
X62686*
Y254567*
X61855*
Y252384*
X62170*
Y244325*
X57418*
Y247054*
X52169Y252303*
X47609*
G75*
G02X45548Y254364J2061*
G01*
Y254364*
Y260959*
X32275*
G75*
G02X15699I-8288J8268*
G01*
X14107*
Y238124*
X32982*
X41425Y246567*
G75*
G02X42885Y247173I1459J-1454*
G01*
X54696*
G75*
G02X56757Y245113J-2061*
G01*
Y245112*
Y238124*
X85706*
G37*
X52635D02*
G36*
Y243051D01*
X43738*
X38811Y238124*
X42556*
G75*
G02X51009I4226*
G01*
X52635*
G37*
X85335Y260959D02*
G36*
X49670D01*
Y256425*
X53022*
G75*
G02X54482Y255819J-2060*
G01*
X57733Y252568*
Y256628*
Y256628*
G75*
G02X59794Y258689I2061*
G01*
X64350*
G75*
G02X64794Y258736I443J-2052*
G01*
X69794*
G75*
G02X70238Y258689I1J-2099*
G01*
X74794*
G75*
G02X76855Y256628J-2061*
G01*
Y256628*
Y252384*
X77170*
Y250415*
X79893*
G75*
G02X81352Y249809J-2060*
G01*
X85706Y245456*
Y250028*
X87477*
Y250719*
Y250722*
Y250722*
Y250723*
G75*
G02X87908Y251762I1470*
G01*
X89483Y253337*
G75*
G02X89561Y253409I905J-895*
G01*
X85335*
Y260959*
G37*
X119761Y238124D02*
G36*
Y249720D01*
X118654Y250827*
X91131*
X90418Y250113*
Y250028*
X93765*
Y246054*
G75*
G02X97739Y242848I695J-3206*
G01*
G75*
G02X93765Y239643I-3280*
G01*
Y238124*
X109721*
Y250421*
X117780*
Y238124*
X119761*
G37*
X146914D02*
G36*
X167725D01*
Y260959*
X166133*
G75*
G02X149557I-8288J8268*
G01*
X118150*
Y253803*
X109351*
Y260959*
X94135*
Y253768*
X119263*
G75*
G02X120304Y253335I0J-1470*
G01*
X122269Y251370*
G75*
G02X122702Y250329I-1038J-1041*
G01*
Y250329*
Y238124*
X144367*
Y239171*
X141214Y242324*
G75*
G02X130194Y245604I-5022J3280*
G01*
G75*
G02X142190I5998*
G01*
G75*
G02X142157Y244983I-6141J7*
G01*
X146541Y240600*
G75*
G02X146914Y239699I-902J-902*
G01*
Y238124*
G37*
X15699Y260959D02*
G36*
G75*
G02X14107Y262947I8288J8269D01*
G01*
Y260959*
X15699*
G37*
X45548Y271195D02*
G36*
X35527D01*
G75*
G02X35694Y269226I-11541J-1968*
G01*
G75*
G02X32275Y260959I-11707J0*
G01*
X45548*
Y271195*
G37*
X146305D02*
G36*
X142560D01*
G75*
G02X129824I-6368*
G01*
X105674*
G75*
G02X99994Y270118I-3129J984*
G01*
X49670*
Y260959*
X85335*
Y267720*
X94135*
Y260959*
X109351*
Y268114*
X118150*
Y260959*
X149557*
G75*
G02X146139Y269226I8288J8268*
G01*
G75*
G02X146305Y271195I11707J1*
G01*
G37*
X167725Y262947D02*
G36*
G75*
G02X166133Y260959I-9880J6281D01*
G01*
X167725*
Y262947*
G37*
X151566Y279106D02*
G36*
X30267D01*
G75*
G02X35527Y271195I-6279J-9880*
G01*
X45548*
Y272179*
Y272180*
G75*
G02X47609Y274240I2061*
G01*
X99994*
G75*
G02X105825Y272179I2552J-2061*
G01*
G75*
G02X105674Y271195I-3280*
G01*
X129824*
G75*
G02X142560I6368*
G01*
X146305*
G75*
G02X151566Y279106I11540J-1969*
G01*
G37*
X167975Y389343D02*
G75*
G02X146139Y395211I-10130J5868D01*
G01*
G75*
G02X151978Y405341I11707*
G01*
X29855*
G75*
G02X35694Y395211I-5868J-10130*
G01*
G75*
G02X13857Y389343I-11707*
G01*
Y298716*
G75*
G02X35694Y292848I10130J-5868*
G01*
G75*
G02X29855Y282719I-11707*
G01*
X151978*
G75*
G02X146139Y292848I5868J10130*
G01*
G75*
G02X167975Y298716I11707*
G01*
Y389343*
X156103Y348852D02*
G75*
G02X162934I3415D01*
G01*
G75*
G02X156103I-3415*
G01*
X156752Y342252D02*
G75*
G02X162564Y340978I2766J-1274D01*
G01*
G75*
G02X156752Y339705I-3045*
G01*
X154534*
X150971Y336141*
G75*
G02X150070Y335768I-901J900*
G01*
X141009*
Y334882*
X135312*
Y336219*
X134898Y336632*
G75*
G02X134524Y337533I900J901*
G01*
Y338077*
G75*
G02X133857Y337533I-1876J1622*
G01*
G75*
G02X133572Y333067I-1209J-2165*
G01*
G75*
G02X134558Y332606I-530J-2423*
G01*
X135312*
Y333492*
X141009*
Y329173*
X135312*
Y329644*
G75*
G02X133091Y328164I-2270J999*
G01*
X134751Y326504*
X135312*
Y327390*
X141009*
Y326504*
X151511*
X156473Y331467*
Y336150*
X162564*
Y330059*
X158668*
X152939Y324330*
G75*
G02X152038Y323957I-901J900*
G01*
X141009*
Y323071*
X135312*
Y323957*
X134223*
G75*
G02X133322Y324330J1274*
G01*
X129469Y328183*
Y324831*
X131074*
G75*
G02X131975Y324457J-1274*
G01*
X134336Y322096*
G75*
G02X134531Y321845I-899J-902*
G01*
G75*
G02X135916Y319620I-1095J-2225*
G01*
G75*
G02X130956I-2480*
G01*
G75*
G02X131573Y321257I2480J0*
G01*
X130546Y322283*
X129099*
Y319232*
X127062*
G75*
G02X128042Y317258I-1500J-1974*
G01*
G75*
G02X123082I-2480*
G01*
G75*
G02X123698Y318893I2480*
G01*
Y319232*
X121717*
Y292848*
G75*
G02X120585Y291583I-1274*
G01*
X114652Y285649*
G75*
G02X113751Y285276I-901J900*
G01*
X81861*
G75*
G02X80960Y285649J1274*
G01*
X78205Y288404*
G75*
G02X77831Y289305I900J901*
G01*
Y306234*
G75*
G02X78205Y307135I1274*
G01*
X78275Y307205*
G75*
G02X78200Y307809I2405J604*
G01*
G75*
G02X83160I2480*
G01*
G75*
G02X80379Y305348I-2480*
G01*
Y289833*
X82389Y287823*
X113223*
X119149Y293748*
G75*
G02X119170Y293769I907J-903*
G01*
Y301541*
X113305Y295676*
G75*
G02X108725Y293774I-2310J-902*
G01*
Y288819*
X104406*
Y291152*
X104022Y290767*
G75*
G02X103117Y290394I-901J900*
G01*
X102623*
Y288819*
X98304*
Y294516*
X102241*
Y295906*
X98304*
Y297283*
X97244*
G75*
G02X93250I-1997J1470*
G01*
X92583*
Y295906*
X88646*
Y294516*
X92583*
Y288819*
X88265*
Y290394*
X88160*
G75*
G02X87259Y290767J1274*
G01*
X86481Y291545*
Y288819*
X82162*
Y294516*
X83048*
Y295906*
X82162*
Y301602*
X86099*
Y301904*
G75*
G02X86473Y302805I1274*
G01*
X87330Y303662*
G75*
G02X87255Y304266I2405J604*
G01*
G75*
G02X92215I2480*
G01*
G75*
G02X89131Y301861I-2480*
G01*
X88873Y301602*
X92583*
Y300224*
X93250*
G75*
G02X97244I1997J-1470*
G01*
X98304*
Y301602*
X102241*
Y303085*
G75*
G02X102615Y303986I1274*
G01*
X103401Y304772*
G75*
G02X104136Y305135I901J-900*
G01*
G75*
G02X108750Y303872I2134J-1263*
G01*
G75*
G02X107270Y301602I-2480*
G01*
X108725*
Y295906*
X107839*
Y294516*
X108528*
G75*
G02X111265Y297239I2467J257*
G01*
X117595Y303569*
Y347967*
G75*
G02X117969Y348868I1274*
G01*
X119149Y350048*
G75*
G02X120050Y350421I901J-900*
G01*
X120843*
Y356031*
X127889*
X128669Y356811*
G75*
G02X129249Y359094I2405J604*
G01*
X123200*
G75*
G02X122158Y359527I0J1470*
G01*
X120193Y361492*
G75*
G02X119761Y362533I1038J1041*
G01*
Y375704*
X118654Y376811*
X91131*
X90418Y376098*
Y376012*
X93765*
Y372038*
G75*
G02X97739Y368833I695J-3206*
G01*
G75*
G02X93765Y365627I-3280*
G01*
Y362441*
X92694*
X99104Y356031*
X102918*
Y353843*
X103288*
Y349571*
X102918*
Y348464*
G75*
G02X103264Y349008I1384J-497*
G01*
X104048Y349792*
G75*
G02X105089Y350224I1041J-1038*
G01*
X111961*
X112280Y350544*
Y362835*
X109721*
Y376406*
X117780*
Y362835*
X115221*
Y349935*
G75*
G02X114789Y348893I-1470J0*
G01*
X113611Y347716*
G75*
G02X112570Y347283I-1041J1038*
G01*
X105772*
Y337340*
G75*
G02Y337337I-641J-1*
G01*
G75*
G02X105342Y336297I-1470J-1*
G01*
X104357Y335313*
G75*
G02X103315Y334882I-1040J1040*
G01*
X102918*
Y319232*
X95143*
Y319048*
X97824Y316366*
X101911*
G75*
G02X106388Y314896I1997J-1470*
G01*
G75*
G02X101911Y313425I-2480*
G01*
X97215*
G75*
G02X96174Y313857I0J1470*
G01*
X92634Y317397*
G75*
G02X92220Y318206I1038J1041*
G01*
G75*
G02X88394Y318740I-1698J1808*
G01*
X88160*
G75*
G02X87259Y319114J1274*
G01*
X84111Y322262*
G75*
G02X83737Y323163I900J901*
G01*
Y327629*
G75*
G02X83580Y328281I1274J653*
G01*
Y338319*
X78722Y343176*
G75*
G02X76068Y339991I-2372J-722*
G01*
Y338998*
X77170*
Y330939*
X72418*
Y332907*
X72170*
Y330939*
X71855*
Y325860*
G75*
G02X71249Y324401I-2061*
G01*
X66982Y320133*
G75*
G02X65522Y319528I-1459J1455*
G01*
X57715*
X55576Y317389*
Y307415*
G75*
G02X53515Y305354I-2061*
G01*
X39440*
G75*
G02X37980Y305960J2061*
G01*
X21449Y322491*
G75*
G02X20843Y323951I1455J1459*
G01*
Y328896*
G75*
G02X16709Y334738I2061J5842*
G01*
G75*
G02X29099I6195*
G01*
G75*
G02X24965Y328896I-6195*
G01*
Y324804*
X40293Y309476*
X51454*
Y318242*
G75*
G02X52059Y319702I2061*
G01*
X55402Y323044*
G75*
G02X56861Y323650I1459J-1455*
G01*
X64669*
X67733Y326714*
Y330939*
X67418*
Y338998*
X67733*
Y349065*
X67418*
Y357124*
X72170*
Y349065*
X71855*
Y338998*
X72170*
Y337029*
X72418*
Y338998*
X73520*
Y341274*
G75*
G02X73886Y342167I1274J0*
G01*
G75*
G02X73869Y342455I2465J289*
G01*
G75*
G02X77702Y344533I2480*
G01*
G75*
G02X77674Y344817I1404J283*
G01*
Y350917*
X77170Y351421*
Y349464*
G75*
G02X77274Y348754I-2376J-710*
G01*
G75*
G02X72314I-2480*
G01*
G75*
G02X72418Y349464I2480*
G01*
Y357124*
X76493*
Y357216*
X74969Y358740*
X61245*
Y357124*
X62170*
Y349065*
X61855*
Y338998*
X62170*
Y337029*
X62418*
Y338998*
X67170*
Y330939*
X62418*
Y332907*
X62170*
Y330939*
X57418*
Y338998*
X57733*
Y349065*
X57418*
Y351789*
X53241Y355966*
G75*
G02X52635Y357426I1455J1459*
G01*
Y369035*
X43738*
X29099Y354396*
Y344134*
X16709*
Y356524*
X25397*
X41425Y372552*
G75*
G02X42885Y373157I1459J-1455*
G01*
X54696*
G75*
G02X56757Y371096J-2061*
G01*
Y358279*
X57912Y357124*
X58383*
Y359384*
G75*
G02X58804Y360397I1431J0*
G01*
X59588Y361181*
G75*
G02X60601Y361602I1014J-1010*
G01*
X75562*
G75*
G02X76575Y361181I0J-1431*
G01*
X78934Y358822*
G75*
G02X79355Y357809I-1010J-1014*
G01*
Y357543*
G75*
G02X83160Y355447I1325J-2096*
G01*
G75*
G02X81954Y353319I-2480*
G01*
Y352171*
G75*
G02X82142Y352411I1089J-661*
G01*
X84109Y354378*
G75*
G02X84869Y354744I901J-900*
G01*
X85302Y355177*
G75*
G02X85287Y355447I2464J272*
G01*
G75*
G02X90246I2480*
G01*
G75*
G02X86864Y353137I-2480*
G01*
X86306Y352578*
G75*
G02X85546Y352213I-901J900*
G01*
X84316Y350982*
Y349167*
G75*
G02X86069Y349644I1482J-1989*
G01*
X87653Y351229*
G75*
G02X88554Y351602I901J-900*
G01*
X93278*
G75*
G02X94180Y351229J-1274*
G01*
X94292Y351116*
Y353843*
X94662*
Y356031*
X94945*
X89091Y361885*
G75*
G02X88741Y362441I1039J1041*
G01*
X85706*
Y367165*
X85004*
G75*
G02X83545Y367771J2061*
G01*
X79039Y372277*
X77170*
Y370309*
X72418*
Y378368*
X72733*
Y380551*
X71902*
Y378368*
X72170*
Y370309*
X67418*
Y378368*
X67686*
Y380504*
X66902*
Y378368*
X67170*
Y370309*
X62418*
Y378368*
X62686*
Y380551*
X61855*
Y378368*
X62170*
Y370309*
X57418*
Y373038*
X52169Y378287*
X47609*
G75*
G02X45548Y380348J2061*
G01*
Y398163*
G75*
G02X47609Y400224I2061*
G01*
X99994*
G75*
G02X105825Y398163I2552J-2061*
G01*
G75*
G02X99994Y396102I-3280*
G01*
X49670*
Y382409*
X53022*
G75*
G02X54482Y381804J-2061*
G01*
X57733Y378552*
Y382612*
G75*
G02X59794Y384673I2061*
G01*
X64350*
G75*
G02X64794Y384720I444J-2061*
G01*
X69794*
G75*
G02X70238Y384673J-2108*
G01*
X74794*
G75*
G02X76855Y382612J-2061*
G01*
Y378368*
X77170*
Y376399*
X79893*
G75*
G02X81352Y375793J-2061*
G01*
X85706Y371440*
Y376012*
X87477*
Y376704*
G75*
G02Y376706I641J1*
G01*
G75*
G02Y376707I654J0*
G01*
G75*
G02X87908Y377746I1470*
G01*
X89483Y379321*
G75*
G02X89561Y379394I1040J-1041*
G01*
X85335*
Y393705*
X94135*
Y379752*
X119263*
G75*
G02X120304Y379320I0J-1470*
G01*
X122269Y377355*
G75*
G02X122702Y376313I-1038J-1041*
G01*
Y363143*
X123809Y362035*
X135401*
G75*
G02X136444Y361605I3J-1470*
G01*
X139200Y358849*
G75*
G02X139631Y357809I-1040J-1040*
G01*
G75*
G02Y357808I-627J0*
G01*
G75*
G02Y357806I-632J-1*
G01*
Y356720*
X141009*
Y352402*
X135312*
Y356720*
X136690*
Y357200*
X134795Y359094*
X132898*
G75*
G02X132758Y355596I-1825J-1679*
G01*
G75*
G02X130863Y351073I-1291J-2117*
G01*
X130597Y350807*
G75*
G02X129696Y350433I-901J900*
G01*
X129099*
Y345461*
X131657*
X135312Y349203*
Y350618*
X141009*
Y349732*
X144367*
Y365156*
X141214Y368309*
G75*
G02X130194Y371589I-5022J3280*
G01*
G75*
G02X142190I5998*
G01*
G75*
G02X142157Y370967I-5998J0*
G01*
X146541Y366584*
G75*
G02X146914Y365683I-900J-901*
G01*
Y348459*
G75*
G02X145641Y347185I-1274*
G01*
X141009*
Y346299*
X136477*
X135865Y345673*
X141379*
Y345360*
G75*
G02X144971Y343144I1112J-2217*
G01*
G75*
G02X141379Y340927I-2480*
G01*
Y340614*
X137065*
G75*
G02X137072Y340486I-1267J-126*
G01*
Y339201*
X141009*
Y338315*
X149542*
X153106Y341878*
G75*
G02X154007Y342252I901J-900*
G01*
X156752*
X77170Y310025D02*
G75*
G02X77254Y309384I-2396J-641D01*
G01*
G75*
G02X72294I-2480*
G01*
G75*
G02X72418Y310157I2480*
G01*
Y317754*
X77170*
Y310025*
X67170Y310094D02*
G75*
G02X67274Y309384I-2376J-710D01*
G01*
G75*
G02X62314I-2480*
G01*
G75*
G02X62418Y310094I2480*
G01*
Y317754*
X67170*
Y310094*
Y349464D02*
G75*
G02X67274Y348754I-2376J-710D01*
G01*
G75*
G02X62314I-2480*
G01*
G75*
G02X62418Y349464I2480*
G01*
Y357124*
X67170*
Y349464*
X42186Y314108D02*
G75*
G02X51379I4596D01*
G01*
G75*
G02X42186I-4596*
G01*
Y324108D02*
G75*
G02X51379I4596D01*
G01*
G75*
G02X42186I-4596*
G01*
Y334108D02*
G75*
G02X51379I4596D01*
G01*
G75*
G02X42186I-4596*
G01*
X42556Y344108D02*
G75*
G02X51009I4226D01*
G01*
G75*
G02X42556I-4226*
G01*
Y354108D02*
G75*
G02X51009I4226D01*
G01*
G75*
G02X42556I-4226*
G01*
Y364108D02*
G75*
G02X51009I4226D01*
G01*
G75*
G02X42556I-4226*
G01*
X109351Y394098D02*
X118150D01*
Y379787*
X109351*
Y394098*
X129824Y397179D02*
G75*
G02X142560I6368D01*
G01*
G75*
G02X129824I-6368*
G01*
X167725Y299128D02*
G36*
Y312329D01*
X121717*
Y292848*
G75*
G02X120585Y291583I-1274J1*
G01*
X114652Y285649*
G75*
G02X113751Y285276I-902J902*
G01*
X81861*
G75*
G02X80960Y285649I1J1275*
G01*
X78205Y288404*
G75*
G02X77831Y289305I902J902*
G01*
Y306234*
G75*
G02X78205Y307135I1275J-1*
G01*
X78275Y307205*
G75*
G02X78200Y307809I2416J606*
G01*
G75*
G02X83160I2480*
G01*
Y307809*
G75*
G02X80379Y305348I-2480*
G01*
Y289833*
X82389Y287823*
X113223*
X119149Y293748*
G75*
G02X119170Y293769I564J-553*
G01*
Y301541*
X113305Y295676*
G75*
G02X113475Y294774I-2310J-903*
G01*
G75*
G02X108725Y293774I-2480*
G01*
Y288819*
X104406*
Y291152*
X104022Y290767*
G75*
G02X103117Y290394I-902J902*
G01*
X102623*
Y288819*
X98304*
Y294516*
X102241*
Y295906*
X98304*
Y297283*
X97244*
G75*
G02X93250I-1997J1470*
G01*
X92583*
Y295906*
X88646*
Y294516*
X92583*
Y288819*
X88265*
Y290394*
X88160*
G75*
G02X87259Y290767I1J1275*
G01*
X86481Y291545*
Y288819*
X82162*
Y294516*
X83048*
Y295906*
X82162*
Y301602*
X86099*
Y301904*
G75*
G02X86473Y302805I1275J-1*
G01*
X87330Y303662*
G75*
G02X87255Y304266I2416J606*
G01*
G75*
G02X92215I2480*
G01*
G75*
G02X89131Y301861I-2480*
G01*
X88873Y301602*
X92583*
Y300224*
X93250*
G75*
G02X97244I1997J-1470*
G01*
X98304*
Y301602*
X102241*
Y303085*
G75*
G02X102615Y303986I1275J-1*
G01*
X103401Y304772*
G75*
G02X104136Y305135I901J-900*
G01*
G75*
G02X108750Y303872I2134J-1263*
G01*
G75*
G02Y303871I-3007J0*
G01*
G75*
G02X107270Y301602I-2479*
G01*
X108725*
Y295906*
X107839*
Y294516*
X108528*
G75*
G02X108515Y294774I2467J257*
G01*
G75*
G02X111265Y297239I2480*
G01*
X117595Y303569*
Y312329*
X77170*
Y310025*
G75*
G02X77254Y309384I-2408J-643*
G01*
G75*
G02X72294I-2480*
G01*
G75*
G02X72418Y310157I2483J0*
G01*
Y312329*
X67170*
Y310094*
G75*
G02X67274Y309386I-2359J-708*
G01*
G75*
G02Y309384I-2707J-1*
G01*
G75*
G02X62314I-2480*
G01*
G75*
G02Y309386I2707J1*
G01*
G75*
G02X62418Y310094I2463*
G01*
Y312329*
X55576*
Y307415*
Y307415*
G75*
G02X53515Y305354I-2061*
G01*
X39440*
G75*
G02X37980Y305960J2060*
G01*
X31612Y312329*
X14107*
Y299128*
G75*
G02X35694Y292848I9880J-6280*
G01*
G75*
G02X30267Y282969I-11707*
G01*
X151566*
G75*
G02X146139Y292848I6280J9880*
G01*
G75*
G02X167725Y299128I11707J0*
G01*
G37*
X51454Y312329D02*
G36*
X51020D01*
G75*
G02X42544I-4238J1780*
G01*
X37441*
X40293Y309476*
X51454*
Y312329*
G37*
X31612D02*
G36*
X21449Y322491D01*
G75*
G02X20843Y323951I1455J1459*
G01*
Y324108*
X14107*
Y312329*
X31612*
G37*
X65128Y324108D02*
G36*
X51379D01*
G75*
G02X42186I-4596*
G01*
X25661*
X37441Y312329*
X42544*
G75*
G02X42186Y314108I4238J1779*
G01*
G75*
G02X51379I4596*
G01*
G75*
G02X51020Y312329I-4596J0*
G01*
X51454*
Y318242*
G75*
G02X52059Y319702I2061*
G01*
X55402Y323044*
G75*
G02X56861Y323650I1459J-1454*
G01*
X64669*
X65128Y324108*
G37*
X117595D02*
G36*
X102918D01*
Y319232*
X95143*
Y319048*
X97824Y316366*
X101911*
G75*
G02X106388Y314896I1997J-1470*
G01*
G75*
G02X101911Y313425I-2480*
G01*
X97215*
G75*
G02X96174Y313857I0J1470*
G01*
X92634Y317397*
G75*
G02X92220Y318206I1039J1042*
G01*
G75*
G02X88394Y318740I-1698J1807*
G01*
X88160*
G75*
G02X87259Y319114I1J1275*
G01*
X84111Y322262*
G75*
G02X83737Y323163I902J902*
G01*
Y324108*
X70957*
X66982Y320133*
G75*
G02X65522Y319528I-1459J1454*
G01*
X57715*
X55576Y317389*
Y312329*
X62418*
Y317754*
X67170*
Y312329*
X72418*
Y317754*
X77170*
Y312329*
X117595*
Y324108*
G37*
X152641D02*
G36*
G75*
G02X152038Y323957I-603J1124D01*
G01*
X141009*
Y323071*
X135312*
Y323957*
X134223*
G75*
G02X133621Y324108I1J1275*
G01*
X132324*
X134336Y322096*
G75*
G02X134531Y321845I-899J-901*
G01*
G75*
G02X135916Y319620I-1095J-2225*
G01*
Y319620*
G75*
G02X130956I-2480*
G01*
G75*
G02X131573Y321257I2481J-1*
G01*
X130546Y322283*
X129099*
Y319232*
X127062*
G75*
G02X128042Y317258I-1500J-1974*
G01*
G75*
G02X123082I-2480*
G01*
G75*
G02X123698Y318893I2481J0*
G01*
Y319232*
X121717*
Y312329*
X167725*
Y324108*
X152641*
G37*
X16742Y334108D02*
G36*
X14107D01*
Y324108*
X20843*
Y328896*
G75*
G02X16742Y334108I2062J5843*
G01*
G37*
X67418D02*
G36*
X67170D01*
Y330939*
X62418*
Y332907*
X62170*
Y330939*
X57418*
Y334108*
X51379*
G75*
G02X42186I-4596*
G01*
X29067*
G75*
G02X24965Y328896I-6163J630*
G01*
Y324804*
X25661Y324108*
X42186*
G75*
G02X51379I4596*
G01*
X65128*
X67733Y326714*
Y330939*
X67418*
Y334108*
G37*
X83580D02*
G36*
X77170D01*
Y330939*
X72418*
Y332907*
X72170*
Y330939*
X71855*
Y325860*
G75*
G02X71249Y324401I-2061*
G01*
X70957Y324108*
X83737*
Y327629*
G75*
G02X83580Y328280I1268J651*
G01*
G75*
G02Y328281I1504J1*
G01*
Y334108*
G37*
X117595D02*
G36*
X102918D01*
Y324108*
X117595*
Y334108*
G37*
X133621Y324108D02*
G36*
G75*
G02X133322Y324330I603J1124D01*
G01*
X129469Y328183*
Y324831*
X131074*
G75*
G02X131975Y324457I-1J-1275*
G01*
X132324Y324108*
X133621*
G37*
X156473Y334108D02*
G36*
X134784D01*
G75*
G02X133572Y333067I-2136J1259*
G01*
G75*
G02X134558Y332606I-528J-2419*
G01*
X135312*
Y333492*
X141009*
Y329173*
X135312*
Y329644*
G75*
G02X133091Y328164I-2270J999*
G01*
X134751Y326504*
X135312*
Y327390*
X141009*
Y326504*
X151511*
X156473Y331467*
Y334108*
G37*
X162564D02*
G36*
Y330059D01*
X158668*
X152939Y324330*
G75*
G02X152641Y324108I-902J902*
G01*
X167725*
Y334108*
X162564*
G37*
X57418D02*
G36*
Y338998D01*
X57733*
Y344108*
X51009*
G75*
G02X42556I-4226*
G01*
X14107*
Y334108*
X16742*
G75*
G02X16709Y334738I6164J631*
G01*
G75*
G02X29099I6195*
G01*
Y334738*
G75*
G02X29067Y334108I-6195J-2*
G01*
X42186*
G75*
G02X51379I4596*
G01*
X57418*
G37*
X67418D02*
G36*
Y338998D01*
X67733*
Y344108*
X61855*
Y338998*
X62170*
Y337029*
X62418*
Y338998*
X67170*
Y334108*
X67418*
G37*
X74501Y344108D02*
G36*
X71855D01*
Y338998*
X72170*
Y337029*
X72418*
Y338998*
X73520*
Y341274*
G75*
G02X73886Y342167I1273*
G01*
G75*
G02X73869Y342455I2496J291*
G01*
G75*
G02X74501Y344108I2480*
G01*
G37*
X83580Y334108D02*
G36*
Y338319D01*
X78722Y343176*
G75*
G02X78829Y342455I-2372J-722*
G01*
G75*
G02X76068Y339991I-2480*
G01*
Y338998*
X77170*
Y334108*
X83580*
G37*
X117595Y344108D02*
G36*
X105772D01*
Y337340*
Y337337*
Y337337*
Y337336*
G75*
G02X105342Y336297I-1470*
G01*
X104357Y335313*
G75*
G02X103315Y334882I-1040J1040*
G01*
X102918*
Y334108*
X117595*
Y344108*
G37*
X144776D02*
G36*
G75*
G02X144971Y343144I-2284J-965D01*
G01*
Y343144*
Y343143*
G75*
G02X141379Y340927I-2480*
G01*
Y340614*
X137065*
G75*
G02X137072Y340487I-1290J-128*
G01*
Y340486*
Y339201*
X141009*
Y338315*
X149542*
X153106Y341878*
G75*
G02X154007Y342252I902J-902*
G01*
X156752*
G75*
G02X162564Y340978I2766J-1274*
G01*
G75*
G02X156752Y339705I-3045*
G01*
X154534*
X150971Y336141*
G75*
G02X150070Y335768I-902J902*
G01*
X141009*
Y334882*
X135312*
Y336219*
X134898Y336632*
G75*
G02X134524Y337533I902J902*
G01*
Y338077*
G75*
G02X133857Y337533I-1875J1621*
G01*
G75*
G02X135128Y335368I-1209J-2165*
G01*
G75*
G02X134784Y334108I-2480J0*
G01*
X156473*
Y336150*
X162564*
Y334108*
X167725*
Y344108*
X144776*
G37*
X57733Y348852D02*
G36*
X29099D01*
Y344134*
X16709*
Y348852*
X14107*
Y344108*
X42556*
G75*
G02X51009I4226*
G01*
X57733*
Y348852*
G37*
X67733D02*
G36*
X67272D01*
G75*
G02X67274Y348756I-2457J-98*
G01*
G75*
G02Y348754I-2707J-1*
G01*
G75*
G02X62314I-2480*
G01*
G75*
G02Y348756I2707J1*
G01*
G75*
G02X62316Y348852I2459J-2*
G01*
X61855*
Y344108*
X67733*
Y348852*
G37*
X74501Y344108D02*
G36*
G75*
G02X77702Y344533I1848J-1654D01*
G01*
G75*
G02X77674Y344817I1407J284*
G01*
Y344817*
Y348852*
X77272*
G75*
G02X77274Y348756I-2457J-98*
G01*
G75*
G02Y348754I-2707J-1*
G01*
G75*
G02X72314I-2480*
G01*
G75*
G02Y348756I2707J1*
G01*
G75*
G02X72316Y348852I2459J-2*
G01*
X71855*
Y344108*
X74501*
G37*
X103128Y348852D02*
G36*
X102918D01*
Y348464*
G75*
G02X103128Y348852I1383J-496*
G01*
G37*
X117595Y344108D02*
G36*
Y347967D01*
G75*
G02X117954Y348852I1275J-1*
G01*
X114748*
X113611Y347716*
G75*
G02X112570Y347283I-1041J1038*
G01*
X105772*
Y344108*
X117595*
G37*
X134970Y348852D02*
G36*
X129099D01*
Y345461*
X131657*
X134970Y348852*
G37*
X146914D02*
G36*
Y348459D01*
G75*
G02X145641Y347185I-1274*
G01*
X141009*
Y346299*
X136477*
X135865Y345673*
X141379*
Y345360*
G75*
G02X144776Y344108I1112J-2216*
G01*
X167725*
Y348852*
X162934*
G75*
G02X156103I-3415*
G01*
X146914*
G37*
X16709Y354108D02*
G36*
X14107D01*
Y348852*
X16709*
Y354108*
G37*
X55098D02*
G36*
X51009D01*
G75*
G02X42556I-4226*
G01*
X29099*
Y348852*
X57733*
Y349065*
X57418*
Y351789*
X55098Y354108*
G37*
X72418D02*
G36*
X72170D01*
Y349065*
X71855*
Y348852*
X72316*
G75*
G02X72418Y349464I2462J-96*
G01*
Y354108*
G37*
X62316Y348852D02*
G36*
G75*
G02X62418Y349464I2462J-96D01*
G01*
Y354108*
X62170*
Y349065*
X61855*
Y348852*
X62316*
G37*
X67418Y354108D02*
G36*
X67170D01*
Y349464*
G75*
G02X67272Y348852I-2360J-708*
G01*
X67733*
Y349065*
X67418*
Y354108*
G37*
X77674Y348852D02*
G36*
Y350917D01*
X77170Y351421*
Y349464*
G75*
G02X77272Y348852I-2360J-708*
G01*
X77674*
G37*
X83839Y354108D02*
G36*
X82768D01*
G75*
G02X81954Y353319I-2088J1339*
G01*
Y352171*
G75*
G02X82142Y352411I1094J-665*
G01*
X83839Y354108*
G37*
X120843D02*
G36*
X115221D01*
Y349935*
Y349935*
G75*
G02X114789Y348893I-1470*
G01*
X114748Y348852*
X117954*
G75*
G02X117969Y348868I917J-879*
G01*
X119149Y350048*
G75*
G02X120050Y350421I902J-902*
G01*
X120843*
Y354108*
G37*
X94662D02*
G36*
X89854D01*
G75*
G02X86864Y353137I-2088J1339*
G01*
X86306Y352578*
G75*
G02X85546Y352213I-900J897*
G01*
X84316Y350982*
Y349167*
G75*
G02X86069Y349644I1482J-1987*
G01*
X87653Y351229*
G75*
G02X88554Y351602I902J-902*
G01*
X93278*
G75*
G02X94180Y351229I-1J-1275*
G01*
X94292Y351116*
Y353843*
X94662*
Y354108*
G37*
X112280D02*
G36*
X102918D01*
Y353843*
X103288*
Y349571*
X102918*
Y348852*
X103128*
G75*
G02X103264Y349008I1173J-885*
G01*
X104048Y349792*
G75*
G02X105089Y350224I1041J-1038*
G01*
X111961*
X112280Y350544*
Y354108*
G37*
X144367D02*
G36*
X141009D01*
Y352402*
X135312*
Y354108*
X133866*
G75*
G02X133947Y353478I-2399J-629*
G01*
G75*
G02X130863Y351073I-2480*
G01*
X130597Y350807*
G75*
G02X129696Y350433I-902J902*
G01*
X129099*
Y348852*
X134970*
X135312Y349203*
Y350618*
X141009*
Y349732*
X144367*
Y354108*
G37*
X146914D02*
G36*
Y348852D01*
X156103*
G75*
G02X162934I3415*
G01*
X167725*
Y354108*
X146914*
G37*
X32982Y364108D02*
G36*
X14107D01*
Y354108*
X16709*
Y356524*
X25397*
X32982Y364108*
G37*
X55098Y354108D02*
G36*
X53241Y355966D01*
G75*
G02X52635Y357426I1455J1459*
G01*
Y364108*
X51009*
G75*
G02X42556I-4226*
G01*
X38811*
X29099Y354396*
Y354108*
X42556*
G75*
G02X51009I4226*
G01*
X55098*
G37*
X94662D02*
G36*
Y356031D01*
X94945*
X89091Y361885*
G75*
G02X88741Y362441I1033J1038*
G01*
X85706*
Y364108*
X56757*
Y358279*
X57912Y357124*
X58383*
Y359384*
G75*
G02X58804Y360397I1430*
G01*
X59588Y361181*
G75*
G02X60601Y361602I1013J-1009*
G01*
X75562*
G75*
G02X76575Y361181J-1430*
G01*
X78934Y358822*
G75*
G02X79355Y357809I-1009J-1013*
G01*
Y357543*
G75*
G02X83160Y355447I1325J-2096*
G01*
G75*
G02X82768Y354108I-2480J0*
G01*
X83839*
X84109Y354378*
G75*
G02X84869Y354744I900J-897*
G01*
X85302Y355177*
G75*
G02X85287Y355447I2556J277*
G01*
G75*
G02X90246I2480*
G01*
G75*
G02X89854Y354108I-2480J0*
G01*
X94662*
G37*
X72418D02*
G36*
Y357124D01*
X76493*
Y357216*
X74969Y358740*
X61245*
Y357124*
X62170*
Y354108*
X62418*
Y357124*
X67170*
Y354108*
X67418*
Y357124*
X72170*
Y354108*
X72418*
G37*
X120843D02*
G36*
Y356031D01*
X127889*
X128669Y356811*
G75*
G02X128594Y357416I2404J604*
G01*
G75*
G02X129249Y359094I2478*
G01*
X123200*
G75*
G02X122158Y359527I0J1470*
G01*
X120193Y361492*
G75*
G02X119761Y362533I1038J1041*
G01*
Y362533*
Y364108*
X117780*
Y362835*
X115221*
Y354108*
X120843*
G37*
X109721Y364108D02*
G36*
X93765D01*
Y362441*
X92694*
X99104Y356031*
X102918*
Y354108*
X112280*
Y362835*
X109721*
Y364108*
G37*
X144367D02*
G36*
X122702D01*
Y363143*
X123809Y362035*
X135401*
G75*
G02X136444Y361605I3J-1470*
G01*
X139200Y358849*
G75*
G02X139631Y357809I-1039J-1039*
G01*
Y357809*
Y357808*
Y357806*
Y356720*
X141009*
Y354108*
X144367*
Y364108*
G37*
X135312Y354108D02*
G36*
Y356720D01*
X136690*
Y357200*
X134795Y359094*
X132898*
G75*
G02X133554Y357415I-1824J-1679*
G01*
G75*
G02X132758Y355596I-2480*
G01*
G75*
G02X133866Y354108I-1291J-2117*
G01*
X135312*
G37*
X146914Y364108D02*
G36*
Y354108D01*
X167725*
Y364108*
X146914*
G37*
X85706D02*
G36*
Y367165D01*
X85004*
G75*
G02X83545Y367771J2060*
G01*
X79039Y372277*
X77170*
Y370309*
X72418*
Y378368*
X72733*
Y380551*
X71902*
Y378368*
X72170*
Y370309*
X67418*
Y378368*
X67686*
Y380504*
X66902*
Y378368*
X67170*
Y370309*
X62418*
Y378368*
X62686*
Y380551*
X61855*
Y378368*
X62170*
Y370309*
X57418*
Y373038*
X52169Y378287*
X47609*
G75*
G02X45548Y380348J2061*
G01*
Y380348*
Y386943*
X32275*
G75*
G02X15699I-8288J8268*
G01*
X14107*
Y364108*
X32982*
X41425Y372552*
G75*
G02X42885Y373157I1459J-1454*
G01*
X54696*
G75*
G02X56757Y371097J-2061*
G01*
Y371096*
Y364108*
X85706*
G37*
X52635D02*
G36*
Y369035D01*
X43738*
X38811Y364108*
X42556*
G75*
G02X51009I4226*
G01*
X52635*
G37*
X85335Y386943D02*
G36*
X49670D01*
Y382409*
X53022*
G75*
G02X54482Y381804J-2060*
G01*
X57733Y378552*
Y382612*
Y382613*
G75*
G02X59794Y384673I2061*
G01*
X64350*
G75*
G02X64794Y384720I443J-2052*
G01*
X69794*
G75*
G02X70238Y384673I1J-2099*
G01*
X74794*
G75*
G02X76855Y382613J-2061*
G01*
Y382612*
Y378368*
X77170*
Y376399*
X79893*
G75*
G02X81352Y375793J-2060*
G01*
X85706Y371440*
Y376012*
X87477*
Y376704*
Y376706*
Y376707*
Y376707*
G75*
G02X87908Y377746I1470*
G01*
X89483Y379321*
G75*
G02X89561Y379394I905J-895*
G01*
X85335*
Y386943*
G37*
X119761Y364108D02*
G36*
Y375704D01*
X118654Y376811*
X91131*
X90418Y376098*
Y376012*
X93765*
Y372038*
G75*
G02X97739Y368833I695J-3206*
G01*
G75*
G02X93765Y365627I-3280*
G01*
Y364108*
X109721*
Y376406*
X117780*
Y364108*
X119761*
G37*
X146914D02*
G36*
X167725D01*
Y386943*
X166133*
G75*
G02X149557I-8288J8268*
G01*
X118150*
Y379787*
X109351*
Y386943*
X94135*
Y379752*
X119263*
G75*
G02X120304Y379320I0J-1470*
G01*
X122269Y377355*
G75*
G02X122702Y376313I-1038J-1041*
G01*
Y376313*
Y364108*
X144367*
Y365156*
X141214Y368309*
G75*
G02X130194Y371589I-5022J3280*
G01*
G75*
G02X142190I5998*
G01*
G75*
G02X142157Y370967I-6141J7*
G01*
X146541Y366584*
G75*
G02X146914Y365683I-902J-902*
G01*
Y364108*
G37*
X15699Y386943D02*
G36*
G75*
G02X14107Y388931I8288J8269D01*
G01*
Y386943*
X15699*
G37*
X45548Y397179D02*
G36*
X35527D01*
G75*
G02X35694Y395211I-11541J-1968*
G01*
G75*
G02X32275Y386943I-11707J0*
G01*
X45548*
Y397179*
G37*
X146305D02*
G36*
X142560D01*
G75*
G02X129824I-6368*
G01*
X105674*
G75*
G02X99994Y396102I-3129J984*
G01*
X49670*
Y386943*
X85335*
Y393705*
X94135*
Y386943*
X109351*
Y394098*
X118150*
Y386943*
X149557*
G75*
G02X146139Y395211I8288J8268*
G01*
G75*
G02X146305Y397179I11707J1*
G01*
G37*
X167725Y388931D02*
G36*
G75*
G02X166133Y386943I-9880J6281D01*
G01*
X167725*
Y388931*
G37*
X151566Y405091D02*
G36*
X30267D01*
G75*
G02X35527Y397179I-6279J-9880*
G01*
X45548*
Y398163*
Y398164*
G75*
G02X47609Y400224I2061*
G01*
X99994*
G75*
G02X105825Y398163I2552J-2061*
G01*
G75*
G02X105674Y397179I-3280*
G01*
X129824*
G75*
G02X142560I6368*
G01*
X146305*
G75*
G02X151566Y405091I11540J-1969*
G01*
G37*
X325456Y137374D02*
G75*
G02X303619Y143242I-10130J5868D01*
G01*
G75*
G02X309458Y153372I11707*
G01*
X187335*
G75*
G02X193174Y143242I-5868J-10130*
G01*
G75*
G02X171337Y137374I-11707*
G01*
Y46748*
G75*
G02X193174Y40880I10130J-5868*
G01*
G75*
G02X187335Y30750I-11707*
G01*
X309458*
G75*
G02X303619Y40880I5868J10130*
G01*
G75*
G02X325456Y46748I11707*
G01*
Y137374*
X313583Y96884D02*
G75*
G02X320414I3415D01*
G01*
G75*
G02X313583I-3415*
G01*
X314233Y90283D02*
G75*
G02X320044Y89010I2766J-1274D01*
G01*
G75*
G02X314233Y87736I-3045*
G01*
X312015*
X308451Y84173*
G75*
G02X307550Y83799I-901J900*
G01*
X298489*
Y82913*
X292792*
Y84250*
X292378Y84664*
G75*
G02X292005Y85565I900J901*
G01*
Y86108*
G75*
G02X291337Y85565I-1876J1622*
G01*
G75*
G02X291052Y81098I-1209J-2165*
G01*
G75*
G02X292039Y80638I-530J-2423*
G01*
X292792*
Y81524*
X298489*
Y77205*
X292792*
Y77676*
G75*
G02X290571Y76196I-2270J999*
G01*
X292231Y74535*
X292792*
Y75421*
X298489*
Y74535*
X308991*
X313954Y79498*
Y84181*
X320044*
Y78091*
X316148*
X310420Y72362*
G75*
G02X309519Y71988I-901J900*
G01*
X298489*
Y71102*
X292792*
Y71988*
X291704*
G75*
G02X290802Y72362J1274*
G01*
X286950Y76215*
Y72862*
X288554*
G75*
G02X289455Y72489J-1274*
G01*
X291816Y70128*
G75*
G02X292011Y69877I-899J-902*
G01*
G75*
G02X293396Y67652I-1095J-2225*
G01*
G75*
G02X288436I-2480*
G01*
G75*
G02X289053Y69288I2480J0*
G01*
X288026Y70315*
X286580*
Y67264*
X284543*
G75*
G02X285522Y65289I-1500J-1974*
G01*
G75*
G02X280562I-2480*
G01*
G75*
G02X281178Y66925I2480*
G01*
Y67264*
X279198*
Y40880*
G75*
G02X278066Y39614I-1274*
G01*
X272132Y33681*
G75*
G02X271231Y33307I-901J900*
G01*
X239341*
G75*
G02X238440Y33681J1274*
G01*
X235685Y36435*
G75*
G02X235312Y37337I900J901*
G01*
Y54266*
G75*
G02X235685Y55167I1274*
G01*
X235755Y55237*
G75*
G02X235680Y55841I2405J604*
G01*
G75*
G02X240640I2480*
G01*
G75*
G02X237859Y53379I-2480*
G01*
Y37864*
X239869Y35854*
X270704*
X276629Y41780*
G75*
G02X276650Y41801I907J-903*
G01*
Y49573*
X270785Y43707*
G75*
G02X266206Y41806I-2310J-902*
G01*
Y36850*
X261887*
Y39183*
X261502Y38798*
G75*
G02X260598Y38425I-901J900*
G01*
X260103*
Y36850*
X255784*
Y42547*
X259721*
Y43937*
X255784*
Y45315*
X254724*
G75*
G02X250730I-1997J1470*
G01*
X250064*
Y43937*
X246127*
Y42547*
X250064*
Y36850*
X245745*
Y38425*
X245641*
G75*
G02X244739Y38799J1274*
G01*
X243961Y39577*
Y36850*
X239643*
Y42547*
X240528*
Y43937*
X239643*
Y49634*
X243580*
Y49935*
G75*
G02X243953Y50836I1274*
G01*
X244810Y51693*
G75*
G02X244735Y52297I2405J604*
G01*
G75*
G02X249695I2480*
G01*
G75*
G02X246611Y49892I-2480*
G01*
X246353Y49634*
X250064*
Y48256*
X250730*
G75*
G02X254724I1997J-1470*
G01*
X255784*
Y49634*
X259721*
Y51116*
G75*
G02X260095Y52017I1274*
G01*
X260881Y52804*
G75*
G02X261617Y53166I901J-900*
G01*
G75*
G02X266231Y51904I2134J-1263*
G01*
G75*
G02X264750Y49634I-2480*
G01*
X266206*
Y43937*
X265320*
Y42547*
X266009*
G75*
G02X268746Y45270I2467J257*
G01*
X275076Y51600*
Y95998*
G75*
G02X275449Y96899I1274*
G01*
X276629Y98079*
G75*
G02X277530Y98453I901J-900*
G01*
X278324*
Y104063*
X285369*
X286149Y104843*
G75*
G02X286729Y107126I2405J604*
G01*
X280680*
G75*
G02X279638Y107558I0J1470*
G01*
X277673Y109523*
G75*
G02X277241Y110565I1038J1041*
G01*
Y123735*
X276134Y124843*
X248612*
X247898Y124129*
Y124043*
X251245*
Y120070*
G75*
G02X255220Y116864I695J-3206*
G01*
G75*
G02X251245Y113659I-3280*
G01*
Y110472*
X250175*
X256584Y104063*
X260398*
Y101874*
X260769*
Y97602*
X260398*
Y96495*
G75*
G02X260744Y97040I1384J-497*
G01*
X261528Y97824*
G75*
G02X262570Y98256I1041J-1038*
G01*
X269441*
X269761Y98576*
Y110866*
X267202*
Y124437*
X275261*
Y110866*
X272702*
Y97967*
G75*
G02X272269Y96925I-1470J0*
G01*
X271092Y95747*
G75*
G02X270050Y95315I-1041J1038*
G01*
X263253*
Y85371*
G75*
G02Y85369I-641J-1*
G01*
G75*
G02Y85368I-654J0*
G01*
G75*
G02X262822Y84328I-1470*
G01*
X261838Y83344*
G75*
G02X260795Y82913I-1040J1040*
G01*
X260398*
Y67264*
X252623*
Y67080*
X255305Y64398*
X259392*
G75*
G02X263869Y62927I1997J-1470*
G01*
G75*
G02X259392Y61457I-2480*
G01*
X254696*
G75*
G02X253654Y61889I0J1470*
G01*
X250114Y65429*
G75*
G02X249700Y66237I1038J1041*
G01*
G75*
G02X245875Y66772I-1698J1808*
G01*
X245641*
G75*
G02X244739Y67145J1274*
G01*
X241591Y70294*
G75*
G02X241217Y71195I900J901*
G01*
Y75660*
G75*
G02X241060Y76313I1274J653*
G01*
Y86350*
X236202Y91208*
G75*
G02X233548Y88022I-2372J-722*
G01*
Y87030*
X234650*
Y78970*
X229898*
Y80939*
X229650*
Y78970*
X229335*
Y73892*
G75*
G02X228730Y72432I-2061*
G01*
X224462Y68165*
G75*
G02X223003Y67559I-1459J1455*
G01*
X215195*
X213056Y65420*
Y55447*
G75*
G02X210995Y53386I-2061*
G01*
X196920*
G75*
G02X195461Y53992J2061*
G01*
X178930Y70523*
G75*
G02X178324Y71982I1455J1459*
G01*
Y76928*
G75*
G02X174190Y82770I2061J5842*
G01*
G75*
G02X186580I6195*
G01*
G75*
G02X182446Y76928I-6195*
G01*
Y72836*
X197774Y57508*
X208934*
Y66274*
G75*
G02X209540Y67733I2061*
G01*
X212882Y71075*
G75*
G02X214341Y71681I1459J-1455*
G01*
X222149*
X225213Y74745*
Y78970*
X224898*
Y87030*
X225213*
Y97096*
X224898*
Y105156*
X229650*
Y97096*
X229335*
Y87030*
X229650*
Y85061*
X229898*
Y87030*
X231001*
Y89305*
G75*
G02X231367Y90198I1274J0*
G01*
G75*
G02X231350Y90486I2465J289*
G01*
G75*
G02X235183Y92564I2480*
G01*
G75*
G02X235154Y92848I1404J283*
G01*
Y98948*
X234650Y99452*
Y97496*
G75*
G02X234754Y96785I-2376J-710*
G01*
G75*
G02X229794I-2480*
G01*
G75*
G02X229898Y97496I2480*
G01*
Y105156*
X233973*
Y105248*
X232449Y106772*
X218725*
Y105156*
X219650*
Y97096*
X219335*
Y87030*
X219650*
Y85061*
X219898*
Y87030*
X224650*
Y78970*
X219898*
Y80939*
X219650*
Y78970*
X214898*
Y87030*
X215213*
Y97096*
X214898*
Y99820*
X210721Y103998*
G75*
G02X210115Y105457I1455J1459*
G01*
Y117067*
X201219*
X186580Y102428*
Y92165*
X174190*
Y104555*
X182878*
X198906Y120583*
G75*
G02X200365Y121189I1459J-1455*
G01*
X212176*
G75*
G02X214237Y119128J-2061*
G01*
Y106311*
X215392Y105156*
X215863*
Y107415*
G75*
G02X216284Y108429I1431J0*
G01*
X217068Y109213*
G75*
G02X218081Y109634I1014J-1010*
G01*
X233042*
G75*
G02X234056Y109213I0J-1431*
G01*
X236415Y106854*
G75*
G02X236835Y105841I-1010J-1014*
G01*
Y105575*
G75*
G02X240640Y103478I1325J-2096*
G01*
G75*
G02X239434Y101350I-2480*
G01*
Y100202*
G75*
G02X239622Y100443I1089J-661*
G01*
X241590Y102410*
G75*
G02X242349Y102776I901J-900*
G01*
X242782Y103208*
G75*
G02X242767Y103478I2464J272*
G01*
G75*
G02X247727I2480*
G01*
G75*
G02X244344Y101169I-2480*
G01*
X243786Y100610*
G75*
G02X243026Y100244I-901J900*
G01*
X241796Y99014*
Y97199*
G75*
G02X243549Y97676I1482J-1989*
G01*
X245133Y99260*
G75*
G02X246034Y99634I901J-900*
G01*
X250759*
G75*
G02X251660Y99260J-1274*
G01*
X251772Y99148*
Y101874*
X252143*
Y104063*
X252425*
X246571Y109917*
G75*
G02X246221Y110472I1039J1041*
G01*
X243186*
Y115197*
X242485*
G75*
G02X241025Y115803J2061*
G01*
X236519Y120309*
X234650*
Y118341*
X229898*
Y126400*
X230213*
Y128583*
X229383*
Y126400*
X229650*
Y118341*
X224898*
Y126400*
X225166*
Y128535*
X224383*
Y126400*
X224650*
Y118341*
X219898*
Y126400*
X220166*
Y128583*
X219335*
Y126400*
X219650*
Y118341*
X214898*
Y121070*
X209649Y126319*
X205089*
G75*
G02X203028Y128380J2061*
G01*
Y146195*
G75*
G02X205089Y148256I2061*
G01*
X257474*
G75*
G02X263306Y146195I2552J-2061*
G01*
G75*
G02X257474Y144134I-3280*
G01*
X207150*
Y130441*
X210503*
G75*
G02X211962Y129835J-2061*
G01*
X215213Y126584*
Y130644*
G75*
G02X217274Y132705I2061*
G01*
X221831*
G75*
G02X222274Y132752I444J-2061*
G01*
X227274*
G75*
G02X227718Y132705J-2108*
G01*
X232274*
G75*
G02X234335Y130644J-2061*
G01*
Y126400*
X234650*
Y124431*
X237373*
G75*
G02X238832Y123825J-2061*
G01*
X243186Y119471*
Y124043*
X244957*
Y124735*
G75*
G02Y124737I641J1*
G01*
G75*
G02Y124738I654J0*
G01*
G75*
G02X245388Y125778I1470*
G01*
X246963Y127353*
G75*
G02X247041Y127425I1040J-1041*
G01*
X242816*
Y141736*
X251615*
Y127783*
X276743*
G75*
G02X277785Y127351I0J-1470*
G01*
X279750Y125386*
G75*
G02X280182Y124344I-1038J-1041*
G01*
Y111174*
X281289Y110067*
X292881*
G75*
G02X293924Y109636I3J-1470*
G01*
X296680Y106880*
G75*
G02X297111Y105841I-1040J-1040*
G01*
G75*
G02Y105840I-627J0*
G01*
G75*
G02Y105837I-632J-1*
G01*
Y104752*
X298489*
Y100433*
X292792*
Y104752*
X294170*
Y105231*
X292276Y107126*
X290379*
G75*
G02X290239Y103627I-1825J-1679*
G01*
G75*
G02X288344Y99105I-1291J-2117*
G01*
X288077Y98838*
G75*
G02X287176Y98465I-901J900*
G01*
X286580*
Y93492*
X289137*
X292792Y97234*
Y98650*
X298489*
Y97764*
X301847*
Y113187*
X298694Y116340*
G75*
G02X287674Y119620I-5022J3280*
G01*
G75*
G02X299670I5998*
G01*
G75*
G02X299638Y118999I-5998J0*
G01*
X304021Y114616*
G75*
G02X304394Y113715I-900J-901*
G01*
Y96490*
G75*
G02X303121Y95217I-1274*
G01*
X298489*
Y94331*
X293957*
X293346Y93705*
X298859*
Y93392*
G75*
G02X302451Y91175I1112J-2217*
G01*
G75*
G02X298859Y88959I-2480*
G01*
Y88646*
X294546*
G75*
G02X294552Y88518I-1267J-126*
G01*
Y87232*
X298489*
Y86346*
X307022*
X310586Y89910*
G75*
G02X311487Y90283I901J-900*
G01*
X314233*
X234650Y58056D02*
G75*
G02X234735Y57415I-2396J-641D01*
G01*
G75*
G02X229775I-2480*
G01*
G75*
G02X229898Y58189I2480*
G01*
Y65785*
X234650*
Y58056*
X224650Y58126D02*
G75*
G02X224754Y57415I-2376J-710D01*
G01*
G75*
G02X219794I-2480*
G01*
G75*
G02X219898Y58126I2480*
G01*
Y65785*
X224650*
Y58126*
Y97496D02*
G75*
G02X224754Y96785I-2376J-710D01*
G01*
G75*
G02X219794I-2480*
G01*
G75*
G02X219898Y97496I2480*
G01*
Y105156*
X224650*
Y97496*
X199666Y62140D02*
G75*
G02X208859I4596D01*
G01*
G75*
G02X199666I-4596*
G01*
Y72140D02*
G75*
G02X208859I4596D01*
G01*
G75*
G02X199666I-4596*
G01*
Y82140D02*
G75*
G02X208859I4596D01*
G01*
G75*
G02X199666I-4596*
G01*
X200036Y92140D02*
G75*
G02X208489I4226D01*
G01*
G75*
G02X200036I-4226*
G01*
Y102140D02*
G75*
G02X208489I4226D01*
G01*
G75*
G02X200036I-4226*
G01*
Y112140D02*
G75*
G02X208489I4226D01*
G01*
G75*
G02X200036I-4226*
G01*
X266831Y142130D02*
X275631D01*
Y127819*
X266831*
Y142130*
X287304Y145211D02*
G75*
G02X300040I6368D01*
G01*
G75*
G02X287304I-6368*
G01*
X325206Y47159D02*
G36*
Y60360D01*
X279198*
Y40880*
G75*
G02X278066Y39614I-1274J1*
G01*
X272132Y33681*
G75*
G02X271231Y33307I-902J902*
G01*
X239341*
G75*
G02X238440Y33681I1J1275*
G01*
X235685Y36435*
G75*
G02X235312Y37337I902J902*
G01*
Y54266*
G75*
G02X235685Y55167I1275J-1*
G01*
X235755Y55237*
G75*
G02X235680Y55841I2416J606*
G01*
G75*
G02X240640I2480*
G01*
Y55840*
G75*
G02X237859Y53379I-2480*
G01*
Y37864*
X239869Y35854*
X270704*
X276629Y41780*
G75*
G02X276650Y41801I564J-553*
G01*
Y49573*
X270785Y43707*
G75*
G02X270955Y42805I-2310J-903*
G01*
G75*
G02X266206Y41806I-2480*
G01*
Y36850*
X261887*
Y39183*
X261502Y38798*
G75*
G02X260598Y38425I-902J902*
G01*
X260103*
Y36850*
X255784*
Y42547*
X259721*
Y43937*
X255784*
Y45315*
X254724*
G75*
G02X250730I-1997J1470*
G01*
X250064*
Y43937*
X246127*
Y42547*
X250064*
Y36850*
X245745*
Y38425*
X245641*
G75*
G02X244739Y38799I1J1275*
G01*
X243961Y39577*
Y36850*
X239643*
Y42547*
X240528*
Y43937*
X239643*
Y49634*
X243580*
Y49935*
G75*
G02X243953Y50836I1275J-1*
G01*
X244810Y51693*
G75*
G02X244735Y52297I2416J606*
G01*
G75*
G02X249695I2480*
G01*
G75*
G02X246611Y49892I-2480*
G01*
X246353Y49634*
X250064*
Y48256*
X250730*
G75*
G02X254724I1997J-1470*
G01*
X255784*
Y49634*
X259721*
Y51116*
G75*
G02X260095Y52017I1275J-1*
G01*
X260881Y52804*
G75*
G02X261617Y53166I901J-900*
G01*
G75*
G02X266231Y51904I2134J-1263*
G01*
G75*
G02Y51903I-3007J0*
G01*
G75*
G02X264750Y49634I-2479*
G01*
X266206*
Y43937*
X265320*
Y42547*
X266009*
G75*
G02X265995Y42805I2467J257*
G01*
G75*
G02X268746Y45270I2480*
G01*
X275076Y51600*
Y60360*
X234650*
Y58056*
G75*
G02X234735Y57415I-2408J-643*
G01*
G75*
G02X229775I-2480*
G01*
G75*
G02X229898Y58189I2483J0*
G01*
Y60360*
X224650*
Y58126*
G75*
G02X224754Y57418I-2359J-708*
G01*
G75*
G02Y57415I-2707J-1*
G01*
G75*
G02X219794I-2480*
G01*
G75*
G02Y57418I2707J1*
G01*
G75*
G02X219898Y58126I2463*
G01*
Y60360*
X213056*
Y55447*
Y55446*
G75*
G02X210995Y53386I-2061*
G01*
X196920*
G75*
G02X195461Y53992J2060*
G01*
X189092Y60360*
X171587*
Y47159*
G75*
G02X193174Y40880I9880J-6280*
G01*
G75*
G02X187747Y31000I-11707*
G01*
X309046*
G75*
G02X303619Y40880I6280J9880*
G01*
G75*
G02X325206Y47159I11707J0*
G01*
G37*
X208934Y60360D02*
G36*
X208501D01*
G75*
G02X200024I-4238J1780*
G01*
X194921*
X197774Y57508*
X208934*
Y60360*
G37*
X189092D02*
G36*
X178930Y70523D01*
G75*
G02X178324Y71982I1455J1459*
G01*
Y72140*
X171587*
Y60360*
X189092*
G37*
X222608Y72140D02*
G36*
X208859D01*
G75*
G02X199666I-4596*
G01*
X183142*
X194921Y60360*
X200024*
G75*
G02X199666Y62140I4238J1779*
G01*
G75*
G02X208859I4596*
G01*
G75*
G02X208501Y60360I-4596J0*
G01*
X208934*
Y66274*
G75*
G02X209540Y67733I2061*
G01*
X212882Y71075*
G75*
G02X214341Y71681I1459J-1454*
G01*
X222149*
X222608Y72140*
G37*
X275076D02*
G36*
X260398D01*
Y67264*
X252623*
Y67080*
X255305Y64398*
X259392*
G75*
G02X263869Y62927I1997J-1470*
G01*
G75*
G02X259392Y61457I-2480*
G01*
X254696*
G75*
G02X253654Y61889I0J1470*
G01*
X250114Y65429*
G75*
G02X249700Y66237I1039J1042*
G01*
G75*
G02X245875Y66772I-1698J1807*
G01*
X245641*
G75*
G02X244739Y67145I1J1275*
G01*
X241591Y70294*
G75*
G02X241217Y71195I902J902*
G01*
Y72140*
X228437*
X224462Y68165*
G75*
G02X223003Y67559I-1459J1454*
G01*
X215195*
X213056Y65420*
Y60360*
X219898*
Y65785*
X224650*
Y60360*
X229898*
Y65785*
X234650*
Y60360*
X275076*
Y72140*
G37*
X310121D02*
G36*
G75*
G02X309519Y71988I-603J1124D01*
G01*
X298489*
Y71102*
X292792*
Y71988*
X291704*
G75*
G02X291101Y72140I1J1275*
G01*
X289804*
X291816Y70128*
G75*
G02X292011Y69877I-899J-901*
G01*
G75*
G02X293396Y67652I-1095J-2225*
G01*
Y67652*
G75*
G02X288436I-2480*
G01*
G75*
G02X289053Y69288I2481J-1*
G01*
X288026Y70315*
X286580*
Y67264*
X284543*
G75*
G02X285522Y65289I-1500J-1974*
G01*
G75*
G02X280562I-2480*
G01*
G75*
G02X281178Y66925I2481J0*
G01*
Y67264*
X279198*
Y60360*
X325206*
Y72140*
X310121*
G37*
X174222Y82140D02*
G36*
X171587D01*
Y72140*
X178324*
Y76928*
G75*
G02X174222Y82140I2062J5843*
G01*
G37*
X224898D02*
G36*
X224650D01*
Y78970*
X219898*
Y80939*
X219650*
Y78970*
X214898*
Y82140*
X208859*
G75*
G02X199666I-4596*
G01*
X186548*
G75*
G02X182446Y76928I-6163J630*
G01*
Y72836*
X183142Y72140*
X199666*
G75*
G02X208859I4596*
G01*
X222608*
X225213Y74745*
Y78970*
X224898*
Y82140*
G37*
X241060D02*
G36*
X234650D01*
Y78970*
X229898*
Y80939*
X229650*
Y78970*
X229335*
Y73892*
G75*
G02X228730Y72432I-2061*
G01*
X228437Y72140*
X241217*
Y75660*
G75*
G02X241060Y76311I1268J651*
G01*
G75*
G02Y76313I1504J1*
G01*
Y82140*
G37*
X275076D02*
G36*
X260398D01*
Y72140*
X275076*
Y82140*
G37*
X291101Y72140D02*
G36*
G75*
G02X290802Y72362I603J1124D01*
G01*
X286950Y76215*
Y72862*
X288554*
G75*
G02X289455Y72489I-1J-1275*
G01*
X289804Y72140*
X291101*
G37*
X313954Y82140D02*
G36*
X292265D01*
G75*
G02X291052Y81098I-2136J1259*
G01*
G75*
G02X292039Y80638I-528J-2419*
G01*
X292792*
Y81524*
X298489*
Y77205*
X292792*
Y77676*
G75*
G02X290571Y76196I-2270J999*
G01*
X292231Y74535*
X292792*
Y75421*
X298489*
Y74535*
X308991*
X313954Y79498*
Y82140*
G37*
X320044D02*
G36*
Y78091D01*
X316148*
X310420Y72362*
G75*
G02X310121Y72140I-902J902*
G01*
X325206*
Y82140*
X320044*
G37*
X214898D02*
G36*
Y87030D01*
X215213*
Y92140*
X208489*
G75*
G02X200036I-4226*
G01*
X171587*
Y82140*
X174222*
G75*
G02X174190Y82770I6164J631*
G01*
G75*
G02X186580I6195*
G01*
Y82769*
G75*
G02X186548Y82140I-6195J-2*
G01*
X199666*
G75*
G02X208859I4596*
G01*
X214898*
G37*
X224898D02*
G36*
Y87030D01*
X225213*
Y92140*
X219335*
Y87030*
X219650*
Y85061*
X219898*
Y87030*
X224650*
Y82140*
X224898*
G37*
X231981Y92140D02*
G36*
X229335D01*
Y87030*
X229650*
Y85061*
X229898*
Y87030*
X231001*
Y89305*
G75*
G02X231367Y90198I1273*
G01*
G75*
G02X231350Y90486I2496J291*
G01*
G75*
G02X231981Y92140I2480*
G01*
G37*
X241060Y82140D02*
G36*
Y86350D01*
X236202Y91208*
G75*
G02X236309Y90486I-2372J-722*
G01*
G75*
G02X233548Y88022I-2480*
G01*
Y87030*
X234650*
Y82140*
X241060*
G37*
X275076Y92140D02*
G36*
X263253D01*
Y85371*
Y85369*
Y85368*
Y85368*
G75*
G02X262822Y84328I-1470*
G01*
X261838Y83344*
G75*
G02X260795Y82913I-1040J1040*
G01*
X260398*
Y82140*
X275076*
Y92140*
G37*
X302256D02*
G36*
G75*
G02X302451Y91176I-2284J-965D01*
G01*
Y91175*
Y91175*
G75*
G02X298859Y88959I-2480*
G01*
Y88646*
X294546*
G75*
G02X294552Y88518I-1290J-128*
G01*
Y88518*
Y87232*
X298489*
Y86346*
X307022*
X310586Y89910*
G75*
G02X311487Y90283I902J-902*
G01*
X314233*
G75*
G02X320044Y89010I2766J-1274*
G01*
G75*
G02X314233Y87736I-3045*
G01*
X312015*
X308451Y84173*
G75*
G02X307550Y83799I-902J902*
G01*
X298489*
Y82913*
X292792*
Y84250*
X292378Y84664*
G75*
G02X292005Y85565I902J902*
G01*
Y86108*
G75*
G02X291337Y85565I-1875J1621*
G01*
G75*
G02X292609Y83400I-1209J-2165*
G01*
G75*
G02X292265Y82140I-2480J0*
G01*
X313954*
Y84181*
X320044*
Y82140*
X325206*
Y92140*
X302256*
G37*
X215213Y96884D02*
G36*
X186580D01*
Y92165*
X174190*
Y96884*
X171587*
Y92140*
X200036*
G75*
G02X208489I4226*
G01*
X215213*
Y96884*
G37*
X225213D02*
G36*
X224752D01*
G75*
G02X224754Y96788I-2457J-98*
G01*
G75*
G02Y96785I-2707J-1*
G01*
G75*
G02X219794I-2480*
G01*
G75*
G02Y96788I2707J1*
G01*
G75*
G02X219796Y96884I2459J-2*
G01*
X219335*
Y92140*
X225213*
Y96884*
G37*
X231981Y92140D02*
G36*
G75*
G02X235183Y92564I1848J-1654D01*
G01*
G75*
G02X235154Y92848I1407J284*
G01*
Y92848*
Y96884*
X234752*
G75*
G02X234754Y96788I-2457J-98*
G01*
G75*
G02Y96785I-2707J-1*
G01*
G75*
G02X229794I-2480*
G01*
G75*
G02Y96788I2707J1*
G01*
G75*
G02X229796Y96884I2459J-2*
G01*
X229335*
Y92140*
X231981*
G37*
X260608Y96884D02*
G36*
X260398D01*
Y96495*
G75*
G02X260608Y96884I1383J-496*
G01*
G37*
X275076Y92140D02*
G36*
Y95998D01*
G75*
G02X275434Y96884I1275J-1*
G01*
X272228*
X271092Y95747*
G75*
G02X270050Y95315I-1041J1038*
G01*
X263253*
Y92140*
X275076*
G37*
X292450Y96884D02*
G36*
X286580D01*
Y93492*
X289137*
X292450Y96884*
G37*
X304394D02*
G36*
Y96490D01*
G75*
G02X303121Y95217I-1274*
G01*
X298489*
Y94331*
X293957*
X293346Y93705*
X298859*
Y93392*
G75*
G02X302256Y92140I1112J-2216*
G01*
X325206*
Y96884*
X320414*
G75*
G02X313583I-3415*
G01*
X304394*
G37*
X174190Y102140D02*
G36*
X171587D01*
Y96884*
X174190*
Y102140*
G37*
X212579D02*
G36*
X208489D01*
G75*
G02X200036I-4226*
G01*
X186580*
Y96884*
X215213*
Y97096*
X214898*
Y99820*
X212579Y102140*
G37*
X229898D02*
G36*
X229650D01*
Y97096*
X229335*
Y96884*
X229796*
G75*
G02X229898Y97496I2462J-96*
G01*
Y102140*
G37*
X219796Y96884D02*
G36*
G75*
G02X219898Y97496I2462J-96D01*
G01*
Y102140*
X219650*
Y97096*
X219335*
Y96884*
X219796*
G37*
X224898Y102140D02*
G36*
X224650D01*
Y97496*
G75*
G02X224752Y96884I-2360J-708*
G01*
X225213*
Y97096*
X224898*
Y102140*
G37*
X235154Y96884D02*
G36*
Y98948D01*
X234650Y99452*
Y97496*
G75*
G02X234752Y96884I-2360J-708*
G01*
X235154*
G37*
X241320Y102140D02*
G36*
X240248D01*
G75*
G02X239434Y101350I-2088J1339*
G01*
Y100202*
G75*
G02X239622Y100443I1094J-665*
G01*
X241320Y102140*
G37*
X278324D02*
G36*
X272702D01*
Y97967*
Y97966*
G75*
G02X272269Y96925I-1470*
G01*
X272228Y96884*
X275434*
G75*
G02X275449Y96899I917J-879*
G01*
X276629Y98079*
G75*
G02X277530Y98453I902J-902*
G01*
X278324*
Y102140*
G37*
X252143D02*
G36*
X247335D01*
G75*
G02X244344Y101169I-2088J1339*
G01*
X243786Y100610*
G75*
G02X243026Y100244I-900J897*
G01*
X241796Y99014*
Y97199*
G75*
G02X243549Y97676I1482J-1987*
G01*
X245133Y99260*
G75*
G02X246034Y99634I902J-902*
G01*
X250759*
G75*
G02X251660Y99260I-1J-1275*
G01*
X251772Y99148*
Y101874*
X252143*
Y102140*
G37*
X269761D02*
G36*
X260398D01*
Y101874*
X260769*
Y97602*
X260398*
Y96884*
X260608*
G75*
G02X260744Y97040I1173J-885*
G01*
X261528Y97824*
G75*
G02X262570Y98256I1041J-1038*
G01*
X269441*
X269761Y98576*
Y102140*
G37*
X301847D02*
G36*
X298489D01*
Y100433*
X292792*
Y102140*
X291346*
G75*
G02X291427Y101510I-2399J-629*
G01*
G75*
G02X288344Y99105I-2480*
G01*
X288077Y98838*
G75*
G02X287176Y98465I-902J902*
G01*
X286580*
Y96884*
X292450*
X292792Y97234*
Y98650*
X298489*
Y97764*
X301847*
Y102140*
G37*
X304394D02*
G36*
Y96884D01*
X313583*
G75*
G02X320414I3415*
G01*
X325206*
Y102140*
X304394*
G37*
X190462Y112140D02*
G36*
X171587D01*
Y102140*
X174190*
Y104555*
X182878*
X190462Y112140*
G37*
X212579Y102140D02*
G36*
X210721Y103998D01*
G75*
G02X210115Y105457I1455J1459*
G01*
Y112140*
X208489*
G75*
G02X200036I-4226*
G01*
X196291*
X186580Y102428*
Y102140*
X200036*
G75*
G02X208489I4226*
G01*
X212579*
G37*
X252143D02*
G36*
Y104063D01*
X252425*
X246571Y109917*
G75*
G02X246221Y110472I1033J1038*
G01*
X243186*
Y112140*
X214237*
Y106311*
X215392Y105156*
X215863*
Y107415*
G75*
G02X216284Y108429I1430*
G01*
X217068Y109213*
G75*
G02X218081Y109634I1013J-1009*
G01*
X233042*
G75*
G02X234056Y109213J-1430*
G01*
X236415Y106854*
G75*
G02X236835Y105841I-1009J-1013*
G01*
Y105575*
G75*
G02X240640Y103478I1325J-2096*
G01*
G75*
G02X240248Y102140I-2480J0*
G01*
X241320*
X241590Y102410*
G75*
G02X242349Y102776I900J-897*
G01*
X242782Y103208*
G75*
G02X242767Y103478I2556J277*
G01*
G75*
G02X247727I2480*
G01*
G75*
G02X247335Y102140I-2480J0*
G01*
X252143*
G37*
X229898D02*
G36*
Y105156D01*
X233973*
Y105248*
X232449Y106772*
X218725*
Y105156*
X219650*
Y102140*
X219898*
Y105156*
X224650*
Y102140*
X224898*
Y105156*
X229650*
Y102140*
X229898*
G37*
X278324D02*
G36*
Y104063D01*
X285369*
X286149Y104843*
G75*
G02X286074Y105447I2404J604*
G01*
G75*
G02X286729Y107126I2478*
G01*
X280680*
G75*
G02X279638Y107558I0J1470*
G01*
X277673Y109523*
G75*
G02X277241Y110565I1038J1041*
G01*
Y110565*
Y112140*
X275261*
Y110866*
X272702*
Y102140*
X278324*
G37*
X267202Y112140D02*
G36*
X251245D01*
Y110472*
X250175*
X256584Y104063*
X260398*
Y102140*
X269761*
Y110866*
X267202*
Y112140*
G37*
X301847D02*
G36*
X280182D01*
Y111174*
X281289Y110067*
X292881*
G75*
G02X293924Y109636I3J-1470*
G01*
X296680Y106880*
G75*
G02X297111Y105841I-1039J-1039*
G01*
Y105841*
Y105840*
Y105837*
Y104752*
X298489*
Y102140*
X301847*
Y112140*
G37*
X292792Y102140D02*
G36*
Y104752D01*
X294170*
Y105231*
X292276Y107126*
X290379*
G75*
G02X291034Y105447I-1824J-1679*
G01*
G75*
G02X290239Y103627I-2480*
G01*
G75*
G02X291346Y102140I-1291J-2117*
G01*
X292792*
G37*
X304394Y112140D02*
G36*
Y102140D01*
X325206*
Y112140*
X304394*
G37*
X243186D02*
G36*
Y115197D01*
X242485*
G75*
G02X241025Y115803J2060*
G01*
X236519Y120309*
X234650*
Y118341*
X229898*
Y126400*
X230213*
Y128583*
X229383*
Y126400*
X229650*
Y118341*
X224898*
Y126400*
X225166*
Y128535*
X224383*
Y126400*
X224650*
Y118341*
X219898*
Y126400*
X220166*
Y128583*
X219335*
Y126400*
X219650*
Y118341*
X214898*
Y121070*
X209649Y126319*
X205089*
G75*
G02X203028Y128380J2061*
G01*
Y128380*
Y134974*
X189755*
G75*
G02X173180I-8288J8268*
G01*
X171587*
Y112140*
X190462*
X198906Y120583*
G75*
G02X200365Y121189I1459J-1454*
G01*
X212176*
G75*
G02X214237Y119128J-2061*
G01*
Y119128*
Y112140*
X243186*
G37*
X210115D02*
G36*
Y117067D01*
X201219*
X196291Y112140*
X200036*
G75*
G02X208489I4226*
G01*
X210115*
G37*
X242816Y134974D02*
G36*
X207150D01*
Y130441*
X210503*
G75*
G02X211962Y129835J-2060*
G01*
X215213Y126584*
Y130644*
Y130644*
G75*
G02X217274Y132705I2061*
G01*
X221831*
G75*
G02X222274Y132752I443J-2052*
G01*
X227274*
G75*
G02X227718Y132705I1J-2099*
G01*
X232274*
G75*
G02X234335Y130644J-2061*
G01*
Y130644*
Y126400*
X234650*
Y124431*
X237373*
G75*
G02X238832Y123825J-2060*
G01*
X243186Y119471*
Y124043*
X244957*
Y124735*
Y124737*
Y124738*
Y124739*
G75*
G02X245388Y125778I1470*
G01*
X246963Y127353*
G75*
G02X247041Y127425I905J-895*
G01*
X242816*
Y134974*
G37*
X277241Y112140D02*
G36*
Y123735D01*
X276134Y124843*
X248612*
X247898Y124129*
Y124043*
X251245*
Y120070*
G75*
G02X255220Y116864I695J-3206*
G01*
G75*
G02X251245Y113659I-3280*
G01*
Y112140*
X267202*
Y124437*
X275261*
Y112140*
X277241*
G37*
X304394D02*
G36*
X325206D01*
Y134974*
X323613*
G75*
G02X307038I-8288J8268*
G01*
X275631*
Y127819*
X266831*
Y134974*
X251615*
Y127783*
X276743*
G75*
G02X277785Y127351I0J-1470*
G01*
X279750Y125386*
G75*
G02X280182Y124345I-1038J-1041*
G01*
Y124344*
Y112140*
X301847*
Y113187*
X298694Y116340*
G75*
G02X287674Y119620I-5022J3280*
G01*
G75*
G02X299670I5998*
G01*
G75*
G02X299638Y118999I-6141J7*
G01*
X304021Y114616*
G75*
G02X304394Y113715I-902J-902*
G01*
Y112140*
G37*
X173180Y134974D02*
G36*
G75*
G02X171587Y136963I8288J8269D01*
G01*
Y134974*
X173180*
G37*
X203028Y145211D02*
G36*
X193007D01*
G75*
G02X193174Y143242I-11541J-1968*
G01*
G75*
G02X189755Y134974I-11707J0*
G01*
X203028*
Y145211*
G37*
X303785D02*
G36*
X300040D01*
G75*
G02X287304I-6368*
G01*
X263154*
G75*
G02X257474Y144134I-3129J984*
G01*
X207150*
Y134974*
X242816*
Y141736*
X251615*
Y134974*
X266831*
Y142130*
X275631*
Y134974*
X307038*
G75*
G02X303619Y143242I8288J8268*
G01*
G75*
G02X303785Y145211I11707J1*
G01*
G37*
X325206Y136963D02*
G36*
G75*
G02X323613Y134974I-9880J6281D01*
G01*
X325206*
Y136963*
G37*
X309046Y153122D02*
G36*
X187747D01*
G75*
G02X193007Y145211I-6279J-9880*
G01*
X203028*
Y146195*
Y146195*
G75*
G02X205089Y148256I2061*
G01*
X257474*
G75*
G02X263306Y146195I2552J-2061*
G01*
G75*
G02X263154Y145211I-3280*
G01*
X287304*
G75*
G02X300040I6368*
G01*
X303785*
G75*
G02X309046Y153122I11540J-1969*
G01*
G37*
X325456Y263359D02*
G75*
G02X303619Y269226I-10130J5868D01*
G01*
G75*
G02X309458Y279356I11707*
G01*
X187335*
G75*
G02X193174Y269226I-5868J-10130*
G01*
G75*
G02X171337Y263359I-11707*
G01*
Y172732*
G75*
G02X193174Y166864I10130J-5868*
G01*
G75*
G02X187335Y156734I-11707*
G01*
X309458*
G75*
G02X303619Y166864I5868J10130*
G01*
G75*
G02X325456Y172732I11707*
G01*
Y263359*
X313583Y222868D02*
G75*
G02X320414I3415D01*
G01*
G75*
G02X313583I-3415*
G01*
X314233Y216268D02*
G75*
G02X320044Y214994I2766J-1274D01*
G01*
G75*
G02X314233Y213720I-3045*
G01*
X312015*
X308451Y210157*
G75*
G02X307550Y209783I-901J900*
G01*
X298489*
Y208898*
X292792*
Y210234*
X292378Y210648*
G75*
G02X292005Y211549I900J901*
G01*
Y212093*
G75*
G02X291337Y211549I-1876J1622*
G01*
G75*
G02X291052Y207082I-1209J-2165*
G01*
G75*
G02X292039Y206622I-530J-2423*
G01*
X292792*
Y207508*
X298489*
Y203189*
X292792*
Y203660*
G75*
G02X290571Y202180I-2270J999*
G01*
X292231Y200520*
X292792*
Y201406*
X298489*
Y200520*
X308991*
X313954Y205482*
Y210165*
X320044*
Y204075*
X316148*
X310420Y198346*
G75*
G02X309519Y197972I-901J900*
G01*
X298489*
Y197087*
X292792*
Y197972*
X291704*
G75*
G02X290802Y198346J1274*
G01*
X286950Y202199*
Y198846*
X288554*
G75*
G02X289455Y198473J-1274*
G01*
X291816Y196112*
G75*
G02X292011Y195861I-899J-902*
G01*
G75*
G02X293396Y193636I-1095J-2225*
G01*
G75*
G02X288436I-2480*
G01*
G75*
G02X289053Y195272I2480J0*
G01*
X288026Y196299*
X286580*
Y193248*
X284543*
G75*
G02X285522Y191274I-1500J-1974*
G01*
G75*
G02X280562I-2480*
G01*
G75*
G02X281178Y192909I2480*
G01*
Y193248*
X279198*
Y166864*
G75*
G02X278066Y165598I-1274*
G01*
X272132Y159665*
G75*
G02X271231Y159291I-901J900*
G01*
X239341*
G75*
G02X238440Y159665J1274*
G01*
X235685Y162420*
G75*
G02X235312Y163321I900J901*
G01*
Y180250*
G75*
G02X235685Y181151I1274*
G01*
X235755Y181221*
G75*
G02X235680Y181825I2405J604*
G01*
G75*
G02X240640I2480*
G01*
G75*
G02X237859Y179363I-2480*
G01*
Y163848*
X239869Y161839*
X270704*
X276629Y167764*
G75*
G02X276650Y167785I907J-903*
G01*
Y175557*
X270785Y169692*
G75*
G02X266206Y167790I-2310J-902*
G01*
Y162835*
X261887*
Y165167*
X261502Y164783*
G75*
G02X260598Y164409I-901J900*
G01*
X260103*
Y162835*
X255784*
Y168531*
X259721*
Y169921*
X255784*
Y171299*
X254724*
G75*
G02X250730I-1997J1470*
G01*
X250064*
Y169921*
X246127*
Y168531*
X250064*
Y162835*
X245745*
Y164409*
X245641*
G75*
G02X244739Y164783J1274*
G01*
X243961Y165561*
Y162835*
X239643*
Y168531*
X240528*
Y169921*
X239643*
Y175618*
X243580*
Y175919*
G75*
G02X243953Y176820I1274*
G01*
X244810Y177678*
G75*
G02X244735Y178281I2405J604*
G01*
G75*
G02X249695I2480*
G01*
G75*
G02X246611Y175876I-2480*
G01*
X246353Y175618*
X250064*
Y174240*
X250730*
G75*
G02X254724I1997J-1470*
G01*
X255784*
Y175618*
X259721*
Y177100*
G75*
G02X260095Y178002I1274*
G01*
X260881Y178788*
G75*
G02X261617Y179150I901J-900*
G01*
G75*
G02X266231Y177888I2134J-1263*
G01*
G75*
G02X264750Y175618I-2480*
G01*
X266206*
Y169921*
X265320*
Y168531*
X266009*
G75*
G02X268746Y171254I2467J257*
G01*
X275076Y177585*
Y221982*
G75*
G02X275449Y222883I1274*
G01*
X276629Y224063*
G75*
G02X277530Y224437I901J-900*
G01*
X278324*
Y230047*
X285369*
X286149Y230827*
G75*
G02X286729Y233110I2405J604*
G01*
X280680*
G75*
G02X279638Y233543I0J1470*
G01*
X277673Y235507*
G75*
G02X277241Y236549I1038J1041*
G01*
Y249720*
X276134Y250827*
X248612*
X247898Y250113*
Y250028*
X251245*
Y246054*
G75*
G02X255220Y242848I695J-3206*
G01*
G75*
G02X251245Y239643I-3280*
G01*
Y236457*
X250175*
X256584Y230047*
X260398*
Y227858*
X260769*
Y223587*
X260398*
Y222480*
G75*
G02X260744Y223024I1384J-497*
G01*
X261528Y223808*
G75*
G02X262570Y224240I1041J-1038*
G01*
X269441*
X269761Y224560*
Y236850*
X267202*
Y250421*
X275261*
Y236850*
X272702*
Y223951*
G75*
G02X272269Y222909I-1470J0*
G01*
X271092Y221731*
G75*
G02X270050Y221299I-1041J1038*
G01*
X263253*
Y211356*
G75*
G02Y211353I-641J-1*
G01*
G75*
G02Y211352I-654J0*
G01*
G75*
G02X262822Y210313I-1470*
G01*
X261838Y209328*
G75*
G02X260795Y208898I-1040J1040*
G01*
X260398*
Y193248*
X252623*
Y193064*
X255305Y190382*
X259392*
G75*
G02X263869Y188911I1997J-1470*
G01*
G75*
G02X259392Y187441I-2480*
G01*
X254696*
G75*
G02X253654Y187873I0J1470*
G01*
X250114Y191413*
G75*
G02X249700Y192222I1038J1041*
G01*
G75*
G02X245875Y192756I-1698J1808*
G01*
X245641*
G75*
G02X244739Y193130J1274*
G01*
X241591Y196278*
G75*
G02X241217Y197179I900J901*
G01*
Y201644*
G75*
G02X241060Y202297I1274J653*
G01*
Y212334*
X236202Y217192*
G75*
G02X233548Y214007I-2372J-722*
G01*
Y213014*
X234650*
Y204955*
X229898*
Y206923*
X229650*
Y204955*
X229335*
Y199876*
G75*
G02X228730Y198417I-2061*
G01*
X224462Y194149*
G75*
G02X223003Y193543I-1459J1455*
G01*
X215195*
X213056Y191404*
Y181431*
G75*
G02X210995Y179370I-2061*
G01*
X196920*
G75*
G02X195461Y179976J2061*
G01*
X178930Y196507*
G75*
G02X178324Y197967I1455J1459*
G01*
Y202912*
G75*
G02X174190Y208754I2061J5842*
G01*
G75*
G02X186580I6195*
G01*
G75*
G02X182446Y202912I-6195*
G01*
Y198820*
X197774Y183492*
X208934*
Y192258*
G75*
G02X209540Y193717I2061*
G01*
X212882Y197059*
G75*
G02X214341Y197665I1459J-1455*
G01*
X222149*
X225213Y200730*
Y204955*
X224898*
Y213014*
X225213*
Y223081*
X224898*
Y231140*
X229650*
Y223081*
X229335*
Y213014*
X229650*
Y211045*
X229898*
Y213014*
X231001*
Y215289*
G75*
G02X231367Y216182I1274J0*
G01*
G75*
G02X231350Y216470I2465J289*
G01*
G75*
G02X235183Y218548I2480*
G01*
G75*
G02X235154Y218833I1404J283*
G01*
Y224933*
X234650Y225437*
Y223480*
G75*
G02X234754Y222770I-2376J-710*
G01*
G75*
G02X229794I-2480*
G01*
G75*
G02X229898Y223480I2480*
G01*
Y231140*
X233973*
Y231232*
X232449Y232756*
X218725*
Y231140*
X219650*
Y223081*
X219335*
Y213014*
X219650*
Y211045*
X219898*
Y213014*
X224650*
Y204955*
X219898*
Y206923*
X219650*
Y204955*
X214898*
Y213014*
X215213*
Y223081*
X214898*
Y225804*
X210721Y229982*
G75*
G02X210115Y231441I1455J1459*
G01*
Y243051*
X201219*
X186580Y228412*
Y218150*
X174190*
Y230539*
X182878*
X198906Y246567*
G75*
G02X200365Y247173I1459J-1455*
G01*
X212176*
G75*
G02X214237Y245112J-2061*
G01*
Y232295*
X215392Y231140*
X215863*
Y233400*
G75*
G02X216284Y234413I1431J0*
G01*
X217068Y235197*
G75*
G02X218081Y235618I1014J-1010*
G01*
X233042*
G75*
G02X234056Y235197I0J-1431*
G01*
X236415Y232838*
G75*
G02X236835Y231825I-1010J-1014*
G01*
Y231559*
G75*
G02X240640Y229463I1325J-2096*
G01*
G75*
G02X239434Y227335I-2480*
G01*
Y226187*
G75*
G02X239622Y226427I1089J-661*
G01*
X241590Y228394*
G75*
G02X242349Y228760I901J-900*
G01*
X242782Y229193*
G75*
G02X242767Y229463I2464J272*
G01*
G75*
G02X247727I2480*
G01*
G75*
G02X244344Y227153I-2480*
G01*
X243786Y226594*
G75*
G02X243026Y226228I-901J900*
G01*
X241796Y224998*
Y223183*
G75*
G02X243549Y223660I1482J-1989*
G01*
X245133Y225244*
G75*
G02X246034Y225618I901J-900*
G01*
X250759*
G75*
G02X251660Y225244J-1274*
G01*
X251772Y225132*
Y227858*
X252143*
Y230047*
X252425*
X246571Y235901*
G75*
G02X246221Y236457I1039J1041*
G01*
X243186*
Y241181*
X242485*
G75*
G02X241025Y241787J2061*
G01*
X236519Y246293*
X234650*
Y244325*
X229898*
Y252384*
X230213*
Y254567*
X229383*
Y252384*
X229650*
Y244325*
X224898*
Y252384*
X225166*
Y254520*
X224383*
Y252384*
X224650*
Y244325*
X219898*
Y252384*
X220166*
Y254567*
X219335*
Y252384*
X219650*
Y244325*
X214898*
Y247054*
X209649Y252303*
X205089*
G75*
G02X203028Y254364J2061*
G01*
Y272179*
G75*
G02X205089Y274240I2061*
G01*
X257474*
G75*
G02X263306Y272179I2552J-2061*
G01*
G75*
G02X257474Y270118I-3280*
G01*
X207150*
Y256425*
X210503*
G75*
G02X211962Y255819J-2061*
G01*
X215213Y252568*
Y256628*
G75*
G02X217274Y258689I2061*
G01*
X221831*
G75*
G02X222274Y258736I444J-2061*
G01*
X227274*
G75*
G02X227718Y258689J-2108*
G01*
X232274*
G75*
G02X234335Y256628J-2061*
G01*
Y252384*
X234650*
Y250415*
X237373*
G75*
G02X238832Y249809J-2061*
G01*
X243186Y245456*
Y250028*
X244957*
Y250719*
G75*
G02Y250722I641J1*
G01*
G75*
G02X245388Y251762I1470J1*
G01*
X246963Y253337*
G75*
G02X247041Y253409I1040J-1041*
G01*
X242816*
Y267720*
X251615*
Y253768*
X276743*
G75*
G02X277785Y253335I0J-1470*
G01*
X279750Y251370*
G75*
G02X280182Y250329I-1038J-1041*
G01*
Y237158*
X281289Y236051*
X292881*
G75*
G02X293924Y235620I3J-1470*
G01*
X296680Y232865*
G75*
G02X297111Y231825I-1040J-1040*
G01*
G75*
G02Y231824I-627J0*
G01*
G75*
G02Y231822I-632J-1*
G01*
Y230736*
X298489*
Y226417*
X292792*
Y230736*
X294170*
Y231216*
X292276Y233110*
X290379*
G75*
G02X290239Y229611I-1825J-1679*
G01*
G75*
G02X288344Y225089I-1291J-2117*
G01*
X288077Y224822*
G75*
G02X287176Y224449I-901J900*
G01*
X286580*
Y219476*
X289137*
X292792Y223219*
Y224634*
X298489*
Y223748*
X301847*
Y239171*
X298694Y242324*
G75*
G02X287674Y245604I-5022J3280*
G01*
G75*
G02X299670I5998*
G01*
G75*
G02X299638Y244983I-5998J0*
G01*
X304021Y240600*
G75*
G02X304394Y239699I-900J-901*
G01*
Y222474*
G75*
G02X303121Y221201I-1274*
G01*
X298489*
Y220315*
X293957*
X293346Y219689*
X298859*
Y219376*
G75*
G02X302451Y217159I1112J-2217*
G01*
G75*
G02X298859Y214943I-2480*
G01*
Y214630*
X294546*
G75*
G02X294552Y214502I-1267J-126*
G01*
Y213217*
X298489*
Y212331*
X307022*
X310586Y215894*
G75*
G02X311487Y216268I901J-900*
G01*
X314233*
X234650Y184041D02*
G75*
G02X234735Y183400I-2396J-641D01*
G01*
G75*
G02X229775I-2480*
G01*
G75*
G02X229898Y184173I2480*
G01*
Y191770*
X234650*
Y184041*
X224650Y184110D02*
G75*
G02X224754Y183400I-2376J-710D01*
G01*
G75*
G02X219794I-2480*
G01*
G75*
G02X219898Y184110I2480*
G01*
Y191770*
X224650*
Y184110*
Y223480D02*
G75*
G02X224754Y222770I-2376J-710D01*
G01*
G75*
G02X219794I-2480*
G01*
G75*
G02X219898Y223480I2480*
G01*
Y231140*
X224650*
Y223480*
X199666Y188124D02*
G75*
G02X208859I4596D01*
G01*
G75*
G02X199666I-4596*
G01*
Y198124D02*
G75*
G02X208859I4596D01*
G01*
G75*
G02X199666I-4596*
G01*
Y208124D02*
G75*
G02X208859I4596D01*
G01*
G75*
G02X199666I-4596*
G01*
X200036Y218124D02*
G75*
G02X208489I4226D01*
G01*
G75*
G02X200036I-4226*
G01*
Y228124D02*
G75*
G02X208489I4226D01*
G01*
G75*
G02X200036I-4226*
G01*
Y238124D02*
G75*
G02X208489I4226D01*
G01*
G75*
G02X200036I-4226*
G01*
X266831Y268114D02*
X275631D01*
Y253803*
X266831*
Y268114*
X287304Y271195D02*
G75*
G02X300040I6368D01*
G01*
G75*
G02X287304I-6368*
G01*
X325206Y173144D02*
G36*
Y186344D01*
X279198*
Y166864*
G75*
G02X278066Y165598I-1274J1*
G01*
X272132Y159665*
G75*
G02X271231Y159291I-902J902*
G01*
X239341*
G75*
G02X238440Y159665I1J1275*
G01*
X235685Y162420*
G75*
G02X235312Y163321I902J902*
G01*
Y180250*
G75*
G02X235685Y181151I1275J-1*
G01*
X235755Y181221*
G75*
G02X235680Y181825I2416J606*
G01*
G75*
G02X240640I2480*
G01*
Y181824*
G75*
G02X237859Y179363I-2480*
G01*
Y163848*
X239869Y161839*
X270704*
X276629Y167764*
G75*
G02X276650Y167785I564J-553*
G01*
Y175557*
X270785Y169692*
G75*
G02X270955Y168789I-2310J-903*
G01*
G75*
G02X266206Y167790I-2480*
G01*
Y162835*
X261887*
Y165167*
X261502Y164783*
G75*
G02X260598Y164409I-902J902*
G01*
X260103*
Y162835*
X255784*
Y168531*
X259721*
Y169921*
X255784*
Y171299*
X254724*
G75*
G02X250730I-1997J1470*
G01*
X250064*
Y169921*
X246127*
Y168531*
X250064*
Y162835*
X245745*
Y164409*
X245641*
G75*
G02X244739Y164783I1J1275*
G01*
X243961Y165561*
Y162835*
X239643*
Y168531*
X240528*
Y169921*
X239643*
Y175618*
X243580*
Y175919*
G75*
G02X243953Y176820I1275J-1*
G01*
X244810Y177678*
G75*
G02X244735Y178281I2416J606*
G01*
G75*
G02X249695I2480*
G01*
G75*
G02X246611Y175876I-2480*
G01*
X246353Y175618*
X250064*
Y174240*
X250730*
G75*
G02X254724I1997J-1470*
G01*
X255784*
Y175618*
X259721*
Y177100*
G75*
G02X260095Y178002I1275J-1*
G01*
X260881Y178788*
G75*
G02X261617Y179150I901J-900*
G01*
G75*
G02X266231Y177888I2134J-1263*
G01*
G75*
G02Y177887I-3007J0*
G01*
G75*
G02X264750Y175618I-2479*
G01*
X266206*
Y169921*
X265320*
Y168531*
X266009*
G75*
G02X265995Y168789I2467J257*
G01*
G75*
G02X268746Y171254I2480*
G01*
X275076Y177585*
Y186344*
X234650*
Y184041*
G75*
G02X234735Y183400I-2408J-643*
G01*
G75*
G02X229775I-2480*
G01*
G75*
G02X229898Y184173I2483J0*
G01*
Y186344*
X224650*
Y184110*
G75*
G02X224754Y183402I-2359J-708*
G01*
G75*
G02Y183400I-2707J-1*
G01*
G75*
G02X219794I-2480*
G01*
G75*
G02Y183402I2707J1*
G01*
G75*
G02X219898Y184110I2463*
G01*
Y186344*
X213056*
Y181431*
Y181431*
G75*
G02X210995Y179370I-2061*
G01*
X196920*
G75*
G02X195461Y179976J2060*
G01*
X189092Y186344*
X171587*
Y173144*
G75*
G02X193174Y166864I9880J-6280*
G01*
G75*
G02X187747Y156984I-11707*
G01*
X309046*
G75*
G02X303619Y166864I6280J9880*
G01*
G75*
G02X325206Y173144I11707J0*
G01*
G37*
X208934Y186344D02*
G36*
X208501D01*
G75*
G02X200024I-4238J1780*
G01*
X194921*
X197774Y183492*
X208934*
Y186344*
G37*
X189092D02*
G36*
X178930Y196507D01*
G75*
G02X178324Y197967I1455J1459*
G01*
Y198124*
X171587*
Y186344*
X189092*
G37*
X222608Y198124D02*
G36*
X208859D01*
G75*
G02X199666I-4596*
G01*
X183142*
X194921Y186344*
X200024*
G75*
G02X199666Y188124I4238J1779*
G01*
G75*
G02X208859I4596*
G01*
G75*
G02X208501Y186344I-4596J0*
G01*
X208934*
Y192258*
G75*
G02X209540Y193717I2061*
G01*
X212882Y197059*
G75*
G02X214341Y197665I1459J-1454*
G01*
X222149*
X222608Y198124*
G37*
X275076D02*
G36*
X260398D01*
Y193248*
X252623*
Y193064*
X255305Y190382*
X259392*
G75*
G02X263869Y188911I1997J-1470*
G01*
G75*
G02X259392Y187441I-2480*
G01*
X254696*
G75*
G02X253654Y187873I0J1470*
G01*
X250114Y191413*
G75*
G02X249700Y192222I1039J1042*
G01*
G75*
G02X245875Y192756I-1698J1807*
G01*
X245641*
G75*
G02X244739Y193130I1J1275*
G01*
X241591Y196278*
G75*
G02X241217Y197179I902J902*
G01*
Y198124*
X228437*
X224462Y194149*
G75*
G02X223003Y193543I-1459J1454*
G01*
X215195*
X213056Y191404*
Y186344*
X219898*
Y191770*
X224650*
Y186344*
X229898*
Y191770*
X234650*
Y186344*
X275076*
Y198124*
G37*
X310121D02*
G36*
G75*
G02X309519Y197972I-603J1124D01*
G01*
X298489*
Y197087*
X292792*
Y197972*
X291704*
G75*
G02X291101Y198124I1J1275*
G01*
X289804*
X291816Y196112*
G75*
G02X292011Y195861I-899J-901*
G01*
G75*
G02X293396Y193636I-1095J-2225*
G01*
Y193636*
G75*
G02X288436I-2480*
G01*
G75*
G02X289053Y195272I2481J-1*
G01*
X288026Y196299*
X286580*
Y193248*
X284543*
G75*
G02X285522Y191274I-1500J-1974*
G01*
G75*
G02X280562I-2480*
G01*
G75*
G02X281178Y192909I2481J0*
G01*
Y193248*
X279198*
Y186344*
X325206*
Y198124*
X310121*
G37*
X174222Y208124D02*
G36*
X171587D01*
Y198124*
X178324*
Y202912*
G75*
G02X174222Y208124I2062J5843*
G01*
G37*
X224898D02*
G36*
X224650D01*
Y204955*
X219898*
Y206923*
X219650*
Y204955*
X214898*
Y208124*
X208859*
G75*
G02X199666I-4596*
G01*
X186548*
G75*
G02X182446Y202912I-6163J630*
G01*
Y198820*
X183142Y198124*
X199666*
G75*
G02X208859I4596*
G01*
X222608*
X225213Y200730*
Y204955*
X224898*
Y208124*
G37*
X241060D02*
G36*
X234650D01*
Y204955*
X229898*
Y206923*
X229650*
Y204955*
X229335*
Y199876*
G75*
G02X228730Y198417I-2061*
G01*
X228437Y198124*
X241217*
Y201644*
G75*
G02X241060Y202296I1268J651*
G01*
G75*
G02Y202297I1504J1*
G01*
Y208124*
G37*
X275076D02*
G36*
X260398D01*
Y198124*
X275076*
Y208124*
G37*
X291101Y198124D02*
G36*
G75*
G02X290802Y198346I603J1124D01*
G01*
X286950Y202199*
Y198846*
X288554*
G75*
G02X289455Y198473I-1J-1275*
G01*
X289804Y198124*
X291101*
G37*
X313954Y208124D02*
G36*
X292265D01*
G75*
G02X291052Y207082I-2136J1259*
G01*
G75*
G02X292039Y206622I-528J-2419*
G01*
X292792*
Y207508*
X298489*
Y203189*
X292792*
Y203660*
G75*
G02X290571Y202180I-2270J999*
G01*
X292231Y200520*
X292792*
Y201406*
X298489*
Y200520*
X308991*
X313954Y205482*
Y208124*
G37*
X320044D02*
G36*
Y204075D01*
X316148*
X310420Y198346*
G75*
G02X310121Y198124I-902J902*
G01*
X325206*
Y208124*
X320044*
G37*
X214898D02*
G36*
Y213014D01*
X215213*
Y218124*
X208489*
G75*
G02X200036I-4226*
G01*
X171587*
Y208124*
X174222*
G75*
G02X174190Y208754I6164J631*
G01*
G75*
G02X186580I6195*
G01*
Y208754*
G75*
G02X186548Y208124I-6195J-2*
G01*
X199666*
G75*
G02X208859I4596*
G01*
X214898*
G37*
X224898D02*
G36*
Y213014D01*
X225213*
Y218124*
X219335*
Y213014*
X219650*
Y211045*
X219898*
Y213014*
X224650*
Y208124*
X224898*
G37*
X231981Y218124D02*
G36*
X229335D01*
Y213014*
X229650*
Y211045*
X229898*
Y213014*
X231001*
Y215289*
G75*
G02X231367Y216182I1273*
G01*
G75*
G02X231350Y216470I2496J291*
G01*
G75*
G02X231981Y218124I2480*
G01*
G37*
X241060Y208124D02*
G36*
Y212334D01*
X236202Y217192*
G75*
G02X236309Y216470I-2372J-722*
G01*
G75*
G02X233548Y214007I-2480*
G01*
Y213014*
X234650*
Y208124*
X241060*
G37*
X275076Y218124D02*
G36*
X263253D01*
Y211356*
Y211353*
Y211352*
Y211352*
G75*
G02X262822Y210313I-1470*
G01*
X261838Y209328*
G75*
G02X260795Y208898I-1040J1040*
G01*
X260398*
Y208124*
X275076*
Y218124*
G37*
X302256D02*
G36*
G75*
G02X302451Y217160I-2284J-965D01*
G01*
Y217159*
Y217159*
G75*
G02X298859Y214943I-2480*
G01*
Y214630*
X294546*
G75*
G02X294552Y214502I-1290J-128*
G01*
Y214502*
Y213217*
X298489*
Y212331*
X307022*
X310586Y215894*
G75*
G02X311487Y216268I902J-902*
G01*
X314233*
G75*
G02X320044Y214994I2766J-1274*
G01*
G75*
G02X314233Y213720I-3045*
G01*
X312015*
X308451Y210157*
G75*
G02X307550Y209783I-902J902*
G01*
X298489*
Y208898*
X292792*
Y210234*
X292378Y210648*
G75*
G02X292005Y211549I902J902*
G01*
Y212093*
G75*
G02X291337Y211549I-1875J1621*
G01*
G75*
G02X292609Y209384I-1209J-2165*
G01*
G75*
G02X292265Y208124I-2480J0*
G01*
X313954*
Y210165*
X320044*
Y208124*
X325206*
Y218124*
X302256*
G37*
X215213Y222868D02*
G36*
X186580D01*
Y218150*
X174190*
Y222868*
X171587*
Y218124*
X200036*
G75*
G02X208489I4226*
G01*
X215213*
Y222868*
G37*
X225213D02*
G36*
X224752D01*
G75*
G02X224754Y222772I-2457J-98*
G01*
G75*
G02Y222770I-2707J-1*
G01*
G75*
G02X219794I-2480*
G01*
G75*
G02Y222772I2707J1*
G01*
G75*
G02X219796Y222868I2459J-2*
G01*
X219335*
Y218124*
X225213*
Y222868*
G37*
X231981Y218124D02*
G36*
G75*
G02X235183Y218548I1848J-1654D01*
G01*
G75*
G02X235154Y218832I1407J284*
G01*
Y218833*
Y222868*
X234752*
G75*
G02X234754Y222772I-2457J-98*
G01*
G75*
G02Y222770I-2707J-1*
G01*
G75*
G02X229794I-2480*
G01*
G75*
G02Y222772I2707J1*
G01*
G75*
G02X229796Y222868I2459J-2*
G01*
X229335*
Y218124*
X231981*
G37*
X260608Y222868D02*
G36*
X260398D01*
Y222480*
G75*
G02X260608Y222868I1383J-496*
G01*
G37*
X275076Y218124D02*
G36*
Y221982D01*
G75*
G02X275434Y222868I1275J-1*
G01*
X272228*
X271092Y221731*
G75*
G02X270050Y221299I-1041J1038*
G01*
X263253*
Y218124*
X275076*
G37*
X292450Y222868D02*
G36*
X286580D01*
Y219476*
X289137*
X292450Y222868*
G37*
X304394D02*
G36*
Y222474D01*
G75*
G02X303121Y221201I-1274*
G01*
X298489*
Y220315*
X293957*
X293346Y219689*
X298859*
Y219376*
G75*
G02X302256Y218124I1112J-2216*
G01*
X325206*
Y222868*
X320414*
G75*
G02X313583I-3415*
G01*
X304394*
G37*
X174190Y228124D02*
G36*
X171587D01*
Y222868*
X174190*
Y228124*
G37*
X212579D02*
G36*
X208489D01*
G75*
G02X200036I-4226*
G01*
X186580*
Y222868*
X215213*
Y223081*
X214898*
Y225804*
X212579Y228124*
G37*
X229898D02*
G36*
X229650D01*
Y223081*
X229335*
Y222868*
X229796*
G75*
G02X229898Y223480I2462J-96*
G01*
Y228124*
G37*
X219796Y222868D02*
G36*
G75*
G02X219898Y223480I2462J-96D01*
G01*
Y228124*
X219650*
Y223081*
X219335*
Y222868*
X219796*
G37*
X224898Y228124D02*
G36*
X224650D01*
Y223480*
G75*
G02X224752Y222868I-2360J-708*
G01*
X225213*
Y223081*
X224898*
Y228124*
G37*
X235154Y222868D02*
G36*
Y224933D01*
X234650Y225437*
Y223480*
G75*
G02X234752Y222868I-2360J-708*
G01*
X235154*
G37*
X241320Y228124D02*
G36*
X240248D01*
G75*
G02X239434Y227335I-2088J1339*
G01*
Y226187*
G75*
G02X239622Y226427I1094J-665*
G01*
X241320Y228124*
G37*
X278324D02*
G36*
X272702D01*
Y223951*
Y223950*
G75*
G02X272269Y222909I-1470*
G01*
X272228Y222868*
X275434*
G75*
G02X275449Y222883I917J-879*
G01*
X276629Y224063*
G75*
G02X277530Y224437I902J-902*
G01*
X278324*
Y228124*
G37*
X252143D02*
G36*
X247335D01*
G75*
G02X244344Y227153I-2088J1339*
G01*
X243786Y226594*
G75*
G02X243026Y226228I-900J897*
G01*
X241796Y224998*
Y223183*
G75*
G02X243549Y223660I1482J-1987*
G01*
X245133Y225244*
G75*
G02X246034Y225618I902J-902*
G01*
X250759*
G75*
G02X251660Y225244I-1J-1275*
G01*
X251772Y225132*
Y227858*
X252143*
Y228124*
G37*
X269761D02*
G36*
X260398D01*
Y227858*
X260769*
Y223587*
X260398*
Y222868*
X260608*
G75*
G02X260744Y223024I1173J-885*
G01*
X261528Y223808*
G75*
G02X262570Y224240I1041J-1038*
G01*
X269441*
X269761Y224560*
Y228124*
G37*
X301847D02*
G36*
X298489D01*
Y226417*
X292792*
Y228124*
X291346*
G75*
G02X291427Y227494I-2399J-629*
G01*
G75*
G02X288344Y225089I-2480*
G01*
X288077Y224822*
G75*
G02X287176Y224449I-902J902*
G01*
X286580*
Y222868*
X292450*
X292792Y223219*
Y224634*
X298489*
Y223748*
X301847*
Y228124*
G37*
X304394D02*
G36*
Y222868D01*
X313583*
G75*
G02X320414I3415*
G01*
X325206*
Y228124*
X304394*
G37*
X190462Y238124D02*
G36*
X171587D01*
Y228124*
X174190*
Y230539*
X182878*
X190462Y238124*
G37*
X212579Y228124D02*
G36*
X210721Y229982D01*
G75*
G02X210115Y231441I1455J1459*
G01*
Y238124*
X208489*
G75*
G02X200036I-4226*
G01*
X196291*
X186580Y228412*
Y228124*
X200036*
G75*
G02X208489I4226*
G01*
X212579*
G37*
X252143D02*
G36*
Y230047D01*
X252425*
X246571Y235901*
G75*
G02X246221Y236457I1033J1038*
G01*
X243186*
Y238124*
X214237*
Y232295*
X215392Y231140*
X215863*
Y233400*
G75*
G02X216284Y234413I1430*
G01*
X217068Y235197*
G75*
G02X218081Y235618I1013J-1009*
G01*
X233042*
G75*
G02X234056Y235197J-1430*
G01*
X236415Y232838*
G75*
G02X236835Y231825I-1009J-1013*
G01*
Y231559*
G75*
G02X240640Y229463I1325J-2096*
G01*
G75*
G02X240248Y228124I-2480J0*
G01*
X241320*
X241590Y228394*
G75*
G02X242349Y228760I900J-897*
G01*
X242782Y229193*
G75*
G02X242767Y229463I2556J277*
G01*
G75*
G02X247727I2480*
G01*
G75*
G02X247335Y228124I-2480J0*
G01*
X252143*
G37*
X229898D02*
G36*
Y231140D01*
X233973*
Y231232*
X232449Y232756*
X218725*
Y231140*
X219650*
Y228124*
X219898*
Y231140*
X224650*
Y228124*
X224898*
Y231140*
X229650*
Y228124*
X229898*
G37*
X278324D02*
G36*
Y230047D01*
X285369*
X286149Y230827*
G75*
G02X286074Y231431I2404J604*
G01*
G75*
G02X286729Y233110I2478*
G01*
X280680*
G75*
G02X279638Y233543I0J1470*
G01*
X277673Y235507*
G75*
G02X277241Y236549I1038J1041*
G01*
Y236549*
Y238124*
X275261*
Y236850*
X272702*
Y228124*
X278324*
G37*
X267202Y238124D02*
G36*
X251245D01*
Y236457*
X250175*
X256584Y230047*
X260398*
Y228124*
X269761*
Y236850*
X267202*
Y238124*
G37*
X301847D02*
G36*
X280182D01*
Y237158*
X281289Y236051*
X292881*
G75*
G02X293924Y235620I3J-1470*
G01*
X296680Y232865*
G75*
G02X297111Y231825I-1039J-1039*
G01*
Y231825*
Y231824*
Y231822*
Y230736*
X298489*
Y228124*
X301847*
Y238124*
G37*
X292792Y228124D02*
G36*
Y230736D01*
X294170*
Y231216*
X292276Y233110*
X290379*
G75*
G02X291034Y231431I-1824J-1679*
G01*
G75*
G02X290239Y229611I-2480*
G01*
G75*
G02X291346Y228124I-1291J-2117*
G01*
X292792*
G37*
X304394Y238124D02*
G36*
Y228124D01*
X325206*
Y238124*
X304394*
G37*
X243186D02*
G36*
Y241181D01*
X242485*
G75*
G02X241025Y241787J2060*
G01*
X236519Y246293*
X234650*
Y244325*
X229898*
Y252384*
X230213*
Y254567*
X229383*
Y252384*
X229650*
Y244325*
X224898*
Y252384*
X225166*
Y254520*
X224383*
Y252384*
X224650*
Y244325*
X219898*
Y252384*
X220166*
Y254567*
X219335*
Y252384*
X219650*
Y244325*
X214898*
Y247054*
X209649Y252303*
X205089*
G75*
G02X203028Y254364J2061*
G01*
Y254364*
Y260959*
X189755*
G75*
G02X173180I-8288J8268*
G01*
X171587*
Y238124*
X190462*
X198906Y246567*
G75*
G02X200365Y247173I1459J-1454*
G01*
X212176*
G75*
G02X214237Y245113J-2061*
G01*
Y245112*
Y238124*
X243186*
G37*
X210115D02*
G36*
Y243051D01*
X201219*
X196291Y238124*
X200036*
G75*
G02X208489I4226*
G01*
X210115*
G37*
X242816Y260959D02*
G36*
X207150D01*
Y256425*
X210503*
G75*
G02X211962Y255819J-2060*
G01*
X215213Y252568*
Y256628*
Y256628*
G75*
G02X217274Y258689I2061*
G01*
X221831*
G75*
G02X222274Y258736I443J-2052*
G01*
X227274*
G75*
G02X227718Y258689I1J-2099*
G01*
X232274*
G75*
G02X234335Y256628J-2061*
G01*
Y256628*
Y252384*
X234650*
Y250415*
X237373*
G75*
G02X238832Y249809J-2060*
G01*
X243186Y245456*
Y250028*
X244957*
Y250719*
Y250722*
Y250722*
Y250723*
G75*
G02X245388Y251762I1470*
G01*
X246963Y253337*
G75*
G02X247041Y253409I905J-895*
G01*
X242816*
Y260959*
G37*
X277241Y238124D02*
G36*
Y249720D01*
X276134Y250827*
X248612*
X247898Y250113*
Y250028*
X251245*
Y246054*
G75*
G02X255220Y242848I695J-3206*
G01*
G75*
G02X251245Y239643I-3280*
G01*
Y238124*
X267202*
Y250421*
X275261*
Y238124*
X277241*
G37*
X304394D02*
G36*
X325206D01*
Y260959*
X323613*
G75*
G02X307038I-8288J8268*
G01*
X275631*
Y253803*
X266831*
Y260959*
X251615*
Y253768*
X276743*
G75*
G02X277785Y253335I0J-1470*
G01*
X279750Y251370*
G75*
G02X280182Y250329I-1038J-1041*
G01*
Y250329*
Y238124*
X301847*
Y239171*
X298694Y242324*
G75*
G02X287674Y245604I-5022J3280*
G01*
G75*
G02X299670I5998*
G01*
G75*
G02X299638Y244983I-6141J7*
G01*
X304021Y240600*
G75*
G02X304394Y239699I-902J-902*
G01*
Y238124*
G37*
X173180Y260959D02*
G36*
G75*
G02X171587Y262947I8288J8269D01*
G01*
Y260959*
X173180*
G37*
X203028Y271195D02*
G36*
X193007D01*
G75*
G02X193174Y269226I-11541J-1968*
G01*
G75*
G02X189755Y260959I-11707J0*
G01*
X203028*
Y271195*
G37*
X303785D02*
G36*
X300040D01*
G75*
G02X287304I-6368*
G01*
X263154*
G75*
G02X257474Y270118I-3129J984*
G01*
X207150*
Y260959*
X242816*
Y267720*
X251615*
Y260959*
X266831*
Y268114*
X275631*
Y260959*
X307038*
G75*
G02X303619Y269226I8288J8268*
G01*
G75*
G02X303785Y271195I11707J1*
G01*
G37*
X325206Y262947D02*
G36*
G75*
G02X323613Y260959I-9880J6281D01*
G01*
X325206*
Y262947*
G37*
X309046Y279106D02*
G36*
X187747D01*
G75*
G02X193007Y271195I-6279J-9880*
G01*
X203028*
Y272179*
Y272180*
G75*
G02X205089Y274240I2061*
G01*
X257474*
G75*
G02X263306Y272179I2552J-2061*
G01*
G75*
G02X263154Y271195I-3280*
G01*
X287304*
G75*
G02X300040I6368*
G01*
X303785*
G75*
G02X309046Y279106I11540J-1969*
G01*
G37*
X325456Y389343D02*
G75*
G02X303619Y395211I-10130J5868D01*
G01*
G75*
G02X309458Y405341I11707*
G01*
X187335*
G75*
G02X193174Y395211I-5868J-10130*
G01*
G75*
G02X171337Y389343I-11707*
G01*
Y298716*
G75*
G02X193174Y292848I10130J-5868*
G01*
G75*
G02X187335Y282719I-11707*
G01*
X309458*
G75*
G02X303619Y292848I5868J10130*
G01*
G75*
G02X325456Y298716I11707*
G01*
Y389343*
X313583Y348852D02*
G75*
G02X320414I3415D01*
G01*
G75*
G02X313583I-3415*
G01*
X314233Y342252D02*
G75*
G02X320044Y340978I2766J-1274D01*
G01*
G75*
G02X314233Y339705I-3045*
G01*
X312015*
X308451Y336141*
G75*
G02X307550Y335768I-901J900*
G01*
X298489*
Y334882*
X292792*
Y336219*
X292378Y336632*
G75*
G02X292005Y337533I900J901*
G01*
Y338077*
G75*
G02X291337Y337533I-1876J1622*
G01*
G75*
G02X291052Y333067I-1209J-2165*
G01*
G75*
G02X292039Y332606I-530J-2423*
G01*
X292792*
Y333492*
X298489*
Y329173*
X292792*
Y329644*
G75*
G02X290571Y328164I-2270J999*
G01*
X292231Y326504*
X292792*
Y327390*
X298489*
Y326504*
X308991*
X313954Y331467*
Y336150*
X320044*
Y330059*
X316148*
X310420Y324330*
G75*
G02X309519Y323957I-901J900*
G01*
X298489*
Y323071*
X292792*
Y323957*
X291704*
G75*
G02X290802Y324330J1274*
G01*
X286950Y328183*
Y324831*
X288554*
G75*
G02X289455Y324457J-1274*
G01*
X291816Y322096*
G75*
G02X292011Y321845I-899J-902*
G01*
G75*
G02X293396Y319620I-1095J-2225*
G01*
G75*
G02X288436I-2480*
G01*
G75*
G02X289053Y321257I2480J0*
G01*
X288026Y322283*
X286580*
Y319232*
X284543*
G75*
G02X285522Y317258I-1500J-1974*
G01*
G75*
G02X280562I-2480*
G01*
G75*
G02X281178Y318893I2480*
G01*
Y319232*
X279198*
Y292848*
G75*
G02X278066Y291583I-1274*
G01*
X272132Y285649*
G75*
G02X271231Y285276I-901J900*
G01*
X239341*
G75*
G02X238440Y285649J1274*
G01*
X235685Y288404*
G75*
G02X235312Y289305I900J901*
G01*
Y306234*
G75*
G02X235685Y307135I1274*
G01*
X235755Y307205*
G75*
G02X235680Y307809I2405J604*
G01*
G75*
G02X240640I2480*
G01*
G75*
G02X237859Y305348I-2480*
G01*
Y289833*
X239869Y287823*
X270704*
X276629Y293748*
G75*
G02X276650Y293769I907J-903*
G01*
Y301541*
X270785Y295676*
G75*
G02X266206Y293774I-2310J-902*
G01*
Y288819*
X261887*
Y291152*
X261502Y290767*
G75*
G02X260598Y290394I-901J900*
G01*
X260103*
Y288819*
X255784*
Y294516*
X259721*
Y295906*
X255784*
Y297283*
X254724*
G75*
G02X250730I-1997J1470*
G01*
X250064*
Y295906*
X246127*
Y294516*
X250064*
Y288819*
X245745*
Y290394*
X245641*
G75*
G02X244739Y290767J1274*
G01*
X243961Y291545*
Y288819*
X239643*
Y294516*
X240528*
Y295906*
X239643*
Y301602*
X243580*
Y301904*
G75*
G02X243953Y302805I1274*
G01*
X244810Y303662*
G75*
G02X244735Y304266I2405J604*
G01*
G75*
G02X249695I2480*
G01*
G75*
G02X246611Y301861I-2480*
G01*
X246353Y301602*
X250064*
Y300224*
X250730*
G75*
G02X254724I1997J-1470*
G01*
X255784*
Y301602*
X259721*
Y303085*
G75*
G02X260095Y303986I1274*
G01*
X260881Y304772*
G75*
G02X261617Y305135I901J-900*
G01*
G75*
G02X266231Y303872I2134J-1263*
G01*
G75*
G02X264750Y301602I-2480*
G01*
X266206*
Y295906*
X265320*
Y294516*
X266009*
G75*
G02X268746Y297239I2467J257*
G01*
X275076Y303569*
Y347967*
G75*
G02X275449Y348868I1274*
G01*
X276629Y350048*
G75*
G02X277530Y350421I901J-900*
G01*
X278324*
Y356031*
X285369*
X286149Y356811*
G75*
G02X286729Y359094I2405J604*
G01*
X280680*
G75*
G02X279638Y359527I0J1470*
G01*
X277673Y361492*
G75*
G02X277241Y362533I1038J1041*
G01*
Y375704*
X276134Y376811*
X248612*
X247898Y376098*
Y376012*
X251245*
Y372038*
G75*
G02X255220Y368833I695J-3206*
G01*
G75*
G02X251245Y365627I-3280*
G01*
Y362441*
X250175*
X256584Y356031*
X260398*
Y353843*
X260769*
Y349571*
X260398*
Y348464*
G75*
G02X260744Y349008I1384J-497*
G01*
X261528Y349792*
G75*
G02X262570Y350224I1041J-1038*
G01*
X269441*
X269761Y350544*
Y362835*
X267202*
Y376406*
X275261*
Y362835*
X272702*
Y349935*
G75*
G02X272269Y348893I-1470J0*
G01*
X271092Y347716*
G75*
G02X270050Y347283I-1041J1038*
G01*
X263253*
Y337340*
G75*
G02Y337337I-641J-1*
G01*
G75*
G02X262822Y336297I-1470J-1*
G01*
X261838Y335313*
G75*
G02X260795Y334882I-1040J1040*
G01*
X260398*
Y319232*
X252623*
Y319048*
X255305Y316366*
X259392*
G75*
G02X263869Y314896I1997J-1470*
G01*
G75*
G02X259392Y313425I-2480*
G01*
X254696*
G75*
G02X253654Y313857I0J1470*
G01*
X250114Y317397*
G75*
G02X249700Y318206I1038J1041*
G01*
G75*
G02X245875Y318740I-1698J1808*
G01*
X245641*
G75*
G02X244739Y319114J1274*
G01*
X241591Y322262*
G75*
G02X241217Y323163I900J901*
G01*
Y327629*
G75*
G02X241060Y328281I1274J653*
G01*
Y338319*
X236202Y343176*
G75*
G02X233548Y339991I-2372J-722*
G01*
Y338998*
X234650*
Y330939*
X229898*
Y332907*
X229650*
Y330939*
X229335*
Y325860*
G75*
G02X228730Y324401I-2061*
G01*
X224462Y320133*
G75*
G02X223003Y319528I-1459J1455*
G01*
X215195*
X213056Y317389*
Y307415*
G75*
G02X210995Y305354I-2061*
G01*
X196920*
G75*
G02X195461Y305960J2061*
G01*
X178930Y322491*
G75*
G02X178324Y323951I1455J1459*
G01*
Y328896*
G75*
G02X174190Y334738I2061J5842*
G01*
G75*
G02X186580I6195*
G01*
G75*
G02X182446Y328896I-6195*
G01*
Y324804*
X197774Y309476*
X208934*
Y318242*
G75*
G02X209540Y319702I2061*
G01*
X212882Y323044*
G75*
G02X214341Y323650I1459J-1455*
G01*
X222149*
X225213Y326714*
Y330939*
X224898*
Y338998*
X225213*
Y349065*
X224898*
Y357124*
X229650*
Y349065*
X229335*
Y338998*
X229650*
Y337029*
X229898*
Y338998*
X231001*
Y341274*
G75*
G02X231367Y342167I1274J0*
G01*
G75*
G02X231350Y342455I2465J289*
G01*
G75*
G02X235183Y344533I2480*
G01*
G75*
G02X235154Y344817I1404J283*
G01*
Y350917*
X234650Y351421*
Y349464*
G75*
G02X234754Y348754I-2376J-710*
G01*
G75*
G02X229794I-2480*
G01*
G75*
G02X229898Y349464I2480*
G01*
Y357124*
X233973*
Y357216*
X232449Y358740*
X218725*
Y357124*
X219650*
Y349065*
X219335*
Y338998*
X219650*
Y337029*
X219898*
Y338998*
X224650*
Y330939*
X219898*
Y332907*
X219650*
Y330939*
X214898*
Y338998*
X215213*
Y349065*
X214898*
Y351789*
X210721Y355966*
G75*
G02X210115Y357426I1455J1459*
G01*
Y369035*
X201219*
X186580Y354396*
Y344134*
X174190*
Y356524*
X182878*
X198906Y372552*
G75*
G02X200365Y373157I1459J-1455*
G01*
X212176*
G75*
G02X214237Y371096J-2061*
G01*
Y358279*
X215392Y357124*
X215863*
Y359384*
G75*
G02X216284Y360397I1431J0*
G01*
X217068Y361181*
G75*
G02X218081Y361602I1014J-1010*
G01*
X233042*
G75*
G02X234056Y361181I0J-1431*
G01*
X236415Y358822*
G75*
G02X236835Y357809I-1010J-1014*
G01*
Y357543*
G75*
G02X240640Y355447I1325J-2096*
G01*
G75*
G02X239434Y353319I-2480*
G01*
Y352171*
G75*
G02X239622Y352411I1089J-661*
G01*
X241590Y354378*
G75*
G02X242349Y354744I901J-900*
G01*
X242782Y355177*
G75*
G02X242767Y355447I2464J272*
G01*
G75*
G02X247727I2480*
G01*
G75*
G02X244344Y353137I-2480*
G01*
X243786Y352578*
G75*
G02X243026Y352213I-901J900*
G01*
X241796Y350982*
Y349167*
G75*
G02X243549Y349644I1482J-1989*
G01*
X245133Y351229*
G75*
G02X246034Y351602I901J-900*
G01*
X250759*
G75*
G02X251660Y351229J-1274*
G01*
X251772Y351116*
Y353843*
X252143*
Y356031*
X252425*
X246571Y361885*
G75*
G02X246221Y362441I1039J1041*
G01*
X243186*
Y367165*
X242485*
G75*
G02X241025Y367771J2061*
G01*
X236519Y372277*
X234650*
Y370309*
X229898*
Y378368*
X230213*
Y380551*
X229383*
Y378368*
X229650*
Y370309*
X224898*
Y378368*
X225166*
Y380504*
X224383*
Y378368*
X224650*
Y370309*
X219898*
Y378368*
X220166*
Y380551*
X219335*
Y378368*
X219650*
Y370309*
X214898*
Y373038*
X209649Y378287*
X205089*
G75*
G02X203028Y380348J2061*
G01*
Y398163*
G75*
G02X205089Y400224I2061*
G01*
X257474*
G75*
G02X263306Y398163I2552J-2061*
G01*
G75*
G02X257474Y396102I-3280*
G01*
X207150*
Y382409*
X210503*
G75*
G02X211962Y381804J-2061*
G01*
X215213Y378552*
Y382612*
G75*
G02X217274Y384673I2061*
G01*
X221831*
G75*
G02X222274Y384720I444J-2061*
G01*
X227274*
G75*
G02X227718Y384673J-2108*
G01*
X232274*
G75*
G02X234335Y382612J-2061*
G01*
Y378368*
X234650*
Y376399*
X237373*
G75*
G02X238832Y375793J-2061*
G01*
X243186Y371440*
Y376012*
X244957*
Y376704*
G75*
G02Y376706I641J1*
G01*
G75*
G02Y376707I654J0*
G01*
G75*
G02X245388Y377746I1470*
G01*
X246963Y379321*
G75*
G02X247041Y379394I1040J-1041*
G01*
X242816*
Y393705*
X251615*
Y379752*
X276743*
G75*
G02X277785Y379320I0J-1470*
G01*
X279750Y377355*
G75*
G02X280182Y376313I-1038J-1041*
G01*
Y363143*
X281289Y362035*
X292881*
G75*
G02X293924Y361605I3J-1470*
G01*
X296680Y358849*
G75*
G02X297111Y357809I-1040J-1040*
G01*
G75*
G02Y357808I-627J0*
G01*
G75*
G02Y357806I-632J-1*
G01*
Y356720*
X298489*
Y352402*
X292792*
Y356720*
X294170*
Y357200*
X292276Y359094*
X290379*
G75*
G02X290239Y355596I-1825J-1679*
G01*
G75*
G02X288344Y351073I-1291J-2117*
G01*
X288077Y350807*
G75*
G02X287176Y350433I-901J900*
G01*
X286580*
Y345461*
X289137*
X292792Y349203*
Y350618*
X298489*
Y349732*
X301847*
Y365156*
X298694Y368309*
G75*
G02X287674Y371589I-5022J3280*
G01*
G75*
G02X299670I5998*
G01*
G75*
G02X299638Y370967I-5998J0*
G01*
X304021Y366584*
G75*
G02X304394Y365683I-900J-901*
G01*
Y348459*
G75*
G02X303121Y347185I-1274*
G01*
X298489*
Y346299*
X293957*
X293346Y345673*
X298859*
Y345360*
G75*
G02X302451Y343144I1112J-2217*
G01*
G75*
G02X298859Y340927I-2480*
G01*
Y340614*
X294546*
G75*
G02X294552Y340486I-1267J-126*
G01*
Y339201*
X298489*
Y338315*
X307022*
X310586Y341878*
G75*
G02X311487Y342252I901J-900*
G01*
X314233*
X234650Y310025D02*
G75*
G02X234735Y309384I-2396J-641D01*
G01*
G75*
G02X229775I-2480*
G01*
G75*
G02X229898Y310157I2480*
G01*
Y317754*
X234650*
Y310025*
X224650Y310094D02*
G75*
G02X224754Y309384I-2376J-710D01*
G01*
G75*
G02X219794I-2480*
G01*
G75*
G02X219898Y310094I2480*
G01*
Y317754*
X224650*
Y310094*
Y349464D02*
G75*
G02X224754Y348754I-2376J-710D01*
G01*
G75*
G02X219794I-2480*
G01*
G75*
G02X219898Y349464I2480*
G01*
Y357124*
X224650*
Y349464*
X199666Y314108D02*
G75*
G02X208859I4596D01*
G01*
G75*
G02X199666I-4596*
G01*
Y324108D02*
G75*
G02X208859I4596D01*
G01*
G75*
G02X199666I-4596*
G01*
Y334108D02*
G75*
G02X208859I4596D01*
G01*
G75*
G02X199666I-4596*
G01*
X200036Y344108D02*
G75*
G02X208489I4226D01*
G01*
G75*
G02X200036I-4226*
G01*
Y354108D02*
G75*
G02X208489I4226D01*
G01*
G75*
G02X200036I-4226*
G01*
Y364108D02*
G75*
G02X208489I4226D01*
G01*
G75*
G02X200036I-4226*
G01*
X266831Y394098D02*
X275631D01*
Y379787*
X266831*
Y394098*
X287304Y397179D02*
G75*
G02X300040I6368D01*
G01*
G75*
G02X287304I-6368*
G01*
X325206Y299128D02*
G36*
Y312329D01*
X279198*
Y292848*
G75*
G02X278066Y291583I-1274J1*
G01*
X272132Y285649*
G75*
G02X271231Y285276I-902J902*
G01*
X239341*
G75*
G02X238440Y285649I1J1275*
G01*
X235685Y288404*
G75*
G02X235312Y289305I902J902*
G01*
Y306234*
G75*
G02X235685Y307135I1275J-1*
G01*
X235755Y307205*
G75*
G02X235680Y307809I2416J606*
G01*
G75*
G02X240640I2480*
G01*
Y307809*
G75*
G02X237859Y305348I-2480*
G01*
Y289833*
X239869Y287823*
X270704*
X276629Y293748*
G75*
G02X276650Y293769I564J-553*
G01*
Y301541*
X270785Y295676*
G75*
G02X270955Y294774I-2310J-903*
G01*
G75*
G02X266206Y293774I-2480*
G01*
Y288819*
X261887*
Y291152*
X261502Y290767*
G75*
G02X260598Y290394I-902J902*
G01*
X260103*
Y288819*
X255784*
Y294516*
X259721*
Y295906*
X255784*
Y297283*
X254724*
G75*
G02X250730I-1997J1470*
G01*
X250064*
Y295906*
X246127*
Y294516*
X250064*
Y288819*
X245745*
Y290394*
X245641*
G75*
G02X244739Y290767I1J1275*
G01*
X243961Y291545*
Y288819*
X239643*
Y294516*
X240528*
Y295906*
X239643*
Y301602*
X243580*
Y301904*
G75*
G02X243953Y302805I1275J-1*
G01*
X244810Y303662*
G75*
G02X244735Y304266I2416J606*
G01*
G75*
G02X249695I2480*
G01*
G75*
G02X246611Y301861I-2480*
G01*
X246353Y301602*
X250064*
Y300224*
X250730*
G75*
G02X254724I1997J-1470*
G01*
X255784*
Y301602*
X259721*
Y303085*
G75*
G02X260095Y303986I1275J-1*
G01*
X260881Y304772*
G75*
G02X261617Y305135I901J-900*
G01*
G75*
G02X266231Y303872I2134J-1263*
G01*
G75*
G02Y303871I-3007J0*
G01*
G75*
G02X264750Y301602I-2479*
G01*
X266206*
Y295906*
X265320*
Y294516*
X266009*
G75*
G02X265995Y294774I2467J257*
G01*
G75*
G02X268746Y297239I2480*
G01*
X275076Y303569*
Y312329*
X234650*
Y310025*
G75*
G02X234735Y309384I-2408J-643*
G01*
G75*
G02X229775I-2480*
G01*
G75*
G02X229898Y310157I2483J0*
G01*
Y312329*
X224650*
Y310094*
G75*
G02X224754Y309386I-2359J-708*
G01*
G75*
G02Y309384I-2707J-1*
G01*
G75*
G02X219794I-2480*
G01*
G75*
G02Y309386I2707J1*
G01*
G75*
G02X219898Y310094I2463*
G01*
Y312329*
X213056*
Y307415*
Y307415*
G75*
G02X210995Y305354I-2061*
G01*
X196920*
G75*
G02X195461Y305960J2060*
G01*
X189092Y312329*
X171587*
Y299128*
G75*
G02X193174Y292848I9880J-6280*
G01*
G75*
G02X187747Y282969I-11707*
G01*
X309046*
G75*
G02X303619Y292848I6280J9880*
G01*
G75*
G02X325206Y299128I11707J0*
G01*
G37*
X208934Y312329D02*
G36*
X208501D01*
G75*
G02X200024I-4238J1780*
G01*
X194921*
X197774Y309476*
X208934*
Y312329*
G37*
X189092D02*
G36*
X178930Y322491D01*
G75*
G02X178324Y323951I1455J1459*
G01*
Y324108*
X171587*
Y312329*
X189092*
G37*
X222608Y324108D02*
G36*
X208859D01*
G75*
G02X199666I-4596*
G01*
X183142*
X194921Y312329*
X200024*
G75*
G02X199666Y314108I4238J1779*
G01*
G75*
G02X208859I4596*
G01*
G75*
G02X208501Y312329I-4596J0*
G01*
X208934*
Y318242*
G75*
G02X209540Y319702I2061*
G01*
X212882Y323044*
G75*
G02X214341Y323650I1459J-1454*
G01*
X222149*
X222608Y324108*
G37*
X275076D02*
G36*
X260398D01*
Y319232*
X252623*
Y319048*
X255305Y316366*
X259392*
G75*
G02X263869Y314896I1997J-1470*
G01*
G75*
G02X259392Y313425I-2480*
G01*
X254696*
G75*
G02X253654Y313857I0J1470*
G01*
X250114Y317397*
G75*
G02X249700Y318206I1039J1042*
G01*
G75*
G02X245875Y318740I-1698J1807*
G01*
X245641*
G75*
G02X244739Y319114I1J1275*
G01*
X241591Y322262*
G75*
G02X241217Y323163I902J902*
G01*
Y324108*
X228437*
X224462Y320133*
G75*
G02X223003Y319528I-1459J1454*
G01*
X215195*
X213056Y317389*
Y312329*
X219898*
Y317754*
X224650*
Y312329*
X229898*
Y317754*
X234650*
Y312329*
X275076*
Y324108*
G37*
X310121D02*
G36*
G75*
G02X309519Y323957I-603J1124D01*
G01*
X298489*
Y323071*
X292792*
Y323957*
X291704*
G75*
G02X291101Y324108I1J1275*
G01*
X289804*
X291816Y322096*
G75*
G02X292011Y321845I-899J-901*
G01*
G75*
G02X293396Y319620I-1095J-2225*
G01*
Y319620*
G75*
G02X288436I-2480*
G01*
G75*
G02X289053Y321257I2481J-1*
G01*
X288026Y322283*
X286580*
Y319232*
X284543*
G75*
G02X285522Y317258I-1500J-1974*
G01*
G75*
G02X280562I-2480*
G01*
G75*
G02X281178Y318893I2481J0*
G01*
Y319232*
X279198*
Y312329*
X325206*
Y324108*
X310121*
G37*
X174222Y334108D02*
G36*
X171587D01*
Y324108*
X178324*
Y328896*
G75*
G02X174222Y334108I2062J5843*
G01*
G37*
X224898D02*
G36*
X224650D01*
Y330939*
X219898*
Y332907*
X219650*
Y330939*
X214898*
Y334108*
X208859*
G75*
G02X199666I-4596*
G01*
X186548*
G75*
G02X182446Y328896I-6163J630*
G01*
Y324804*
X183142Y324108*
X199666*
G75*
G02X208859I4596*
G01*
X222608*
X225213Y326714*
Y330939*
X224898*
Y334108*
G37*
X241060D02*
G36*
X234650D01*
Y330939*
X229898*
Y332907*
X229650*
Y330939*
X229335*
Y325860*
G75*
G02X228730Y324401I-2061*
G01*
X228437Y324108*
X241217*
Y327629*
G75*
G02X241060Y328280I1268J651*
G01*
G75*
G02Y328281I1504J1*
G01*
Y334108*
G37*
X275076D02*
G36*
X260398D01*
Y324108*
X275076*
Y334108*
G37*
X291101Y324108D02*
G36*
G75*
G02X290802Y324330I603J1124D01*
G01*
X286950Y328183*
Y324831*
X288554*
G75*
G02X289455Y324457I-1J-1275*
G01*
X289804Y324108*
X291101*
G37*
X313954Y334108D02*
G36*
X292265D01*
G75*
G02X291052Y333067I-2136J1259*
G01*
G75*
G02X292039Y332606I-528J-2419*
G01*
X292792*
Y333492*
X298489*
Y329173*
X292792*
Y329644*
G75*
G02X290571Y328164I-2270J999*
G01*
X292231Y326504*
X292792*
Y327390*
X298489*
Y326504*
X308991*
X313954Y331467*
Y334108*
G37*
X320044D02*
G36*
Y330059D01*
X316148*
X310420Y324330*
G75*
G02X310121Y324108I-902J902*
G01*
X325206*
Y334108*
X320044*
G37*
X214898D02*
G36*
Y338998D01*
X215213*
Y344108*
X208489*
G75*
G02X200036I-4226*
G01*
X171587*
Y334108*
X174222*
G75*
G02X174190Y334738I6164J631*
G01*
G75*
G02X186580I6195*
G01*
Y334738*
G75*
G02X186548Y334108I-6195J-2*
G01*
X199666*
G75*
G02X208859I4596*
G01*
X214898*
G37*
X224898D02*
G36*
Y338998D01*
X225213*
Y344108*
X219335*
Y338998*
X219650*
Y337029*
X219898*
Y338998*
X224650*
Y334108*
X224898*
G37*
X231981Y344108D02*
G36*
X229335D01*
Y338998*
X229650*
Y337029*
X229898*
Y338998*
X231001*
Y341274*
G75*
G02X231367Y342167I1273*
G01*
G75*
G02X231350Y342455I2496J291*
G01*
G75*
G02X231981Y344108I2480*
G01*
G37*
X241060Y334108D02*
G36*
Y338319D01*
X236202Y343176*
G75*
G02X236309Y342455I-2372J-722*
G01*
G75*
G02X233548Y339991I-2480*
G01*
Y338998*
X234650*
Y334108*
X241060*
G37*
X275076Y344108D02*
G36*
X263253D01*
Y337340*
Y337337*
Y337337*
Y337336*
G75*
G02X262822Y336297I-1470*
G01*
X261838Y335313*
G75*
G02X260795Y334882I-1040J1040*
G01*
X260398*
Y334108*
X275076*
Y344108*
G37*
X302256D02*
G36*
G75*
G02X302451Y343144I-2284J-965D01*
G01*
Y343144*
Y343143*
G75*
G02X298859Y340927I-2480*
G01*
Y340614*
X294546*
G75*
G02X294552Y340487I-1290J-128*
G01*
Y340486*
Y339201*
X298489*
Y338315*
X307022*
X310586Y341878*
G75*
G02X311487Y342252I902J-902*
G01*
X314233*
G75*
G02X320044Y340978I2766J-1274*
G01*
G75*
G02X314233Y339705I-3045*
G01*
X312015*
X308451Y336141*
G75*
G02X307550Y335768I-902J902*
G01*
X298489*
Y334882*
X292792*
Y336219*
X292378Y336632*
G75*
G02X292005Y337533I902J902*
G01*
Y338077*
G75*
G02X291337Y337533I-1875J1621*
G01*
G75*
G02X292609Y335368I-1209J-2165*
G01*
G75*
G02X292265Y334108I-2480J0*
G01*
X313954*
Y336150*
X320044*
Y334108*
X325206*
Y344108*
X302256*
G37*
X215213Y348852D02*
G36*
X186580D01*
Y344134*
X174190*
Y348852*
X171587*
Y344108*
X200036*
G75*
G02X208489I4226*
G01*
X215213*
Y348852*
G37*
X225213D02*
G36*
X224752D01*
G75*
G02X224754Y348756I-2457J-98*
G01*
G75*
G02Y348754I-2707J-1*
G01*
G75*
G02X219794I-2480*
G01*
G75*
G02Y348756I2707J1*
G01*
G75*
G02X219796Y348852I2459J-2*
G01*
X219335*
Y344108*
X225213*
Y348852*
G37*
X231981Y344108D02*
G36*
G75*
G02X235183Y344533I1848J-1654D01*
G01*
G75*
G02X235154Y344817I1407J284*
G01*
Y344817*
Y348852*
X234752*
G75*
G02X234754Y348756I-2457J-98*
G01*
G75*
G02Y348754I-2707J-1*
G01*
G75*
G02X229794I-2480*
G01*
G75*
G02Y348756I2707J1*
G01*
G75*
G02X229796Y348852I2459J-2*
G01*
X229335*
Y344108*
X231981*
G37*
X260608Y348852D02*
G36*
X260398D01*
Y348464*
G75*
G02X260608Y348852I1383J-496*
G01*
G37*
X275076Y344108D02*
G36*
Y347967D01*
G75*
G02X275434Y348852I1275J-1*
G01*
X272228*
X271092Y347716*
G75*
G02X270050Y347283I-1041J1038*
G01*
X263253*
Y344108*
X275076*
G37*
X292450Y348852D02*
G36*
X286580D01*
Y345461*
X289137*
X292450Y348852*
G37*
X304394D02*
G36*
Y348459D01*
G75*
G02X303121Y347185I-1274*
G01*
X298489*
Y346299*
X293957*
X293346Y345673*
X298859*
Y345360*
G75*
G02X302256Y344108I1112J-2216*
G01*
X325206*
Y348852*
X320414*
G75*
G02X313583I-3415*
G01*
X304394*
G37*
X174190Y354108D02*
G36*
X171587D01*
Y348852*
X174190*
Y354108*
G37*
X212579D02*
G36*
X208489D01*
G75*
G02X200036I-4226*
G01*
X186580*
Y348852*
X215213*
Y349065*
X214898*
Y351789*
X212579Y354108*
G37*
X229898D02*
G36*
X229650D01*
Y349065*
X229335*
Y348852*
X229796*
G75*
G02X229898Y349464I2462J-96*
G01*
Y354108*
G37*
X219796Y348852D02*
G36*
G75*
G02X219898Y349464I2462J-96D01*
G01*
Y354108*
X219650*
Y349065*
X219335*
Y348852*
X219796*
G37*
X224898Y354108D02*
G36*
X224650D01*
Y349464*
G75*
G02X224752Y348852I-2360J-708*
G01*
X225213*
Y349065*
X224898*
Y354108*
G37*
X235154Y348852D02*
G36*
Y350917D01*
X234650Y351421*
Y349464*
G75*
G02X234752Y348852I-2360J-708*
G01*
X235154*
G37*
X241320Y354108D02*
G36*
X240248D01*
G75*
G02X239434Y353319I-2088J1339*
G01*
Y352171*
G75*
G02X239622Y352411I1094J-665*
G01*
X241320Y354108*
G37*
X278324D02*
G36*
X272702D01*
Y349935*
Y349935*
G75*
G02X272269Y348893I-1470*
G01*
X272228Y348852*
X275434*
G75*
G02X275449Y348868I917J-879*
G01*
X276629Y350048*
G75*
G02X277530Y350421I902J-902*
G01*
X278324*
Y354108*
G37*
X252143D02*
G36*
X247335D01*
G75*
G02X244344Y353137I-2088J1339*
G01*
X243786Y352578*
G75*
G02X243026Y352213I-900J897*
G01*
X241796Y350982*
Y349167*
G75*
G02X243549Y349644I1482J-1987*
G01*
X245133Y351229*
G75*
G02X246034Y351602I902J-902*
G01*
X250759*
G75*
G02X251660Y351229I-1J-1275*
G01*
X251772Y351116*
Y353843*
X252143*
Y354108*
G37*
X269761D02*
G36*
X260398D01*
Y353843*
X260769*
Y349571*
X260398*
Y348852*
X260608*
G75*
G02X260744Y349008I1173J-885*
G01*
X261528Y349792*
G75*
G02X262570Y350224I1041J-1038*
G01*
X269441*
X269761Y350544*
Y354108*
G37*
X301847D02*
G36*
X298489D01*
Y352402*
X292792*
Y354108*
X291346*
G75*
G02X291427Y353478I-2399J-629*
G01*
G75*
G02X288344Y351073I-2480*
G01*
X288077Y350807*
G75*
G02X287176Y350433I-902J902*
G01*
X286580*
Y348852*
X292450*
X292792Y349203*
Y350618*
X298489*
Y349732*
X301847*
Y354108*
G37*
X304394D02*
G36*
Y348852D01*
X313583*
G75*
G02X320414I3415*
G01*
X325206*
Y354108*
X304394*
G37*
X190462Y364108D02*
G36*
X171587D01*
Y354108*
X174190*
Y356524*
X182878*
X190462Y364108*
G37*
X212579Y354108D02*
G36*
X210721Y355966D01*
G75*
G02X210115Y357426I1455J1459*
G01*
Y364108*
X208489*
G75*
G02X200036I-4226*
G01*
X196291*
X186580Y354396*
Y354108*
X200036*
G75*
G02X208489I4226*
G01*
X212579*
G37*
X252143D02*
G36*
Y356031D01*
X252425*
X246571Y361885*
G75*
G02X246221Y362441I1033J1038*
G01*
X243186*
Y364108*
X214237*
Y358279*
X215392Y357124*
X215863*
Y359384*
G75*
G02X216284Y360397I1430*
G01*
X217068Y361181*
G75*
G02X218081Y361602I1013J-1009*
G01*
X233042*
G75*
G02X234056Y361181J-1430*
G01*
X236415Y358822*
G75*
G02X236835Y357809I-1009J-1013*
G01*
Y357543*
G75*
G02X240640Y355447I1325J-2096*
G01*
G75*
G02X240248Y354108I-2480J0*
G01*
X241320*
X241590Y354378*
G75*
G02X242349Y354744I900J-897*
G01*
X242782Y355177*
G75*
G02X242767Y355447I2556J277*
G01*
G75*
G02X247727I2480*
G01*
G75*
G02X247335Y354108I-2480J0*
G01*
X252143*
G37*
X229898D02*
G36*
Y357124D01*
X233973*
Y357216*
X232449Y358740*
X218725*
Y357124*
X219650*
Y354108*
X219898*
Y357124*
X224650*
Y354108*
X224898*
Y357124*
X229650*
Y354108*
X229898*
G37*
X278324D02*
G36*
Y356031D01*
X285369*
X286149Y356811*
G75*
G02X286074Y357416I2404J604*
G01*
G75*
G02X286729Y359094I2478*
G01*
X280680*
G75*
G02X279638Y359527I0J1470*
G01*
X277673Y361492*
G75*
G02X277241Y362533I1038J1041*
G01*
Y362533*
Y364108*
X275261*
Y362835*
X272702*
Y354108*
X278324*
G37*
X267202Y364108D02*
G36*
X251245D01*
Y362441*
X250175*
X256584Y356031*
X260398*
Y354108*
X269761*
Y362835*
X267202*
Y364108*
G37*
X301847D02*
G36*
X280182D01*
Y363143*
X281289Y362035*
X292881*
G75*
G02X293924Y361605I3J-1470*
G01*
X296680Y358849*
G75*
G02X297111Y357809I-1039J-1039*
G01*
Y357809*
Y357808*
Y357806*
Y356720*
X298489*
Y354108*
X301847*
Y364108*
G37*
X292792Y354108D02*
G36*
Y356720D01*
X294170*
Y357200*
X292276Y359094*
X290379*
G75*
G02X291034Y357415I-1824J-1679*
G01*
G75*
G02X290239Y355596I-2480*
G01*
G75*
G02X291346Y354108I-1291J-2117*
G01*
X292792*
G37*
X304394Y364108D02*
G36*
Y354108D01*
X325206*
Y364108*
X304394*
G37*
X243186D02*
G36*
Y367165D01*
X242485*
G75*
G02X241025Y367771J2060*
G01*
X236519Y372277*
X234650*
Y370309*
X229898*
Y378368*
X230213*
Y380551*
X229383*
Y378368*
X229650*
Y370309*
X224898*
Y378368*
X225166*
Y380504*
X224383*
Y378368*
X224650*
Y370309*
X219898*
Y378368*
X220166*
Y380551*
X219335*
Y378368*
X219650*
Y370309*
X214898*
Y373038*
X209649Y378287*
X205089*
G75*
G02X203028Y380348J2061*
G01*
Y380348*
Y386943*
X189755*
G75*
G02X173180I-8288J8268*
G01*
X171587*
Y364108*
X190462*
X198906Y372552*
G75*
G02X200365Y373157I1459J-1454*
G01*
X212176*
G75*
G02X214237Y371097J-2061*
G01*
Y371096*
Y364108*
X243186*
G37*
X210115D02*
G36*
Y369035D01*
X201219*
X196291Y364108*
X200036*
G75*
G02X208489I4226*
G01*
X210115*
G37*
X242816Y386943D02*
G36*
X207150D01*
Y382409*
X210503*
G75*
G02X211962Y381804J-2060*
G01*
X215213Y378552*
Y382612*
Y382613*
G75*
G02X217274Y384673I2061*
G01*
X221831*
G75*
G02X222274Y384720I443J-2052*
G01*
X227274*
G75*
G02X227718Y384673I1J-2099*
G01*
X232274*
G75*
G02X234335Y382613J-2061*
G01*
Y382612*
Y378368*
X234650*
Y376399*
X237373*
G75*
G02X238832Y375793J-2060*
G01*
X243186Y371440*
Y376012*
X244957*
Y376704*
Y376706*
Y376707*
Y376707*
G75*
G02X245388Y377746I1470*
G01*
X246963Y379321*
G75*
G02X247041Y379394I905J-895*
G01*
X242816*
Y386943*
G37*
X277241Y364108D02*
G36*
Y375704D01*
X276134Y376811*
X248612*
X247898Y376098*
Y376012*
X251245*
Y372038*
G75*
G02X255220Y368833I695J-3206*
G01*
G75*
G02X251245Y365627I-3280*
G01*
Y364108*
X267202*
Y376406*
X275261*
Y364108*
X277241*
G37*
X304394D02*
G36*
X325206D01*
Y386943*
X323613*
G75*
G02X307038I-8288J8268*
G01*
X275631*
Y379787*
X266831*
Y386943*
X251615*
Y379752*
X276743*
G75*
G02X277785Y379320I0J-1470*
G01*
X279750Y377355*
G75*
G02X280182Y376313I-1038J-1041*
G01*
Y376313*
Y364108*
X301847*
Y365156*
X298694Y368309*
G75*
G02X287674Y371589I-5022J3280*
G01*
G75*
G02X299670I5998*
G01*
G75*
G02X299638Y370967I-6141J7*
G01*
X304021Y366584*
G75*
G02X304394Y365683I-902J-902*
G01*
Y364108*
G37*
X173180Y386943D02*
G36*
G75*
G02X171587Y388931I8288J8269D01*
G01*
Y386943*
X173180*
G37*
X203028Y397179D02*
G36*
X193007D01*
G75*
G02X193174Y395211I-11541J-1968*
G01*
G75*
G02X189755Y386943I-11707J0*
G01*
X203028*
Y397179*
G37*
X303785D02*
G36*
X300040D01*
G75*
G02X287304I-6368*
G01*
X263154*
G75*
G02X257474Y396102I-3129J984*
G01*
X207150*
Y386943*
X242816*
Y393705*
X251615*
Y386943*
X266831*
Y394098*
X275631*
Y386943*
X307038*
G75*
G02X303619Y395211I8288J8268*
G01*
G75*
G02X303785Y397179I11707J1*
G01*
G37*
X325206Y388931D02*
G36*
G75*
G02X323613Y386943I-9880J6281D01*
G01*
X325206*
Y388931*
G37*
X309046Y405091D02*
G36*
X187747D01*
G75*
G02X193007Y397179I-6279J-9880*
G01*
X203028*
Y398163*
Y398164*
G75*
G02X205089Y400224I2061*
G01*
X257474*
G75*
G02X263306Y398163I2552J-2061*
G01*
G75*
G02X263154Y397179I-3280*
G01*
X287304*
G75*
G02X300040I6368*
G01*
X303785*
G75*
G02X309046Y405091I11540J-1969*
G01*
G37*
D02*
D71*
X43936Y72140D02*
X41936D01*
X43936Y82140D02*
X41936D01*
X43936Y198124D02*
X41936D01*
X43936Y208124D02*
X41936D01*
X43936Y324108D02*
X41936D01*
X43936Y334108D02*
X41936D01*
X44770Y60127D02*
X43356Y58713D01*
X44770Y64152D02*
X43356Y65567D01*
X44770Y186111D02*
X43356Y184697D01*
X44770Y190137D02*
X43356Y191551D01*
X44770Y312096D02*
X43356Y310681D01*
X44770Y316121D02*
X43356Y317535D01*
X46782Y69293D02*
Y67293D01*
Y74986D02*
Y76986D01*
Y79293D02*
Y77293D01*
Y84986D02*
Y86986D01*
Y195278D02*
Y193278D01*
Y200970D02*
Y202970D01*
Y205278D02*
Y203278D01*
Y210970D02*
Y212970D01*
Y321262D02*
Y319262D01*
Y326955D02*
Y328955D01*
Y331262D02*
Y329262D01*
Y336955D02*
Y338955D01*
X48795Y60127D02*
X50209Y58713D01*
X48795Y64152D02*
X50209Y65567D01*
X48795Y186111D02*
X50209Y184697D01*
X48795Y190137D02*
X50209Y191551D01*
X48795Y312096D02*
X50209Y310681D01*
X48795Y316121D02*
X50209Y317535D01*
X49629Y72140D02*
X51629D01*
X49629Y82140D02*
X51629D01*
X49629Y198124D02*
X51629D01*
X49629Y208124D02*
X51629D01*
X49629Y324108D02*
X51629D01*
X49629Y334108D02*
X51629D01*
X86939Y131785D02*
X85085Y129931D01*
X86939Y137377D02*
X85085Y139230D01*
X86939Y257769D02*
X85085Y255915D01*
X86939Y263361D02*
X85085Y265215D01*
X86939Y383753D02*
X85085Y381900D01*
X86939Y389345D02*
X85085Y391199D01*
X92531Y131785D02*
X94385Y129931D01*
X92531Y137377D02*
X94385Y139230D01*
X92531Y257769D02*
X94385Y255915D01*
X92531Y263361D02*
X94385Y265215D01*
X92531Y383753D02*
X94385Y381900D01*
X92531Y389345D02*
X94385Y391199D01*
X96042Y99738D02*
X94042D01*
X96042Y225722D02*
X94042D01*
X96042Y351707D02*
X94042D01*
X99184Y108122D02*
Y110122D01*
Y234106D02*
Y236106D01*
Y360090D02*
Y362090D01*
X100284Y107022D02*
X102284D01*
X100284Y233006D02*
X102284D01*
X100284Y358990D02*
X102284D01*
X101538Y99738D02*
X103538D01*
X101538Y225722D02*
X103538D01*
X101538Y351707D02*
X103538D01*
X105564Y118045D02*
X103564D01*
X105564Y244030D02*
X103564D01*
X105564Y370014D02*
X103564D01*
X106664Y116945D02*
Y114945D01*
Y119145D02*
Y121145D01*
Y242930D02*
Y240930D01*
Y245130D02*
Y247130D01*
Y368914D02*
Y366914D01*
Y371114D02*
Y373114D01*
X109107Y77494D02*
X107107D01*
X109107Y82219D02*
X107107D01*
X109107Y86943D02*
X107107D01*
X109107Y91667D02*
X107107D01*
X109107Y203478D02*
X107107D01*
X109107Y208203D02*
X107107D01*
X109107Y212927D02*
X107107D01*
X109107Y217652D02*
X107107D01*
X109107Y329463D02*
X107107D01*
X109107Y334187D02*
X107107D01*
X109107Y338911D02*
X107107D01*
X109107Y343636D02*
X107107D01*
X110207Y76394D02*
Y74394D01*
Y78594D02*
Y80594D01*
Y81119D02*
Y79119D01*
Y83319D02*
Y85319D01*
Y85843D02*
Y83843D01*
Y88043D02*
Y90043D01*
Y90567D02*
Y88567D01*
Y92767D02*
Y94767D01*
Y202378D02*
Y200378D01*
Y204578D02*
Y206578D01*
Y207103D02*
Y205103D01*
Y209303D02*
Y211303D01*
Y211827D02*
Y209827D01*
Y214027D02*
Y216027D01*
Y216552D02*
Y214552D01*
Y218752D02*
Y220752D01*
Y328363D02*
Y326363D01*
Y330563D02*
Y332563D01*
Y333087D02*
Y331087D01*
Y335287D02*
Y337287D01*
Y337811D02*
Y335811D01*
Y340011D02*
Y342011D01*
Y342536D02*
Y340536D01*
Y344736D02*
Y346736D01*
X110955Y132178D02*
X109101Y130325D01*
X110955Y137770D02*
X109101Y139624D01*
X110955Y258163D02*
X109101Y256309D01*
X110955Y263755D02*
X109101Y265608D01*
X110955Y384147D02*
X109101Y382293D01*
X110955Y389739D02*
X109101Y391593D01*
X111307Y77494D02*
X113307D01*
X111307Y82219D02*
X113307D01*
X111307Y86943D02*
X113307D01*
X111307Y91667D02*
X113307D01*
X111307Y203478D02*
X113307D01*
X111307Y208203D02*
X113307D01*
X111307Y212927D02*
X113307D01*
X111307Y217652D02*
X113307D01*
X111307Y329463D02*
X113307D01*
X111307Y334187D02*
X113307D01*
X111307Y338911D02*
X113307D01*
X111307Y343636D02*
X113307D01*
X113832Y77494D02*
X111832D01*
X113832Y82219D02*
X111832D01*
X113832Y86943D02*
X111832D01*
X113832Y91667D02*
X111832D01*
X113832Y203478D02*
X111832D01*
X113832Y208203D02*
X111832D01*
X113832Y212927D02*
X111832D01*
X113832Y217652D02*
X111832D01*
X113832Y329463D02*
X111832D01*
X113832Y334187D02*
X111832D01*
X113832Y338911D02*
X111832D01*
X113832Y343636D02*
X111832D01*
X114932Y76394D02*
Y74394D01*
Y78594D02*
Y80594D01*
Y81119D02*
Y79119D01*
Y83319D02*
Y85319D01*
Y85843D02*
Y83843D01*
Y88043D02*
Y90043D01*
Y90567D02*
Y88567D01*
Y92767D02*
Y94767D01*
Y202378D02*
Y200378D01*
Y204578D02*
Y206578D01*
Y207103D02*
Y205103D01*
Y209303D02*
Y211303D01*
Y211827D02*
Y209827D01*
Y214027D02*
Y216027D01*
Y216552D02*
Y214552D01*
Y218752D02*
Y220752D01*
Y328363D02*
Y326363D01*
Y330563D02*
Y332563D01*
Y333087D02*
Y331087D01*
Y335287D02*
Y337287D01*
Y337811D02*
Y335811D01*
Y340011D02*
Y342011D01*
Y342536D02*
Y340536D01*
Y344736D02*
Y346736D01*
X116547Y132178D02*
X118400Y130325D01*
X116547Y137770D02*
X118400Y139624D01*
X116547Y258163D02*
X118400Y256309D01*
X116547Y263755D02*
X118400Y265608D01*
X116547Y384147D02*
X118400Y382293D01*
X116547Y389739D02*
X118400Y391593D01*
X127719Y74148D02*
X129719D01*
X127719Y200132D02*
X129719D01*
X127719Y326116D02*
X129719D01*
X131574Y145211D02*
X129574D01*
X131574Y271195D02*
X129574D01*
X131574Y397179D02*
X129574D01*
X136192Y140593D02*
Y138593D01*
Y149829D02*
Y151829D01*
Y266577D02*
Y264577D01*
Y275813D02*
Y277813D01*
Y392561D02*
Y390561D01*
Y401797D02*
Y403797D01*
X138160Y90396D02*
Y88396D01*
Y91955D02*
Y93955D01*
Y216380D02*
Y214380D01*
Y217939D02*
Y219939D01*
Y342364D02*
Y340364D01*
Y343923D02*
Y345923D01*
X140810Y145211D02*
X142810D01*
X140810Y271195D02*
X142810D01*
X140810Y397179D02*
X142810D01*
X157853Y96884D02*
X155853D01*
X157853Y222868D02*
X155853D01*
X157853Y348852D02*
X155853D01*
X159519Y95219D02*
Y93219D01*
Y98549D02*
Y100549D01*
Y221203D02*
Y219203D01*
Y224533D02*
Y226533D01*
Y347187D02*
Y345187D01*
Y350518D02*
Y352518D01*
X161184Y96884D02*
X163184D01*
X161184Y222868D02*
X163184D01*
X161184Y348852D02*
X163184D01*
X201416Y72140D02*
X199416D01*
X201416Y82140D02*
X199416D01*
X201416Y198124D02*
X199416D01*
X201416Y208124D02*
X199416D01*
X201416Y324108D02*
X199416D01*
X201416Y334108D02*
X199416D01*
X202250Y60127D02*
X200836Y58713D01*
X202250Y64152D02*
X200836Y65567D01*
X202250Y186111D02*
X200836Y184697D01*
X202250Y190137D02*
X200836Y191551D01*
X202250Y312096D02*
X200836Y310681D01*
X202250Y316121D02*
X200836Y317535D01*
X204263Y69293D02*
Y67293D01*
Y74986D02*
Y76986D01*
Y79293D02*
Y77293D01*
Y84986D02*
Y86986D01*
Y195278D02*
Y193278D01*
Y200970D02*
Y202970D01*
Y205278D02*
Y203278D01*
Y210970D02*
Y212970D01*
Y321262D02*
Y319262D01*
Y326955D02*
Y328955D01*
Y331262D02*
Y329262D01*
Y336955D02*
Y338955D01*
X206275Y60127D02*
X207689Y58713D01*
X206275Y64152D02*
X207689Y65567D01*
X206275Y186111D02*
X207689Y184697D01*
X206275Y190137D02*
X207689Y191551D01*
X206275Y312096D02*
X207689Y310681D01*
X206275Y316121D02*
X207689Y317535D01*
X207109Y72140D02*
X209109D01*
X207109Y82140D02*
X209109D01*
X207109Y198124D02*
X209109D01*
X207109Y208124D02*
X209109D01*
X207109Y324108D02*
X209109D01*
X207109Y334108D02*
X209109D01*
X244419Y131785D02*
X242566Y129931D01*
X244419Y137377D02*
X242566Y139230D01*
X244419Y257769D02*
X242566Y255915D01*
X244419Y263361D02*
X242566Y265215D01*
X244419Y383753D02*
X242566Y381900D01*
X244419Y389345D02*
X242566Y391199D01*
X250011Y131785D02*
X251865Y129931D01*
X250011Y137377D02*
X251865Y139230D01*
X250011Y257769D02*
X251865Y255915D01*
X250011Y263361D02*
X251865Y265215D01*
X250011Y383753D02*
X251865Y381900D01*
X250011Y389345D02*
X251865Y391199D01*
X253522Y99738D02*
X251522D01*
X253522Y225722D02*
X251522D01*
X253522Y351707D02*
X251522D01*
X256664Y108122D02*
Y110122D01*
Y234106D02*
Y236106D01*
Y360090D02*
Y362090D01*
X257764Y107022D02*
X259764D01*
X257764Y233006D02*
X259764D01*
X257764Y358990D02*
X259764D01*
X259019Y99738D02*
X261019D01*
X259019Y225722D02*
X261019D01*
X259019Y351707D02*
X261019D01*
X263044Y118045D02*
X261044D01*
X263044Y244030D02*
X261044D01*
X263044Y370014D02*
X261044D01*
X264144Y116945D02*
Y114945D01*
Y119145D02*
Y121145D01*
Y242930D02*
Y240930D01*
Y245130D02*
Y247130D01*
Y368914D02*
Y366914D01*
Y371114D02*
Y373114D01*
X266588Y77494D02*
X264588D01*
X266588Y82219D02*
X264588D01*
X266588Y86943D02*
X264588D01*
X266588Y91667D02*
X264588D01*
X266588Y203478D02*
X264588D01*
X266588Y208203D02*
X264588D01*
X266588Y212927D02*
X264588D01*
X266588Y217652D02*
X264588D01*
X266588Y329463D02*
X264588D01*
X266588Y334187D02*
X264588D01*
X266588Y338911D02*
X264588D01*
X266588Y343636D02*
X264588D01*
X267688Y76394D02*
Y74394D01*
Y78594D02*
Y80594D01*
Y81119D02*
Y79119D01*
Y83319D02*
Y85319D01*
Y85843D02*
Y83843D01*
Y88043D02*
Y90043D01*
Y90567D02*
Y88567D01*
Y92767D02*
Y94767D01*
Y202378D02*
Y200378D01*
Y204578D02*
Y206578D01*
Y207103D02*
Y205103D01*
Y209303D02*
Y211303D01*
Y211827D02*
Y209827D01*
Y214027D02*
Y216027D01*
Y216552D02*
Y214552D01*
Y218752D02*
Y220752D01*
Y328363D02*
Y326363D01*
Y330563D02*
Y332563D01*
Y333087D02*
Y331087D01*
Y335287D02*
Y337287D01*
Y337811D02*
Y335811D01*
Y340011D02*
Y342011D01*
Y342536D02*
Y340536D01*
Y344736D02*
Y346736D01*
X268435Y132178D02*
X266581Y130325D01*
X268435Y137770D02*
X266581Y139624D01*
X268435Y258163D02*
X266581Y256309D01*
X268435Y263755D02*
X266581Y265608D01*
X268435Y384147D02*
X266581Y382293D01*
X268435Y389739D02*
X266581Y391593D01*
X268788Y77494D02*
X270788D01*
X268788Y82219D02*
X270788D01*
X268788Y86943D02*
X270788D01*
X268788Y91667D02*
X270788D01*
X268788Y203478D02*
X270788D01*
X268788Y208203D02*
X270788D01*
X268788Y212927D02*
X270788D01*
X268788Y217652D02*
X270788D01*
X268788Y329463D02*
X270788D01*
X268788Y334187D02*
X270788D01*
X268788Y338911D02*
X270788D01*
X268788Y343636D02*
X270788D01*
X271312Y77494D02*
X269312D01*
X271312Y82219D02*
X269312D01*
X271312Y86943D02*
X269312D01*
X271312Y91667D02*
X269312D01*
X271312Y203478D02*
X269312D01*
X271312Y208203D02*
X269312D01*
X271312Y212927D02*
X269312D01*
X271312Y217652D02*
X269312D01*
X271312Y329463D02*
X269312D01*
X271312Y334187D02*
X269312D01*
X271312Y338911D02*
X269312D01*
X271312Y343636D02*
X269312D01*
X272412Y76394D02*
Y74394D01*
Y78594D02*
Y80594D01*
Y81119D02*
Y79119D01*
Y83319D02*
Y85319D01*
Y85843D02*
Y83843D01*
Y88043D02*
Y90043D01*
Y90567D02*
Y88567D01*
Y92767D02*
Y94767D01*
Y202378D02*
Y200378D01*
Y204578D02*
Y206578D01*
Y207103D02*
Y205103D01*
Y209303D02*
Y211303D01*
Y211827D02*
Y209827D01*
Y214027D02*
Y216027D01*
Y216552D02*
Y214552D01*
Y218752D02*
Y220752D01*
Y328363D02*
Y326363D01*
Y330563D02*
Y332563D01*
Y333087D02*
Y331087D01*
Y335287D02*
Y337287D01*
Y337811D02*
Y335811D01*
Y340011D02*
Y342011D01*
Y342536D02*
Y340536D01*
Y344736D02*
Y346736D01*
X274027Y132178D02*
X275881Y130325D01*
X274027Y137770D02*
X275881Y139624D01*
X274027Y258163D02*
X275881Y256309D01*
X274027Y263755D02*
X275881Y265608D01*
X274027Y384147D02*
X275881Y382293D01*
X274027Y389739D02*
X275881Y391593D01*
X285200Y74148D02*
X287200D01*
X285200Y200132D02*
X287200D01*
X285200Y326116D02*
X287200D01*
X289054Y145211D02*
X287054D01*
X289054Y271195D02*
X287054D01*
X289054Y397179D02*
X287054D01*
X293672Y140593D02*
Y138593D01*
Y149829D02*
Y151829D01*
Y266577D02*
Y264577D01*
Y275813D02*
Y277813D01*
Y392561D02*
Y390561D01*
Y401797D02*
Y403797D01*
X295641Y90396D02*
Y88396D01*
Y91955D02*
Y93955D01*
Y216380D02*
Y214380D01*
Y217939D02*
Y219939D01*
Y342364D02*
Y340364D01*
Y343923D02*
Y345923D01*
X298290Y145211D02*
X300290D01*
X298290Y271195D02*
X300290D01*
X298290Y397179D02*
X300290D01*
X315333Y96884D02*
X313333D01*
X315333Y222868D02*
X313333D01*
X315333Y348852D02*
X313333D01*
X316999Y95219D02*
Y93219D01*
Y98549D02*
Y100549D01*
Y221203D02*
Y219203D01*
Y224533D02*
Y226533D01*
Y347187D02*
Y345187D01*
Y350518D02*
Y352518D01*
X318664Y96884D02*
X320664D01*
X318664Y222868D02*
X320664D01*
X318664Y348852D02*
X320664D01*
D02*
D20*
X64794Y57415D02*
Y61756D01*
Y101126D02*
Y96785D01*
Y183400D02*
Y187741D01*
Y227111D02*
Y222770D01*
Y309384D02*
Y313725D01*
Y353095D02*
Y348754D01*
X74774Y57415D02*
Y61737D01*
X74794Y61756*
X74774Y183400D02*
Y187721D01*
X74794Y187741*
X74774Y309384D02*
Y313705D01*
X74794Y313725*
Y96785D02*
Y101126D01*
Y222770D02*
Y227111D01*
Y348754D02*
Y353095D01*
X76349Y90486D02*
X75975D01*
X74794Y89305*
Y83000*
X76349Y216470D02*
X75975D01*
X74794Y215289*
Y208984*
X76349Y342455D02*
X75975D01*
X74794Y341274*
Y334968*
X84322Y46785D02*
Y39699D01*
Y172770D02*
Y165683D01*
Y298754D02*
Y291667D01*
X85011Y76313D02*
Y86943D01*
X79105Y92848*
Y99541*
X77924Y100722*
Y105841*
X75562Y108203*
X60601*
X59814Y107415*
Y102327*
X59794Y102307*
Y101126*
X85011Y202297D02*
Y212927D01*
X79105Y218833*
Y225526*
X77924Y226707*
Y231825*
X75562Y234187*
X60601*
X59814Y233400*
Y228311*
X59794Y228292*
Y227111*
X85011Y328281D02*
Y338911D01*
X79105Y344817*
Y351510*
X77924Y352691*
Y357809*
X75562Y360171*
X60601*
X59814Y359384*
Y354296*
X59794Y354276*
Y353095*
X85798Y95211D02*
Y95604D01*
X88554Y98360*
X93278*
X94459Y97179*
X98790*
X85798Y221195D02*
Y221589D01*
X88554Y224344*
X93278*
X94459Y223163*
X98790*
X85798Y347179D02*
Y347573D01*
X88554Y350329*
X93278*
X94459Y349148*
X98790*
X90129Y72376D02*
X91900Y74148D01*
X98790*
X90129Y84974D02*
X90522D01*
Y84384*
X98790*
X90129Y88911D02*
X98593D01*
X98790Y89108*
Y89502*
X90129Y198360D02*
X91900Y200132D01*
X98790*
X90129Y210959D02*
X90522D01*
Y210368*
X98790*
X90129Y214896D02*
X98593D01*
X98790Y215093*
Y215486*
X90129Y324344D02*
X91900Y326116D01*
X98790*
X90129Y336943D02*
X90522D01*
Y336352*
X98790*
X90129Y340880D02*
X98593D01*
X98790Y341077*
Y341470*
X90424Y39699D02*
X88160D01*
X87373Y40486*
Y49935*
X89735Y52297*
X90424Y165683D02*
X88160D01*
X87373Y166470*
Y175919*
X89735Y178281*
X90424Y291667D02*
X88160D01*
X87373Y292455*
Y301904*
X89735Y304266*
X90522Y68045D02*
X88160D01*
X85011Y71195*
Y76313*
X90522Y194030D02*
X88160D01*
X85011Y197179*
Y202297*
X90522Y320014D02*
X88160D01*
X85011Y323163*
Y328281*
X98790Y76707D02*
X94853D01*
X94459Y76313*
X85011*
X98790Y79266D02*
X95050D01*
X93672Y77888*
X87373*
X86585Y78675*
Y89305*
X85404Y90486*
X83830*
X80680Y93636*
Y103478*
X98790Y81825D02*
X94558D01*
X93377Y80644*
X90129*
X98790Y92061D02*
X84617D01*
X83042Y93636*
Y99541*
X85011Y101510*
X85404*
X87373Y103478*
X87767*
X98790Y94620D02*
X89932D01*
X89735Y94817*
X98790Y202691D02*
X94853D01*
X94459Y202297*
X85011*
X98790Y205250D02*
X95050D01*
X93672Y203872*
X87373*
X86585Y204659*
Y215289*
X85404Y216470*
X83830*
X80680Y219620*
Y229463*
X98790Y207809D02*
X94558D01*
X93377Y206628*
X90129*
X98790Y218045D02*
X84617D01*
X83042Y219620*
Y225526*
X85011Y227494*
X85404*
X87373Y229463*
X87767*
X98790Y220604D02*
X89932D01*
X89735Y220801*
X98790Y328675D02*
X94853D01*
X94459Y328281*
X85011*
X98790Y331234D02*
X95050D01*
X93672Y329856*
X87373*
X86585Y330644*
Y341274*
X85404Y342455*
X83830*
X80680Y345604*
Y355447*
X98790Y333793D02*
X94558D01*
X93377Y332612*
X90129*
X98790Y344030D02*
X84617D01*
X83042Y345604*
Y351510*
X85011Y353478*
X85404*
X87373Y355447*
X87767*
X98790Y346589D02*
X89932D01*
X89735Y346785*
X106270Y51904D02*
X104302D01*
X103515Y51116*
Y40093*
X103121Y39699*
X100463*
X106270Y177888D02*
X104302D01*
X103515Y177100*
Y166077*
X103121Y165683*
X100463*
X106270Y303872D02*
X104302D01*
X103515Y303085*
Y292061*
X103121Y291667*
X100463*
X106566Y46785D02*
Y39699D01*
Y172770D02*
Y165683D01*
Y298754D02*
Y291667D01*
X124971Y69030D02*
Y65880D01*
X125562Y65289*
X124971Y84384D02*
X132648D01*
Y83400*
X124971Y86943D02*
X132648D01*
Y87730*
X124971Y94620D02*
X120641D01*
X120444Y94423*
Y40880*
X120050*
X113751Y34581*
X81861*
X79105Y37337*
Y54266*
X80680Y55841*
X124971Y97179D02*
X120050D01*
X118869Y95998*
Y51073*
X110995Y43199*
Y42805*
X124971Y99738D02*
X129696D01*
X131467Y101510*
X124971Y102297D02*
X127924D01*
X131074Y105447*
X124971Y195014D02*
Y191864D01*
X125562Y191274*
X124971Y210368D02*
X132648D01*
Y209384*
X124971Y212927D02*
X132648D01*
Y213715*
X124971Y220604D02*
X120641D01*
X120444Y220407*
Y166864*
X120050*
X113751Y160565*
X81861*
X79105Y163321*
Y180250*
X80680Y181825*
X124971Y223163D02*
X120050D01*
X118869Y221982*
Y177057*
X110995Y169183*
Y168789*
X124971Y225722D02*
X129696D01*
X131467Y227494*
X124971Y228281D02*
X127924D01*
X131074Y231431*
X124971Y320998D02*
Y317848D01*
X125562Y317258*
X124971Y336352D02*
X132648D01*
Y335368*
X124971Y338911D02*
X132648D01*
Y339699*
X124971Y346589D02*
X120641D01*
X120444Y346392*
Y292848*
X120050*
X113751Y286549*
X81861*
X79105Y289305*
Y306234*
X80680Y307809*
X124971Y349148D02*
X120050D01*
X118869Y347967*
Y303041*
X110995Y295167*
Y294774*
X124971Y351707D02*
X129696D01*
X131467Y353478*
X124971Y354266D02*
X127924D01*
X131074Y357415*
X133436Y67652D02*
Y69226D01*
X131074Y71589*
X124971*
X133436Y193636D02*
Y195211D01*
X131074Y197573*
X124971*
X133436Y319620D02*
Y321195D01*
X131074Y323557*
X124971*
X138160Y73262D02*
X152038D01*
X159519Y80742*
Y81136*
X138160Y73262D02*
X134223D01*
X130286Y77199*
Y78281*
X129302Y79266*
X124971*
X138160Y79364D02*
X133731D01*
X133042Y78675*
X138160Y85073D02*
X150070D01*
X154007Y89010*
X159519*
X138160Y85073D02*
X136290D01*
X135798Y85565*
Y88518*
X133830Y90486*
X130286*
X129893Y90093*
X124971*
Y89502*
X138160Y96490D02*
X145641D01*
Y113715*
X139735Y119620*
X136192*
X138160Y96490D02*
Y96392D01*
X136585*
X132452Y92258*
Y92061*
X124971*
X138160Y199246D02*
X152038D01*
X159519Y206726*
Y207120*
X138160Y199246D02*
X134223D01*
X130286Y203183*
Y204266*
X129302Y205250*
X124971*
X138160Y205348D02*
X133731D01*
X133042Y204659*
X138160Y211057D02*
X150070D01*
X154007Y214994*
X159519*
X138160Y211057D02*
X136290D01*
X135798Y211549*
Y214502*
X133830Y216470*
X130286*
X129893Y216077*
X124971*
Y215486*
X138160Y222474D02*
X145641D01*
Y239699*
X139735Y245604*
X136192*
X138160Y222474D02*
Y222376D01*
X136585*
X132452Y218242*
Y218045*
X124971*
X138160Y325230D02*
X152038D01*
X159519Y332711*
Y333104*
X138160Y325230D02*
X134223D01*
X130286Y329167*
Y330250*
X129302Y331234*
X124971*
X138160Y331333D02*
X133731D01*
X133042Y330644*
X138160Y337041D02*
X150070D01*
X154007Y340978*
X159519*
X138160Y337041D02*
X136290D01*
X135798Y337533*
Y340486*
X133830Y342455*
X130286*
X129893Y342061*
X124971*
Y341470*
X138160Y348459D02*
X145641D01*
Y365683*
X139735Y371589*
X136192*
X138160Y348459D02*
Y348360D01*
X136585*
X132452Y344226*
Y344030*
X124971*
X222274Y57415D02*
Y61756D01*
Y101126D02*
Y96785D01*
Y183400D02*
Y187741D01*
Y227111D02*
Y222770D01*
Y309384D02*
Y313725D01*
Y353095D02*
Y348754D01*
X232255Y57415D02*
Y61737D01*
X232274Y61756*
X232255Y183400D02*
Y187721D01*
X232274Y187741*
X232255Y309384D02*
Y313705D01*
X232274Y313725*
Y96785D02*
Y101126D01*
Y222770D02*
Y227111D01*
Y348754D02*
Y353095D01*
X233830Y90486D02*
X233456D01*
X232274Y89305*
Y83000*
X233830Y216470D02*
X233456D01*
X232274Y215289*
Y208984*
X233830Y342455D02*
X233456D01*
X232274Y341274*
Y334968*
X241802Y46785D02*
Y39699D01*
Y172770D02*
Y165683D01*
Y298754D02*
Y291667D01*
X242491Y76313D02*
Y86943D01*
X236585Y92848*
Y99541*
X235404Y100722*
Y105841*
X233042Y108203*
X218081*
X217294Y107415*
Y102327*
X217274Y102307*
Y101126*
X242491Y202297D02*
Y212927D01*
X236585Y218833*
Y225526*
X235404Y226707*
Y231825*
X233042Y234187*
X218081*
X217294Y233400*
Y228311*
X217274Y228292*
Y227111*
X242491Y328281D02*
Y338911D01*
X236585Y344817*
Y351510*
X235404Y352691*
Y357809*
X233042Y360171*
X218081*
X217294Y359384*
Y354296*
X217274Y354276*
Y353095*
X243278Y95211D02*
Y95604D01*
X246034Y98360*
X250759*
X251940Y97179*
X256270*
X243278Y221195D02*
Y221589D01*
X246034Y224344*
X250759*
X251940Y223163*
X256270*
X243278Y347179D02*
Y347573D01*
X246034Y350329*
X250759*
X251940Y349148*
X256270*
X247609Y72376D02*
X249381Y74148D01*
X256270*
X247609Y84974D02*
X248003D01*
Y84384*
X256270*
X247609Y88911D02*
X256074D01*
X256270Y89108*
Y89502*
X247609Y198360D02*
X249381Y200132D01*
X256270*
X247609Y210959D02*
X248003D01*
Y210368*
X256270*
X247609Y214896D02*
X256074D01*
X256270Y215093*
Y215486*
X247609Y324344D02*
X249381Y326116D01*
X256270*
X247609Y336943D02*
X248003D01*
Y336352*
X256270*
X247609Y340880D02*
X256074D01*
X256270Y341077*
Y341470*
X247904Y39699D02*
X245641D01*
X244853Y40486*
Y49935*
X247215Y52297*
X247904Y165683D02*
X245641D01*
X244853Y166470*
Y175919*
X247215Y178281*
X247904Y291667D02*
X245641D01*
X244853Y292455*
Y301904*
X247215Y304266*
X248003Y68045D02*
X245641D01*
X242491Y71195*
Y76313*
X248003Y194030D02*
X245641D01*
X242491Y197179*
Y202297*
X248003Y320014D02*
X245641D01*
X242491Y323163*
Y328281*
X256270Y76707D02*
X252333D01*
X251940Y76313*
X242491*
X256270Y79266D02*
X252530D01*
X251152Y77888*
X244853*
X244066Y78675*
Y89305*
X242885Y90486*
X241310*
X238160Y93636*
Y103478*
X256270Y81825D02*
X252038D01*
X250857Y80644*
X247609*
X256270Y92061D02*
X242097D01*
X240522Y93636*
Y99541*
X242491Y101510*
X242885*
X244853Y103478*
X245247*
X256270Y94620D02*
X247412D01*
X247215Y94817*
X256270Y202691D02*
X252333D01*
X251940Y202297*
X242491*
X256270Y205250D02*
X252530D01*
X251152Y203872*
X244853*
X244066Y204659*
Y215289*
X242885Y216470*
X241310*
X238160Y219620*
Y229463*
X256270Y207809D02*
X252038D01*
X250857Y206628*
X247609*
X256270Y218045D02*
X242097D01*
X240522Y219620*
Y225526*
X242491Y227494*
X242885*
X244853Y229463*
X245247*
X256270Y220604D02*
X247412D01*
X247215Y220801*
X256270Y328675D02*
X252333D01*
X251940Y328281*
X242491*
X256270Y331234D02*
X252530D01*
X251152Y329856*
X244853*
X244066Y330644*
Y341274*
X242885Y342455*
X241310*
X238160Y345604*
Y355447*
X256270Y333793D02*
X252038D01*
X250857Y332612*
X247609*
X256270Y344030D02*
X242097D01*
X240522Y345604*
Y351510*
X242491Y353478*
X242885*
X244853Y355447*
X245247*
X256270Y346589D02*
X247412D01*
X247215Y346785*
X263751Y51904D02*
X261782D01*
X260995Y51116*
Y40093*
X260601Y39699*
X257944*
X263751Y177888D02*
X261782D01*
X260995Y177100*
Y166077*
X260601Y165683*
X257944*
X263751Y303872D02*
X261782D01*
X260995Y303085*
Y292061*
X260601Y291667*
X257944*
X264046Y46785D02*
Y39699D01*
Y172770D02*
Y165683D01*
Y298754D02*
Y291667D01*
X282452Y69030D02*
Y65880D01*
X283042Y65289*
X282452Y84384D02*
X290129D01*
Y83400*
X282452Y86943D02*
X290129D01*
Y87730*
X282452Y94620D02*
X278121D01*
X277924Y94423*
Y40880*
X277530*
X271231Y34581*
X239341*
X236585Y37337*
Y54266*
X238160Y55841*
X282452Y97179D02*
X277530D01*
X276349Y95998*
Y51073*
X268475Y43199*
Y42805*
X282452Y99738D02*
X287176D01*
X288948Y101510*
X282452Y102297D02*
X285404D01*
X288554Y105447*
X282452Y195014D02*
Y191864D01*
X283042Y191274*
X282452Y210368D02*
X290129D01*
Y209384*
X282452Y212927D02*
X290129D01*
Y213715*
X282452Y220604D02*
X278121D01*
X277924Y220407*
Y166864*
X277530*
X271231Y160565*
X239341*
X236585Y163321*
Y180250*
X238160Y181825*
X282452Y223163D02*
X277530D01*
X276349Y221982*
Y177057*
X268475Y169183*
Y168789*
X282452Y225722D02*
X287176D01*
X288948Y227494*
X282452Y228281D02*
X285404D01*
X288554Y231431*
X282452Y320998D02*
Y317848D01*
X283042Y317258*
X282452Y336352D02*
X290129D01*
Y335368*
X282452Y338911D02*
X290129D01*
Y339699*
X282452Y346589D02*
X278121D01*
X277924Y346392*
Y292848*
X277530*
X271231Y286549*
X239341*
X236585Y289305*
Y306234*
X238160Y307809*
X282452Y349148D02*
X277530D01*
X276349Y347967*
Y303041*
X268475Y295167*
Y294774*
X282452Y351707D02*
X287176D01*
X288948Y353478*
X282452Y354266D02*
X285404D01*
X288554Y357415*
X290916Y67652D02*
Y69226D01*
X288554Y71589*
X282452*
X290916Y193636D02*
Y195211D01*
X288554Y197573*
X282452*
X290916Y319620D02*
Y321195D01*
X288554Y323557*
X282452*
X295641Y73262D02*
X309519D01*
X316999Y80742*
Y81136*
X295641Y73262D02*
X291704D01*
X287767Y77199*
Y78281*
X286782Y79266*
X282452*
X295641Y79364D02*
X291211D01*
X290522Y78675*
X295641Y85073D02*
X307550D01*
X311487Y89010*
X316999*
X295641Y85073D02*
X293770D01*
X293278Y85565*
Y88518*
X291310Y90486*
X287767*
X287373Y90093*
X282452*
Y89502*
X295641Y96490D02*
X303121D01*
Y113715*
X297215Y119620*
X293672*
X295641Y96490D02*
Y96392D01*
X294066*
X289932Y92258*
Y92061*
X282452*
X295641Y199246D02*
X309519D01*
X316999Y206726*
Y207120*
X295641Y199246D02*
X291704D01*
X287767Y203183*
Y204266*
X286782Y205250*
X282452*
X295641Y205348D02*
X291211D01*
X290522Y204659*
X295641Y211057D02*
X307550D01*
X311487Y214994*
X316999*
X295641Y211057D02*
X293770D01*
X293278Y211549*
Y214502*
X291310Y216470*
X287767*
X287373Y216077*
X282452*
Y215486*
X295641Y222474D02*
X303121D01*
Y239699*
X297215Y245604*
X293672*
X295641Y222474D02*
Y222376D01*
X294066*
X289932Y218242*
Y218045*
X282452*
X295641Y325230D02*
X309519D01*
X316999Y332711*
Y333104*
X295641Y325230D02*
X291704D01*
X287767Y329167*
Y330250*
X286782Y331234*
X282452*
X295641Y331333D02*
X291211D01*
X290522Y330644*
X295641Y337041D02*
X307550D01*
X311487Y340978*
X316999*
X295641Y337041D02*
X293770D01*
X293278Y337533*
Y340486*
X291310Y342455*
X287767*
X287373Y342061*
X282452*
Y341470*
X295641Y348459D02*
X303121D01*
Y365683*
X297215Y371589*
X293672*
X295641Y348459D02*
Y348360D01*
X294066*
X289932Y344226*
Y344030*
X282452*
D02*
D25*
X84322Y39699D03*
Y46785D03*
Y165683D03*
Y172770D03*
Y291667D03*
Y298754D03*
X90424Y39699D03*
Y46785D03*
Y165683D03*
Y172770D03*
Y291667D03*
Y298754D03*
X100463Y39699D03*
Y46785D03*
Y165683D03*
Y172770D03*
Y291667D03*
Y298754D03*
X106566Y39699D03*
Y46785D03*
Y165683D03*
Y172770D03*
Y291667D03*
Y298754D03*
X241802Y39699D03*
Y46785D03*
Y165683D03*
Y172770D03*
Y291667D03*
Y298754D03*
X247904Y39699D03*
Y46785D03*
Y165683D03*
Y172770D03*
Y291667D03*
Y298754D03*
X257944Y39699D03*
Y46785D03*
Y165683D03*
Y172770D03*
Y291667D03*
Y298754D03*
X264046Y39699D03*
Y46785D03*
Y165683D03*
Y172770D03*
Y291667D03*
Y298754D03*
D02*
D26*
X138160Y73262D03*
Y79364D03*
Y85073D03*
Y91175D03*
Y96490D03*
Y102593D03*
Y199246D03*
Y205348D03*
Y211057D03*
Y217159D03*
Y222474D03*
Y228577D03*
Y325230D03*
Y331333D03*
Y337041D03*
Y343144D03*
Y348459D03*
Y354561D03*
X295641Y73262D03*
Y79364D03*
Y85073D03*
Y91175D03*
Y96490D03*
Y102593D03*
Y199246D03*
Y205348D03*
Y211057D03*
Y217159D03*
Y222474D03*
Y228577D03*
Y325230D03*
Y331333D03*
Y337041D03*
Y343144D03*
Y348459D03*
Y354561D03*
D02*
D74*
X46782Y62140D03*
Y72140D03*
Y82140D03*
Y92140D03*
Y102140D03*
Y112140D03*
Y188124D03*
Y198124D03*
Y208124D03*
Y218124D03*
Y228124D03*
Y238124D03*
Y314108D03*
Y324108D03*
Y334108D03*
Y344108D03*
Y354108D03*
Y364108D03*
X204263Y62140D03*
Y72140D03*
Y82140D03*
Y92140D03*
Y102140D03*
Y112140D03*
Y188124D03*
Y198124D03*
Y208124D03*
Y218124D03*
Y228124D03*
Y238124D03*
Y314108D03*
Y324108D03*
Y334108D03*
Y344108D03*
Y354108D03*
Y364108D03*
D02*
D75*
X159519Y81136D03*
Y207120D03*
Y333104D03*
X316999Y81136D03*
Y207120D03*
Y333104D03*
D02*
D76*
X159519Y89010D03*
Y96884D03*
Y214994D03*
Y222868D03*
Y340978D03*
Y348852D03*
X316999Y89010D03*
Y96884D03*
Y214994D03*
Y222868D03*
Y340978D03*
Y348852D03*
D02*
D77*
X59794Y61756D02*
Y52278D01*
X59026Y51510*
X68475*
X69794Y52829*
Y61756*
X59794Y83000D02*
X64794D01*
X59794D02*
Y101126D01*
X59026*
X54696Y105457*
Y119128*
X42885*
X22904Y99148*
Y98360*
X59794Y122370D02*
X59033D01*
X53022Y128380*
X47609*
Y146195*
X102545*
X59794Y122370D02*
Y130644D01*
X64400*
X64794Y130250*
Y122370*
X59794Y187741D02*
Y178262D01*
X59026Y177494*
X68475*
X69794Y178813*
Y187741*
X59794Y208984D02*
X64794D01*
X59794D02*
Y227111D01*
X59026*
X54696Y231441*
Y245112*
X42885*
X22904Y225132*
Y224344*
X59794Y248354D02*
X59033D01*
X53022Y254364*
X47609*
Y272179*
X102545*
X59794Y248354D02*
Y256628D01*
X64400*
X64794Y256234*
Y248354*
X59794Y313725D02*
Y304246D01*
X59026Y303478*
X68475*
X69794Y304797*
Y313725*
X59794Y334968D02*
X64794D01*
X59794D02*
Y353095D01*
X59026*
X54696Y357426*
Y371096*
X42885*
X22904Y351116*
Y350329*
X59794Y374338D02*
X59033D01*
X53022Y380348*
X47609*
Y398163*
X102545*
X59794Y374338D02*
Y382612D01*
X64400*
X64794Y382219*
Y374338*
X69794Y83000D02*
Y73892D01*
X65522Y69620*
X56861*
X53515Y66274*
Y55447*
X39440*
X22904Y71982*
Y82770*
X69794Y83000D02*
Y101126D01*
Y122370D02*
Y130644D01*
X64794*
Y122370*
X69794Y208984D02*
Y199876D01*
X65522Y195604*
X56861*
X53515Y192258*
Y181431*
X39440*
X22904Y197967*
Y208754*
X69794Y208984D02*
Y227111D01*
Y248354D02*
Y256628D01*
X64794*
Y248354*
X69794Y334968D02*
Y325860D01*
X65522Y321589*
X56861*
X53515Y318242*
Y307415*
X39440*
X22904Y323951*
Y334738*
X69794Y334968D02*
Y353095D01*
Y374338D02*
Y382612D01*
X64794*
Y374338*
X74794Y83000D02*
X69794D01*
X74794Y122370D02*
Y130644D01*
X69794*
Y122370*
X74794Y208984D02*
X69794D01*
X74794Y248354D02*
Y256628D01*
X69794*
Y248354*
X74794Y334968D02*
X69794D01*
X74794Y374338D02*
Y382612D01*
X69794*
Y374338*
X89735Y117258D02*
X85004D01*
X79893Y122370*
X74794*
X89735Y243242D02*
X85004D01*
X79893Y248354*
X74794*
X89735Y369226D02*
X85004D01*
X79893Y374338*
X74794*
X217274Y61756D02*
Y52278D01*
X216507Y51510*
X225956*
X227274Y52829*
Y61756*
X217274Y83000D02*
X222274D01*
X217274D02*
Y101126D01*
X216507*
X212176Y105457*
Y119128*
X200365*
X180385Y99148*
Y98360*
X217274Y122370D02*
X216513D01*
X210503Y128380*
X205089*
Y146195*
X260026*
X217274Y122370D02*
Y130644D01*
X221881*
X222274Y130250*
Y122370*
X217274Y187741D02*
Y178262D01*
X216507Y177494*
X225956*
X227274Y178813*
Y187741*
X217274Y208984D02*
X222274D01*
X217274D02*
Y227111D01*
X216507*
X212176Y231441*
Y245112*
X200365*
X180385Y225132*
Y224344*
X217274Y248354D02*
X216513D01*
X210503Y254364*
X205089*
Y272179*
X260026*
X217274Y248354D02*
Y256628D01*
X221881*
X222274Y256234*
Y248354*
X217274Y313725D02*
Y304246D01*
X216507Y303478*
X225956*
X227274Y304797*
Y313725*
X217274Y334968D02*
X222274D01*
X217274D02*
Y353095D01*
X216507*
X212176Y357426*
Y371096*
X200365*
X180385Y351116*
Y350329*
X217274Y374338D02*
X216513D01*
X210503Y380348*
X205089*
Y398163*
X260026*
X217274Y374338D02*
Y382612D01*
X221881*
X222274Y382219*
Y374338*
X227274Y83000D02*
Y73892D01*
X223003Y69620*
X214341*
X210995Y66274*
Y55447*
X196920*
X180385Y71982*
Y82770*
X227274Y83000D02*
Y101126D01*
Y122370D02*
Y130644D01*
X222274*
Y122370*
X227274Y208984D02*
Y199876D01*
X223003Y195604*
X214341*
X210995Y192258*
Y181431*
X196920*
X180385Y197967*
Y208754*
X227274Y208984D02*
Y227111D01*
Y248354D02*
Y256628D01*
X222274*
Y248354*
X227274Y334968D02*
Y325860D01*
X223003Y321589*
X214341*
X210995Y318242*
Y307415*
X196920*
X180385Y323951*
Y334738*
X227274Y334968D02*
Y353095D01*
Y374338D02*
Y382612D01*
X222274*
Y374338*
X232274Y83000D02*
X227274D01*
X232274Y122370D02*
Y130644D01*
X227274*
Y122370*
X232274Y208984D02*
X227274D01*
X232274Y248354D02*
Y256628D01*
X227274*
Y248354*
X232274Y334968D02*
X227274D01*
X232274Y374338D02*
Y382612D01*
X227274*
Y374338*
X247215Y117258D02*
X242485D01*
X237373Y122370*
X232274*
X247215Y243242D02*
X242485D01*
X237373Y248354*
X232274*
X247215Y369226D02*
X242485D01*
X237373Y374338*
X232274*
D02*
D95*
X22904Y98360D03*
Y224344D03*
Y350329D03*
X180385Y98360D03*
Y224344D03*
Y350329D03*
D02*
D96*
X22904Y82770D03*
Y208754D03*
Y334738D03*
X180385Y82770D03*
Y208754D03*
Y334738D03*
D02*
D121*
X89735Y117258D02*
X94066D01*
X94459Y116864*
X89735Y243242D02*
X94066D01*
X94459Y242848*
X89735Y369226D02*
X94066D01*
X94459Y368833*
X90424Y46785D02*
X95247D01*
X90424Y172770D02*
X95247D01*
X90424Y298754D02*
X95247D01*
Y46785D02*
X100463D01*
X95247Y172770D02*
X100463D01*
X95247Y298754D02*
X100463D01*
X98790Y84384D02*
X103318D01*
X104302Y85368*
Y95998*
X105089Y96785*
X112570*
X113751Y97967*
Y117652*
X98790Y102297D02*
X90129Y110959D01*
Y116864*
X89735Y117258*
X98790Y210368D02*
X103318D01*
X104302Y211352*
Y221982*
X105089Y222770*
X112570*
X113751Y223951*
Y243636*
X98790Y228281D02*
X90129Y236943D01*
Y242848*
X89735Y243242*
X98790Y336352D02*
X103318D01*
X104302Y337337*
Y347967*
X105089Y348754*
X112570*
X113751Y349935*
Y369620*
X98790Y354266D02*
X90129Y362927D01*
Y368833*
X89735Y369226*
X103908Y62927D02*
X97215D01*
X93672Y66470*
Y70801*
X94459Y71589*
X98790*
X103908Y188911D02*
X97215D01*
X93672Y192455*
Y196785*
X94459Y197573*
X98790*
X103908Y314896D02*
X97215D01*
X93672Y318439*
Y322770*
X94459Y323557*
X98790*
X133042Y78675D02*
X129893Y81825D01*
X124971*
X133042Y204659D02*
X129893Y207809D01*
X124971*
X133042Y330644D02*
X129893Y333793D01*
X124971*
X138160Y102593D02*
Y105841D01*
X135404Y108596*
X123200*
X121231Y110565*
Y124344*
X119263Y126313*
X90522*
X88948Y124738*
Y118045*
X89735Y117258*
X138160Y228577D02*
Y231825D01*
X135404Y234581*
X123200*
X121231Y236549*
Y250329*
X119263Y252297*
X90522*
X88948Y250722*
Y244030*
X89735Y243242*
X138160Y354561D02*
Y357809D01*
X135404Y360565*
X123200*
X121231Y362533*
Y376313*
X119263Y378281*
X90522*
X88948Y376707*
Y370014*
X89735Y369226*
X247215Y117258D02*
X251546D01*
X251940Y116864*
X247215Y243242D02*
X251546D01*
X251940Y242848*
X247215Y369226D02*
X251546D01*
X251940Y368833*
X247904Y46785D02*
X252727D01*
X247904Y172770D02*
X252727D01*
X247904Y298754D02*
X252727D01*
Y46785D02*
X257944D01*
X252727Y172770D02*
X257944D01*
X252727Y298754D02*
X257944D01*
X256270Y84384D02*
X260798D01*
X261782Y85368*
Y95998*
X262570Y96785*
X270050*
X271231Y97967*
Y117652*
X256270Y102297D02*
X247609Y110959D01*
Y116864*
X247215Y117258*
X256270Y210368D02*
X260798D01*
X261782Y211352*
Y221982*
X262570Y222770*
X270050*
X271231Y223951*
Y243636*
X256270Y228281D02*
X247609Y236943D01*
Y242848*
X247215Y243242*
X256270Y336352D02*
X260798D01*
X261782Y337337*
Y347967*
X262570Y348754*
X270050*
X271231Y349935*
Y369620*
X256270Y354266D02*
X247609Y362927D01*
Y368833*
X247215Y369226*
X261389Y62927D02*
X254696D01*
X251152Y66470*
Y70801*
X251940Y71589*
X256270*
X261389Y188911D02*
X254696D01*
X251152Y192455*
Y196785*
X251940Y197573*
X256270*
X261389Y314896D02*
X254696D01*
X251152Y318439*
Y322770*
X251940Y323557*
X256270*
X290522Y78675D02*
X287373Y81825D01*
X282452*
X290522Y204659D02*
X287373Y207809D01*
X282452*
X290522Y330644D02*
X287373Y333793D01*
X282452*
X295641Y102593D02*
Y105841D01*
X292885Y108596*
X280680*
X278711Y110565*
Y124344*
X276743Y126313*
X248003*
X246428Y124738*
Y118045*
X247215Y117258*
X295641Y228577D02*
Y231825D01*
X292885Y234581*
X280680*
X278711Y236549*
Y250329*
X276743Y252297*
X248003*
X246428Y250722*
Y244030*
X247215Y243242*
X295641Y354561D02*
Y357809D01*
X292885Y360565*
X280680*
X278711Y362533*
Y376313*
X276743Y378281*
X248003*
X246428Y376707*
Y370014*
X247215Y369226*
D02*
D137*
X23987Y40880D03*
Y143242D03*
Y166864D03*
Y269226D03*
Y292848D03*
Y395211D03*
X157845Y40880D03*
Y143242D03*
Y166864D03*
Y269226D03*
Y292848D03*
Y395211D03*
X181467Y40880D03*
Y143242D03*
Y166864D03*
Y269226D03*
Y292848D03*
Y395211D03*
X315326Y40880D03*
Y143242D03*
Y166864D03*
Y269226D03*
Y292848D03*
Y395211D03*
D02*
D138*
X59794Y61756D03*
Y83000D03*
Y101126D03*
Y122370D03*
Y187741D03*
Y208984D03*
Y227111D03*
Y248354D03*
Y313725D03*
Y334968D03*
Y353095D03*
Y374338D03*
X64794Y61756D03*
Y83000D03*
Y101126D03*
Y122370D03*
Y187741D03*
Y208984D03*
Y227111D03*
Y248354D03*
Y313725D03*
Y334968D03*
Y353095D03*
Y374338D03*
X69794Y61756D03*
Y83000D03*
Y101126D03*
Y122370D03*
Y187741D03*
Y208984D03*
Y227111D03*
Y248354D03*
Y313725D03*
Y334968D03*
Y353095D03*
Y374338D03*
X74794Y61756D03*
Y83000D03*
Y101126D03*
Y122370D03*
Y187741D03*
Y208984D03*
Y227111D03*
Y248354D03*
Y313725D03*
Y334968D03*
Y353095D03*
Y374338D03*
X217274Y61756D03*
Y83000D03*
Y101126D03*
Y122370D03*
Y187741D03*
Y208984D03*
Y227111D03*
Y248354D03*
Y313725D03*
Y334968D03*
Y353095D03*
Y374338D03*
X222274Y61756D03*
Y83000D03*
Y101126D03*
Y122370D03*
Y187741D03*
Y208984D03*
Y227111D03*
Y248354D03*
Y313725D03*
Y334968D03*
Y353095D03*
Y374338D03*
X227274Y61756D03*
Y83000D03*
Y101126D03*
Y122370D03*
Y187741D03*
Y208984D03*
Y227111D03*
Y248354D03*
Y313725D03*
Y334968D03*
Y353095D03*
Y374338D03*
X232274Y61756D03*
Y83000D03*
Y101126D03*
Y122370D03*
Y187741D03*
Y208984D03*
Y227111D03*
Y248354D03*
Y313725D03*
Y334968D03*
Y353095D03*
Y374338D03*
D02*
D139*
X98790Y69030D03*
Y71589D03*
Y74148D03*
Y76707D03*
Y79266D03*
Y81825D03*
Y84384D03*
Y86943D03*
Y89502D03*
Y92061D03*
Y94620D03*
Y97179D03*
Y99738D03*
Y102297D03*
Y195014D03*
Y197573D03*
Y200132D03*
Y202691D03*
Y205250D03*
Y207809D03*
Y210368D03*
Y212927D03*
Y215486D03*
Y218045D03*
Y220604D03*
Y223163D03*
Y225722D03*
Y228281D03*
Y320998D03*
Y323557D03*
Y326116D03*
Y328675D03*
Y331234D03*
Y333793D03*
Y336352D03*
Y338911D03*
Y341470D03*
Y344030D03*
Y346589D03*
Y349148D03*
Y351707D03*
Y354266D03*
X124971Y69030D03*
Y71589D03*
Y74148D03*
Y76707D03*
Y79266D03*
Y81825D03*
Y84384D03*
Y86943D03*
Y89502D03*
Y92061D03*
Y94620D03*
Y97179D03*
Y99738D03*
Y102297D03*
Y195014D03*
Y197573D03*
Y200132D03*
Y202691D03*
Y205250D03*
Y207809D03*
Y210368D03*
Y212927D03*
Y215486D03*
Y218045D03*
Y220604D03*
Y223163D03*
Y225722D03*
Y228281D03*
Y320998D03*
Y323557D03*
Y326116D03*
Y328675D03*
Y331234D03*
Y333793D03*
Y336352D03*
Y338911D03*
Y341470D03*
Y344030D03*
Y346589D03*
Y349148D03*
Y351707D03*
Y354266D03*
X256270Y69030D03*
Y71589D03*
Y74148D03*
Y76707D03*
Y79266D03*
Y81825D03*
Y84384D03*
Y86943D03*
Y89502D03*
Y92061D03*
Y94620D03*
Y97179D03*
Y99738D03*
Y102297D03*
Y195014D03*
Y197573D03*
Y200132D03*
Y202691D03*
Y205250D03*
Y207809D03*
Y210368D03*
Y212927D03*
Y215486D03*
Y218045D03*
Y220604D03*
Y223163D03*
Y225722D03*
Y228281D03*
Y320998D03*
Y323557D03*
Y326116D03*
Y328675D03*
Y331234D03*
Y333793D03*
Y336352D03*
Y338911D03*
Y341470D03*
Y344030D03*
Y346589D03*
Y349148D03*
Y351707D03*
Y354266D03*
X282452Y69030D03*
Y71589D03*
Y74148D03*
Y76707D03*
Y79266D03*
Y81825D03*
Y84384D03*
Y86943D03*
Y89502D03*
Y92061D03*
Y94620D03*
Y97179D03*
Y99738D03*
Y102297D03*
Y195014D03*
Y197573D03*
Y200132D03*
Y202691D03*
Y205250D03*
Y207809D03*
Y210368D03*
Y212927D03*
Y215486D03*
Y218045D03*
Y220604D03*
Y223163D03*
Y225722D03*
Y228281D03*
Y320998D03*
Y323557D03*
Y326116D03*
Y328675D03*
Y331234D03*
Y333793D03*
Y336352D03*
Y338911D03*
Y341470D03*
Y344030D03*
Y346589D03*
Y349148D03*
Y351707D03*
Y354266D03*
D02*
D140*
X111916Y85422D03*
Y211407D03*
Y337391D03*
X269396Y85422D03*
Y211407D03*
Y337391D03*
D02*
D141*
X89735Y117258D03*
Y134581D03*
Y243242D03*
Y260565D03*
Y369226D03*
Y386549D03*
X113751Y117652D03*
Y134974D03*
Y243636D03*
Y260959D03*
Y369620D03*
Y386943D03*
X247215Y117258D03*
Y134581D03*
Y243242D03*
Y260565D03*
Y369226D03*
Y386549D03*
X271231Y117652D03*
Y134974D03*
Y243636D03*
Y260959D03*
Y369620D03*
Y386943D03*
D02*
D142*
X136192Y119620D03*
Y145211D03*
Y245604D03*
Y271195D03*
Y371589D03*
Y397179D03*
X293672Y119620D03*
Y145211D03*
Y245604D03*
Y271195D03*
Y371589D03*
Y397179D03*
D02*
D143*
X94459Y116864D03*
Y242848D03*
Y368833D03*
X102545Y146195D03*
Y272179D03*
Y398163D03*
X251940Y116864D03*
Y242848D03*
Y368833D03*
X260026Y146195D03*
Y272179D03*
Y398163D03*
D02*
D144*
X64794Y57415D03*
Y96785D03*
Y183400D03*
Y222770D03*
Y309384D03*
Y348754D03*
X74774Y57415D03*
Y183400D03*
Y309384D03*
X74794Y96785D03*
Y222770D03*
Y348754D03*
X76349Y90486D03*
Y216470D03*
Y342455D03*
X80680Y55841D03*
Y103478D03*
Y181825D03*
Y229463D03*
Y307809D03*
Y355447D03*
X85798Y95211D03*
Y221195D03*
Y347179D03*
X87767Y103478D03*
Y229463D03*
Y355447D03*
X89735Y52297D03*
Y94817D03*
Y178281D03*
Y220801D03*
Y304266D03*
Y346785D03*
X90129Y72376D03*
Y80644D03*
Y84974D03*
Y88911D03*
Y198360D03*
Y206628D03*
Y210959D03*
Y214896D03*
Y324344D03*
Y332612D03*
Y336943D03*
Y340880D03*
X90522Y68045D03*
Y194030D03*
Y320014D03*
X95247Y46785D03*
Y172770D03*
Y298754D03*
X99184Y107022D03*
Y233006D03*
Y358990D03*
X103908Y62927D03*
Y188911D03*
Y314896D03*
X106270Y51904D03*
Y177888D03*
Y303872D03*
X106664Y118045D03*
Y244030D03*
Y370014D03*
X110207Y77494D03*
Y82219D03*
Y86943D03*
Y91667D03*
Y203478D03*
Y208203D03*
Y212927D03*
Y217652D03*
Y329463D03*
Y334187D03*
Y338911D03*
Y343636D03*
X110995Y42805D03*
Y168789D03*
Y294774D03*
X114932Y77494D03*
Y82219D03*
Y86943D03*
Y91667D03*
Y203478D03*
Y208203D03*
Y212927D03*
Y217652D03*
Y329463D03*
Y334187D03*
Y338911D03*
Y343636D03*
X125562Y65289D03*
Y191274D03*
Y317258D03*
X131074Y105447D03*
Y231431D03*
Y357415D03*
X131467Y101510D03*
Y227494D03*
Y353478D03*
X132648Y83400D03*
Y87730D03*
Y209384D03*
Y213715D03*
Y335368D03*
Y339699D03*
X133042Y78675D03*
Y204659D03*
Y330644D03*
X133436Y67652D03*
Y193636D03*
Y319620D03*
X142491Y91175D03*
Y217159D03*
Y343144D03*
X222274Y57415D03*
Y96785D03*
Y183400D03*
Y222770D03*
Y309384D03*
Y348754D03*
X232255Y57415D03*
Y183400D03*
Y309384D03*
X232274Y96785D03*
Y222770D03*
Y348754D03*
X233830Y90486D03*
Y216470D03*
Y342455D03*
X238160Y55841D03*
Y103478D03*
Y181825D03*
Y229463D03*
Y307809D03*
Y355447D03*
X243278Y95211D03*
Y221195D03*
Y347179D03*
X245247Y103478D03*
Y229463D03*
Y355447D03*
X247215Y52297D03*
Y94817D03*
Y178281D03*
Y220801D03*
Y304266D03*
Y346785D03*
X247609Y72376D03*
Y80644D03*
Y84974D03*
Y88911D03*
Y198360D03*
Y206628D03*
Y210959D03*
Y214896D03*
Y324344D03*
Y332612D03*
Y336943D03*
Y340880D03*
X248003Y68045D03*
Y194030D03*
Y320014D03*
X252727Y46785D03*
Y172770D03*
Y298754D03*
X256664Y107022D03*
Y233006D03*
Y358990D03*
X261389Y62927D03*
Y188911D03*
Y314896D03*
X263751Y51904D03*
Y177888D03*
Y303872D03*
X264144Y118045D03*
Y244030D03*
Y370014D03*
X267688Y77494D03*
Y82219D03*
Y86943D03*
Y91667D03*
Y203478D03*
Y208203D03*
Y212927D03*
Y217652D03*
Y329463D03*
Y334187D03*
Y338911D03*
Y343636D03*
X268475Y42805D03*
Y168789D03*
Y294774D03*
X272412Y77494D03*
Y82219D03*
Y86943D03*
Y91667D03*
Y203478D03*
Y208203D03*
Y212927D03*
Y217652D03*
Y329463D03*
Y334187D03*
Y338911D03*
Y343636D03*
X283042Y65289D03*
Y191274D03*
Y317258D03*
X288554Y105447D03*
Y231431D03*
Y357415D03*
X288948Y101510D03*
Y227494D03*
Y353478D03*
X290129Y83400D03*
Y87730D03*
Y209384D03*
Y213715D03*
Y335368D03*
Y339699D03*
X290522Y78675D03*
Y204659D03*
Y330644D03*
X290916Y67652D03*
Y193636D03*
Y319620D03*
X299971Y91175D03*
Y217159D03*
Y343144D03*
X0Y0D02*
M02*
