G04 EasyPC Gerber Version 21.0.3 Build 4286 *
G04 #@! TF.Part,Single*
G04 #@! TF.FileFunction,Soldermask,Top *
G04 #@! TF.FilePolarity,Negative *
%FSLAX45Y45*%
%MOIN*%
G04 #@! TA.AperFunction,SMDPad*
%ADD23R,0.03559X0.04937*%
%ADD87R,0.03992X0.07299*%
%ADD90R,0.07299X0.12811*%
%ADD89R,0.12811X0.20685*%
G04 #@! TA.AperFunction,ComponentPad*
%ADD140R,0.06315X0.06315*%
%ADD93R,0.11630X0.11630*%
%ADD141C,0.06315*%
%ADD24C,0.07693*%
%ADD92C,0.11236*%
%ADD94C,0.11630*%
G04 #@! TA.AperFunction,WasherPad*
%ADD86C,0.22654*%
G04 #@! TA.AperFunction,SMDPad*
%ADD88R,0.07496X0.02772*%
%ADD28R,0.04937X0.03559*%
X0Y0D02*
D02*
D23*
X83849Y39699D03*
Y46785D03*
Y165683D03*
Y172770D03*
Y291667D03*
Y298754D03*
X89952Y39699D03*
Y46785D03*
Y165683D03*
Y172770D03*
Y291667D03*
Y298754D03*
X99991Y39699D03*
Y46785D03*
Y165683D03*
Y172770D03*
Y291667D03*
Y298754D03*
X106093Y39699D03*
Y46785D03*
Y165683D03*
Y172770D03*
Y291667D03*
Y298754D03*
X241330Y39699D03*
Y46785D03*
Y165683D03*
Y172770D03*
Y291667D03*
Y298754D03*
X247432Y39699D03*
Y46785D03*
Y165683D03*
Y172770D03*
Y291667D03*
Y298754D03*
X257471Y39699D03*
Y46785D03*
Y165683D03*
Y172770D03*
Y291667D03*
Y298754D03*
X263574Y39699D03*
Y46785D03*
Y165683D03*
Y172770D03*
Y291667D03*
Y298754D03*
D02*
D24*
X46310Y62140D03*
Y72140D03*
Y82140D03*
Y92140D03*
Y102140D03*
Y112140D03*
Y188124D03*
Y198124D03*
Y208124D03*
Y218124D03*
Y228124D03*
Y238124D03*
Y314108D03*
Y324108D03*
Y334108D03*
Y344108D03*
Y354108D03*
Y364108D03*
X203790Y62140D03*
Y72140D03*
Y82140D03*
Y92140D03*
Y102140D03*
Y112140D03*
Y188124D03*
Y198124D03*
Y208124D03*
Y218124D03*
Y228124D03*
Y238124D03*
Y314108D03*
Y324108D03*
Y334108D03*
Y344108D03*
Y354108D03*
Y364108D03*
D02*
D28*
X137688Y73262D03*
Y79364D03*
Y85073D03*
Y91175D03*
Y96490D03*
Y102593D03*
Y199246D03*
Y205348D03*
Y211057D03*
Y217159D03*
Y222474D03*
Y228577D03*
Y325230D03*
Y331333D03*
Y337041D03*
Y343144D03*
Y348459D03*
Y354561D03*
X295168Y73262D03*
Y79364D03*
Y85073D03*
Y91175D03*
Y96490D03*
Y102593D03*
Y199246D03*
Y205348D03*
Y211057D03*
Y217159D03*
Y222474D03*
Y228577D03*
Y325230D03*
Y331333D03*
Y337041D03*
Y343144D03*
Y348459D03*
Y354561D03*
D02*
D86*
X23515Y40880D03*
Y143242D03*
Y166864D03*
Y269226D03*
Y292848D03*
Y395211D03*
X157373Y40880D03*
Y143242D03*
Y166864D03*
Y269226D03*
Y292848D03*
Y395211D03*
X180995Y40880D03*
Y143242D03*
Y166864D03*
Y269226D03*
Y292848D03*
Y395211D03*
X314853Y40880D03*
Y143242D03*
Y166864D03*
Y269226D03*
Y292848D03*
Y395211D03*
D02*
D87*
X59322Y61756D03*
Y83000D03*
Y101126D03*
Y122370D03*
Y187741D03*
Y208984D03*
Y227111D03*
Y248354D03*
Y313725D03*
Y334968D03*
Y353095D03*
Y374338D03*
X64322Y61756D03*
Y83000D03*
Y101126D03*
Y122370D03*
Y187741D03*
Y208984D03*
Y227111D03*
Y248354D03*
Y313725D03*
Y334968D03*
Y353095D03*
Y374338D03*
X69322Y61756D03*
Y83000D03*
Y101126D03*
Y122370D03*
Y187741D03*
Y208984D03*
Y227111D03*
Y248354D03*
Y313725D03*
Y334968D03*
Y353095D03*
Y374338D03*
X74322Y61756D03*
Y83000D03*
Y101126D03*
Y122370D03*
Y187741D03*
Y208984D03*
Y227111D03*
Y248354D03*
Y313725D03*
Y334968D03*
Y353095D03*
Y374338D03*
X216802Y61756D03*
Y83000D03*
Y101126D03*
Y122370D03*
Y187741D03*
Y208984D03*
Y227111D03*
Y248354D03*
Y313725D03*
Y334968D03*
Y353095D03*
Y374338D03*
X221802Y61756D03*
Y83000D03*
Y101126D03*
Y122370D03*
Y187741D03*
Y208984D03*
Y227111D03*
Y248354D03*
Y313725D03*
Y334968D03*
Y353095D03*
Y374338D03*
X226802Y61756D03*
Y83000D03*
Y101126D03*
Y122370D03*
Y187741D03*
Y208984D03*
Y227111D03*
Y248354D03*
Y313725D03*
Y334968D03*
Y353095D03*
Y374338D03*
X231802Y61756D03*
Y83000D03*
Y101126D03*
Y122370D03*
Y187741D03*
Y208984D03*
Y227111D03*
Y248354D03*
Y313725D03*
Y334968D03*
Y353095D03*
Y374338D03*
D02*
D88*
X98318Y69030D03*
Y71589D03*
Y74148D03*
Y76707D03*
Y79266D03*
Y81825D03*
Y84384D03*
Y86943D03*
Y89502D03*
Y92061D03*
Y94620D03*
Y97179D03*
Y99738D03*
Y102297D03*
Y195014D03*
Y197573D03*
Y200132D03*
Y202691D03*
Y205250D03*
Y207809D03*
Y210368D03*
Y212927D03*
Y215486D03*
Y218045D03*
Y220604D03*
Y223163D03*
Y225722D03*
Y228281D03*
Y320998D03*
Y323557D03*
Y326116D03*
Y328675D03*
Y331234D03*
Y333793D03*
Y336352D03*
Y338911D03*
Y341470D03*
Y344030D03*
Y346589D03*
Y349148D03*
Y351707D03*
Y354266D03*
X124499Y69030D03*
Y71589D03*
Y74148D03*
Y76707D03*
Y79266D03*
Y81825D03*
Y84384D03*
Y86943D03*
Y89502D03*
Y92061D03*
Y94620D03*
Y97179D03*
Y99738D03*
Y102297D03*
Y195014D03*
Y197573D03*
Y200132D03*
Y202691D03*
Y205250D03*
Y207809D03*
Y210368D03*
Y212927D03*
Y215486D03*
Y218045D03*
Y220604D03*
Y223163D03*
Y225722D03*
Y228281D03*
Y320998D03*
Y323557D03*
Y326116D03*
Y328675D03*
Y331234D03*
Y333793D03*
Y336352D03*
Y338911D03*
Y341470D03*
Y344030D03*
Y346589D03*
Y349148D03*
Y351707D03*
Y354266D03*
X255798Y69030D03*
Y71589D03*
Y74148D03*
Y76707D03*
Y79266D03*
Y81825D03*
Y84384D03*
Y86943D03*
Y89502D03*
Y92061D03*
Y94620D03*
Y97179D03*
Y99738D03*
Y102297D03*
Y195014D03*
Y197573D03*
Y200132D03*
Y202691D03*
Y205250D03*
Y207809D03*
Y210368D03*
Y212927D03*
Y215486D03*
Y218045D03*
Y220604D03*
Y223163D03*
Y225722D03*
Y228281D03*
Y320998D03*
Y323557D03*
Y326116D03*
Y328675D03*
Y331234D03*
Y333793D03*
Y336352D03*
Y338911D03*
Y341470D03*
Y344030D03*
Y346589D03*
Y349148D03*
Y351707D03*
Y354266D03*
X281979Y69030D03*
Y71589D03*
Y74148D03*
Y76707D03*
Y79266D03*
Y81825D03*
Y84384D03*
Y86943D03*
Y89502D03*
Y92061D03*
Y94620D03*
Y97179D03*
Y99738D03*
Y102297D03*
Y195014D03*
Y197573D03*
Y200132D03*
Y202691D03*
Y205250D03*
Y207809D03*
Y210368D03*
Y212927D03*
Y215486D03*
Y218045D03*
Y220604D03*
Y223163D03*
Y225722D03*
Y228281D03*
Y320998D03*
Y323557D03*
Y326116D03*
Y328675D03*
Y331234D03*
Y333793D03*
Y336352D03*
Y338911D03*
Y341470D03*
Y344030D03*
Y346589D03*
Y349148D03*
Y351707D03*
Y354266D03*
D02*
D89*
X111444Y85422D03*
Y211407D03*
Y337391D03*
X268924Y85422D03*
Y211407D03*
Y337391D03*
D02*
D90*
X89263Y117258D03*
Y134581D03*
Y243242D03*
Y260565D03*
Y369226D03*
Y386549D03*
X113278Y117652D03*
Y134974D03*
Y243636D03*
Y260959D03*
Y369620D03*
Y386943D03*
X246743Y117258D03*
Y134581D03*
Y243242D03*
Y260565D03*
Y369226D03*
Y386549D03*
X270759Y117652D03*
Y134974D03*
Y243636D03*
Y260959D03*
Y369620D03*
Y386943D03*
D02*
D92*
X135719Y119620D03*
Y145211D03*
Y245604D03*
Y271195D03*
Y371589D03*
Y397179D03*
X293200Y119620D03*
Y145211D03*
Y245604D03*
Y271195D03*
Y371589D03*
Y397179D03*
D02*
D93*
X22432Y98360D03*
Y224344D03*
Y350329D03*
X179912Y98360D03*
Y224344D03*
Y350329D03*
D02*
D94*
X22432Y82770D03*
Y208754D03*
Y334738D03*
X179912Y82770D03*
Y208754D03*
Y334738D03*
D02*
D140*
X154814Y76215D03*
Y202199D03*
Y328183D03*
X312294Y76215D03*
Y202199D03*
Y328183D03*
D02*
D141*
X154814Y84089D03*
Y91963D03*
Y99837D03*
Y210073D03*
Y217947D03*
Y225821D03*
Y336057D03*
Y343931D03*
Y351805D03*
X312294Y84089D03*
Y91963D03*
Y99837D03*
Y210073D03*
Y217947D03*
Y225821D03*
Y336057D03*
Y343931D03*
Y351805D03*
X0Y0D02*
M02*
