G04 EasyPC Gerber Version 21.0.3 Build 4286 *
G04 #@! TF.Part,Single*
G04 #@! TF.FileFunction,Legend,Bot *
G04 #@! TF.FilePolarity,Positive *
%FSLAX34Y34*%
%MOMM*%
%ADD80C,0.02540*%
%ADD10C,0.12700*%
X0Y0D02*
D02*
D10*
X178095Y26392D02*
X205175D01*
Y11312*
X178095*
Y26392*
X196175Y93312D02*
X169095D01*
Y108392*
X196175*
Y93312*
Y111312D02*
X169095D01*
Y126392*
X196175*
Y111312*
Y194312D02*
X169095D01*
Y209392*
X196175*
Y194312*
Y211312D02*
X169095D01*
Y226392*
X196175*
Y211312*
X201095Y132392D02*
X228175D01*
Y117312*
X201095*
Y132392*
Y149392D02*
X228175D01*
Y134312*
X201095*
Y149392*
X202175Y72312D02*
X175095D01*
Y87392*
X202175*
Y72312*
X204635Y87852D02*
X240635D01*
Y72852*
X204635*
Y87852*
X207780Y66157D02*
X172135D01*
Y28692*
X207780*
Y66157*
X218095Y26392D02*
X245175D01*
Y11312*
X218095*
Y26392*
X228175Y151312D02*
X201095D01*
Y166392*
X228175*
Y151312*
X243095Y87392D02*
X270175D01*
Y72312*
X243095*
Y87392*
X249780Y66157D02*
X214135D01*
Y28692*
X249780*
Y66157*
X273095Y151392D02*
X300175D01*
Y136312*
X273095*
Y151392*
Y168392D02*
X300175D01*
Y153312*
X273095*
Y168392*
Y185392D02*
X300175D01*
Y170312*
X273095*
Y185392*
Y202392D02*
X300175D01*
Y187312*
X273095*
Y202392*
Y219392D02*
X300175D01*
Y204312*
X273095*
Y219392*
X300175Y119312D02*
X273095D01*
Y134392*
X300175*
Y119312*
X315675Y70812D02*
X281595D01*
Y88892*
X315675*
Y70812*
D02*
D80*
X352239Y117783D02*
X347891D01*
X347652Y117776*
X347426Y117762*
X347207Y117735*
X346995Y117694*
X346797Y117646*
X346606Y117591*
X346421Y117523*
X346243Y117441*
X346038Y117325*
X345840Y117188*
X345649Y117038*
X345471Y116867*
X345293Y116675*
X345122Y116470*
X344965Y116245*
X344815Y115998*
X344678Y115746*
X344555Y115472*
X344459Y115192*
X344370Y114905*
X344309Y114597*
X344261Y114283*
X344234Y113955*
X344227Y113620*
X344234Y113339*
X344247Y113066*
X344275Y112792*
X344316Y112539*
X344364Y112287*
X344425Y112040*
X344493Y111801*
X344582Y111569*
X344651Y111398*
X344733Y111227*
X344822Y111070*
X344917Y110913*
X345027Y110762*
X345143Y110619*
X345266Y110482*
X345403Y110345*
X345546Y110215*
X345697Y110099*
X345854Y109990*
X346018Y109887*
X346189Y109791*
X346373Y109709*
X346558Y109627*
X346756Y109559*
X346906Y109518*
X347077Y109477*
X347255Y109443*
X347453Y109415*
X347658Y109395*
X347870Y109381*
X348103Y109368*
X348349*
X352239*
Y109791*
X351439*
X351302Y109798*
X351186Y109812*
X351090Y109846*
X351022Y109887*
X350974Y109942*
X350933Y110010*
X350912Y110092*
X350906Y110188*
Y116969*
X350912Y117058*
X350940Y117126*
X350974Y117195*
X351029Y117256*
X351097Y117297*
X351179Y117331*
X351275Y117352*
X351377Y117359*
X352239*
Y117783*
X349190Y117359D02*
X349306Y117352D01*
X349408Y117331*
X349497Y117297*
X349566Y117249*
X349620Y117188*
X349655Y117113*
X349682Y117024*
X349689Y116928*
Y110208*
X349682Y110113*
X349655Y110024*
X349607Y109956*
X349545Y109894*
X349463Y109853*
X349354Y109819*
X349224Y109798*
X349060Y109791*
X348342*
X348110Y109798*
X347877Y109819*
X347658Y109860*
X347447Y109914*
X347235Y109983*
X347036Y110072*
X346845Y110167*
X346660Y110284*
X346544Y110373*
X346442Y110468*
X346339Y110571*
X346243Y110680*
X346161Y110803*
X346079Y110933*
X346011Y111070*
X345943Y111213*
X345867Y111425*
X345799Y111658*
X345738Y111904*
X345690Y112177*
X345656Y112464*
X345628Y112772*
X345614Y113100*
X345608Y113449*
Y113708*
X345621Y113955*
X345635Y114194*
X345656Y114426*
X345676Y114652*
X345710Y114871*
X345751Y115076*
X345792Y115274*
X345840Y115458*
X345895Y115636*
X345956Y115807*
X346018Y115971*
X346093Y116128*
X346168Y116272*
X346250Y116409*
X346339Y116532*
X346510Y116723*
X346695Y116894*
X346900Y117038*
X347125Y117154*
X347371Y117243*
X347638Y117304*
X347925Y117345*
X348233Y117359*
X349190*
X343147Y117783D02*
X339271D01*
Y117359*
X339934*
X340043*
X340139Y117352*
X340221Y117345*
X340296Y117331*
X340358Y117318*
X340412Y117297*
X340460Y117270*
X340494Y117249*
X340522Y117215*
X340542Y117174*
X340563Y117126*
X340583Y117072*
X340597Y117010*
X340604Y116942*
X340611Y116867*
Y116778*
Y110400*
Y110311*
X340604Y110229*
X340597Y110154*
X340583Y110092*
X340570Y110038*
X340556Y109990*
X340535Y109949*
X340508Y109921*
X340474Y109894*
X340426Y109867*
X340378Y109839*
X340317Y109826*
X340248Y109812*
X340180Y109798*
X340098Y109791*
X340016*
X339271*
Y109368*
X343147*
Y109791*
X342415*
X342320*
X342238Y109798*
X342162Y109805*
X342094Y109819*
X342039Y109832*
X341985Y109853*
X341944Y109880*
X341916Y109908*
X341889Y109935*
X341862Y109976*
X341841Y110031*
X341827Y110085*
X341814Y110154*
X341807Y110229*
X341800Y110311*
Y110400*
Y116778*
Y116867*
X341807Y116942*
X341814Y117010*
X341827Y117072*
X341841Y117126*
X341855Y117167*
X341875Y117202*
X341903Y117229*
X341944Y117256*
X341998Y117284*
X342060Y117304*
X342128Y117325*
X342203Y117338*
X342292Y117352*
X342388Y117359*
X342490*
X343147*
Y117783*
X338539D02*
X334192D01*
X333891Y117776*
X333597Y117748*
X333330Y117701*
X333071Y117639*
X332838Y117557*
X332619Y117461*
X332421Y117345*
X332237Y117208*
X332072Y117058*
X331929Y116894*
X331813Y116723*
X331710Y116545*
X331635Y116347*
X331580Y116142*
X331553Y115930*
X331539Y115698*
X331546Y115561*
X331553Y115431*
X331580Y115301*
X331608Y115171*
X331649Y115048*
X331697Y114932*
X331751Y114816*
X331813Y114706*
X331888Y114597*
X331970Y114501*
X332059Y114406*
X332155Y114317*
X332257Y114228*
X332366Y114153*
X332483Y114078*
X332613Y114009*
X332749Y113948*
X332906Y113893*
X333084Y113838*
X333282Y113790*
X333494Y113743*
X333727Y113708*
X333980Y113667*
X334246Y113640*
X334055Y113585*
X333870Y113531*
X333706Y113476*
X333563Y113421*
X333426Y113367*
X333310Y113312*
X333214Y113257*
X333125Y113203*
X332982Y113093*
X332852Y112963*
X332736Y112813*
X332633Y112656*
X332585Y112560*
X332537Y112437*
X332489Y112300*
X332435Y112136*
X332380Y111958*
X332325Y111753*
X332271Y111521*
X332209Y111275*
X332168Y111097*
X332120Y110933*
X332079Y110783*
X332031Y110646*
X331990Y110530*
X331943Y110427*
X331895Y110331*
X331847Y110256*
X331772Y110167*
X331697Y110106*
X331614Y110065*
X331532Y110051*
X331485Y110058*
X331444Y110065*
X331403Y110085*
X331362Y110113*
X331321Y110154*
X331280Y110195*
X331239Y110249*
X331204Y110311*
X331170Y110379*
X331136Y110461*
X331109Y110557*
X331081Y110666*
X331061Y110783*
X331047Y110919*
X331027Y111063*
X331020Y111220*
X330630*
X330651Y110988*
X330678Y110769*
X330712Y110564*
X330760Y110373*
X330815Y110202*
X330883Y110038*
X330958Y109894*
X331040Y109771*
X331136Y109655*
X331239Y109559*
X331348Y109477*
X331471Y109409*
X331608Y109354*
X331744Y109313*
X331895Y109292*
X332059Y109286*
X332257Y109299*
X332442Y109340*
X332619Y109402*
X332777Y109498*
X332920Y109614*
X333043Y109757*
X333146Y109921*
X333235Y110113*
X333248Y110161*
X333262Y110208*
X333282Y110263*
X333296Y110331*
X333310Y110407*
X333330Y110482*
X333344Y110571*
X333358Y110673*
X333378Y110776*
X333392Y110885*
X333412Y111008*
X333426Y111138*
X333447Y111268*
X333467Y111412*
X333481Y111562*
X333501Y111726*
X333522Y111904*
X333549Y112075*
X333576Y112232*
X333611Y112369*
X333645Y112498*
X333686Y112608*
X333727Y112710*
X333775Y112799*
X333877Y112950*
X334007Y113086*
X334164Y113203*
X334349Y113312*
X334554Y113394*
X334780Y113456*
X335026Y113490*
X335285Y113503*
X335976*
Y110195*
X335969Y110099*
X335948Y110017*
X335914Y109949*
X335866Y109901*
X335791Y109853*
X335696Y109819*
X335579Y109798*
X335443Y109791*
X334636*
Y109368*
X338539*
Y109791*
X337712*
X337589Y109798*
X337480Y109819*
X337384Y109853*
X337316Y109901*
X337254Y109956*
X337220Y110024*
X337193Y110106*
X337186Y110195*
Y116928*
X337193Y117024*
X337220Y117113*
X337261Y117188*
X337316Y117249*
X337391Y117297*
X337480Y117331*
X337589Y117352*
X337712Y117359*
X338539*
Y117783*
X335976Y113914D02*
X334978D01*
X334739Y113920*
X334506Y113934*
X334287Y113968*
X334089Y114009*
X333898Y114064*
X333720Y114125*
X333563Y114201*
X333412Y114289*
X333276Y114392*
X333166Y114515*
X333064Y114659*
X332989Y114816*
X332927Y114994*
X332879Y115192*
X332852Y115404*
X332845Y115636*
Y115800*
X332859Y115951*
X332872Y116094*
X332900Y116231*
X332927Y116361*
X332968Y116477*
X333009Y116586*
X333057Y116689*
X333112Y116778*
X333173Y116867*
X333235Y116942*
X333303Y117010*
X333378Y117072*
X333453Y117126*
X333535Y117174*
X333617Y117215*
X333713Y117249*
X333836Y117277*
X333973Y117304*
X334137Y117325*
X334315Y117338*
X334520Y117352*
X334739Y117359*
X334985*
X335142*
X335292Y117352*
X335415Y117345*
X335531Y117331*
X335627Y117325*
X335702Y117304*
X335771Y117284*
X335819Y117263*
X335887Y117208*
X335935Y117140*
X335969Y117051*
X335976Y116942*
Y113914*
X331361Y109470D02*
X332731D01*
X334636D02*
X338539D01*
X339271D02*
X343147D01*
X347114D02*
X352239D01*
X331092Y109708D02*
X333001D01*
X334636D02*
X338539D01*
X339271D02*
X343147D01*
X346373D02*
X352239D01*
X330931Y109946D02*
X333158D01*
X335914D02*
X337265D01*
X340535D02*
X341882D01*
X345924D02*
X347349D01*
X349597D02*
X350972D01*
X330822Y110184D02*
X331291D01*
X331786D02*
X333255D01*
X335975D02*
X337187D01*
X340600D02*
X341811D01*
X345586D02*
X346818D01*
X349687D02*
X350906D01*
X330748Y110422D02*
X331152D01*
X331940D02*
X333314D01*
X335976D02*
X337186D01*
X340611D02*
X341800D01*
X345326D02*
X346491D01*
X349689D02*
X350906D01*
X330696Y110660D02*
X331083D01*
X332036D02*
X333356D01*
X335976D02*
X337186D01*
X340611D02*
X341800D01*
X345110D02*
X346261D01*
X349689D02*
X350906D01*
X330662Y110898D02*
X331049D01*
X332110D02*
X333394D01*
X335976D02*
X337186D01*
X340611D02*
X341800D01*
X344928D02*
X346101D01*
X349689D02*
X350906D01*
X330638Y111136D02*
X331024D01*
X332177D02*
X333426D01*
X335976D02*
X337186D01*
X340611D02*
X341800D01*
X344785D02*
X345980D01*
X349689D02*
X350906D01*
X332234Y111374D02*
X333462D01*
X335976D02*
X337186D01*
X340611D02*
X341800D01*
X344663D02*
X345885D01*
X349689D02*
X350906D01*
X332292Y111612D02*
X333487D01*
X335976D02*
X337186D01*
X340611D02*
X341800D01*
X344566D02*
X345812D01*
X349689D02*
X350906D01*
X332351Y111850D02*
X333516D01*
X335976D02*
X337186D01*
X340611D02*
X341800D01*
X344479D02*
X345751D01*
X349689D02*
X350906D01*
X332420Y112088D02*
X333551D01*
X335976D02*
X337186D01*
X340611D02*
X341800D01*
X344413D02*
X345706D01*
X349689D02*
X350906D01*
X332498Y112326D02*
X333600D01*
X335976D02*
X337186D01*
X340611D02*
X341800D01*
X344357D02*
X345672D01*
X349689D02*
X350906D01*
X332585Y112564D02*
X333670D01*
X335976D02*
X337186D01*
X340611D02*
X341800D01*
X344312D02*
X345647D01*
X349689D02*
X350906D01*
X332729Y112802D02*
X333777D01*
X335976D02*
X337186D01*
X340611D02*
X341800D01*
X344274D02*
X345627D01*
X349689D02*
X350906D01*
X332929Y113040D02*
X333963D01*
X335976D02*
X337186D01*
X340611D02*
X341800D01*
X344250D02*
X345617D01*
X349689D02*
X350906D01*
X333251Y113278D02*
X334291D01*
X335976D02*
X337186D01*
X340611D02*
X341800D01*
X344237D02*
X345611D01*
X349689D02*
X350906D01*
X333825Y113516D02*
X337186D01*
X340611D02*
X341800D01*
X344230D02*
X345608D01*
X349689D02*
X350906D01*
X333444Y113754D02*
X337186D01*
X340611D02*
X341800D01*
X344230D02*
X345610D01*
X349689D02*
X350906D01*
X332651Y113992D02*
X334171D01*
X335976D02*
X337186D01*
X340611D02*
X341800D01*
X344237D02*
X345623D01*
X349689D02*
X350906D01*
X332257Y114230D02*
X333513D01*
X335976D02*
X337186D01*
X340611D02*
X341800D01*
X344257D02*
X345638D01*
X349689D02*
X350906D01*
X332001Y114468D02*
X333208D01*
X335976D02*
X337186D01*
X340611D02*
X341800D01*
X344289D02*
X345660D01*
X349689D02*
X350906D01*
X331813Y114706D02*
X333042D01*
X335976D02*
X337186D01*
X340611D02*
X341800D01*
X344331D02*
X345684D01*
X349689D02*
X350906D01*
X331692Y114944D02*
X332944D01*
X335976D02*
X337186D01*
X340611D02*
X341800D01*
X344382D02*
X345725D01*
X349689D02*
X350906D01*
X331606Y115182D02*
X332881D01*
X335976D02*
X337186D01*
X340611D02*
X341800D01*
X344456D02*
X345773D01*
X349689D02*
X350906D01*
X331555Y115420D02*
X332852D01*
X335976D02*
X337186D01*
X340611D02*
X341800D01*
X344537D02*
X345830D01*
X349689D02*
X350906D01*
X331541Y115658D02*
X332845D01*
X335976D02*
X337186D01*
X340611D02*
X341800D01*
X344638D02*
X345903D01*
X349689D02*
X350906D01*
X331551Y115896D02*
X332854D01*
X335976D02*
X337186D01*
X340611D02*
X341800D01*
X344760D02*
X345990D01*
X349689D02*
X350906D01*
X331579Y116134D02*
X332880D01*
X335976D02*
X337186D01*
X340611D02*
X341800D01*
X344898D02*
X346096D01*
X349689D02*
X350906D01*
X331644Y116372D02*
X332931D01*
X335976D02*
X337186D01*
X340611D02*
X341800D01*
X345054D02*
X346228D01*
X349689D02*
X350906D01*
X331748Y116610D02*
X333020D01*
X335976D02*
X337186D01*
X340611D02*
X341800D01*
X345239D02*
X346409D01*
X349689D02*
X350906D01*
X331898Y116848D02*
X333160D01*
X335976D02*
X337186D01*
X340611D02*
X341800D01*
X345453D02*
X346645D01*
X349689D02*
X350906D01*
X332103Y117086D02*
X333397D01*
X335956D02*
X337212D01*
X340578D02*
X341831D01*
X345710D02*
X346993D01*
X349663D02*
X350924D01*
X332393Y117324D02*
X334123D01*
X335627D02*
X337462D01*
X340329D02*
X342122D01*
X346038D02*
X347778D01*
X349426D02*
X351162D01*
X332852Y117562D02*
X338539D01*
X339271D02*
X343147D01*
X346527D02*
X352239D01*
X352191Y141783D02*
X348034D01*
X347699Y141769*
X347378Y141742*
X347077Y141694*
X346797Y141625*
X346537Y141530*
X346305Y141420*
X346086Y141290*
X345888Y141147*
X345717Y140976*
X345567Y140798*
X345437Y140614*
X345334Y140409*
X345252Y140197*
X345197Y139964*
X345163Y139732*
X345150Y139479*
X345163Y139226*
X345191Y138994*
X345245Y138775*
X345321Y138570*
X345416Y138378*
X345532Y138207*
X345669Y138050*
X345833Y137907*
X346072Y137729*
X346325Y137579*
X346599Y137456*
X346879Y137346*
X347173Y137264*
X347488Y137209*
X347809Y137175*
X348144Y137162*
X349648*
Y134284*
X349641Y134167*
X349620Y134072*
X349579Y133990*
X349525Y133928*
X349443Y133867*
X349340Y133826*
X349231Y133798*
X349101Y133791*
X348144*
Y133368*
X352191*
Y133791*
X351343*
X351227Y133798*
X351124Y133819*
X351042Y133846*
X350974Y133887*
X350926Y133942*
X350885Y134010*
X350864Y134079*
X350858Y134161*
Y140873*
X350864Y140997*
X350892Y141092*
X350940Y141181*
X351008Y141243*
X351049Y141270*
X351097Y141297*
X351152Y141311*
X351220Y141331*
X351295Y141345*
X351377Y141352*
X351466Y141359*
X351569*
X352191*
Y141783*
X349648Y137579D02*
X348506D01*
X348239Y137585*
X348000Y137606*
X347775Y137640*
X347570Y137688*
X347385Y137756*
X347214Y137831*
X347064Y137927*
X346934Y138030*
X346824Y138153*
X346729Y138289*
X346640Y138454*
X346578Y138631*
X346524Y138823*
X346483Y139041*
X346462Y139274*
X346455Y139527*
Y139698*
X346469Y139869*
X346483Y140019*
X346510Y140169*
X346537Y140299*
X346578Y140422*
X346619Y140539*
X346674Y140641*
X346790Y140826*
X346941Y140983*
X347112Y141113*
X347303Y141215*
X347419Y141263*
X347549Y141297*
X347693Y141331*
X347857Y141359*
X348041Y141379*
X348233Y141393*
X348451Y141407*
X348677*
X348834*
X348964Y141400*
X349087Y141386*
X349197Y141379*
X349285Y141359*
X349367Y141338*
X349429Y141311*
X349477Y141284*
X349552Y141215*
X349607Y141120*
X349634Y141010*
X349648Y140873*
Y137579*
X344664Y141783D02*
X341855D01*
Y141359*
X342053*
X342156*
X342251Y141352*
X342340*
X342415Y141338*
X342477Y141331*
X342531Y141318*
X342579Y141304*
X342614Y141290*
X342668Y141249*
X342702Y141202*
X342730Y141140*
X342737Y141072*
X342730Y141010*
X342716Y140935*
X342689Y140846*
X342648Y140744*
X342614Y140634*
X340905Y135295*
X339401Y140231*
X339469Y140429*
X339524Y140607*
X339585Y140764*
X339633Y140894*
X339681Y141010*
X339729Y141099*
X339770Y141167*
X339804Y141215*
X339845Y141249*
X339893Y141277*
X339947Y141304*
X340016Y141325*
X340084Y141338*
X340166Y141352*
X340262Y141359*
X340358*
X340870*
Y141783*
X337364*
Y141359*
X337726*
X337835*
X337938Y141352*
X338033Y141345*
X338115Y141338*
X338184Y141325*
X338245Y141311*
X338300Y141297*
X338341Y141284*
X338403Y141236*
X338444Y141181*
X338471Y141120*
X338478Y141051*
X338471Y140928*
X338444Y140826*
X336707Y135295*
X335279Y140081*
X335238Y140217*
X335210Y140354*
X335197Y140484*
X335190Y140614*
X335203Y140791*
X335238Y140949*
X335292Y141079*
X335367Y141181*
X335463Y141256*
X335579Y141311*
X335723Y141345*
X335887Y141359*
X336147*
Y141783*
X333508*
Y141359*
X333672Y141331*
X333822Y141290*
X333946Y141249*
X334062Y141188*
X334157Y141120*
X334253Y141038*
X334335Y140949*
X334417Y140839*
X334451Y140778*
X334492Y140703*
X334527Y140627*
X334568Y140532*
X334609Y140436*
X334643Y140327*
X334684Y140204*
X334718Y140081*
X336789Y133169*
X337193*
X339127Y139349*
X340980Y133169*
X341404*
X343769Y140634*
X343810Y140744*
X343844Y140839*
X343885Y140921*
X343919Y141003*
X343960Y141072*
X344008Y141126*
X344049Y141181*
X344090Y141215*
X344193Y141277*
X344322Y141325*
X344480Y141352*
X344664Y141359*
Y141783*
X333241D02*
X330432D01*
X327923Y135138*
X325619Y141783*
X322741*
Y141359*
X323439*
X323528*
X323610Y141352*
X323685Y141345*
X323753Y141331*
X323808Y141318*
X323863Y141297*
X323904Y141277*
X323938Y141249*
X323992Y141188*
X324033Y141099*
X324061Y140997*
X324068Y140873*
Y134208*
X324061Y134113*
X324027Y134031*
X323979Y133956*
X323910Y133901*
X323869Y133873*
X323822Y133853*
X323767Y133832*
X323705Y133819*
X323637Y133805*
X323562Y133798*
X323473Y133791*
X323384*
X322741*
Y133368*
X326604*
Y133791*
X325886*
X325742Y133798*
X325613Y133819*
X325510Y133860*
X325428Y133908*
X325360Y133969*
X325312Y134038*
X325284Y134120*
X325278Y134208*
Y141359*
X328053Y133368*
X328436*
X331430Y141325*
Y135200*
Y135070*
X331423Y134947*
X331409Y134831*
X331396Y134728*
X331375Y134625*
X331355Y134537*
X331327Y134455*
X331293Y134386*
X331218Y134256*
X331129Y134147*
X331020Y134051*
X330904Y133969*
X330835Y133935*
X330753Y133908*
X330664Y133873*
X330569Y133853*
X330452Y133832*
X330336Y133812*
X330206Y133798*
X330063Y133791*
Y133368*
X333241*
Y133791*
X333057Y133805*
X332879Y133832*
X332729Y133860*
X332585Y133901*
X332462Y133949*
X332353Y133997*
X332257Y134058*
X332182Y134126*
X332114Y134202*
X332059Y134297*
X332011Y134400*
X331970Y134523*
X331943Y134653*
X331922Y134803*
X331908Y134960*
X331902Y135138*
Y140942*
X331908Y141044*
X331936Y141126*
X331977Y141202*
X332031Y141256*
X332066Y141284*
X332114Y141304*
X332161Y141318*
X332223Y141331*
X332284Y141345*
X332360Y141352*
X332435Y141359*
X332524*
X333241*
Y141783*
X336770Y133232D02*
X337213D01*
X340961D02*
X341424D01*
X322741Y133470D02*
X326604D01*
X328018D02*
X328474D01*
X330063D02*
X333241D01*
X336699D02*
X337287D01*
X340890D02*
X341499D01*
X348144D02*
X352191D01*
X322741Y133708D02*
X326604D01*
X327935D02*
X328564D01*
X330063D02*
X333241D01*
X336628D02*
X337362D01*
X340818D02*
X341575D01*
X348144D02*
X352191D01*
X323966Y133946D02*
X325386D01*
X327852D02*
X328653D01*
X330857D02*
X332469D01*
X336556D02*
X337436D01*
X340747D02*
X341650D01*
X349541D02*
X350924D01*
X324066Y134184D02*
X325280D01*
X327770D02*
X328743D01*
X331159D02*
X332130D01*
X336485D02*
X337511D01*
X340676D02*
X341726D01*
X349642D02*
X350858D01*
X324068Y134422D02*
X325278D01*
X327687D02*
X328833D01*
X331311D02*
X332004D01*
X336414D02*
X337585D01*
X340604D02*
X341801D01*
X349648D02*
X350858D01*
X324068Y134660D02*
X325278D01*
X327604D02*
X328922D01*
X331382D02*
X331942D01*
X336342D02*
X337660D01*
X340533D02*
X341876D01*
X349648D02*
X350858D01*
X324068Y134898D02*
X325278D01*
X327522D02*
X329012D01*
X331417D02*
X331914D01*
X336271D02*
X337734D01*
X340462D02*
X341952D01*
X349648D02*
X350858D01*
X324068Y135136D02*
X325278D01*
X327439D02*
X327923D01*
X327924D02*
X329101D01*
X331430D02*
X331902D01*
X336200D02*
X337809D01*
X340390D02*
X342027D01*
X349648D02*
X350858D01*
X324068Y135374D02*
X325278D01*
X327356D02*
X327841D01*
X328012D02*
X329191D01*
X331430D02*
X331902D01*
X336128D02*
X336683D01*
X336732D02*
X337883D01*
X340319D02*
X340881D01*
X340930D02*
X342103D01*
X349648D02*
X350858D01*
X324068Y135612D02*
X325278D01*
X327274D02*
X327759D01*
X328102D02*
X329280D01*
X331430D02*
X331902D01*
X336057D02*
X336612D01*
X336807D02*
X337958D01*
X340247D02*
X340808D01*
X341006D02*
X342178D01*
X349648D02*
X350858D01*
X324068Y135850D02*
X325278D01*
X327191D02*
X327676D01*
X328192D02*
X329370D01*
X331430D02*
X331902D01*
X335986D02*
X336541D01*
X336881D02*
X338032D01*
X340176D02*
X340736D01*
X341083D02*
X342253D01*
X349648D02*
X350858D01*
X324068Y136088D02*
X325278D01*
X327108D02*
X327594D01*
X328282D02*
X329459D01*
X331430D02*
X331902D01*
X335914D02*
X336470D01*
X336956D02*
X338106D01*
X340105D02*
X340663D01*
X341159D02*
X342329D01*
X349648D02*
X350858D01*
X324068Y136326D02*
X325278D01*
X327026D02*
X327511D01*
X328372D02*
X329549D01*
X331430D02*
X331902D01*
X335843D02*
X336399D01*
X337031D02*
X338181D01*
X340033D02*
X340591D01*
X341235D02*
X342404D01*
X349648D02*
X350858D01*
X324068Y136564D02*
X325278D01*
X326943D02*
X327429D01*
X328461D02*
X329639D01*
X331430D02*
X331902D01*
X335772D02*
X336328D01*
X337106D02*
X338255D01*
X339962D02*
X340518D01*
X341311D02*
X342480D01*
X349648D02*
X350858D01*
X324068Y136802D02*
X325278D01*
X326860D02*
X327346D01*
X328551D02*
X329728D01*
X331430D02*
X331902D01*
X335700D02*
X336257D01*
X337180D02*
X338330D01*
X339891D02*
X340446D01*
X341387D02*
X342555D01*
X349648D02*
X350858D01*
X324068Y137040D02*
X325278D01*
X326778D02*
X327264D01*
X328641D02*
X329818D01*
X331430D02*
X331902D01*
X335629D02*
X336186D01*
X337255D02*
X338404D01*
X339819D02*
X340373D01*
X341464D02*
X342630D01*
X349648D02*
X350858D01*
X324068Y137278D02*
X325278D01*
X326695D02*
X327181D01*
X328731D02*
X329907D01*
X331430D02*
X331902D01*
X335558D02*
X336115D01*
X337330D02*
X338479D01*
X339748D02*
X340301D01*
X341540D02*
X342706D01*
X347123D02*
X350858D01*
X324068Y137516D02*
X325278D01*
X326613D02*
X327098D01*
X328821D02*
X329997D01*
X331430D02*
X331902D01*
X335487D02*
X336044D01*
X337405D02*
X338553D01*
X339677D02*
X340228D01*
X341616D02*
X342781D01*
X346465D02*
X350858D01*
X324068Y137754D02*
X325278D01*
X326530D02*
X327016D01*
X328911D02*
X330086D01*
X331430D02*
X331902D01*
X335415D02*
X335973D01*
X337479D02*
X338628D01*
X339605D02*
X340156D01*
X341692D02*
X342857D01*
X346038D02*
X347390D01*
X349648D02*
X350858D01*
X324068Y137992D02*
X325278D01*
X326447D02*
X326933D01*
X329001D02*
X330176D01*
X331430D02*
X331902D01*
X335344D02*
X335902D01*
X337554D02*
X338702D01*
X339534D02*
X340083D01*
X341768D02*
X342932D01*
X345736D02*
X346982D01*
X349648D02*
X350858D01*
X324068Y138230D02*
X325278D01*
X326365D02*
X326851D01*
X329090D02*
X330265D01*
X331430D02*
X331902D01*
X335273D02*
X335831D01*
X337629D02*
X338777D01*
X339463D02*
X340011D01*
X341844D02*
X343007D01*
X345516D02*
X346770D01*
X349648D02*
X350858D01*
X324068Y138468D02*
X325278D01*
X326282D02*
X326768D01*
X329180D02*
X330355D01*
X331430D02*
X331902D01*
X335201D02*
X335760D01*
X337703D02*
X338851D01*
X339391D02*
X339938D01*
X341921D02*
X343083D01*
X345371D02*
X346635D01*
X349648D02*
X350858D01*
X324068Y138706D02*
X325278D01*
X326199D02*
X326686D01*
X329270D02*
X330445D01*
X331430D02*
X331902D01*
X335130D02*
X335689D01*
X337778D02*
X338926D01*
X339320D02*
X339866D01*
X341997D02*
X343158D01*
X345271D02*
X346557D01*
X349648D02*
X350858D01*
X324068Y138944D02*
X325278D01*
X326117D02*
X326603D01*
X329360D02*
X330534D01*
X331430D02*
X331902D01*
X335059D02*
X335618D01*
X337853D02*
X339000D01*
X339248D02*
X339793D01*
X342073D02*
X343234D01*
X345203D02*
X346501D01*
X349648D02*
X350858D01*
X324068Y139182D02*
X325278D01*
X326034D02*
X326521D01*
X329450D02*
X330624D01*
X331430D02*
X331902D01*
X334987D02*
X335547D01*
X337928D02*
X339075D01*
X339177D02*
X339721D01*
X342149D02*
X343309D01*
X345168D02*
X346470D01*
X349648D02*
X350858D01*
X324068Y139420D02*
X325278D01*
X325951D02*
X326438D01*
X329540D02*
X330713D01*
X331430D02*
X331902D01*
X334916D02*
X335476D01*
X338002D02*
X339648D01*
X342225D02*
X343384D01*
X345153D02*
X346458D01*
X349648D02*
X350858D01*
X324068Y139658D02*
X325278D01*
X325869D02*
X326356D01*
X329630D02*
X330803D01*
X331430D02*
X331902D01*
X334845D02*
X335405D01*
X338077D02*
X339576D01*
X342302D02*
X343460D01*
X345159D02*
X346455D01*
X349648D02*
X350858D01*
X324068Y139896D02*
X325278D01*
X325786D02*
X326273D01*
X329720D02*
X330892D01*
X331430D02*
X331902D01*
X334773D02*
X335334D01*
X338152D02*
X339503D01*
X342378D02*
X343535D01*
X345187D02*
X346472D01*
X349648D02*
X350858D01*
X324068Y140134D02*
X325278D01*
X325703D02*
X326191D01*
X329809D02*
X330982D01*
X331430D02*
X331902D01*
X334703D02*
X335263D01*
X338227D02*
X339431D01*
X342454D02*
X343611D01*
X345237D02*
X346504D01*
X349648D02*
X350858D01*
X324068Y140372D02*
X325278D01*
X325621D02*
X326108D01*
X329899D02*
X331071D01*
X331430D02*
X331902D01*
X334629D02*
X335208D01*
X338301D02*
X339449D01*
X342530D02*
X343686D01*
X345320D02*
X346561D01*
X349648D02*
X350858D01*
X324068Y140610D02*
X325278D01*
X325538D02*
X326026D01*
X329989D02*
X331161D01*
X331430D02*
X331902D01*
X334534D02*
X335190D01*
X338376D02*
X339525D01*
X342606D02*
X343761D01*
X345437D02*
X346657D01*
X349648D02*
X350858D01*
X324068Y140848D02*
X325278D01*
X325455D02*
X325943D01*
X330079D02*
X331251D01*
X331430D02*
X331902D01*
X334410D02*
X335216D01*
X338450D02*
X339616D01*
X342689D02*
X343849D01*
X345609D02*
X346811D01*
X349648D02*
X350858D01*
X324037Y141086D02*
X325278D01*
X325373D02*
X325861D01*
X330169D02*
X331340D01*
X331430D02*
X331922D01*
X334197D02*
X335297D01*
X338474D02*
X339722D01*
X342736D02*
X343972D01*
X345827D02*
X347076D01*
X349615D02*
X350890D01*
X323783Y141324D02*
X325278D01*
X325290D02*
X325778D01*
X330259D02*
X332190D01*
X333698D02*
X335634D01*
X338184D02*
X340011D01*
X342506D02*
X344316D01*
X346143D02*
X347663D01*
X349399D02*
X351196D01*
X322741Y141562D02*
X325696D01*
X330349D02*
X333241D01*
X333508D02*
X336147D01*
X337364D02*
X340870D01*
X341855D02*
X344664D01*
X346625D02*
X352191D01*
X352341Y166783D02*
X347993D01*
X347693Y166776*
X347399Y166748*
X347132Y166701*
X346872Y166639*
X346640Y166557*
X346421Y166461*
X346223Y166345*
X346038Y166208*
X345874Y166058*
X345731Y165894*
X345614Y165723*
X345512Y165545*
X345437Y165347*
X345382Y165142*
X345355Y164930*
X345341Y164698*
X345348Y164561*
X345355Y164431*
X345382Y164301*
X345409Y164171*
X345450Y164048*
X345498Y163932*
X345553Y163816*
X345614Y163706*
X345690Y163597*
X345772Y163501*
X345861Y163406*
X345956Y163317*
X346059Y163228*
X346168Y163153*
X346284Y163078*
X346414Y163009*
X346551Y162948*
X346708Y162893*
X346886Y162838*
X347084Y162790*
X347296Y162743*
X347529Y162708*
X347781Y162667*
X348048Y162640*
X347857Y162585*
X347672Y162531*
X347508Y162476*
X347364Y162421*
X347228Y162367*
X347112Y162312*
X347016Y162257*
X346927Y162203*
X346783Y162093*
X346654Y161963*
X346537Y161813*
X346435Y161656*
X346387Y161560*
X346339Y161437*
X346291Y161300*
X346237Y161136*
X346182Y160958*
X346127Y160753*
X346072Y160521*
X346011Y160275*
X345970Y160097*
X345922Y159933*
X345881Y159783*
X345833Y159646*
X345792Y159530*
X345744Y159427*
X345697Y159331*
X345649Y159256*
X345573Y159167*
X345498Y159106*
X345416Y159065*
X345334Y159051*
X345286Y159058*
X345245Y159065*
X345204Y159085*
X345163Y159113*
X345122Y159154*
X345081Y159195*
X345040Y159249*
X345006Y159311*
X344972Y159379*
X344938Y159461*
X344910Y159557*
X344883Y159666*
X344863Y159783*
X344849Y159919*
X344828Y160063*
X344822Y160220*
X344432*
X344452Y159988*
X344480Y159769*
X344514Y159564*
X344562Y159373*
X344616Y159202*
X344685Y159038*
X344760Y158894*
X344842Y158771*
X344938Y158655*
X345040Y158559*
X345150Y158477*
X345273Y158409*
X345409Y158354*
X345546Y158313*
X345697Y158292*
X345861Y158286*
X346059Y158299*
X346243Y158340*
X346421Y158402*
X346578Y158498*
X346722Y158614*
X346845Y158757*
X346947Y158921*
X347036Y159113*
X347050Y159161*
X347064Y159208*
X347084Y159263*
X347098Y159331*
X347112Y159407*
X347132Y159482*
X347146Y159571*
X347159Y159673*
X347180Y159776*
X347194Y159885*
X347214Y160008*
X347228Y160138*
X347248Y160268*
X347269Y160412*
X347282Y160562*
X347303Y160726*
X347323Y160904*
X347351Y161075*
X347378Y161232*
X347412Y161369*
X347447Y161498*
X347488Y161608*
X347529Y161710*
X347576Y161799*
X347679Y161950*
X347809Y162086*
X347966Y162203*
X348151Y162312*
X348356Y162394*
X348581Y162456*
X348827Y162490*
X349087Y162503*
X349778*
Y159195*
X349771Y159099*
X349750Y159017*
X349716Y158949*
X349668Y158901*
X349593Y158853*
X349497Y158819*
X349381Y158798*
X349244Y158791*
X348438*
Y158368*
X352341*
Y158791*
X351514*
X351391Y158798*
X351281Y158819*
X351186Y158853*
X351117Y158901*
X351056Y158956*
X351022Y159024*
X350994Y159106*
X350988Y159195*
Y165928*
X350994Y166024*
X351022Y166113*
X351063Y166188*
X351117Y166249*
X351193Y166297*
X351281Y166331*
X351391Y166352*
X351514Y166359*
X352341*
Y166783*
X349778Y162914D02*
X348780D01*
X348540Y162920*
X348308Y162934*
X348089Y162968*
X347891Y163009*
X347699Y163064*
X347522Y163125*
X347364Y163201*
X347214Y163289*
X347077Y163392*
X346968Y163515*
X346865Y163659*
X346790Y163816*
X346729Y163994*
X346681Y164192*
X346654Y164404*
X346647Y164636*
Y164800*
X346660Y164951*
X346674Y165094*
X346701Y165231*
X346729Y165361*
X346770Y165477*
X346811Y165586*
X346859Y165689*
X346913Y165778*
X346975Y165867*
X347036Y165942*
X347105Y166010*
X347180Y166072*
X347255Y166126*
X347337Y166174*
X347419Y166215*
X347515Y166249*
X347638Y166277*
X347775Y166304*
X347939Y166325*
X348116Y166338*
X348322Y166352*
X348540Y166359*
X348786*
X348944*
X349094Y166352*
X349217Y166345*
X349333Y166331*
X349429Y166325*
X349504Y166304*
X349572Y166284*
X349620Y166263*
X349689Y166208*
X349737Y166140*
X349771Y166051*
X349778Y165942*
Y162914*
X343454Y166783D02*
X336782D01*
X336625Y163946*
X337008*
X337070Y164267*
X337138Y164568*
X337213Y164841*
X337302Y165087*
X337398Y165306*
X337500Y165504*
X337610Y165675*
X337726Y165826*
X337856Y165949*
X337992Y166058*
X338136Y166147*
X338293Y166222*
X338457Y166284*
X338635Y166325*
X338820Y166352*
X339011Y166359*
X340658*
X340754Y166352*
X340829Y166331*
X340905Y166297*
X340959Y166249*
X341007Y166188*
X341034Y166113*
X341055Y166024*
X341062Y165921*
Y162920*
X340337*
X340200Y162927*
X340064Y162948*
X339934Y162975*
X339818Y163023*
X339701Y163084*
X339592Y163153*
X339496Y163235*
X339401Y163337*
X339312Y163447*
X339243Y163570*
X339175Y163706*
X339120Y163864*
X339079Y164028*
X339045Y164206*
X339025Y164404*
X339011Y164609*
X338621*
Y160712*
X339011*
X339025Y160945*
X339045Y161164*
X339079Y161362*
X339120Y161539*
X339175Y161704*
X339243Y161854*
X339319Y161984*
X339407Y162100*
X339503Y162196*
X339606Y162278*
X339715Y162353*
X339838Y162414*
X339968Y162456*
X340105Y162490*
X340248Y162510*
X340406Y162517*
X341062*
Y159167*
X341055Y159079*
X341028Y159003*
X340993Y158942*
X340939Y158887*
X340870Y158846*
X340775Y158812*
X340665Y158798*
X340535Y158791*
X339230*
X338977Y158805*
X338731Y158832*
X338498Y158887*
X338286Y158962*
X338081Y159058*
X337897Y159174*
X337719Y159311*
X337562Y159468*
X337418Y159646*
X337281Y159851*
X337165Y160070*
X337063Y160316*
X336974Y160576*
X336899Y160863*
X336837Y161170*
X336789Y161498*
X336379*
X336523Y158368*
X343454*
Y158791*
X342880*
X342723Y158798*
X342593Y158819*
X342490Y158860*
X342408Y158908*
X342347Y158969*
X342306Y159051*
X342279Y159140*
X342272Y159249*
Y165921*
X342279Y166024*
X342299Y166113*
X342340Y166188*
X342388Y166249*
X342456Y166297*
X342545Y166331*
X342648Y166352*
X342764Y166359*
X343454*
Y166783*
X330425Y166147D02*
X329912Y166878D01*
X329495*
X329461Y163816*
X329837*
X329933Y164158*
X330035Y164472*
X330152Y164766*
X330275Y165033*
X330411Y165279*
X330555Y165504*
X330712Y165703*
X330876Y165873*
X331054Y166024*
X331239Y166161*
X331423Y166270*
X331621Y166359*
X331820Y166434*
X332031Y166482*
X332243Y166509*
X332469Y166523*
X332654Y166516*
X332824Y166496*
X332989Y166461*
X333146Y166407*
X333296Y166345*
X333440Y166270*
X333570Y166181*
X333693Y166072*
X333809Y165956*
X333905Y165839*
X333987Y165709*
X334048Y165573*
X334103Y165436*
X334144Y165286*
X334164Y165135*
X334171Y164978*
X334157Y164780*
X334123Y164595*
X334069Y164424*
X333987Y164267*
X333884Y164123*
X333761Y163994*
X333617Y163877*
X333447Y163775*
X333344Y163727*
X333228Y163672*
X333084Y163624*
X332927Y163577*
X332742Y163522*
X332544Y163474*
X332325Y163419*
X332086Y163365*
X331744Y163289*
X331437Y163214*
X331150Y163132*
X330890Y163057*
X330657Y162982*
X330452Y162900*
X330275Y162825*
X330117Y162743*
X329981Y162667*
X329851Y162579*
X329735Y162490*
X329625Y162394*
X329523Y162291*
X329434Y162182*
X329345Y162073*
X329277Y161956*
X329208Y161833*
X329154Y161710*
X329106Y161581*
X329065Y161444*
X329037Y161300*
X329017Y161150*
X329003Y160999*
X328996Y160842*
X329010Y160569*
X329044Y160302*
X329106Y160042*
X329188Y159803*
X329297Y159571*
X329427Y159359*
X329584Y159154*
X329762Y158956*
X329960Y158785*
X330172Y158627*
X330398Y158504*
X330637Y158395*
X330890Y158313*
X331156Y158258*
X331444Y158224*
X331738Y158210*
X332059Y158224*
X332366Y158265*
X332667Y158327*
X332954Y158422*
X333235Y158539*
X333501Y158682*
X333754Y158853*
X334000Y159051*
X334643Y158265*
X335053*
Y161526*
X334643*
X334574Y161198*
X334486Y160890*
X334383Y160596*
X334253Y160323*
X334110Y160063*
X333952Y159824*
X333775Y159605*
X333576Y159400*
X333364Y159215*
X333146Y159058*
X332920Y158921*
X332688Y158812*
X332455Y158730*
X332209Y158668*
X331956Y158634*
X331703Y158621*
X331498Y158627*
X331300Y158648*
X331115Y158689*
X330938Y158744*
X330774Y158812*
X330616Y158901*
X330466Y159003*
X330329Y159120*
X330206Y159243*
X330097Y159379*
X330001Y159523*
X329926Y159666*
X329871Y159824*
X329830Y159988*
X329803Y160152*
X329796Y160330*
X329810Y160521*
X329844Y160706*
X329906Y160876*
X329994Y161034*
X330049Y161109*
X330111Y161184*
X330179Y161252*
X330254Y161314*
X330336Y161375*
X330425Y161437*
X330521Y161492*
X330623Y161546*
X330746Y161601*
X330897Y161656*
X331068Y161717*
X331266Y161779*
X331491Y161840*
X331744Y161909*
X332018Y161977*
X332325Y162052*
X332496Y162093*
X332660Y162134*
X332818Y162175*
X332968Y162223*
X333105Y162264*
X333241Y162312*
X333371Y162353*
X333494Y162401*
X333611Y162449*
X333720Y162497*
X333822Y162544*
X333918Y162592*
X334000Y162640*
X334082Y162688*
X334157Y162743*
X334226Y162790*
X334390Y162941*
X334533Y163112*
X334656Y163296*
X334759Y163488*
X334834Y163706*
X334889Y163932*
X334923Y164178*
X334937Y164431*
X334923Y164705*
X334889Y164964*
X334834Y165210*
X334759Y165443*
X334663Y165662*
X334540Y165873*
X334397Y166065*
X334226Y166249*
X334048Y166420*
X333850Y166564*
X333645Y166680*
X333419Y166783*
X333187Y166858*
X332947Y166913*
X332688Y166947*
X332421Y166960*
X332155Y166947*
X331902Y166913*
X331656Y166851*
X331409Y166769*
X331293Y166721*
X331170Y166660*
X331047Y166598*
X330924Y166523*
X330801Y166441*
X330678Y166352*
X330548Y166249*
X330425Y166147*
X327704Y166783D02*
X321032D01*
X320875Y163946*
X321258*
X321320Y164267*
X321388Y164568*
X321463Y164841*
X321552Y165087*
X321648Y165306*
X321750Y165504*
X321860Y165675*
X321976Y165826*
X322106Y165949*
X322242Y166058*
X322386Y166147*
X322543Y166222*
X322707Y166284*
X322885Y166325*
X323070Y166352*
X323261Y166359*
X324908*
X325004Y166352*
X325079Y166331*
X325155Y166297*
X325209Y166249*
X325257Y166188*
X325284Y166113*
X325305Y166024*
X325312Y165921*
Y162920*
X324587*
X324450Y162927*
X324314Y162948*
X324184Y162975*
X324068Y163023*
X323951Y163084*
X323842Y163153*
X323746Y163235*
X323651Y163337*
X323562Y163447*
X323493Y163570*
X323425Y163706*
X323370Y163864*
X323329Y164028*
X323295Y164206*
X323275Y164404*
X323261Y164609*
X322871*
Y160712*
X323261*
X323275Y160945*
X323295Y161164*
X323329Y161362*
X323370Y161539*
X323425Y161704*
X323493Y161854*
X323569Y161984*
X323657Y162100*
X323753Y162196*
X323856Y162278*
X323965Y162353*
X324088Y162414*
X324218Y162456*
X324355Y162490*
X324498Y162510*
X324656Y162517*
X325312*
Y159167*
X325305Y159079*
X325278Y159003*
X325243Y158942*
X325189Y158887*
X325120Y158846*
X325025Y158812*
X324915Y158798*
X324785Y158791*
X323480*
X323227Y158805*
X322981Y158832*
X322748Y158887*
X322536Y158962*
X322331Y159058*
X322147Y159174*
X321969Y159311*
X321812Y159468*
X321668Y159646*
X321531Y159851*
X321415Y160070*
X321313Y160316*
X321224Y160576*
X321149Y160863*
X321087Y161170*
X321039Y161498*
X320629*
X320773Y158368*
X327704*
Y158791*
X327130*
X326973Y158798*
X326843Y158819*
X326740Y158860*
X326658Y158908*
X326597Y158969*
X326556Y159051*
X326529Y159140*
X326522Y159249*
Y165921*
X326529Y166024*
X326549Y166113*
X326590Y166188*
X326638Y166249*
X326706Y166297*
X326795Y166331*
X326898Y166352*
X327014Y166359*
X327704*
Y166783*
X319535D02*
X312713D01*
X312549Y163604*
X312939*
X312993Y163946*
X313055Y164260*
X313130Y164554*
X313212Y164828*
X313301Y165081*
X313404Y165313*
X313520Y165518*
X313636Y165703*
X313773Y165867*
X313909Y166010*
X314067Y166133*
X314224Y166229*
X314395Y166311*
X314579Y166366*
X314764Y166393*
X314969Y166407*
X315119Y166400*
X315249Y166379*
X315345Y166345*
X315420Y166290*
X315475Y166229*
X315509Y166140*
X315536Y166038*
X315543Y165914*
Y159188*
X315536Y159092*
X315516Y159010*
X315475Y158942*
X315420Y158887*
X315352Y158846*
X315263Y158812*
X315160Y158798*
X315031Y158791*
X314183*
Y158368*
X318093*
Y158791*
X317122*
X317033Y158798*
X316951Y158812*
X316883Y158846*
X316828Y158887*
X316781Y158942*
X316753Y158997*
X316733Y159065*
X316726Y159147*
Y165969*
X316733Y166072*
X316760Y166161*
X316801Y166236*
X316856Y166297*
X316931Y166345*
X317027Y166379*
X317143Y166400*
X317280Y166407*
X317478Y166393*
X317669Y166359*
X317854Y166297*
X318031Y166208*
X318196Y166099*
X318360Y165969*
X318510Y165812*
X318647Y165627*
X318756Y165456*
X318859Y165258*
X318954Y165039*
X319043Y164800*
X319118Y164534*
X319187Y164247*
X319248Y163939*
X319303Y163604*
X319720*
X319535Y166783*
X331376Y158232D02*
X332119D01*
X314183Y158470D02*
X318093D01*
X320768D02*
X327704D01*
X330473D02*
X333069D01*
X334475D02*
X335053D01*
X336518D02*
X343454D01*
X345163D02*
X346532D01*
X348438D02*
X352341D01*
X314183Y158708D02*
X318093D01*
X320757D02*
X327704D01*
X330063D02*
X331054D01*
X332368D02*
X333539D01*
X334281D02*
X335053D01*
X336507D02*
X343454D01*
X344894D02*
X346803D01*
X348438D02*
X352341D01*
X315475Y158946D02*
X316779D01*
X320746D02*
X322581D01*
X325243D02*
X326620D01*
X329774D02*
X330550D01*
X332961D02*
X333870D01*
X334086D02*
X335053D01*
X336496D02*
X338331D01*
X340993D02*
X342370D01*
X344733D02*
X346959D01*
X349716D02*
X351067D01*
X315543Y159184D02*
X316726D01*
X320735D02*
X322134D01*
X325312D02*
X326526D01*
X329561D02*
X330265D01*
X333321D02*
X335053D01*
X336485D02*
X337884D01*
X341062D02*
X342276D01*
X344624D02*
X345092D01*
X345588D02*
X347057D01*
X349777D02*
X350989D01*
X315543Y159422D02*
X316726D01*
X320725D02*
X321858D01*
X325312D02*
X326522D01*
X329388D02*
X330068D01*
X333597D02*
X335053D01*
X336475D02*
X337608D01*
X341062D02*
X342272D01*
X344550D02*
X344954D01*
X345742D02*
X347116D01*
X349778D02*
X350988D01*
X315543Y159660D02*
X316726D01*
X320714D02*
X321659D01*
X325312D02*
X326522D01*
X329255D02*
X329929D01*
X333819D02*
X335053D01*
X336464D02*
X337409D01*
X341062D02*
X342272D01*
X344498D02*
X344884D01*
X345838D02*
X347157D01*
X349778D02*
X350988D01*
X315543Y159898D02*
X316726D01*
X320703D02*
X321506D01*
X325312D02*
X326522D01*
X329155D02*
X329852D01*
X334001D02*
X335053D01*
X336453D02*
X337256D01*
X341062D02*
X342272D01*
X344464D02*
X344851D01*
X345912D02*
X347196D01*
X349778D02*
X350988D01*
X315543Y160136D02*
X316726D01*
X320692D02*
X321388D01*
X325312D02*
X326522D01*
X329084D02*
X329806D01*
X334150D02*
X335053D01*
X336442D02*
X337138D01*
X341062D02*
X342272D01*
X344439D02*
X344825D01*
X345979D02*
X347228D01*
X349778D02*
X350988D01*
X315543Y160374D02*
X316726D01*
X320681D02*
X321293D01*
X325312D02*
X326522D01*
X329035D02*
X329799D01*
X334277D02*
X335053D01*
X336431D02*
X337043D01*
X341062D02*
X342272D01*
X346036D02*
X347263D01*
X349778D02*
X350988D01*
X315543Y160612D02*
X316726D01*
X320670D02*
X321215D01*
X325312D02*
X326522D01*
X329008D02*
X329827D01*
X334389D02*
X335053D01*
X336420D02*
X336965D01*
X341062D02*
X342272D01*
X346094D02*
X347288D01*
X349778D02*
X350988D01*
X315543Y160850D02*
X316726D01*
X320659D02*
X321152D01*
X322871D02*
X323269D01*
X325312D02*
X326522D01*
X328996D02*
X329897D01*
X334472D02*
X335053D01*
X336409D02*
X336902D01*
X338621D02*
X339019D01*
X341062D02*
X342272D01*
X346153D02*
X347317D01*
X349778D02*
X350988D01*
X315543Y161088D02*
X316726D01*
X320648D02*
X321104D01*
X322871D02*
X323288D01*
X325312D02*
X326522D01*
X329011D02*
X330034D01*
X334543D02*
X335053D01*
X336398D02*
X336854D01*
X338621D02*
X339038D01*
X341062D02*
X342272D01*
X346222D02*
X347353D01*
X349778D02*
X350988D01*
X315543Y161326D02*
X316726D01*
X320637D02*
X321064D01*
X322871D02*
X323323D01*
X325312D02*
X326522D01*
X329042D02*
X330270D01*
X334601D02*
X335053D01*
X336387D02*
X336814D01*
X338621D02*
X339073D01*
X341062D02*
X342272D01*
X346300D02*
X347401D01*
X349778D02*
X350988D01*
X315543Y161564D02*
X316726D01*
X322871D02*
X323378D01*
X325312D02*
X326522D01*
X329101D02*
X330663D01*
X338621D02*
X339128D01*
X341062D02*
X342272D01*
X346387D02*
X347472D01*
X349778D02*
X350988D01*
X315543Y161802D02*
X316726D01*
X322871D02*
X323469D01*
X325312D02*
X326522D01*
X329194D02*
X331351D01*
X338621D02*
X339219D01*
X341062D02*
X342272D01*
X346530D02*
X347578D01*
X349778D02*
X350988D01*
X315543Y162040D02*
X316726D01*
X322871D02*
X323611D01*
X325312D02*
X326522D01*
X329326D02*
X332276D01*
X338621D02*
X339361D01*
X341062D02*
X342272D01*
X346730D02*
X347765D01*
X349778D02*
X350988D01*
X315543Y162278D02*
X316726D01*
X322871D02*
X323856D01*
X325312D02*
X326522D01*
X329512D02*
X333145D01*
X338621D02*
X339606D01*
X341062D02*
X342272D01*
X347053D02*
X348093D01*
X349778D02*
X350988D01*
X315543Y162516D02*
X316726D01*
X322871D02*
X326522D01*
X329769D02*
X333761D01*
X338621D02*
X342272D01*
X347627D02*
X350988D01*
X315543Y162754D02*
X316726D01*
X322871D02*
X326522D01*
X330138D02*
X334173D01*
X338621D02*
X342272D01*
X347246D02*
X350988D01*
X315543Y162992D02*
X316726D01*
X322871D02*
X324143D01*
X325312D02*
X326522D01*
X330688D02*
X334433D01*
X338621D02*
X339893D01*
X341062D02*
X342272D01*
X346452D02*
X347973D01*
X349778D02*
X350988D01*
X315543Y163230D02*
X316726D01*
X322871D02*
X323752D01*
X325312D02*
X326522D01*
X331502D02*
X334612D01*
X338621D02*
X339502D01*
X341062D02*
X342272D01*
X346059D02*
X347315D01*
X349778D02*
X350988D01*
X315543Y163468D02*
X316726D01*
X322871D02*
X323550D01*
X325312D02*
X326522D01*
X332520D02*
X334748D01*
X338621D02*
X339300D01*
X341062D02*
X342272D01*
X345803D02*
X347010D01*
X349778D02*
X350988D01*
X312554Y163706D02*
X312955D01*
X315543D02*
X316726D01*
X319286D02*
X319714D01*
X322871D02*
X323425D01*
X325312D02*
X326522D01*
X333300D02*
X334834D01*
X338621D02*
X339175D01*
X341062D02*
X342272D01*
X345614D02*
X346843D01*
X349778D02*
X350988D01*
X312567Y163944D02*
X312993D01*
X315543D02*
X316726D01*
X319247D02*
X319700D01*
X320875D02*
X321258D01*
X322871D02*
X323350D01*
X325312D02*
X326522D01*
X329462D02*
X329873D01*
X333699D02*
X334891D01*
X336625D02*
X337008D01*
X338621D02*
X339100D01*
X341062D02*
X342272D01*
X345493D02*
X346746D01*
X349778D02*
X350988D01*
X312579Y164182D02*
X313040D01*
X315543D02*
X316726D01*
X319200D02*
X319686D01*
X320888D02*
X321304D01*
X322871D02*
X323300D01*
X325312D02*
X326522D01*
X329465D02*
X329941D01*
X333926D02*
X334923D01*
X336638D02*
X337054D01*
X338621D02*
X339050D01*
X341062D02*
X342272D01*
X345407D02*
X346683D01*
X349778D02*
X350988D01*
X312591Y164420D02*
X313096D01*
X315543D02*
X316726D01*
X319145D02*
X319673D01*
X320901D02*
X321355D01*
X322871D02*
X323274D01*
X325312D02*
X326522D01*
X329468D02*
X330018D01*
X334069D02*
X334936D01*
X336651D02*
X337105D01*
X338621D02*
X339024D01*
X341062D02*
X342272D01*
X345357D02*
X346654D01*
X349778D02*
X350988D01*
X312603Y164658D02*
X313161D01*
X315543D02*
X316726D01*
X319083D02*
X319659D01*
X320914D02*
X321413D01*
X325312D02*
X326522D01*
X329470D02*
X330109D01*
X334135D02*
X334925D01*
X336664D02*
X337163D01*
X341062D02*
X342272D01*
X345343D02*
X346647D01*
X349778D02*
X350988D01*
X312616Y164896D02*
X313236D01*
X315543D02*
X316726D01*
X319007D02*
X319645D01*
X320928D02*
X321483D01*
X325312D02*
X326522D01*
X329473D02*
X330212D01*
X334165D02*
X334898D01*
X336678D02*
X337233D01*
X341062D02*
X342272D01*
X345353D02*
X346655D01*
X349778D02*
X350988D01*
X312628Y165134D02*
X313325D01*
X315543D02*
X316726D01*
X318913D02*
X319631D01*
X320941D02*
X321573D01*
X325312D02*
X326522D01*
X329476D02*
X330331D01*
X334164D02*
X334851D01*
X336691D02*
X337323D01*
X341062D02*
X342272D01*
X345381D02*
X346682D01*
X349778D02*
X350988D01*
X312640Y165372D02*
X313437D01*
X315543D02*
X316726D01*
X318800D02*
X319617D01*
X320954D02*
X321682D01*
X325312D02*
X326522D01*
X329478D02*
X330471D01*
X334120D02*
X334782D01*
X336704D02*
X337432D01*
X341062D02*
X342272D01*
X345446D02*
X346733D01*
X349778D02*
X350988D01*
X312652Y165610D02*
X313578D01*
X315543D02*
X316726D01*
X318658D02*
X319603D01*
X320967D02*
X321818D01*
X325312D02*
X326522D01*
X329481D02*
X330639D01*
X334031D02*
X334686D01*
X336717D02*
X337568D01*
X341062D02*
X342272D01*
X345549D02*
X346822D01*
X349778D02*
X350988D01*
X312665Y165848D02*
X313757D01*
X315543D02*
X316726D01*
X318476D02*
X319589D01*
X320980D02*
X321999D01*
X325312D02*
X326522D01*
X329484D02*
X330852D01*
X333898D02*
X334555D01*
X336730D02*
X337749D01*
X341062D02*
X342272D01*
X345700D02*
X346962D01*
X349778D02*
X350988D01*
X312677Y166086D02*
X314007D01*
X315523D02*
X316737D01*
X318212D02*
X319576D01*
X320993D02*
X322287D01*
X325290D02*
X326543D01*
X329486D02*
X331138D01*
X333677D02*
X334377D01*
X336743D02*
X338037D01*
X341040D02*
X342293D01*
X345905D02*
X347199D01*
X349758D02*
X351014D01*
X312689Y166324D02*
X314438D01*
X315374D02*
X316898D01*
X317773D02*
X319562D01*
X321007D02*
X322878D01*
X325095D02*
X326777D01*
X329489D02*
X330301D01*
X330643D02*
X331543D01*
X333336D02*
X334148D01*
X336757D02*
X338628D01*
X340845D02*
X342527D01*
X346195D02*
X347925D01*
X349429D02*
X351263D01*
X312702Y166562D02*
X319548D01*
X321020D02*
X327704D01*
X329491D02*
X330134D01*
X330988D02*
X333854D01*
X336770D02*
X343454D01*
X346654D02*
X352341D01*
X329494Y166800D02*
X329967D01*
X331502D02*
X333366D01*
X346086Y190120D02*
X345621Y190960D01*
X345239*
X345027Y187604*
X345396*
X345505Y187953*
X345621Y188281*
X345738Y188575*
X345861Y188848*
X345990Y189101*
X346120Y189327*
X346257Y189525*
X346401Y189696*
X346592Y189894*
X346783Y190058*
X346989Y190202*
X347194Y190318*
X347406Y190407*
X347631Y190468*
X347857Y190509*
X348096Y190523*
X348274Y190516*
X348451Y190496*
X348622Y190461*
X348786Y190420*
X348950Y190359*
X349108Y190290*
X349258Y190202*
X349408Y190106*
X349545Y189997*
X349682Y189873*
X349805Y189737*
X349921Y189586*
X350024Y189429*
X350126Y189251*
X350215Y189060*
X350297Y188862*
X350365Y188643*
X350427Y188404*
X350482Y188144*
X350530Y187864*
X350564Y187556*
X350584Y187235*
X350598Y186893*
X350605Y186524*
X350598Y186168*
X350584Y185833*
X350564Y185519*
X350530Y185218*
X350482Y184945*
X350427Y184692*
X350365Y184453*
X350297Y184241*
X350215Y184036*
X350126Y183851*
X350031Y183680*
X349928Y183523*
X349819Y183379*
X349696Y183243*
X349572Y183126*
X349443Y183024*
X349299Y182935*
X349156Y182853*
X349005Y182785*
X348848Y182730*
X348684Y182689*
X348520Y182655*
X348342Y182641*
X348164Y182634*
X347925Y182641*
X347693Y182668*
X347481Y182709*
X347282Y182771*
X347098Y182853*
X346927Y182949*
X346770Y183058*
X346626Y183195*
X346503Y183338*
X346394Y183489*
X346298Y183660*
X346223Y183831*
X346161Y184015*
X346120Y184213*
X346093Y184418*
X346086Y184637*
Y185423*
X346093Y185512*
X346120Y185594*
X346168Y185663*
X346230Y185717*
X346319Y185758*
X346421Y185792*
X346551Y185813*
X346708Y185820*
X347419*
Y186216*
X343892*
Y185820*
X344370*
X344514Y185813*
X344644Y185792*
X344739Y185758*
X344822Y185710*
X344883Y185649*
X344924Y185574*
X344951Y185485*
X344958Y185389*
Y182169*
X345334*
X345437Y182539*
X345539Y182908*
X345649Y183263*
X345758Y183612*
X345867Y183441*
X345984Y183284*
X346100Y183133*
X346223Y182997*
X346353Y182873*
X346489Y182757*
X346626Y182655*
X346777Y182559*
X346920Y182477*
X347077Y182409*
X347235Y182347*
X347399Y182299*
X347570Y182258*
X347747Y182231*
X347925Y182217*
X348110Y182210*
X348369Y182217*
X348629Y182245*
X348882Y182286*
X349135Y182347*
X349374Y182422*
X349614Y182518*
X349853Y182627*
X350078Y182757*
X350304Y182901*
X350509Y183058*
X350707Y183229*
X350892Y183414*
X351063Y183612*
X351227Y183824*
X351377Y184056*
X351514Y184295*
X351637Y184548*
X351746Y184808*
X351835Y185075*
X351910Y185355*
X351965Y185635*
X352006Y185929*
X352033Y186230*
X352040Y186538*
X352033Y186852*
X352006Y187153*
X351965Y187447*
X351910Y187734*
X351835Y188007*
X351739Y188281*
X351637Y188540*
X351514Y188793*
X351370Y189033*
X351220Y189265*
X351056Y189484*
X350885Y189682*
X350700Y189873*
X350495Y190058*
X350283Y190222*
X350065Y190373*
X349832Y190509*
X349600Y190632*
X349367Y190728*
X349142Y190810*
X348909Y190878*
X348670Y190926*
X348438Y190954*
X348205Y190960*
X347939Y190947*
X347686Y190913*
X347433Y190858*
X347187Y190783*
X347057Y190728*
X346934Y190673*
X346804Y190605*
X346667Y190523*
X346524Y190434*
X346380Y190338*
X346237Y190236*
X346086Y190120*
X343099Y190783D02*
X341096D01*
X336024Y184172*
Y188957*
X336031Y189135*
X336044Y189299*
X336072Y189450*
X336106Y189586*
X336154Y189716*
X336208Y189832*
X336277Y189935*
X336352Y190031*
X336434Y190106*
X336523Y190167*
X336625Y190222*
X336728Y190270*
X336844Y190304*
X336974Y190331*
X337111Y190352*
X337254Y190359*
Y190783*
X334301*
Y190359*
X334410*
X334513Y190352*
X334609Y190338*
X334697Y190325*
X334780Y190311*
X334848Y190290*
X334916Y190263*
X334978Y190236*
X335087Y190161*
X335183Y190058*
X335279Y189928*
X335367Y189778*
X335436Y189607*
X335490Y189429*
X335518Y189245*
X335531Y189053*
Y182368*
X336072*
X341315Y189251*
Y184172*
X341308Y184001*
X341294Y183844*
X341267Y183701*
X341226Y183571*
X341178Y183448*
X341116Y183331*
X341048Y183229*
X340966Y183140*
X340877Y183058*
X340768Y182990*
X340652Y182935*
X340529Y182887*
X340385Y182846*
X340235Y182819*
X340071Y182798*
X339893Y182791*
Y182368*
X343099*
Y182791*
X342955Y182805*
X342812Y182826*
X342682Y182860*
X342559Y182901*
X342443Y182956*
X342333Y183024*
X342238Y183099*
X342142Y183188*
X342060Y183284*
X341991Y183379*
X341930Y183489*
X341882Y183598*
X341841Y183714*
X341814Y183837*
X341800Y183967*
X341793Y184097*
Y189805*
X341896Y189908*
X341957Y189983*
X342019Y190051*
X342080Y190106*
X342128Y190161*
X342176Y190202*
X342217Y190236*
X342258Y190263*
X342292Y190277*
X342381Y190311*
X342477Y190338*
X342593Y190352*
X342716Y190359*
X343099*
Y190783*
X333686D02*
X329338D01*
X329099Y190776*
X328873Y190762*
X328655Y190735*
X328443Y190694*
X328244Y190646*
X328053Y190591*
X327868Y190523*
X327691Y190441*
X327486Y190325*
X327287Y190188*
X327096Y190038*
X326918Y189867*
X326740Y189675*
X326570Y189470*
X326412Y189245*
X326262Y188998*
X326125Y188746*
X326002Y188472*
X325906Y188192*
X325818Y187905*
X325756Y187597*
X325708Y187283*
X325681Y186955*
X325674Y186620*
X325681Y186339*
X325695Y186066*
X325722Y185792*
X325763Y185539*
X325811Y185287*
X325872Y185040*
X325941Y184801*
X326030Y184569*
X326098Y184398*
X326180Y184227*
X326269Y184070*
X326364Y183913*
X326474Y183762*
X326590Y183619*
X326713Y183482*
X326850Y183345*
X326993Y183215*
X327144Y183099*
X327301Y182990*
X327465Y182887*
X327636Y182791*
X327821Y182709*
X328005Y182627*
X328203Y182559*
X328354Y182518*
X328525Y182477*
X328702Y182443*
X328901Y182415*
X329106Y182395*
X329318Y182381*
X329550Y182368*
X329796*
X333686*
Y182791*
X332886*
X332749Y182798*
X332633Y182812*
X332537Y182846*
X332469Y182887*
X332421Y182942*
X332380Y183010*
X332360Y183092*
X332353Y183188*
Y189969*
X332360Y190058*
X332387Y190126*
X332421Y190195*
X332476Y190256*
X332544Y190297*
X332626Y190331*
X332722Y190352*
X332824Y190359*
X333686*
Y190783*
X330637Y190359D02*
X330753Y190352D01*
X330856Y190331*
X330945Y190297*
X331013Y190249*
X331068Y190188*
X331102Y190113*
X331129Y190024*
X331136Y189928*
Y183208*
X331129Y183113*
X331102Y183024*
X331054Y182956*
X330992Y182894*
X330910Y182853*
X330801Y182819*
X330671Y182798*
X330507Y182791*
X329789*
X329557Y182798*
X329324Y182819*
X329106Y182860*
X328894Y182914*
X328682Y182983*
X328484Y183072*
X328292Y183167*
X328108Y183284*
X327991Y183373*
X327889Y183468*
X327786Y183571*
X327691Y183680*
X327609Y183803*
X327527Y183933*
X327458Y184070*
X327390Y184213*
X327315Y184425*
X327246Y184658*
X327185Y184904*
X327137Y185177*
X327103Y185464*
X327075Y185772*
X327062Y186100*
X327055Y186449*
Y186708*
X327069Y186955*
X327082Y187194*
X327103Y187426*
X327123Y187652*
X327157Y187871*
X327198Y188076*
X327239Y188274*
X327287Y188458*
X327342Y188636*
X327404Y188807*
X327465Y188971*
X327540Y189128*
X327615Y189272*
X327697Y189409*
X327786Y189532*
X327957Y189723*
X328142Y189894*
X328347Y190038*
X328572Y190154*
X328819Y190243*
X329085Y190304*
X329372Y190345*
X329680Y190359*
X330637*
X344958Y182232D02*
X345352D01*
X347747D02*
X348508D01*
X328561Y182470D02*
X333686D01*
X335531D02*
X336150D01*
X339893D02*
X343099D01*
X344958D02*
X345418D01*
X346936D02*
X349494D01*
X327821Y182708D02*
X333686D01*
X335531D02*
X336331D01*
X339893D02*
X343099D01*
X344958D02*
X345484D01*
X346555D02*
X347484D01*
X348760D02*
X349993D01*
X327371Y182946D02*
X328796D01*
X331044D02*
X332419D01*
X335531D02*
X336512D01*
X340675D02*
X342464D01*
X344958D02*
X345551D01*
X346276D02*
X346931D01*
X349317D02*
X350363D01*
X327033Y183184D02*
X328265D01*
X331134D02*
X332353D01*
X335531D02*
X336694D01*
X341007D02*
X342145D01*
X344958D02*
X345625D01*
X346061D02*
X346638D01*
X349633D02*
X350655D01*
X326773Y183422D02*
X327938D01*
X331136D02*
X332353D01*
X335531D02*
X336875D01*
X341164D02*
X341967D01*
X344958D02*
X345699D01*
X345881D02*
X346442D01*
X349852D02*
X350899D01*
X326557Y183660D02*
X327708D01*
X331136D02*
X332353D01*
X335531D02*
X337056D01*
X341254D02*
X341860D01*
X344958D02*
X346298D01*
X350018D02*
X351100D01*
X326375Y183898D02*
X327549D01*
X331136D02*
X332353D01*
X335531D02*
X337237D01*
X341299D02*
X341807D01*
X344958D02*
X346200D01*
X350149D02*
X351275D01*
X326232Y184136D02*
X327427D01*
X331136D02*
X332353D01*
X335531D02*
X337419D01*
X341314D02*
X341793D01*
X344958D02*
X346136D01*
X350255D02*
X351423D01*
X326110Y184374D02*
X327333D01*
X331136D02*
X332353D01*
X335531D02*
X336024D01*
X336179D02*
X337600D01*
X341315D02*
X341793D01*
X344958D02*
X346099D01*
X350340D02*
X351552D01*
X326014Y184612D02*
X327260D01*
X331136D02*
X332353D01*
X335531D02*
X336024D01*
X336362D02*
X337781D01*
X341315D02*
X341793D01*
X344958D02*
X346087D01*
X350406D02*
X351664D01*
X325927Y184850D02*
X327198D01*
X331136D02*
X332353D01*
X335531D02*
X336024D01*
X336544D02*
X337963D01*
X341315D02*
X341793D01*
X344958D02*
X346086D01*
X350461D02*
X351760D01*
X325860Y185088D02*
X327153D01*
X331136D02*
X332353D01*
X335531D02*
X336024D01*
X336727D02*
X338144D01*
X341315D02*
X341793D01*
X344958D02*
X346086D01*
X350507D02*
X351838D01*
X325804Y185326D02*
X327119D01*
X331136D02*
X332353D01*
X335531D02*
X336024D01*
X336909D02*
X338325D01*
X341315D02*
X341793D01*
X344958D02*
X346086D01*
X350542D02*
X351902D01*
X325759Y185564D02*
X327094D01*
X331136D02*
X332353D01*
X335531D02*
X336024D01*
X337092D02*
X338506D01*
X341315D02*
X341793D01*
X344927D02*
X346110D01*
X350567D02*
X351951D01*
X325721Y185802D02*
X327074D01*
X331136D02*
X332353D01*
X335531D02*
X336024D01*
X337275D02*
X338688D01*
X341315D02*
X341793D01*
X344582D02*
X346483D01*
X350582D02*
X351988D01*
X325698Y186040D02*
X327064D01*
X331136D02*
X332353D01*
X335531D02*
X336024D01*
X337457D02*
X338869D01*
X341315D02*
X341793D01*
X343892D02*
X347419D01*
X350593D02*
X352016D01*
X325684Y186278D02*
X327058D01*
X331136D02*
X332353D01*
X335531D02*
X336024D01*
X337640D02*
X339050D01*
X341315D02*
X341793D01*
X350600D02*
X352034D01*
X325677Y186516D02*
X327055D01*
X331136D02*
X332353D01*
X335531D02*
X336024D01*
X337822D02*
X339232D01*
X341315D02*
X341793D01*
X350605D02*
X352040D01*
X325677Y186754D02*
X327058D01*
X331136D02*
X332353D01*
X335531D02*
X336024D01*
X338005D02*
X339413D01*
X341315D02*
X341793D01*
X350601D02*
X352035D01*
X325684Y186992D02*
X327071D01*
X331136D02*
X332353D01*
X335531D02*
X336024D01*
X338188D02*
X339594D01*
X341315D02*
X341793D01*
X350594D02*
X352020D01*
X325704Y187230D02*
X327085D01*
X331136D02*
X332353D01*
X335531D02*
X336024D01*
X338370D02*
X339776D01*
X341315D02*
X341793D01*
X350584D02*
X351995D01*
X325736Y187468D02*
X327107D01*
X331136D02*
X332353D01*
X335531D02*
X336024D01*
X338553D02*
X339957D01*
X341315D02*
X341793D01*
X350569D02*
X351961D01*
X325778Y187706D02*
X327131D01*
X331136D02*
X332353D01*
X335531D02*
X336024D01*
X338735D02*
X340138D01*
X341315D02*
X341793D01*
X345033D02*
X345428D01*
X350547D02*
X351915D01*
X325830Y187944D02*
X327172D01*
X331136D02*
X332353D01*
X335531D02*
X336024D01*
X338918D02*
X340319D01*
X341315D02*
X341793D01*
X345048D02*
X345502D01*
X350516D02*
X351852D01*
X325903Y188182D02*
X327220D01*
X331136D02*
X332353D01*
X335531D02*
X336024D01*
X339100D02*
X340501D01*
X341315D02*
X341793D01*
X345064D02*
X345586D01*
X350474D02*
X351774D01*
X325984Y188420D02*
X327277D01*
X331136D02*
X332353D01*
X335531D02*
X336024D01*
X339283D02*
X340682D01*
X341315D02*
X341793D01*
X345079D02*
X345676D01*
X350423D02*
X351684D01*
X326085Y188658D02*
X327350D01*
X331136D02*
X332353D01*
X335531D02*
X336024D01*
X339466D02*
X340863D01*
X341315D02*
X341793D01*
X345094D02*
X345775D01*
X350360D02*
X351580D01*
X326207Y188896D02*
X327437D01*
X331136D02*
X332353D01*
X335531D02*
X336024D01*
X339648D02*
X341045D01*
X341315D02*
X341793D01*
X345109D02*
X345885D01*
X350283D02*
X351452D01*
X326345Y189134D02*
X327543D01*
X331136D02*
X332353D01*
X335526D02*
X336031D01*
X339831D02*
X341226D01*
X341315D02*
X341793D01*
X345124D02*
X346009D01*
X350181D02*
X351305D01*
X326501Y189372D02*
X327675D01*
X331136D02*
X332353D01*
X335499D02*
X336058D01*
X340013D02*
X341793D01*
X345139D02*
X346151D01*
X350057D02*
X351140D01*
X326686Y189610D02*
X327856D01*
X331136D02*
X332353D01*
X335436D02*
X336115D01*
X340196D02*
X341793D01*
X345154D02*
X346329D01*
X349903D02*
X350947D01*
X326900Y189848D02*
X328092D01*
X331136D02*
X332353D01*
X335326D02*
X336219D01*
X340379D02*
X341836D01*
X345169D02*
X346548D01*
X349705D02*
X350724D01*
X327157Y190086D02*
X328440D01*
X331110D02*
X332371D01*
X335157D02*
X336412D01*
X340561D02*
X342058D01*
X345184D02*
X346823D01*
X349433D02*
X350459D01*
X327486Y190324D02*
X329225D01*
X330874D02*
X332609D01*
X334697D02*
X336940D01*
X340744D02*
X342427D01*
X345199D02*
X345973D01*
X346360D02*
X347208D01*
X349030D02*
X350136D01*
X327974Y190562D02*
X333686D01*
X334301D02*
X337254D01*
X340926D02*
X343099D01*
X345214D02*
X345841D01*
X346732D02*
X349732D01*
X345229Y190800D02*
X345710D01*
X347243D02*
X349169D01*
X0Y0D02*
M02*
