G04 EasyPC Gerber Version 21.0.3 Build 4286 *
G04 #@! TF.Part,Single*
G04 #@! TF.FileFunction,Soldermask,Bot *
G04 #@! TF.FilePolarity,Negative *
%FSLAX34Y34*%
%MOMM*%
%ADD70R,0.65000X1.00000*%
%ADD77R,0.80000X0.90000*%
%ADD29R,0.80000X1.00000*%
G04 #@! TA.AperFunction,SMDPad*
%ADD104R,0.90000X1.30000*%
G04 #@! TA.AperFunction,ComponentPad*
%ADD124C,1.80000*%
%ADD125C,2.60000*%
%ADD123C,3.20000*%
G04 #@! TA.AperFunction,WasherPad*
%ADD120C,5.50000*%
X0Y0D02*
D02*
D70*
X174885Y100852D02*
D03*
Y118852D02*
D03*
Y201852D02*
D03*
Y218852D02*
D03*
X180885Y79852D02*
D03*
X183885Y18852D02*
D03*
X190385Y100852D02*
D03*
Y118852D02*
D03*
Y201852D02*
D03*
Y218852D02*
D03*
X196385Y79852D02*
D03*
X199385Y18852D02*
D03*
X206885Y124852D02*
D03*
Y141852D02*
D03*
Y158852D02*
D03*
X222385Y124852D02*
D03*
Y141852D02*
D03*
Y158852D02*
D03*
X223885Y18852D02*
D03*
X239385D02*
D03*
X248885Y79852D02*
D03*
X264385D02*
D03*
X278885Y126852D02*
D03*
Y143852D02*
D03*
Y160852D02*
D03*
Y177852D02*
D03*
Y194852D02*
D03*
Y211852D02*
D03*
X294385Y126852D02*
D03*
Y143852D02*
D03*
Y160852D02*
D03*
Y177852D02*
D03*
Y194852D02*
D03*
Y211852D02*
D03*
D02*
D29*
X181135Y35742D02*
D03*
X190635Y59742D02*
D03*
X200135Y35742D02*
D03*
X223135D02*
D03*
X232635Y59742D02*
D03*
X242135Y35742D02*
D03*
D02*
D77*
X211135Y79852D02*
D03*
X234135D02*
D03*
D02*
D104*
X288635D02*
D03*
X308635D02*
D03*
D02*
D120*
X30635Y30852D02*
D03*
Y290852D02*
D03*
X370635D02*
D03*
D02*
D123*
X50635Y102086D02*
D03*
Y141711D02*
D03*
Y181336D02*
D03*
Y220961D02*
D03*
D02*
D124*
X363635Y111852D02*
D03*
Y136852D02*
D03*
Y161852D02*
D03*
Y186852D02*
D03*
D02*
D125*
X315635Y230852D02*
D03*
Y295852D02*
D03*
X0Y0D02*
M02*
