G04 EasyPC Gerber Version 21.0.3 Build 4286 *
G04 #@! TF.Part,Single*
G04 #@! TF.FileFunction,Soldermask,Top *
G04 #@! TF.FilePolarity,Negative *
%FSLAX34Y34*%
%MOMM*%
%ADD70R,0.65000X1.00000*%
%ADD94R,0.76000X1.60000*%
%ADD87R,1.60000X3.00000*%
G04 #@! TA.AperFunction,SMDPad*
%ADD122R,3.00000X5.00000*%
%ADD121R,1.65000X0.45000*%
G04 #@! TD.AperFunction*
%ADD71R,1.00000X0.65000*%
G04 #@! TA.AperFunction,ComponentPad*
%ADD124C,1.80000*%
%ADD125C,2.60000*%
%ADD123C,3.20000*%
G04 #@! TA.AperFunction,WasherPad*
%ADD120C,5.50000*%
X0Y0D02*
D02*
D70*
X183885Y27852D02*
D03*
Y45852D02*
D03*
X199385Y27852D02*
D03*
Y45852D02*
D03*
X224885Y27852D02*
D03*
Y45852D02*
D03*
X240385Y27852D02*
D03*
Y45852D02*
D03*
D02*
D71*
X320635Y113102D02*
D03*
Y128602D02*
D03*
Y143102D02*
D03*
Y158602D02*
D03*
Y172102D02*
D03*
Y187602D02*
D03*
D02*
D87*
X197635Y224852D02*
D03*
Y268852D02*
D03*
X258635Y225852D02*
D03*
Y269852D02*
D03*
D02*
D94*
X121585Y83878D02*
D03*
Y137836D02*
D03*
Y183878D02*
D03*
Y237836D02*
D03*
X134285Y83878D02*
D03*
Y137836D02*
D03*
Y183878D02*
D03*
Y237836D02*
D03*
X146985Y83878D02*
D03*
Y137836D02*
D03*
Y183878D02*
D03*
Y237836D02*
D03*
X159685Y83878D02*
D03*
Y137836D02*
D03*
Y183878D02*
D03*
Y237836D02*
D03*
D02*
D120*
X30635Y30852D02*
D03*
Y290852D02*
D03*
X370635D02*
D03*
D02*
D121*
X220635Y102352D02*
D03*
Y108852D02*
D03*
Y115352D02*
D03*
Y121852D02*
D03*
Y128352D02*
D03*
Y134852D02*
D03*
Y141352D02*
D03*
Y147852D02*
D03*
Y154352D02*
D03*
Y160852D02*
D03*
Y167352D02*
D03*
Y173852D02*
D03*
Y180352D02*
D03*
Y186852D02*
D03*
X287135Y102352D02*
D03*
Y108852D02*
D03*
Y115352D02*
D03*
Y121852D02*
D03*
Y128352D02*
D03*
Y134852D02*
D03*
Y141352D02*
D03*
Y147852D02*
D03*
Y154352D02*
D03*
Y160852D02*
D03*
Y167352D02*
D03*
Y173852D02*
D03*
Y180352D02*
D03*
Y186852D02*
D03*
D02*
D122*
X253975Y143990D02*
D03*
D02*
D123*
X50635Y102086D02*
D03*
Y141711D02*
D03*
Y181336D02*
D03*
Y220961D02*
D03*
D02*
D124*
X363635Y111852D02*
D03*
Y136852D02*
D03*
Y161852D02*
D03*
Y186852D02*
D03*
D02*
D125*
X315635Y230852D02*
D03*
Y295852D02*
D03*
X0Y0D02*
M02*
