G04 EasyPC Gerber Version 21.0.3 Build 4286 *
G04 #@! TF.Part,Single*
G04 #@! TF.FileFunction,Copper,L1,Top *
G04 #@! TF.FilePolarity,Positive *
%FSLAX34Y34*%
%MOMM*%
%ADD70R,0.65000X1.00000*%
%ADD94R,0.76000X1.60000*%
%ADD87R,1.60000X3.00000*%
G04 #@! TA.AperFunction,SMDPad*
%ADD122R,3.00000X5.00000*%
G04 #@! TD.AperFunction*
%ADD10C,0.12700*%
%ADD127C,0.20000*%
%ADD11C,0.25400*%
%ADD19C,0.30000*%
%ADD13C,0.60000*%
G04 #@! TA.AperFunction,ViaPad*
%ADD126C,0.81280*%
G04 #@! TA.AperFunction,SMDPad*
%ADD121R,1.65000X0.45000*%
G04 #@! TD.AperFunction*
%ADD71R,1.00000X0.65000*%
G04 #@! TA.AperFunction,ViaPad*
%ADD116C,1.21920*%
G04 #@! TA.AperFunction,ComponentPad*
%ADD124C,1.80000*%
%ADD125C,2.60000*%
%ADD123C,3.20000*%
G04 #@! TA.AperFunction,WasherPad*
%ADD120C,5.50000*%
X0Y0D02*
D02*
D10*
X140635Y163352D02*
X138135Y165852D01*
X130635*
X128135Y168352*
Y171490*
G75*
G02Y174214I6151J1362*
G01*
Y190852*
X120635Y198352*
X28135*
Y163352*
X95635*
X108135Y150852*
Y135852*
X115635Y128352*
X138135*
X140635Y130852*
Y163352*
G36*
X138135Y165852*
X130635*
X128135Y168352*
Y171490*
G75*
G02Y174214I6151J1362*
G01*
Y190852*
X120635Y198352*
X28135*
Y163352*
X95635*
X108135Y150852*
Y135852*
X115635Y128352*
X138135*
X140635Y130852*
Y163352*
G37*
X165635Y158352D02*
X156660Y167327D01*
G75*
G02X154160Y169827I3024J5524*
G01*
X153135Y170852*
Y193352*
X150635Y195852*
X140635*
Y168352*
X143135Y165852*
Y164762*
G75*
G02X143505Y163352I-2501J-1410*
G01*
G75*
G02Y163351I-541*
G01*
G75*
G02Y163347I-716J-2*
G01*
Y130857*
G75*
G02Y130853I-716J-2*
G01*
G75*
G02Y130852I-541*
G01*
G75*
G02X143135Y129442I-2871*
G01*
Y128352*
X140635Y125852*
X139545*
G75*
G02X138130Y125482I-1410J2500*
G01*
X115640*
G75*
G02X114225Y125852I-5J2870*
G01*
X113135*
X105635Y133352*
Y134442*
G75*
G02X105265Y135852I2501J1410*
G01*
G75*
G02Y135853I541J1*
G01*
G75*
G02Y135857I716J2*
G01*
Y148722*
X95635Y158352*
X28135*
Y123352*
X83135*
X103135Y103352*
X158135*
X165635Y110852*
Y158352*
G36*
X156660Y167327*
G75*
G02X154160Y169827I3024J5524*
G01*
X153135Y170852*
Y193352*
X150635Y195852*
X140635*
Y168352*
X143135Y165852*
Y164762*
G75*
G02X143505Y163352I-2501J-1410*
G01*
G75*
G02Y163351I-541*
G01*
G75*
G02Y163347I-716J-2*
G01*
Y130857*
G75*
G02Y130853I-716J-2*
G01*
G75*
G02Y130852I-541*
G01*
G75*
G02X143135Y129442I-2871*
G01*
Y128352*
X140635Y125852*
X139545*
G75*
G02X138130Y125482I-1410J2500*
G01*
X115640*
G75*
G02X114225Y125852I-5J2870*
G01*
X113135*
X105635Y133352*
Y134442*
G75*
G02X105265Y135852I2501J1410*
G01*
G75*
G02Y135853I541J1*
G01*
G75*
G02Y135857I716J2*
G01*
Y148722*
X95635Y158352*
X28135*
Y123352*
X83135*
X103135Y103352*
X158135*
X165635Y110852*
Y158352*
G37*
X173630Y203982D02*
X164646D01*
X170201Y198426*
G75*
G02X171270Y195852I-2566J-2575*
G01*
Y195177*
G75*
G02X180934Y189852I3365J-5325*
G01*
G75*
G02X177870Y184447I-6299*
G01*
Y181531*
G75*
G02X178349Y182141I2767J-1679*
G01*
X183346Y187138*
G75*
G02X185275Y188067I2289J-2286*
G01*
X186374Y189166*
G75*
G02X186336Y189852I6258J691*
G01*
G75*
G02X198934I6299*
G01*
G75*
G02X190343Y183985I-6299*
G01*
X188924Y182566*
G75*
G02X186995Y181637I-2289J2286*
G01*
X183870Y178512*
Y173902*
G75*
G02X188322Y175113I3765J-5051*
G01*
X192346Y179138*
G75*
G02X194635Y180087I2289J-2286*
G01*
X206635*
G75*
G02X208924Y179138J-3235*
G01*
X209210Y178852*
Y185777*
X210150*
Y191337*
X210868*
X197223Y204982*
X175824*
X175664Y204823*
G75*
G02X173630Y203982I-2030J2028*
G01*
G36*
X164646*
X170201Y198426*
G75*
G02X171270Y195852I-2566J-2575*
G01*
Y195177*
G75*
G02X180934Y189852I3365J-5325*
G01*
G75*
G02X177870Y184447I-6299*
G01*
Y181531*
G75*
G02X178349Y182141I2767J-1679*
G01*
X183346Y187138*
G75*
G02X185275Y188067I2289J-2286*
G01*
X186374Y189166*
G75*
G02X186336Y189852I6258J691*
G01*
G75*
G02X198934I6299*
G01*
G75*
G02X190343Y183985I-6299*
G01*
X188924Y182566*
G75*
G02X186995Y181637I-2289J2286*
G01*
X183870Y178512*
Y173902*
G75*
G02X188322Y175113I3765J-5051*
G01*
X192346Y179138*
G75*
G02X194635Y180087I2289J-2286*
G01*
X206635*
G75*
G02X208924Y179138J-3235*
G01*
X209210Y178852*
Y185777*
X210150*
Y191337*
X210868*
X197223Y204982*
X175824*
X175664Y204823*
G75*
G02X173630Y203982I-2030J2028*
G01*
G37*
X216635Y243852D02*
X211635Y248852D01*
X180635*
X174635Y254852*
Y257852*
X163635Y268852*
X67635*
X28635Y229852*
Y201852*
X118600*
G75*
G02X119069Y202426I3034J-2000*
G01*
X121061Y204418*
G75*
G02X121732Y204949I2575J-2564*
G01*
X123635Y206852*
X173635*
X174635Y207852*
X211635*
X216635Y212852*
Y217773*
G75*
G02X200364Y223852I-7000J6079*
G01*
G75*
G02X216635Y229931I9271*
G01*
Y243852*
G36*
X211635Y248852*
X180635*
X174635Y254852*
Y257852*
X163635Y268852*
X67635*
X28635Y229852*
Y201852*
X118600*
G75*
G02X119069Y202426I3034J-2000*
G01*
X121061Y204418*
G75*
G02X121732Y204949I2575J-2564*
G01*
X123635Y206852*
X173635*
X174635Y207852*
X211635*
X216635Y212852*
Y217773*
G75*
G02X200364Y223852I-7000J6079*
G01*
G75*
G02X216635Y229931I9271*
G01*
Y243852*
G37*
X394285Y272828D02*
G75*
G02X340900Y290852I-23650J18024D01*
G01*
G75*
G02X352611Y314502I29735*
G01*
X48659*
G75*
G02X60370Y290852I-18024J-23650*
G01*
G75*
G02X6985Y272828I-29735*
G01*
Y48876*
G75*
G02X60370Y30852I23650J-18024*
G01*
G75*
G02X48659Y7202I-29735*
G01*
X394285*
Y272828*
X363635Y199027D02*
G75*
G02X375810Y186852J-12175D01*
G01*
G75*
G02X363635Y174677I-12175*
G01*
G75*
G02X351460Y186852J12175*
G01*
G75*
G02X363635Y199027I12175*
G01*
X247460Y288027D02*
X269810D01*
Y251677*
X247460*
Y288027*
X299460Y295852D02*
G75*
G02X331810I16175D01*
G01*
G75*
G02X299460I-16175*
G01*
X352876Y165087D02*
G75*
G02X374870Y161852I10759J-3235D01*
G01*
G75*
G02X352876Y158617I-11235*
G01*
X350635*
G75*
G02X348346Y159566J3235*
G01*
X339045Y168867*
X327870*
Y166617*
X316359*
X313888Y164087*
X327870*
Y163652*
G75*
G02X337934Y158602I3765J-5050*
G01*
G75*
G02X327870Y153552I-6299*
G01*
Y153117*
X317612*
G75*
G02X317870Y151852I-2977J-1266*
G01*
Y148587*
X327870*
Y146337*
X345385*
G75*
G02X347674Y145388J-3235*
G01*
X352899Y140163*
G75*
G02X374870Y136852I10736J-3311*
G01*
G75*
G02X352876Y133617I-11235*
G01*
X351635*
G75*
G02X349346Y134566J3235*
G01*
X344045Y139867*
X327870*
Y137617*
X313400*
Y141012*
X312349Y142063*
G75*
G02X311400Y144352I2286J2289*
G01*
Y145732*
G75*
G02X309705Y144352I-4764J4121*
G01*
G75*
G02X308980Y133006I-3070J-5500*
G01*
G75*
G02X311486Y131837I-1345J-6155*
G01*
X313400*
Y134087*
X327870*
Y123117*
X313400*
Y124314*
G75*
G02X307758Y120554I-5765J2538*
G01*
X311975Y116337*
X313400*
Y118587*
X327870*
Y116337*
X352885*
G75*
G02X353321Y116307I-3J-3234*
G01*
G75*
G02X374870Y111852I10314J-4455*
G01*
G75*
G02X352792Y108909I-11235*
G01*
G75*
G02X351846Y109566I1342J2942*
G01*
X351545Y109867*
X327870*
Y107617*
X313400*
Y109867*
X310635*
G75*
G02X308346Y110816J3235*
G01*
X298560Y120602*
Y112087*
X302635*
G75*
G02X304924Y111138J-3235*
G01*
X310921Y105141*
G75*
G02X311417Y104504I-2284J-2290*
G01*
G75*
G02X314934Y98852I-2782J-5652*
G01*
G75*
G02X302336I-6299*
G01*
G75*
G02X303903Y103009I6299J-1*
G01*
X301295Y105617*
X297620*
Y97867*
X292446*
G75*
G02X294934Y92852I-3811J-5015*
G01*
G75*
G02X282336I-6299*
G01*
G75*
G02X283900Y97006I6299*
G01*
Y97867*
X278870*
Y30852*
G75*
G02X275995Y27637I-3235*
G01*
X260924Y12566*
G75*
G02X258635Y11617I-2289J2286*
G01*
X177635*
G75*
G02X175346Y12566J3235*
G01*
X168349Y19563*
G75*
G02X167400Y21852I2286J2289*
G01*
Y64852*
G75*
G02X168349Y67141I3235*
G01*
X168526Y67318*
G75*
G02X168336Y68852I6108J1535*
G01*
G75*
G02X180934I6299*
G01*
G75*
G02X173870Y62600I-6299*
G01*
Y23192*
X178975Y18087*
X257295*
X272346Y33138*
G75*
G02X272400Y33191I2303J-2293*
G01*
Y52932*
X257502Y38034*
G75*
G02X245870Y33204I-5867J-2292*
G01*
Y20617*
X234900*
Y26542*
X233923Y25565*
G75*
G02X231626Y24617I-2288J2287*
G01*
X230370*
Y20617*
X219400*
Y35087*
X229400*
Y38617*
X219400*
Y42117*
X216707*
G75*
G02X206563I-5072J3735*
G01*
X204870*
Y38617*
X194870*
Y35087*
X204870*
Y20617*
X193900*
Y24617*
X193635*
G75*
G02X191346Y25566J3235*
G01*
X189370Y27542*
Y20617*
X178400*
Y35087*
X180650*
Y38617*
X178400*
Y53087*
X188400*
Y53852*
G75*
G02X189349Y56141I3235*
G01*
X191526Y58318*
G75*
G02X191336Y59852I6108J1535*
G01*
G75*
G02X203934I6299*
G01*
G75*
G02X196101Y53743I-6299*
G01*
X195445Y53087*
X204870*
Y49587*
X206563*
G75*
G02X216707I5072J-3735*
G01*
X219400*
Y53087*
X229400*
Y56852*
G75*
G02X230349Y59141I3235*
G01*
X232346Y61138*
G75*
G02X234214Y62059I2288J-2287*
G01*
G75*
G02X245934Y58852I5421J-3207*
G01*
G75*
G02X242173Y53087I-6299*
G01*
X245870*
Y38617*
X243620*
Y35087*
X245370*
G75*
G02X252322Y42003I6265J654*
G01*
X268400Y58082*
Y170852*
G75*
G02X269349Y173141I3235*
G01*
X272346Y176138*
G75*
G02X274635Y177087I2289J-2286*
G01*
X276650*
Y191337*
X294545*
X296526Y193318*
G75*
G02X298000Y199117I6109J1534*
G01*
X282635*
G75*
G02X279989Y200215I-1J3735*
G01*
X274998Y205206*
G75*
G02X273900Y207852I2637J2645*
G01*
Y241305*
X271088Y244117*
X219493*
G75*
G02X219505Y243852I-2858J-262*
G01*
G75*
G02Y243851I-541*
G01*
G75*
G02Y243847I-716J-2*
G01*
Y229951*
G75*
G02Y229931I-3312J-10*
G01*
G75*
G02X217291Y227137I-2870*
G01*
G75*
G02Y220567I-7656J-3285*
G01*
G75*
G02X219505Y217773I-656J-2794*
G01*
G75*
G02Y217753I-3312J-10*
G01*
Y212857*
G75*
G02Y212853I-716J-2*
G01*
G75*
G02Y212852I-541*
G01*
G75*
G02X218664Y210823I-2870J1*
G01*
X213664Y205823*
G75*
G02X211630Y204982I-2030J2028*
G01*
X207787*
X221432Y191337*
X231120*
Y185777*
X232060*
Y174927*
X231120*
Y172115*
G75*
G02X231998Y173498I3516J-1262*
G01*
X233989Y175489*
G75*
G02X236635Y176587I2645J-2637*
G01*
X254088*
X254900Y177399*
Y208617*
X248400*
Y243087*
X268870*
Y208617*
X262370*
Y175852*
G75*
G02X261272Y173206I-3735J-1*
G01*
X258281Y170215*
G75*
G02X255635Y169117I-2645J2637*
G01*
X238370*
Y143860*
G75*
G02Y143854I-1629J-3*
G01*
G75*
G02Y143852I-1661J-1*
G01*
G75*
G02X237276Y141211I-3735*
G01*
X234776Y138711*
G75*
G02X232127Y137617I-2641J2641*
G01*
X231120*
Y97867*
X211370*
Y97399*
X218182Y90587*
X228563*
G75*
G02X239934Y86852I5072J-3735*
G01*
G75*
G02X228563Y83117I-6299*
G01*
X216635*
G75*
G02X213989Y84215I-1J3735*
G01*
X204998Y93206*
G75*
G02X203947Y95260I2637J2645*
G01*
G75*
G02X194230Y96617I-4312J4592*
G01*
X193635*
G75*
G02X191346Y97566J3235*
G01*
X183349Y105563*
G75*
G02X182400Y107852I2286J2289*
G01*
Y119194*
G75*
G02X182000Y120852I3236J1658*
G01*
Y146346*
X169661Y158685*
G75*
G02X168506Y152858I-6026J-1833*
G01*
Y110852*
G75*
G02X167661Y108818I-2871*
G01*
X160169Y101326*
G75*
G02X158135Y100481I-2034J2026*
G01*
X103135*
G75*
G02X101101Y101326J2871*
G01*
X81946Y120481*
X28135*
G75*
G02X25264Y123352J2871*
G01*
Y158352*
G75*
G02X26724Y160853I2871J1*
G01*
G75*
G02X25265Y163352I1410J2499*
G01*
Y198352*
G75*
G02X26147Y200422I2870*
G01*
G75*
G02X25765Y201852I2488J1431*
G01*
Y229847*
G75*
G02Y229851I716J2*
G01*
G75*
G02Y229852I541J1*
G01*
G75*
G02X26606Y231881I2870J-1*
G01*
X65606Y270881*
G75*
G02X67640Y271722I2030J-2028*
G01*
X163630*
G75*
G02X165664Y270881I4J-2869*
G01*
X176664Y259881*
G75*
G02X177505Y257852I-2029J-2030*
G01*
G75*
G02Y257851I-541*
G01*
G75*
G02Y257847I-716J-2*
G01*
Y256041*
X181824Y251722*
X186460*
Y287027*
X208810*
Y251722*
X211630*
G75*
G02X212505Y251587I5J-2869*
G01*
X272635*
G75*
G02X275281Y250489I1J-3735*
G01*
X280272Y245498*
G75*
G02X281370Y242852I-2637J-2645*
G01*
Y209399*
X284182Y206587*
X313627*
G75*
G02X316276Y205493I8J-3735*
G01*
X323276Y198493*
G75*
G02X324370Y195852I-2641J-2641*
G01*
G75*
G02Y195850I-1592J-1*
G01*
G75*
G02Y195844I-1606J-3*
G01*
Y193087*
X327870*
Y182117*
X313400*
Y193087*
X316900*
Y194305*
X312088Y199117*
X307270*
G75*
G02X306914Y190230I-4635J-4265*
G01*
G75*
G02X302101Y178743I-3279J-5378*
G01*
X301424Y178066*
G75*
G02X299135Y177117I-2289J2286*
G01*
X297620*
Y164487*
X304116*
X313400Y173992*
Y177587*
X327870*
Y175337*
X336400*
Y214512*
X328391Y222521*
G75*
G02X300400Y230852I-12756J8331*
G01*
G75*
G02X330870I15235*
G01*
G75*
G02X330788Y229274I-15236J1*
G01*
X341921Y218141*
G75*
G02X342870Y215852I-2286J-2289*
G01*
Y174192*
X351975Y165087*
X352876*
X140320Y74656D02*
G75*
G02X140584Y72852I-6034J-1804D01*
G01*
G75*
G02X127986I-6299*
G01*
G75*
G02X128250Y74656I6298*
G01*
Y94112*
X140320*
Y74656*
X165720Y74480D02*
G75*
G02X165934Y72852I-6086J-1628D01*
G01*
G75*
G02X153336I-6299*
G01*
G75*
G02X153650Y74816I6299*
G01*
Y94112*
X165720*
Y74480*
X278870Y80332D02*
G36*
Y30852D01*
G75*
G02X275995Y27637I-3237J2*
G01*
X260924Y12566*
G75*
G02X258635Y11617I-2291J2290*
G01*
X177635*
G75*
G02X175346Y12566I2J3239*
G01*
X168349Y19563*
G75*
G02X167400Y21852I2290J2291*
G01*
Y64852*
G75*
G02X168349Y67141I3239J-2*
G01*
X168526Y67318*
G75*
G02X168336Y68852I6137J1539*
G01*
G75*
G02X180934I6299*
G01*
G75*
G02Y68851I-8185*
G01*
G75*
G02X173870Y62600I-6298*
G01*
Y23192*
X178975Y18087*
X257295*
X272346Y33138*
G75*
G02X272400Y33191I1432J-1405*
G01*
Y52932*
X257502Y38034*
G75*
G02X257934Y35742I-5868J-2293*
G01*
G75*
G02X245870Y33204I-6299*
G01*
Y20617*
X234900*
Y26542*
X233923Y25565*
G75*
G02X231626Y24617I-2290J2292*
G01*
X230370*
Y20617*
X219400*
Y35087*
X229400*
Y38617*
X219400*
Y42117*
X216707*
G75*
G02X206563I-5072J3735*
G01*
X204870*
Y38617*
X194870*
Y35087*
X204870*
Y20617*
X193900*
Y24617*
X193635*
G75*
G02X191346Y25566I2J3239*
G01*
X189370Y27542*
Y20617*
X178400*
Y35087*
X180650*
Y38617*
X178400*
Y53087*
X188400*
Y53852*
G75*
G02X189349Y56141I3239J-2*
G01*
X191526Y58318*
G75*
G02X191336Y59852I6137J1539*
G01*
G75*
G02X203934I6299*
G01*
G75*
G02X196101Y53743I-6299*
G01*
X195445Y53087*
X204870*
Y49587*
X206563*
G75*
G02X216707I5072J-3735*
G01*
X219400*
Y53087*
X229400*
Y56852*
G75*
G02X230349Y59141I3239J-2*
G01*
X232346Y61138*
G75*
G02X234214Y62059I2288J-2287*
G01*
G75*
G02X245934Y58852I5421J-3207*
G01*
G75*
G02Y58850I-7639J-1*
G01*
G75*
G02X242173Y53087I-6296*
G01*
X245870*
Y38617*
X243620*
Y35087*
X245370*
G75*
G02X245336Y35742I6267J654*
G01*
G75*
G02X252322Y42003I6299*
G01*
X268400Y58082*
Y80332*
X165720*
Y74480*
G75*
G02X165934Y72852I-6117J-1632*
G01*
G75*
G02X153336I-6299*
G01*
G75*
G02X153650Y74816I6306J-1*
G01*
Y80332*
X140320*
Y74656*
G75*
G02X140584Y72858I-5993J-1798*
G01*
G75*
G02Y72852I-6875J-3*
G01*
G75*
G02X127986I-6299*
G01*
G75*
G02Y72858I6875J3*
G01*
G75*
G02X128250Y74656I6257*
G01*
Y80332*
X7620*
Y49680*
G75*
G02X60370Y30852I23015J-18828*
G01*
G75*
G02X49463Y7837I-29736*
G01*
X393650*
Y80332*
X278870*
G37*
X276650Y186852D02*
G36*
X262370D01*
Y175852*
G75*
G02Y175851I-3581*
G01*
G75*
G02X261272Y173206I-3735*
G01*
X258281Y170215*
G75*
G02X255635Y169117I-2645J2637*
G01*
X238370*
Y143860*
Y143854*
Y143852*
G75*
G02Y143851I-4407*
G01*
G75*
G02X237276Y141211I-3733*
G01*
X234776Y138711*
G75*
G02X232127Y137617I-2641J2641*
G01*
X231120*
Y97867*
X211370*
Y97399*
X218182Y90587*
X228563*
G75*
G02X239934Y86852I5072J-3735*
G01*
G75*
G02X228563Y83117I-6299*
G01*
X216635*
G75*
G02X213989Y84215I-1J3735*
G01*
X204998Y93206*
G75*
G02X203947Y95260I2640J2647*
G01*
G75*
G02X194230Y96617I-4312J4591*
G01*
X193635*
G75*
G02X191346Y97566I2J3239*
G01*
X183349Y105563*
G75*
G02X182400Y107852I2290J2291*
G01*
Y119194*
G75*
G02X182000Y120848I3220J1654*
G01*
G75*
G02Y120852I3820J2*
G01*
Y146346*
X169661Y158685*
G75*
G02X169934Y156851I-6022J-1834*
G01*
G75*
G02X168506Y152858I-6296*
G01*
Y110852*
G75*
G02X167661Y108818I-2876J2*
G01*
X160169Y101326*
G75*
G02X158135Y100481I-2036J2031*
G01*
X103135*
G75*
G02X101101Y101326I2J2876*
G01*
X81946Y120481*
X28135*
G75*
G02X25264Y123352J2871*
G01*
Y158352*
G75*
G02X26724Y160853I2874J-1*
G01*
G75*
G02X25265Y163350I1408J2497*
G01*
G75*
G02Y163352I3472J1*
G01*
Y186852*
X7620*
Y80332*
X128250*
Y94112*
X140320*
Y80332*
X153650*
Y94112*
X165720*
Y80332*
X268400*
Y170852*
G75*
G02X269349Y173141I3239J-2*
G01*
X272346Y176138*
G75*
G02X274635Y177087I2291J-2290*
G01*
X276650*
Y186852*
G37*
X254900D02*
G36*
X231120D01*
Y185777*
X232060*
Y174927*
X231120*
Y172115*
G75*
G02X231998Y173498I3513J-1260*
G01*
X233989Y175489*
G75*
G02X236635Y176587I2645J-2637*
G01*
X254088*
X254900Y177399*
Y186852*
G37*
X342870D02*
G36*
Y174192D01*
X351975Y165087*
X352876*
G75*
G02X374870Y161852I10759J-3235*
G01*
G75*
G02X352876Y158617I-11235*
G01*
X350635*
G75*
G02X348346Y159566I2J3239*
G01*
X339045Y168867*
X327870*
Y166617*
X316359*
X313888Y164087*
X327870*
Y163652*
G75*
G02X337934Y158602I3765J-5050*
G01*
G75*
G02X327870Y153552I-6299*
G01*
Y153117*
X317612*
G75*
G02X317870Y151852I-2971J-1265*
G01*
Y148587*
X327870*
Y146337*
X345385*
G75*
G02X347674Y145388I-2J-3239*
G01*
X352899Y140163*
G75*
G02X374870Y136852I10736J-3311*
G01*
G75*
G02X352876Y133617I-11235*
G01*
X351635*
G75*
G02X349346Y134566I2J3239*
G01*
X344045Y139867*
X327870*
Y137617*
X313400*
Y141012*
X312349Y142063*
G75*
G02X311400Y144352I2290J2291*
G01*
Y145732*
G75*
G02X309705Y144352I-4762J4118*
G01*
G75*
G02X312934Y138852I-3070J-5500*
G01*
G75*
G02X308980Y133006I-6299*
G01*
G75*
G02X311486Y131837I-1340J-6143*
G01*
X313400*
Y134087*
X327870*
Y123117*
X313400*
Y124314*
G75*
G02X307758Y120554I-5765J2537*
G01*
X311975Y116337*
X313400*
Y118587*
X327870*
Y116337*
X352885*
G75*
G02X353321Y116307I-16J-3423*
G01*
G75*
G02X374870Y111852I10314J-4455*
G01*
G75*
G02X352792Y108909I-11235*
G01*
G75*
G02X351846Y109566I1351J2955*
G01*
X351545Y109867*
X327870*
Y107617*
X313400*
Y109867*
X310635*
G75*
G02X308346Y110816I2J3239*
G01*
X298560Y120602*
Y112087*
X302635*
G75*
G02X304924Y111138I-2J-3239*
G01*
X310921Y105141*
G75*
G02X311417Y104504I-2283J-2289*
G01*
G75*
G02X314934Y98853I-2781J-5651*
G01*
G75*
G02Y98852I-5730*
G01*
G75*
G02X302336I-6299*
G01*
G75*
G02X303903Y103009I6302J-2*
G01*
X301295Y105617*
X297620*
Y97867*
X292446*
G75*
G02X294934Y92852I-3810J-5015*
G01*
G75*
G02X282336I-6299*
G01*
G75*
G02X283900Y97006I6301J-1*
G01*
Y97867*
X278870*
Y80332*
X393650*
Y186852*
X375810*
G75*
G02X363635Y174677I-12175*
G01*
G75*
G02X351460Y186852J12175*
G01*
X342870*
G37*
X336400D02*
G36*
X327870D01*
Y182117*
X313400*
Y186852*
X309608*
G75*
G02X309933Y184852I-5974J-1997*
G01*
G75*
G02X302101Y178743I-6299*
G01*
X301424Y178066*
G75*
G02X299135Y177117I-2291J2290*
G01*
X297620*
Y164487*
X304116*
X313400Y173992*
Y177587*
X327870*
Y175337*
X336400*
Y186852*
G37*
X25265D02*
G36*
Y198352D01*
G75*
G02X26147Y200422I2874J-1*
G01*
G75*
G02X25765Y201851I2482J1429*
G01*
G75*
G02Y201852I3183J1*
G01*
Y229847*
Y229851*
Y229852*
G75*
G02X26606Y231881I2874J-2*
G01*
X64577Y269852*
X51687*
G75*
G02X9583I-21052J21000*
G01*
X7620*
Y186852*
X25265*
G37*
X186460Y269852D02*
G36*
X166693D01*
X176664Y259881*
G75*
G02X177505Y257852I-2033J-2031*
G01*
Y257851*
Y257847*
Y256041*
X181824Y251722*
X186460*
Y269852*
G37*
X342870Y186852D02*
G36*
X351460D01*
G75*
G02X363635Y199027I12175*
G01*
G75*
G02X375810Y186852J-12175*
G01*
X393650*
Y269852*
X391687*
G75*
G02X349583I-21052J21000*
G01*
X269810*
Y251677*
X247460*
Y269852*
X208810*
Y251722*
X211630*
G75*
G02X212505Y251587J-2903*
G01*
X272635*
G75*
G02X275281Y250489I1J-3735*
G01*
X280272Y245498*
G75*
G02X281370Y242853I-2637J-2645*
G01*
G75*
G02Y242852I-3581*
G01*
Y209399*
X284182Y206587*
X313627*
G75*
G02X316276Y205493I8J-3735*
G01*
X323276Y198493*
G75*
G02X324370Y195853I-2639J-2640*
G01*
G75*
G02Y195852I-4407*
G01*
Y195850*
Y195844*
Y193087*
X327870*
Y186852*
X336400*
Y214512*
X328391Y222521*
G75*
G02X300400Y230852I-12756J8331*
G01*
G75*
G02X330870I15235*
G01*
G75*
G02X330788Y229274I-15597J19*
G01*
X341921Y218141*
G75*
G02X342870Y215852I-2290J-2291*
G01*
Y186852*
G37*
X276650D02*
G36*
Y191337D01*
X294545*
X296526Y193318*
G75*
G02X296336Y194853I6105J1535*
G01*
G75*
G02X298000Y199117I6295*
G01*
X282635*
G75*
G02X279989Y200215I-1J3735*
G01*
X274998Y205206*
G75*
G02X273900Y207851I2637J2645*
G01*
G75*
G02Y207852I3581J1*
G01*
Y241305*
X271088Y244117*
X219493*
G75*
G02X219505Y243853I-2900J-264*
G01*
G75*
G02Y243852I-3820*
G01*
Y243851*
Y243847*
Y229951*
Y229931*
G75*
G02X217291Y227137I-2872J2*
G01*
G75*
G02X217966Y223852I-7656J-3285*
G01*
G75*
G02X217291Y220567I-8331*
G01*
G75*
G02X219505Y217773I-658J-2796*
G01*
Y217753*
Y212857*
Y212853*
Y212852*
G75*
G02X218664Y210823I-2874J2*
G01*
X213664Y205823*
G75*
G02X211630Y204982I-2031J2031*
G01*
X207787*
X221432Y191337*
X231120*
Y186852*
X254900*
Y208617*
X248400*
Y243087*
X268870*
Y208617*
X262370*
Y186852*
X276650*
G37*
X313400D02*
G36*
Y193087D01*
X316900*
Y194305*
X312088Y199117*
X307270*
G75*
G02X308934Y194852I-4634J-4265*
G01*
G75*
G02X306914Y190230I-6298*
G01*
G75*
G02X309608Y186852I-3279J-5378*
G01*
X313400*
G37*
X9583Y269852D02*
G36*
G75*
G02X7620Y272024I21054J21001D01*
G01*
Y269852*
X9583*
G37*
X393650Y272024D02*
G36*
G75*
G02X391687Y269852I-23017J18829D01*
G01*
X393650*
Y272024*
G37*
X341323Y295852D02*
G36*
X331810D01*
G75*
G02X299460I-16175*
G01*
X59947*
G75*
G02X60370Y290854I-29307J-4997*
G01*
G75*
G02Y290852I-38197J-1*
G01*
G75*
G02X51687Y269852I-29736*
G01*
X64577*
X65606Y270881*
G75*
G02X67640Y271722I2031J-2031*
G01*
X163630*
G75*
G02X165664Y270881I3J-2872*
G01*
X166693Y269852*
X186460*
Y287027*
X208810*
Y269852*
X247460*
Y288027*
X269810*
Y269852*
X349583*
G75*
G02X340900Y290852I21052J21000*
G01*
G75*
G02X341323Y295852I29739J2*
G01*
G37*
X351807Y313867D02*
G36*
X49463D01*
G75*
G02X59947Y295852I-18826J-23014*
G01*
X299460*
G75*
G02X331810I16175*
G01*
X341323*
G75*
G02X351807Y313867I29313J-5001*
G01*
G37*
D02*
D11*
X190533Y261750D02*
X185825Y257042D01*
X190533Y275954D02*
X185825Y280662D01*
X204737Y261750D02*
X209445Y257042D01*
X204737Y275954D02*
X209445Y280662D01*
X204809Y223852D02*
X199729D01*
X209635Y219026D02*
Y213946D01*
Y228678D02*
Y233758D01*
X213655Y180352D02*
X208575D01*
X221635Y201646D02*
Y206726D01*
X224429Y198852D02*
X229509D01*
X227615Y180352D02*
X232695D01*
X237841Y226852D02*
X232761D01*
X240635Y224058D02*
Y218978D01*
Y229646D02*
Y234726D01*
X246841Y123852D02*
X241761D01*
X246841Y135852D02*
X241761D01*
X246841Y147852D02*
X241761D01*
X246841Y159852D02*
X241761D01*
X249635Y121058D02*
Y115978D01*
Y126646D02*
Y131726D01*
Y133058D02*
Y127978D01*
Y138646D02*
Y143726D01*
Y145058D02*
Y139978D01*
Y150646D02*
Y155726D01*
Y157058D02*
Y151978D01*
Y162646D02*
Y167726D01*
X251533Y262750D02*
X246825Y258042D01*
X251533Y276954D02*
X246825Y281662D01*
X252429Y123852D02*
X257509D01*
X252429Y135852D02*
X257509D01*
X252429Y147852D02*
X257509D01*
X252429Y159852D02*
X257509D01*
X258841Y123852D02*
X253761D01*
X258841Y135852D02*
X253761D01*
X258841Y147852D02*
X253761D01*
X258841Y159852D02*
X253761D01*
X261635Y121058D02*
Y115978D01*
Y126646D02*
Y131726D01*
Y133058D02*
Y127978D01*
Y138646D02*
Y143726D01*
Y145058D02*
Y139978D01*
Y150646D02*
Y155726D01*
Y157058D02*
Y151978D01*
Y162646D02*
Y167726D01*
X265737Y262750D02*
X270445Y258042D01*
X265737Y276954D02*
X270445Y281662D01*
X294115Y115352D02*
X299195D01*
X303905Y295852D02*
X298825D01*
X315635Y284122D02*
Y279042D01*
Y307582D02*
Y312662D01*
X327365Y295852D02*
X332445D01*
X355905Y186852D02*
X350825D01*
X363635Y179122D02*
Y174042D01*
Y194582D02*
Y199662D01*
X371365Y186852D02*
X376445D01*
D02*
D13*
X119635Y57852D02*
X94635D01*
X50635Y101852*
Y102086*
X121585Y83878D02*
Y59802D01*
X119635Y57852*
X121585Y137836D02*
X134285D01*
X121585D02*
Y183878D01*
X89177*
X86635Y181336*
X50635*
X121585Y237836D02*
Y258852D01*
X133285*
X134285Y257852*
Y237836*
X121585D02*
Y258852D01*
X87635*
X50635Y221852*
Y220961*
X146985Y83878D02*
Y61202D01*
X143635Y57852*
X119635*
X146985Y137836D02*
Y123202D01*
X143635Y119852*
X106494*
X84635Y141711*
X50635*
X146985Y137836D02*
Y183878D01*
Y237836D02*
Y258852D01*
X134285*
Y237836*
X159685Y137836D02*
X146985D01*
X159685Y237836D02*
Y258852D01*
X146985*
Y237836*
X197635Y224852D02*
X185619D01*
X172635Y237836*
X159685*
D02*
D19*
X197635Y224852D02*
X208635D01*
X209635Y223852*
X199385Y45852D02*
X211635D01*
X224885*
X220635Y141352D02*
X232135D01*
X234635Y143852*
Y170852*
X236635Y172852*
X255635*
X258635Y175852*
Y225852*
X220635Y186852D02*
X198635Y208852D01*
Y223852*
X197635Y224852*
X233635Y86852D02*
X216635D01*
X207635Y95852*
Y106852*
X209635Y108852*
X220635*
X307635Y126852D02*
X299635Y134852D01*
X287135*
X320635Y187602D02*
Y195852D01*
X313635Y202852*
X282635*
X277635Y207852*
Y242852*
X272635Y247852*
X199635*
X195635Y243852*
Y226852*
X197635Y224852*
X331635Y158602D02*
X320635D01*
D02*
D70*
X183885Y27852D02*
D03*
Y45852D02*
D03*
X199385Y27852D02*
D03*
Y45852D02*
D03*
X224885Y27852D02*
D03*
Y45852D02*
D03*
X240385Y27852D02*
D03*
Y45852D02*
D03*
D02*
D71*
X320635Y113102D02*
D03*
Y128602D02*
D03*
Y143102D02*
D03*
Y158602D02*
D03*
Y172102D02*
D03*
Y187602D02*
D03*
D02*
D87*
X197635Y224852D02*
D03*
Y268852D02*
D03*
X258635Y225852D02*
D03*
Y269852D02*
D03*
D02*
D94*
X121585Y83878D02*
D03*
Y137836D02*
D03*
Y183878D02*
D03*
Y237836D02*
D03*
X134285Y83878D02*
D03*
Y137836D02*
D03*
Y183878D02*
D03*
Y237836D02*
D03*
X146985Y83878D02*
D03*
Y137836D02*
D03*
Y183878D02*
D03*
Y237836D02*
D03*
X159685Y83878D02*
D03*
Y137836D02*
D03*
Y183878D02*
D03*
Y237836D02*
D03*
D02*
D116*
X209635Y223852D02*
D03*
D02*
D120*
X30635Y30852D02*
D03*
Y290852D02*
D03*
X370635D02*
D03*
D02*
D121*
X220635Y102352D02*
D03*
Y108852D02*
D03*
Y115352D02*
D03*
Y121852D02*
D03*
Y128352D02*
D03*
Y134852D02*
D03*
Y141352D02*
D03*
Y147852D02*
D03*
Y154352D02*
D03*
Y160852D02*
D03*
Y167352D02*
D03*
Y173852D02*
D03*
Y180352D02*
D03*
Y186852D02*
D03*
X287135Y102352D02*
D03*
Y108852D02*
D03*
Y115352D02*
D03*
Y121852D02*
D03*
Y128352D02*
D03*
Y134852D02*
D03*
Y141352D02*
D03*
Y147852D02*
D03*
Y154352D02*
D03*
Y160852D02*
D03*
Y167352D02*
D03*
Y173852D02*
D03*
Y180352D02*
D03*
Y186852D02*
D03*
D02*
D122*
X253975Y143990D02*
D03*
D02*
D123*
X50635Y102086D02*
D03*
Y141711D02*
D03*
Y181336D02*
D03*
Y220961D02*
D03*
D02*
D124*
X363635Y111852D02*
D03*
Y136852D02*
D03*
Y161852D02*
D03*
Y186852D02*
D03*
D02*
D125*
X315635Y230852D02*
D03*
Y295852D02*
D03*
D02*
D126*
X134285Y72852D02*
D03*
Y172852D02*
D03*
X159635Y72852D02*
D03*
X159685Y172852D02*
D03*
X163635Y156852D02*
D03*
X174635Y68852D02*
D03*
Y189852D02*
D03*
X187635Y168852D02*
D03*
X192635Y189852D02*
D03*
X197635Y59852D02*
D03*
Y167852D02*
D03*
X198635Y110852D02*
D03*
Y131852D02*
D03*
Y142852D02*
D03*
Y152852D02*
D03*
X199635Y99852D02*
D03*
X211635Y45852D02*
D03*
X221635Y198852D02*
D03*
X233635Y86852D02*
D03*
X239635Y58852D02*
D03*
X240635Y226852D02*
D03*
X249635Y123852D02*
D03*
Y135852D02*
D03*
Y147852D02*
D03*
Y159852D02*
D03*
X251635Y35742D02*
D03*
X261635Y123852D02*
D03*
Y135852D02*
D03*
Y147852D02*
D03*
Y159852D02*
D03*
X288635Y92852D02*
D03*
X302635Y194852D02*
D03*
X303635Y184852D02*
D03*
X306635Y138852D02*
D03*
Y149852D02*
D03*
X307635Y126852D02*
D03*
X308635Y98852D02*
D03*
X331635Y158602D02*
D03*
D02*
D127*
X134285Y72852D02*
Y83878D01*
Y183878D02*
Y172852D01*
X159635Y72852D02*
Y83828D01*
X159685Y83878*
Y172852D02*
Y183878D01*
X163635Y156852D02*
X183885Y45852*
Y27852D01*
X185635Y120852D02*
Y147852D01*
X170635Y162852*
Y179852*
X167635Y182852*
Y195852*
X161635Y201852*
X123635*
X121635Y199852*
Y186928*
X121585Y186878*
Y183878*
X187635Y168852D02*
Y169852D01*
X194635Y176852*
X206635*
X209635Y173852*
X220635*
X198635Y110852D02*
X203135Y115352D01*
X220635*
X198635Y142852D02*
X199635D01*
Y141352*
X220635*
X198635Y152852D02*
X220135D01*
X220635Y153352*
Y154352*
X199385Y27852D02*
X193635D01*
X191635Y29852*
Y53852*
X197635Y59852*
X199635Y99852D02*
X193635D01*
X185635Y107852*
Y120852*
X220635Y121852D02*
X210635D01*
X209635Y120852*
X185635*
X220635Y128352D02*
X211135D01*
X207635Y124852*
X191635*
X189635Y126852*
Y153852*
X186635Y156852*
X182635*
X174635Y164852*
Y189852*
X220635Y134852D02*
X209885D01*
X206885Y131852*
X198635*
X220635Y160852D02*
X184635D01*
X180635Y164852*
Y179852*
X185635Y184852*
X186635*
X191635Y189852*
X192635*
X220635Y167352D02*
X198135D01*
X197635Y167852*
X239635Y58852D02*
X234635D01*
X232635Y56852*
Y28852*
X231635Y27852*
X224885*
X240385Y45852D02*
Y27852D01*
X287135Y102352D02*
Y94352D01*
X288635Y92852*
X287135Y141352D02*
X306635D01*
Y138852*
X287135Y147852D02*
X306635D01*
Y149852*
X287135Y167352D02*
X276135D01*
X275635Y166852*
Y30852*
X274635*
X258635Y14852*
X177635*
X170635Y21852*
Y64852*
X174635Y68852*
X287135Y173852D02*
X274635D01*
X271635Y170852*
Y56742*
X251635Y36742*
Y35742*
X287135Y180352D02*
X299135D01*
X303635Y184852*
X287135Y186852D02*
X294635D01*
X302635Y194852*
X308635Y98852D02*
Y102852D01*
X302635Y108852*
X287135*
X320635Y113102D02*
X352885D01*
X354135Y111852*
X363635*
X320635Y113102D02*
X310635D01*
X300635Y123102*
Y125852*
X298135Y128352*
X287135*
X320635Y128602D02*
X309385D01*
X307635Y126852*
X320635Y143102D02*
X315885D01*
X314635Y144352*
Y151852*
X309635Y156852*
X300635*
X299635Y155852*
X287135*
Y154352*
X320635Y143102D02*
X345385D01*
X351635Y136852*
X363635*
X320635Y172102D02*
X339635D01*
Y215852*
X324635Y230852*
X315635*
X320635Y172102D02*
X340385D01*
X350635Y161852*
X363635*
X320635Y172102D02*
Y171852D01*
X316635*
X306135Y161352*
Y160852*
X287135*
X0Y0D02*
M02*
